<mxfile host="app.diagrams.net" modified="2023-05-30T06:46:33.191Z" agent="Mozilla/5.0 (Macintosh; Intel Mac OS X 10_15_7) AppleWebKit/537.36 (KHTML, like Gecko) Chrome/113.0.0.0 Safari/537.36" etag="HsjjcWSfwdr80OjUWOxY" version="21.3.0" type="github">
  <diagram name="Page-1" id="2t5pdsoEpThYl480XnNJ">
    <mxGraphModel dx="1026" dy="541" grid="1" gridSize="10" guides="1" tooltips="1" connect="1" arrows="1" fold="1" page="1" pageScale="1" pageWidth="827" pageHeight="1169" math="0" shadow="0">
      <root>
        <mxCell id="0" />
        <mxCell id="1" parent="0" />
        <mxCell id="tOrK9hFt-kMtYHbN_-x5-1" value="&lt;b&gt;&lt;font style=&quot;font-size: 14px;&quot;&gt;Crestron&lt;font style=&quot;&quot;&gt;&amp;nbsp;Data Flow&lt;/font&gt;&lt;/font&gt;&lt;/b&gt;" style="rounded=1;whiteSpace=wrap;html=1;fillColor=#d5e8d4;strokeColor=#82b366;" parent="1" vertex="1">
          <mxGeometry x="110" y="30" width="580" height="40" as="geometry" />
        </mxCell>
        <mxCell id="tOrK9hFt-kMtYHbN_-x5-2" value="" style="image;aspect=fixed;html=1;points=[];align=center;fontSize=12;image=img/lib/azure2/compute/Function_Apps.svg;" parent="1" vertex="1">
          <mxGeometry x="272" y="190" width="68" height="60" as="geometry" />
        </mxCell>
        <mxCell id="tOrK9hFt-kMtYHbN_-x5-3" value="" style="endArrow=classic;html=1;rounded=0;" parent="1" edge="1">
          <mxGeometry width="50" height="50" relative="1" as="geometry">
            <mxPoint x="340" y="220" as="sourcePoint" />
            <mxPoint x="500" y="220" as="targetPoint" />
          </mxGeometry>
        </mxCell>
        <mxCell id="tOrK9hFt-kMtYHbN_-x5-10" value="" style="endArrow=classic;html=1;rounded=0;" parent="1" edge="1">
          <mxGeometry width="50" height="50" relative="1" as="geometry">
            <mxPoint x="570" y="220" as="sourcePoint" />
            <mxPoint x="660" y="220" as="targetPoint" />
          </mxGeometry>
        </mxCell>
        <UserObject label="PartnerId" placeholders="1" name="Variable" id="tOrK9hFt-kMtYHbN_-x5-25">
          <mxCell style="text;html=1;strokeColor=none;fillColor=none;align=center;verticalAlign=middle;whiteSpace=wrap;overflow=hidden;" parent="1" vertex="1">
            <mxGeometry x="665.11" y="256.75" width="80" height="20" as="geometry" />
          </mxCell>
        </UserObject>
        <mxCell id="tOrK9hFt-kMtYHbN_-x5-27" value="&lt;b&gt;&amp;nbsp;Telemetry Data Flow&lt;/b&gt;" style="rounded=1;whiteSpace=wrap;html=1;fillColor=#ffe6cc;strokeColor=#d79b00;" parent="1" vertex="1">
          <mxGeometry x="230" y="90" width="340" height="40" as="geometry" />
        </mxCell>
        <mxCell id="tOrK9hFt-kMtYHbN_-x5-29" value="" style="html=1;verticalLabelPosition=bottom;align=center;labelBackgroundColor=#ffffff;verticalAlign=top;strokeWidth=2;strokeColor=#0080F0;shadow=0;dashed=0;shape=mxgraph.ios7.icons.alarm_clock;" parent="1" vertex="1">
          <mxGeometry x="272" y="233.25" width="20" height="23.5" as="geometry" />
        </mxCell>
        <mxCell id="tOrK9hFt-kMtYHbN_-x5-31" value="" style="shape=image;verticalLabelPosition=bottom;labelBackgroundColor=default;verticalAlign=top;aspect=fixed;imageAspect=0;image=data:image/png,iVBORw0KGgoAAAANSUhEUgAAAGQAAABkCAYAAABw4pVUAAAMP2lDQ1BJQ0MgUHJvZmlsZQAASImVVwdYU8kWnluSkEBooUsJvQkiNYCUEFoA6UWwEZIAocQYCCp2ZFHBtaBiARu6KqLYAbEjioVFsfcFERVlXSzYlTcpoOu+8r3zfXPvf/85858z584tA4DaKY5IlIOqA5ArzBfHhgTQxyWn0ElPAQJIQAfgQJnDzRMxo6MjALSh89/t3U3oDe2ag1Trn/3/1TR4/DwuAEg0xGm8PG4uxIcAwKu4InE+AEQpbz4tXyTFsAEtMUwQ4kVSnCHHVVKcJsf7ZD7xsSyIWwBQUuFwxBkAqF6BPL2AmwE1VPshdhLyBEIA1OgQ++bmTuFBnAqxDfQRQSzVZ6T9oJPxN820YU0OJ2MYy+ciM6VAQZ4ohzPj/yzH/7bcHMlQDCvYVDLFobHSOcO63c6eEi7FKhD3CdMioyDWhPiDgCfzhxilZEpCE+T+qCE3jwVrBu8zQJ14nMBwiA0hDhbmREYo+LR0QTAbYrhC0OmCfHY8xHoQL+LnBcUpfDaLp8QqYqH16WIWU8Gf54hlcaWxHkqyE5gK/deZfLZCH1MtzIxPgpgCsUWBIDESYlWIHfOy48IVPmMKM1mRQz5iSaw0fwuIY/nCkAC5PlaQLg6OVfiX5uYNzRfbnClgRyrwgfzM+FB5fbAWLkeWP5wLdoUvZCYM6fDzxkUMzYXHDwySzx17xhcmxCl0PojyA2LlY3GKKCda4Y+b8XNCpLwZxK55BXGKsXhiPlyQcn08XZQfHS/PEy/M4oRFy/PBl4MIwAKBgA4ksKWBKSALCNr7GvrglbwnGHCAGGQAPnBQMEMjkmQ9QniMA4XgT4j4IG94XICslw8KIP91mJUfHUC6rLdANiIbPIE4F4SDHHgtkY0SDkdLBI8hI/hHdA5sXJhvDmzS/n/PD7HfGSZkIhSMZCgiXW3IkxhEDCSGEoOJtrgB7ot74xHw6A+bM87APYfm8d2f8ITQQXhEuEHoJNyZLCgS/5TlWNAJ9YMVtUj7sRa4FdR0wwNwH6gOlXEd3AA44K4wDhP3g5HdIMtS5C2tCv0n7b/N4Ie7ofAjO5FRsi7Zn2zz80hVO1W3YRVprX+sjzzXtOF6s4Z7fo7P+qH6PHgO/9kTW4QdxFqx09gF7BjWAOjYSawRa8OOS/Hw6nosW11D0WJl+WRDHcE/4g3dWWkl85xqnXqdvsj78vnTpe9owJoimiEWZGTm05nwi8Cns4Vcx5F0ZydnFwCk3xf56+tNjOy7gei0fecW/AGAz8nBwcGj37mwkwDs94CP/5HvnA0DfjqUATh/hCsRF8g5XHogwLeEGnzS9IExMAc2cD7OwB14A38QBMJAFIgHyWASzD4TrnMxmAZmgfmgBJSB5WA1WA82ga1gJ9gDDoAGcAycBufAJXAF3AD34OrpAS9AP3gHPiMIQkKoCA3RR0wQS8QecUYYiC8ShEQgsUgykopkIEJEgsxCFiBlSDmyHtmC1CD7kSPIaeQC0oHcQbqQXuQ18gnFUBVUCzVCrdBRKANlouFoPDoRzUCnooVoMboUXYtWo7vRevQ0egm9gXaiL9ABDGDKmA5mijlgDIyFRWEpWDomxuZgpVgFVo3VYU3wPl/DOrE+7CNOxGk4HXeAKzgUT8C5+FR8Dr4EX4/vxOvxFvwa3oX3498IVIIhwZ7gRWATxhEyCNMIJYQKwnbCYcJZ+Cz1EN4RiUQdojXRAz6LycQs4kziEuIG4l7iKWIHsZs4QCKR9En2JB9SFIlDyieVkNaRdpNOkq6SekgflJSVTJSclYKVUpSESkVKFUq7lE4oXVV6qvSZrE62JHuRo8g88gzyMvI2chP5MrmH/JmiQbGm+FDiKVmU+ZS1lDrKWcp9yhtlZWUzZU/lGGWB8jzltcr7lM8rdyl/VNFUsVNhqUxQkagsVdmhckrljsobKpVqRfWnplDzqUupNdQz1IfUD6o0VUdVtipPda5qpWq96lXVl2pkNUs1ptoktUK1CrWDapfV+tTJ6lbqLHWO+hz1SvUj6rfUBzRoGqM1ojRyNZZo7NK4oPFMk6RppRmkydMs1tyqeUazm4bRzGksGpe2gLaNdpbWo0XUstZia2VplWnt0WrX6tfW1HbVTtSerl2pfVy7UwfTsdJh6+ToLNM5oHNT55OukS5Tl6+7WLdO96rue70Rev56fL1Svb16N/Q+6dP1g/Sz9VfoN+g/MMAN7AxiDKYZbDQ4a9A3QmuE9wjuiNIRB0bcNUQN7QxjDWcabjVsMxwwMjYKMRIZrTM6Y9RnrGPsb5xlvMr4hHGvCc3E10RgssrkpMlzujadSc+hr6W30PtNDU1DTSWmW0zbTT+bWZslmBWZ7TV7YE4xZ5inm68ybzbvtzCxGGsxy6LW4q4l2ZJhmWm5xrLV8r2VtVWS1UKrBqtn1nrWbOtC61rr+zZUGz+bqTbVNtdtibYM22zbDbZX7FA7N7tMu0q7y/aovbu9wH6DfcdIwkjPkcKR1SNvOag4MB0KHGoduhx1HCMcixwbHF+OshiVMmrFqNZR35zcnHKctjndG605Omx00eim0a+d7Zy5zpXO112oLsEuc10aXV652rvyXTe63najuY11W+jW7PbV3cNd7F7n3uth4ZHqUeVxi6HFiGYsYZz3JHgGeM71POb50cvdK9/rgNdf3g7e2d67vJ+NsR7DH7NtTLePmQ/HZ4tPpy/dN9V3s2+nn6kfx6/a75G/uT/Pf7v/U6YtM4u5m/kywClAHHA44D3LizWbdSoQCwwJLA1sD9IMSghaH/Qw2Cw4I7g2uD/ELWRmyKlQQmh46IrQW2wjNpddw+4P8wibHdYSrhIeF74+/FGEXYQ4omksOjZs7Mqx9yMtI4WRDVEgih21MupBtHX01OijMcSY6JjKmCexo2NnxbbG0eImx+2KexcfEL8s/l6CTYIkoTlRLXFCYk3i+6TApPKkznGjxs0edynZIFmQ3JhCSklM2Z4yMD5o/OrxPRPcJpRMuDnReuL0iRcmGUzKmXR8stpkzuSDqYTUpNRdqV84UZxqzkAaO60qrZ/L4q7hvuD581bxevk+/HL+03Sf9PL0Zxk+GSszejP9Misy+wQswXrBq6zQrE1Z77OjsndkD+Yk5ezNVcpNzT0i1BRmC1umGE+ZPqVDZC8qEXVO9Zq6emq/OFy8PQ/Jm5jXmK8Ff+TbJDaSXyRdBb4FlQUfpiVOOzhdY7pwetsMuxmLZzwtDC78bSY+kzuzeZbprPmzumYzZ2+Zg8xJm9M813xu8dyeeSHzds6nzM+e/3uRU1F50dsFSQuaio2K5xV3/xLyS22Jaom45NZC74WbFuGLBIvaF7ssXrf4Wymv9GKZU1lF2Zcl3CUXfx3969pfB5emL21f5r5s43LicuHymyv8Vuws1ygvLO9eOXZl/Sr6qtJVb1dPXn2hwrVi0xrKGsmazrURaxvXWaxbvu7L+sz1NyoDKvdWGVYtrnq/gbfh6kb/jXWbjDaVbfq0WbD59paQLfXVVtUVW4lbC7Y+2Za4rfU3xm812w22l23/ukO4o3Nn7M6WGo+aml2Gu5bVorWS2t7dE3Zf2RO4p7HOoW7LXp29ZfvAPsm+5/tT9988EH6g+SDjYN0hy0NVh2mHS+uR+hn1/Q2ZDZ2NyY0dR8KONDd5Nx0+6nh0xzHTY5XHtY8vO0E5UXxi8GThyYFTolN9pzNOdzdPbr53ZtyZ6y0xLe1nw8+ePxd87kwrs/XkeZ/zxy54XThykXGx4ZL7pfo2t7bDv7v9frjdvb3+ssflxiueV5o6xnScuOp39fS1wGvnrrOvX7oReaPjZsLN27cm3Oq8zbv97E7OnVd3C+5+vjfvPuF+6QP1BxUPDR9W/2H7x95O987jXYFdbY/iHt3r5na/eJz3+EtP8RPqk4qnJk9rnjk/O9Yb3Hvl+fjnPS9ELz73lfyp8WfVS5uXh/7y/6utf1x/zyvxq8HXS97ov9nx1vVt80D0wMN3ue8+vy/9oP9h50fGx9ZPSZ+efp72hfRl7Vfbr03fwr/dH8wdHBRxxBzZrwAGG5qeDsDrHQBQkwGgwf0ZZbx8/yczRL5nlSHwn7B8jygzdwDq4P97TB/8u7kFwL5tcPsF9dUmABBNBSDeE6AuLsNtaK8m21dKjQj3AZsjv6blpoF/Y/I95w95/3wGUlVX8PP5XzJkfDVDEdhoAAAAOGVYSWZNTQAqAAAACAABh2kABAAAAAEAAAAaAAAAAAACoAIABAAAAAEAAABkoAMABAAAAAEAAABkAAAAAAxz/HsAAApCSURBVHgB7Z17bBxHGcC/2T3fnR/xI+dH3CaliYjjtCKlQJRUSZzQP0gbiaoVTREUBPzTCqSoNKGo/7RCRUJINIUWJErEH5V4tEDbRH2lTYUIjkPSVKoEqNSOUZM4Jql9sRvH8cU+3+7wfeeuvXu3d3u3M7t39u5Ip92dmW/mm++3O6+dmwUIXWiB0AKhBUILhBYILRBaILRAaIHQAqEF/LUA8zc7d7ltGRzbrHK+1530nJTG2FPH1yZOiqThh2zEj0xE82CatooztlskHabrf0H5qgeiiBQylJVvgRCIfJsKpRgCETKffOEQiHybCqXoG5AdH1y8UUjTCgr7qbsvQLadHt2jKcpAT3/yrnLtetv7E8uBwefKlcuLj2lk08oLKO5BOpPuVIbiMeWEej4OyRZEh6eBMcxLTzOu7O7tbnulmPo73h9doUfY/QD8Xp3DRhRVi8UvNYxzrqESp7AL/WIkw/949Ob2j4rJEgzOqLusRAGFQYGHjnW1/7KYjGiYp0CsMAxVC0PZ3p/8os5gLwd+BwPm6RgJ88goHA7rnD3Vt77tqKGdcbTAMDx9gOIZEHsYRsmsULYMjN6Jj8ATHNgXjBj+Hvm7eP8/3tfd/iblawvDUMhjKJ4AKQ7DKJmeBlD3Ade/jNXZlwzfih45PwJMeRVA25+tpgop4yEU6UB6Ticf5Dr/9VybUahES8AfoXAFvt/X1f6MzNJIBRIYGAYBD6BIAxI4GB5BkQIksDA8gCIMJPAwJEMRAhLCMGh8cpTQprgG0tP/0Woc8fYX7R7m6BuMSxpj8e7e7hVn3JTX9VwWZagDuxsHVDNuMl6aMtmx1VfdwiCbuH5CDIPSKJtxdhBnqmKGXzCPczCOrWs9JFJ+YSCUeQhFDgyypRQgwYYiDwbZ0XUbQsJmd3xd+2GcJv+B2S8Y5+o+0WrKbCdpQLKJ0kRhwJwO2j0yiywNSM/A6K6qmbWVaSGHtBRQbt/2wchOh2glB0sDwnX2eMm5LrWICvuxrCJJAdLTf+l2bI02yVJq8aXDNm4bTG6XobcUIJzxh2Uos5jTYBrfJ0N/4W7vpg9HOmpm2bDX78BlFNbLNOgdfSQDq5wWTjjpIPyExDLKN4MOg4xMNtAi7GtOBncKFwaCy2O+4pRJUMJxkca9omUVqrK2/utyC0TTSVnrpkQLU2l5nH3XYjze8df1jWNudXEEsn1w7DZN01baZoCrAfFRfdQ2rARPNcVg2amoJebUZ2ZhNqFb/HIv2CgH+N20xbvp883Zaz3GYfoGDdLXa5bw3Iv4WRXiZyOQTqbh2lBqPjiyLAL1XQ2g1eswuXF23r/UE2xLfgoc3rOLr6rq8N/XJk7YhRl+jovRkPrD+AQI/VnGyCz32PJmHK5/pt7iPb5rGs7/8KrFL/eC/UeDoQNDFu8Nnass19NrMnDxwRRc2YSrjWxc09EYrHiuDs6lLsLpiYW0EtEmuCnRCdM3ajDw3Mc2ksW9sjdogdscbUl/GioKRLwNKa5f0dDEq/G88JYjcYiOiKsV/zACqx9thLY/1eblUc0e4iV3WbqG92ogfiZ/yS7LALS+JMmIWLNd92w9LHvXWi26VNkXsYoBaT1U2OiJV+KgThRWTYli2xOps/xSXRmgX6Ylp/1BKJ2/qcszptasZ6slpVG1pFMbjWX909cVb4PyEpTk4diGSMrHkkzNmAKN/yh81yrTDFoPxWHkWwuNrTmBSGcUetpuNXvBPw9cmrtGAB1/qIMVv12AUPvfCMT+p8KMqaG/dPc00C9xsA56nl5I6+pnZ2HgF+W3HRZlBC4K34YCiTqJ0hNAVZPh9FoOV7ZYG9+2l+NAYMp2KDJyfwoy+ASYXWw4v3o0h1fLue9ACMTy16yN+fjOGbjwwBTgWtl5R1XW8tet8eYDHU5YBvs6s1aYuoqPziJwJhP4o23TsRhQlWV2Y3dNw8ynNJjcbH1K2l+oBcX0JJllCp1HxhVY+WQDqFMmIHg6s7oybUIhPQv5+96GtB603vVTt8wCjRnIjXwjZWlbapIKNL8dh/E7rYNAu8LcsqPVzjvrd/VW58FmQWGfA6y3qseZ0+i4/t81llyoYTVc6qYMTG2wjo7bn68FZm0OjOglHXmUw4XvTZUUtxoi+fqEtB7Erm5OVb5qfwOsxJ/hFGutBbEhFRqPR2FiW06AIVDkqMc5nHtsEq59usx6r0iaXgf5CqSxL7+rq1w11fUFStv8t1hZQKjXNoG9tpHvpCxd3QLJV5W3r0CY23a1hCpr8MDlrGEzTTpkcHJSdygZjXMSODhNDo9Bb3JwHkrTsQZY9+01QAPDMz+5Mu/v14mD2n6pIZ4PjdLLceplBWd7VdBT2LvLLAxAo2mc0kH/SrmKArnw3SmYtqnfW96KQ8uRYC4VriiQa+syQFMVua4upyeWG76Urx2B4LuQn+tzm3/l26HMF1T0nkNJLzTi9M7Bzk1sn4EZU1i6zRpvtl2Hcz+atBMt2W9ix1we6WQUVg3dMC9HL6jOdU1mX1DNe5ZxUuwFlaIow05JLVjHKaZNePgK12oUGa9whQaGfRuaP0aip6xqBfcKa5OTIu/TyXJCQCgBVOIlOoYOLcDhRVE7CAOZqdF/T4vERBVZ7PJkA1XjL4iWQxjIO2s6RmhXHVFFFrs8rsl6XXTVItlAGAglQlsc0THILgIcN6wRd0K9LHP2+P+QE3iXbDb7BeWcc/1UX3eHlNX/Up4QMjyOFJ4ICoDccipq5LFcP7fX0oDQfwxxI4G33CqyWOWwijncuzZxRJb+0oCQQozDa7IUWyzpYDX9hkxdZbYhu7Bxfzl4GwhwnIxT7pP1T1wpQOgPn8GEYTwb8qAIAwlhyIUiBCSEYcAwjuJPimsg4fZMBoTcYwW3Z+JM2ZPd8TlXp6Be4/w7dv0fqej2TFtPJx9gOn92yW8L63STEQwJ28a6rrLM+gUeiiQYZFMpQCihwEKRCEMqkEBCkQxDOpBAQfEABtlP6lwWJdjX1XYAU33IufdFO7GxPdU0ITmnC9tD3zmhshR0CIPKKHvfd8pPOhBKNPvRk6JQ5j5XgfM/v+rrar0DdB1/8A7JVsIx4CeZouwkXUgn+uhMQSifwPDqwy7SGnU7Q9p/tsL67RCzXHaLI67vxc78Lto7xBwm+5zegTPG38B89vd2tffmpm/7DRGPYZAOngKhDKxQCsOguIajHYais8rXs3uHcH0TrmyRstgW7YlfYGUnaXVIOqo/T+sBjDztjhYoPsAgHTwHQplkoXD+ZCnfn6L4Zkcf8lIjM49kd0gwB5R5TisKtUzsZydubhovR3QeCm7w6VU1ZdbHFyCUIX167uj6zrPmzEs939o/uhvv7D+XGt8uHt7g9+EnjWhri7KdiO7lZuZJo26nhFsYdmn57een7r4B8duIizW/EEiVkQuBhECqzAJVpo6ngy9ZZeWqel6Z2/zLdZK6opx3LRwKhhYILRBaILRAaIHQAqEFQguEFggtEFpgCVvg//+p3R0P79etAAAAAElFTkSuQmCC;" parent="1" vertex="1">
          <mxGeometry x="120" y="195" width="53" height="53" as="geometry" />
        </mxCell>
        <mxCell id="tOrK9hFt-kMtYHbN_-x5-36" value="" style="endArrow=classic;html=1;rounded=0;entryX=1;entryY=0.5;entryDx=0;entryDy=0;" parent="1" target="tOrK9hFt-kMtYHbN_-x5-31" edge="1">
          <mxGeometry width="50" height="50" relative="1" as="geometry">
            <mxPoint x="270" y="220" as="sourcePoint" />
            <mxPoint x="510" y="230" as="targetPoint" />
          </mxGeometry>
        </mxCell>
        <UserObject label="Crestron&amp;nbsp;APIs" placeholders="1" name="Variable" id="tOrK9hFt-kMtYHbN_-x5-37">
          <mxCell style="text;html=1;strokeColor=none;fillColor=none;align=center;verticalAlign=middle;whiteSpace=wrap;overflow=hidden;" parent="1" vertex="1">
            <mxGeometry x="110" y="180" width="80" height="20" as="geometry" />
          </mxCell>
        </UserObject>
        <UserObject label="Event hub namespace" placeholders="1" name="Variable" id="tOrK9hFt-kMtYHbN_-x5-38">
          <mxCell style="text;html=1;strokeColor=none;fillColor=none;align=center;verticalAlign=middle;whiteSpace=wrap;overflow=hidden;" parent="1" vertex="1">
            <mxGeometry x="485.89" y="160" width="80" height="30" as="geometry" />
          </mxCell>
        </UserObject>
        <UserObject label="Azure function" placeholders="1" name="Variable" id="tOrK9hFt-kMtYHbN_-x5-39">
          <mxCell style="text;html=1;strokeColor=none;fillColor=none;align=center;verticalAlign=middle;whiteSpace=wrap;overflow=hidden;" parent="1" vertex="1">
            <mxGeometry x="266" y="166" width="80" height="20" as="geometry" />
          </mxCell>
        </UserObject>
        <mxCell id="hd3xNhnKDJkrJA63kzbW-7" value="" style="shape=image;verticalLabelPosition=bottom;labelBackgroundColor=default;verticalAlign=top;aspect=fixed;imageAspect=0;image=data:image/png,iVBORw0KGgoAAAANSUhEUgAAAZgAAAFxCAYAAABOcL4fAAAAAXNSR0IArs4c6QAAIABJREFUeF7svQmUZFd5Jvi9LSL3rH1VlUpVQkZYSAIEZhFLe2kJ2z0e6Dkz9vEG2MZjIxCb7Tnt7p45ntPuNjR4AYSX8Yox2AZhdolNaAEhkC0BtkBLaal9yarcM5b33n1zvv/eG/EiKrJiy6zKyLrvqJSZEW+577//vd+//97vnMyy2//pKB577HFUEwXl+fCCCGmqgCACsgyAB33wd/5zh6OAo8CKUIDry+P68mVteUjgZZn8xiPwgGfvGMfrf/Q63LjPw+jMMVyxZRQjYxPIsgyez+vc4SiwNingPe9Pj2bf+973UanGCKOCAAz8EGmawQsjZEo5gFmbc+dGtS4oYAW4ZoDRwBH6wGg8i63lQ/ib3/01bFw6hUm/gm07dsIPwnVBAfcS65cC3ug7v5otLpUwNDwC+AGqcSI/lcqcBrN+59292ZqhgAEYCnZiHLAajC86jA+FCTWPyfkn8eHfuwUblk5iLFvEnj2Xw/ODNfMWbiCOAq0o4EVv/UpGVTuICgIumcrgU5OBJwzsNBjHOI4Cq0mBHMDwMZkBGAEcD4GXYah8BgcKM3jfb/0CdmEaw8k8du66DL4zj63mxLh7rwAFPP+tdxmniidaixeEAjYJfTAN/hfh/roPRr6j9cz6Z1ZgNO4WjgKXHAXOBRhNAuNbiWNM+kuYnD+ID/33W7C1choj6QIu33fFJUcp98KDRwEveMd9osForKD/JQCtY1maajxpkJIcwAzeFLsRr20KWIChuUsWnhHijPkrrmLrsMLk/BP4i9/5FUzOH8cEyth3xRUi/zn5bm3P7qU+Og9vvZdcrQEmCMVEJpwbmggyq6nIGQ5gLnWGce+/0hTIAwyXmAUY4+QPAnhzx7DXO40//a+/gj3eLIbiOezYuQthGNTiO1d6VO5+jgIrQQHPe+c3skyRqam8hFBGc/HCEFmS5EQkG55sfjoT2UrQ393jkqfAMgBjfDBQChNYwJbyIfzZ//3L2LR0AhuDCi7bsxe+7zmAueT5Z20TwMPbv96U2NLKp9IELqLMOB/M2p5aN7rBoMByGgxNZJ78N1Kdxs7kGP70v74B26pTGE0XsO+KfbIEfecCHYxpvkRH6eHt97fJnGwBLg5gLlF2ca+9shQw5mg6Ujzjc8mYdyb2hBzAzGBnctQBzMoS393tAlCgDcAsAy4OYC7A1LhHrH8KWJ9mZwDzJ/+FGsxpjKbzuGL/fqfBrH8GGfg3bGEia36nZRQcZyIb+Ml3L3CxKcCCMEqXhRENxjNOfo4rbyKbwY74CP70v/4StlZOYUwtCMDwcBayiz2H7vnno4CHt3/NFRdzPOIocFEokMHLUmQSaxzogBqJIjN/y88MI/FsA8BQgzlw4MBFGbF7qKNANxRwANMNtdy5jgIrSoEMvgAMYcTWFbM+GP7dCDB/8l+owZwUE9mVV165oiNxN3MUWA0KLA8wDfkvLmN/NYjv7nmpU0AJwPBQXmSIcX6A2VI+ISYyBzCXOu8MxvuvAMDYvBhrM+bfXCTagelRPIOnUznFYGyrxxrrsTPQDQanrMtR1qokmbdr1ZZC82+jt0PBM9Fe2rzVqyfEaDBcH9YHAw042gejKyxrE9lR0MlvAYYmMs+l8a9LrlxPL9WniYwLlAvCB9QQwOQwLwW8BEAsuTKhYtE+H8r3oDwG7huAUYF87vrLrCd2Gqx3oYOdwpDIQOTh2obNOnxmoydPy2ZvTVb8LkGoqiI2JV6ITM7p9bASli4V47HYpYyKPhldYXk0ncP2+Cj++LdfbwBmHs961rN6faC7zlHgglGgT4DhAuVCDAA1rBepT4CJAa+qASYNBUhSKQ5LgDEmAKU/dwBzwebaPaiJAgQINvgSXdsL9YYuf2kQ4feZAA/BhSYsfq+/i1RFvo/7Bhir2ut7+xmFswxKAE0D10g6hx3xMXzwt1+HrWIicwDjmHkwKNAnwFhzGNGjYKRAlpfhIjESoIrgZb4GF2o3BCB24lPsd+FDifTYq4lhMIjsRrlWKaAQ0MnOYGEBEauJcKOP4QvAaG0iEx+J+T7jdQYIPPJ2v/xrO1ouDzDbq0fxwd9+PbaWj2M80z4YZyJbq3zlxmUpsAIAY0xemXFSEkQILh41FQM8tEHI31q7of3ap/aSeUhZ66LvBeom1FGgBwqwD5L4UjykTQBDALEOeGoxBCBttpKQL8lf4S9132IPz69d4gCmH+q5a9cuBfoEGL6YBRgt3Xlg2KWNhKFd2Up+BB6aHarwMzpJ6dj0kfblJF27hHUjGwwKBBlBgnBhTWQct9ZgCD4aSNhXMkDqBcZkZrtPEmlsQEs/79sZwNz2n6jBHBMNhj4Yp8H0Q3N37YWgwAoAjBlmxsquNjM5yyWPGeeoSIqUCmMTU8azKRn2a164EGRyz1ivFKhFOdaiuLTQRGe7jxS+CdcnwKgawGgtRqsyqw8ww8kstInsDdhSOooJLDqAWa8Muc7ea+UARpolEWCk8IWAh0TXNBTxy4d3mrBmqwStM8K61xkQCtQ06HwkmHX0U4PRUV6aq8nPVqCyAGPrifXzvufXYCzA3Paf3oCtZQcw/VDaXXthKbCyACOSn30BAzU1DaXW18xEmxmAUSshAV5YormnrSMKtDTR5kHDMrQWmzTa2O9XqqVkdwBDE9lVV13lTGTriA3X66v0DzD59dekjRBi2HUvLi0hKDJPJkBaqiKY2IC0XDGVMNJa0lovRG5nh7btoJe798W+vt072/Et9x79jt+4qZcdRruWVu2ub/t+fUQQ8t3bze9yz6+Nu9YS3ICGgIfuw6KLT3q6bTj/jisIixFUrHNgbISZDm/u52jvg9mZHMcf/sYviqmMeTFXX311Pw901zoKXBAKrBzAyHBNRJiAjhLXKNIYw8PDWFxYAoICwtEJJHPzQBTB52KtlmtmiAvyxk0PsRvUcht1uw2s3Qa/Uu/Ubhy9AuiFGn+vdMi/90qOlffVEWBGM2FkY60lOF37BBUfSJUGGEY7KobgU4NR8H1ztqlU0ev76es6B5htlSMCMM95znP6e6S72lHgAlCgf4DhIGuxmgQYk6yWpeIkDbNUVPnEi5AmCigMy3rNygtgq2YvKvaXR9BNkEBzfbVOCGzv38u1tQ3sPA9qd9/m9+u2Rly7+7f7vhMareVzJKy4XT0imnZtxJjxH5pM+sLwMKqzs4jGxxBXysLr4egYksWSfmtRXmzUZK+EaA8wTLTMazAOYHqltbvuQlJgZQCGMhjDjmvlNnQJGWYlh2mKICyglALB8CjSxQWEUYbxdAFhloD50J1GkrWS4vuVars1QfWqSfQ6qc3vt9LPb0e/ds9b7et7pVun10n+LzlXAEaHLOvoRt1RUqkUWaYQxzFGxiewlHioJh4wtgmoxiaheHUBhk5+msj+4J2/ICYyZvLTRNaO9p3SwJ3nKLBaFOgfYIyFwZeUfE9qjunwzRSeSjHkBahUU6hwGAhZUqaEoXgG25MpXLd/l+TMnE++XG6Da2faakew812/nFmm3WZ7vmeutA+l07H0uwm1e067+7e7vt08dft9V89jRj50eL3N51IiKNVjIdmvZXRkGOVKBRWEeOzYDGbUEJbCSWTFMaQJM/r7Pdo7+VtpMO1o3++o3PWOAv1SoH+AEYuYh4B5lJKZT7OBKYKZZfArKYZHJ7EYe0DoAckMNiZTePcv/y940YHovODCl2u2brT7u5kgy1lIzmc1yX+3nIWsrdWlxcx0es1y53V6ff7R7a6RIL7zHO027H6/b8fAzfdv/ns5R3+7cfG5HsPqmZ8lfn2juTDfxeS40IdY8BVKSwuIhoZRDUcx4wO3/r8fwsLILsyXAUjwSr+5XJ0BTF6DoYnMAUw77nHfX2wKrADA6KSzINHm6FgARukENAUUUUClkgHRqJSJGSqW8KIdAW5744sxMl8SpaZTG3arTaOTjaRxw22tLy23keUXcbvNrpPJbHePVhuoBtrOxt08hm7p0+317e7f7/fdjKfds+y96udJtpbRX3QiZZLp8Hm6+VkuJlIlFMIApThFubABx7JN+ONPfR3fPFrBbDa8+qViPA/DMVsmH2swkTmA6WS1uXMuNgX6BxgjvfmpTkUTDUaSYVjU0oOX+AgLY4i5cNMlhN4cbrwswm1veCW2JzMIglx+QQfU6HQTWe5WnUjArUxk7YChg6HLKcsBSKvvOnnXdue0k3JVGxWm3f3bfd+OLr1e3yvgNo4nk+AwBoKpLJByMFLYUvK5+FuCohdDJTEWShUshhtwtrgb/+1Dd+AbJzKUh7ZA2bL+7V70vN+fR4NxANMXZd3FF5cC/QOMbqZhSmbwF1vy3ACMFyGrhXJWUcAibtw7jA+87uXYUj2DqBBiYnJC1H1uGvmfF5c07umXBgV0sUvTFEb/mmsiQR8MZahnnnwGs3GEU/4WvPdjd+G+E8B8OLlClcDPAzBZhtFsAQxPpomMP0eSWVx77bWXxvS4txxoCvQHMPTlS9FKaxbjymQMsrFty5+RWbGUCGOEWQkvu3xEAGZz5TSiYoTJyckGe7IFmoGmrBv8gFDAZufn/CjUaMzo2ZmFgQAEmJlqgDPBJrznY3fhXgGYjRccYLaWD0sejAOYAWGvS3yYFwVgXrp3GLe9/hUCMGEhxIYNGxzAXOKMePFefzAAhsBiNRgHMBePW9yTu6PA6gOM9Nmg3aGuwRBgPvC6V2BL1QFMd9Plzl55CnQHMFP+Rrz341+94BqMBRirwVx33XUrTwp3R0eBFabARQWYzZVTYiJzGswKz6q7XRcU6Bxgpit+zUR230nvgprICCy//46fFx8MNRgHMF1MsTv1olHgggJM6CUI1BKsBkOAoYls48aNLqb/orHApf7g8wOMLhwDPH3wafHBWA1GACbaVCuw3B8V2zv5t5QO1QCGmfwOYPqjuLv6wlDgogHM+3+RPpiTNQ2GxQPd4Shw4SnQOcBYDYYmsosJMNRgrr/++gtPKvdER4EuKeAApkuCudPXGwUGC2BoKqMG4wBmvfHh+nyf1QcYVqX1WYMslTDlCGW8+LIi3vcLdPKfFBPZli1batS1IcpMAHRazfpkurX1Vp0DzNmyJz6Y37/9bq3BBBtM9fB+36izasrvvvVnQIBhHswLXvCCfh/qrncUWHUKOIBZdRK7B6xtCnQGME898RQIMGfDzXWAuRB5MABG0jkpFfOut/x0LdHSAcza5io3Ok2BiwYwf/TzzOTXPhinwTh2vHgU6A5gqMH8wSfu0RqMA5iLN23uyQNBgTUHMJZqLpt/IPhnHQyyc4A5U4JoMBcDYNgHJq/B3HDDDeuA9u4V1jsFLirAbK6cEA1m69at59DZAcx6Z7218n6dAcyTjz8pJjKrwXztlH9BNRgHMGuFX9w4uqHARQOYP/y5G2smMgcw3UyZO3dlKdA5wOQ1mAsNMEywtBoMw5SdBrOyXODutjoUuCgA80O7C8j7YBzArM7kurt2QoHuAMZqMF8/HVwwDYYtk60GY0vFvPCFL+zk5dw5jgIXlQIe3navbuSi/5c7ztelr74oWU1ZVztnkzGWT5YOYrqJGJtkseKyH0gpfh8xhlDCi3cV8Ae/cCM2SaJlAdu2bVshE1lDofUVqnTbZn6kGyL/Z+vv6l7utj1YnYr6E/u5/Yutrfrth3hROWjAH64M/WXGbFM3qabMVmRsPsEzgIOPPYGpEnAm2oo/uP1efH0qlP4wbVuytqOP6aZpFg/YHkDzianh52W64Vj1KH7vzf8HtlWOYiSdxw0v1D6YOqe1e9B6/r7/FdR+5zh3Ra9niq7Uu3l485eyqFiEUhlSNp+SHsPkXF/nr5zTSTE3FQQP5rnIkSKT5mMFs7FzoaTwVYwgjBBXM4QFH8XKWbxi3zDe9bMvwUTpGIaGR7Ft+w4BIAEh30dXOTBmX+Bw9SYfgyXWgRCeXaTyPpZkzZ0h+2BO6auWAgEJkUDJJuVL8yrfD5EoIPTto/ltKoVHNBzpjYul4F0Ng5Vi5+7uQxBJ4cs8hKjqJnlmVlJEZgNPZMaeeOxRTCcRjqQb8EefegDfmCqi7LMfDHmtmac6H4eX8e6ebqMkyEIeotCmAcYLMoSLx7FXncB73/rzGJs5iJF0AS966Q/lALBN3+vOhzNgZ3Lmcr18Wo2e+4pS8AKzT3GPY9UQ0ln2Ky0gJ2YmbUaSFhPze0YeYPJNEvvYPwaM2r0M1yv+xr1ZpVJBGBUEZPgvJOBknvyOho6Heflbayd2ZbDFrCwUr2AmjhpMAtYfI1gl/DytYoJZyJtT3HbLT2J04QiKUYSdO3aYtaUbjqVpisAyRJu3Uql+nAYYbhCxuYIbRMAizvrgOcIL+c1ANzk7V3vrjJTs6a7vrRBnZXlA5BWRsSeO6fQpyo08lXRgr0S9oQgY6RE6DaYzcq/4WXmAiVABRHvQcBN7GmD0Np/g4GPfx1TFw1S0HR/41AP4ylMVpBO7kcSW35YZnuGDc76t8Z1u0QzfMooWUvSTuf5KmPAWsKt6FL/zK6/BtuopDKtFPO+HbhAW0xrWJQow7JjbDmDYyJAAY0BFgocaylLp9Z+YHkAtAUbmSqRpwx8OYDpdjJ5/61dlh1OVKqLRMfhBiMrCIhBGQBDWNkq7TZLQetPURLcdzbnZZtzlbXl+YfoUoZ8hKZWAoXEgKWPSL+EFu4fw//zsq7Atm8aYr7B7Wz2TX2CiC4DJvyg1BD6TWlWWaXCp8dI5Goz9IK8cd0q2+nlJkoqGprIMgdX+OAwyJfvx+lbCpaRFyanpGY2iUvcDcFf0TAFRQK3OIpII/5GHfZFohTNioBACRw89jWdOzaA0vhsfu+97+NQ/H8HC0DYs+UUkBoxaDuQcC0D+LPJEoDcua2bNlP5VTM0KgR9jk7eI8ZnH8K63/By2JWcwrEq4/obrZHwGnnqmwaBf2InumCQKIU0JTYeWN42x2tMwrXWanNBnO/bmAKZ3kXTQqd39+L2f/sRMdv83voG5uXnRYmKzYSZKQ0e+p7vekkn8OsjU6G++ST3K5JwkyocKWRJjeHgY5SSDn1YwjhLe8Ys/JeViJpJpbBkbxpYNEw0j78pEZq7MKH16HJuRQczAauvbLmD+FAnRMhzNgr1JgJoSWvWWp+YVPPtGnqCN3jAssfKY5gCme65doSvEVKktJPDFNCUOQ+FfSrQ8Qn6fAWdPncYTh49hzhvDlx9+Ep/6xqOY9SZQLYwjZtfWDg+tMdcP3RE2gxIezBAKwFi+yqCyKia9JVyz2cNb/vebUJw9ip0bRvCs5zxbrzPKMZ3ssh2Ob5BOk2XUxkJmdQ0rTqZmqYv2R5O8RvMmQTpPhUZgsqR2hrHOOMW761SWPfXUFL73/e+LnXJoaBilcgVRoSiLjdpEba+sIXudzBT8tO+FkMLFokmvnY8KhTDEwsIixsYnUVmYwXMP7Ma1l2/BxmwWQbKIrTt3ozg0rKGL6utyJoXzvI/4bxDDpzrMcaRUi3341CBkMNpHIiBEnUu40jhR5e86wNgNoHkjsONr+OnReAJU4xgFPxRzF7wUQ8URBH4IWk+CgtbzxJ5uJSQLMEZgdjayzph1Vc+yJivDMgQe4XK62HwgLVfwb48+hvk0xJwq4OmzFVT8YTz1zBFT0L+z0TXyFYUwmk6VAAyfR48QtW/lRUhpEQh9hMkCfux5V2EsnsVEuojLd+/Atr2Xy3OtCbazp6/Ds+w8dfhqNdeLNYzLvFvt1eom1p5eW7F6f8oZ0x3QdEZw7+BUJZubn8fY2LiQeXFxCVGBfhQ625s3fC2z5+QvHSxGXcVIfnUw0pt2uVrByPAo0iSBl1QwHmUY8arwyzMoRAE27NoL+NzsewcY/cyyMXjQyU7/kWf8ObFs+lmmFzLBhOBDgCHQKGV8I1ZVNsEGdjw2+CD/d+13/uJrn1HRDxCnCZYSosoIAmyEQojJrQVtKctRjTrPpW7a6Iw9L9xZViK1Bk0rctANGZn5O3TkDI5NnUUVESp+kQbgmtCw3EhbCSr2XAo82hiXQokQ5BntJUSCAhIvQBUZhiOgUJrBuFfF5mKA51x9FWLjM7iUFeBWBoPmebDzyOUdNKkdSQoMBWYtZlVjLjMOXRsA0Ggwq8mCDmA6W5ve408dyorFIqrVWMKJqbmkqZam4oRagYm+ENNSsztcmxUIO3nTmNYj9OeZF8gGnKUxhkMPRSSoLM5j86YNmGR4svhs9Pab12A61Wa4n4cRnzWHarogEWhBEML3CCA0MdAJayK4ahoMAUabNdK0aoDH2GJzQMPveT87tuafJElarYjbntFvVS9ApTiOpWQci/MbMDRaQHFCu7M0hOqDFLUbQ95a1tmUubNWigJ2v8l742SOc6EgnCdCgDWCTZeAJ56awlI5RlgoiO/tfMdyACP8bV0vXCsUfsRsQw0mROpFAjBZFCJLqyjSf1kM8KKrNxtIAsMSajGbK0WTQbpP8/y1GnuzKcvqK1bI47wOAShyb6AQanxwBHszQ3r9m5vXgv3M385Udn6O8bIszSrlCuJqbCIkdWQVF04UFZAkJLo9GiOetC+GC4NRGKFMiAR+0o4sgbg+lB8hjmMMF3z4aRXDYYBgeBjwIu1f0+Ff55jGOgMYBZVV4HtLKOMwTp95GouL8wjDAJ7ny3MZaS0AYyJBJIRZTGRkLb4B37tuBmzeEPJ/N/9O5ipw/JlCJamiEm3F0shz8Z0nUtx//1EslkMkQYzCCBAWOAYgjQvwUBD/lLCt+P0vUSP6GtjN6htEq61ICxhRFKHMIBhu9kohTRMUCxEYfZnY0P5l3qXZ5NvAX4yCMnljmfHVEWB0bJg2kcX0z6Sx+CpDhkzGVQkqmS5VMDY5ibhKzf3S5B8N0OePwuT8hWFYM/Xzb/qEd+/ejc1jEX7mh/dhHAADzj1aMwRgtIks75m15jEjCtdAx2WxdQAw+pT8ArPu/MaLz0Vrk0xJODEmMhuEayNy2AVGS+06bFl/HoiEpn9rNB91uueI6cpbgI8zODL9IB576suIs1MIwhRJUhWQoQYW0IAuoYxG9pCFbH0wGnz6WaA+TWMqRRJ4mPN+EJ99cD/uepAwuwMphpEGVWReYkJJta1dLO2K+UIBUt9G4nX65u68laWAlVStvCqeRBGSBPplo7EmYG4nOsg8qCVEmjyWHgalmzFb3UjzCB32krwsz+S6EvsAQob8s0cSI5cZ5eb7AkBa27o05ehOAOZ80zKi5vFLP34D3vTqK8E41kIupaFK35sxO+S1Fx1QwYAiu2daP00PDHAJXCIazLnvqYnW/EWdjXPWT9EM9GLgobdxqpuMzqIkpgFGloKoofw8QlVUUL28ekk01AAzhyqewpNH7sIzJ74ML5pCEMVIU+b16OoBIjFKeLDhFublGMirRXX16Cllvkscp4iGx7CYKkxlL8Lv/OUY5rxXYbE6DC8cRoqSmOB8CVdSUD6fTwN60UhLsqNcAqy2Fl9Rb+R6t8g5e0UDtxn1OmxZRCHhcZvxT17mNf1408x9Za/Splz+p3M7fM2eIpAQWHT4Mm0EAjl07PUQELMWZ6HnMcmy6R1ch9NZ7MIJvOvNP42bDhQxyik3Um/KwI6mvUliT2XO8wBzKXvB2s/csgCznFRUhx2zKZo4QRsuWA+Z1FHllAAFgmqYpIGnaqI/egUYqrrUYGLvGL776Gdwev4eRCNTyFBCqso6CS3wDcAwRFibxPRCNmHDtc2lNyaVLOyEET/D8IY343PfCvGRbz0fZ/yXIPMYGUcTGE0YCTwJS+LmYMbRYOl3ANOeVVfjDAsenH9q2BpYqH/aJFrmdknZGPoiJc+pDkY2X6VXM4loH3ITbljUYGhy1mYzSciVx+U8QjYBU/LNzOdWaFsN8qz5e5p12yPQFtQiRitH8ZbXvgJv/dF9mEjNPkVw8TXWaI3V7GGyj5mIM9m/+I0DmPOxiZdljJNpPNqp3A26jZEiZDFYxJfPmgCGH8nn2prJKBj+Vnfxd8fNBBiFBcA/iwcf+RjmqvcjGDqJJF2UxaqTNa1uRA2GJqmcpCi2736kT76KjygYQqkSQQVbcfvXMnz+6R/GSXWdyeAjwMRaa1MMKY2Q1dyyVSMlc0Pp7t3d2StDAYKHNlNpftVZ8VrL1luXMYjJebZchI2L1VXMNCD0JqBo8KCgZAFG85ROsjTmL/mOY7Hajq1RZjY6MZv1lse1MlS8eHexwmuvmlyYlTCKWdz0g9vxB7/0EmxnYrZxtlSUyTM3JZ3IJwIlEvTDE3Vahi401Nv8XzzKXbgne+p8cZRtxqGBRvs0aAqzAKPNC/XP7QTY6DL+TTnRLptOpqfZ6U8AIcCoYAoPfvdjWEwfAKITiJMSCgU69ZQJHDD5uQIwtDGw5hQ/C03Np959MLLphCHKFZaH2Yl7v78Jf/6NKzEXPI9efSBlCLTx/6QFeCo01Q5YbYAAw+g2JwFdOHZvJUhZKKEJivxhogZrOd35a/KbidZk9BroXULQwhy1epOQS6EnozBitRSG2dNPZwUia+ql4KLNv52sn4tF49V8rpZte397DxWEyQxevm8cH33bD2OLxXLOCHFewtNp8eAsm5B0kccVshzA9D6C1aTO2rh3W4CxxGu1hPR32qfBnA8N/toJmrdh2/pbenla6VBLiPV/yxPEYqCNyOHfBJg0m0MWncJDj9yO+fgbyIITEvVWYPioYjQcaxBJoo7x9nADYXAnF6Y1mVnDa/cTknpAxSOQbQTiy/Clh0bx0e8+B2fiZ8MrjiBj2rAATACk9LmQY3Xeg0idUtewoTBF94NwV/RBgfrWoGOGNJc3aCvmE63VNH+vOb8fgNGaiU4E1o+i4GMrTfCZDKPXNey0xk2A4TObTb19kGGQL+1rd48xUojxkt3D+MgtL8VWKxcbLGfEqWcARjHyU2QJLVAoFuXt3wYyyJTvaOw13icKAAAgAElEQVReZgP5W01UM6q0nEytIdSXn1bu6wtWYnJqsKLldePwF4xpb6ZaDmCS7Cy86Di+/djtmKncDwRTAiw+Q6AVNSoCjKkqJU5+qrYEGPJIpBeyKdHREbWaTkp8YBExhkcuw9LprfjKQ+O4/fvXYDq4DmkphRcVtflDnLZ8zxQIS3ocotFYR24vT3fX9E8Bw9AS6qrzULSfzjr1zeZvciSEp2vlZCwI9K696PEbn44AjA2ft2WFKFJT080BjNQu45qrmM97NTL3T721cYfe6c86HIFfwUv3jOIf3vIybLdKJF8s4Cqtwpf1y/2rqG0u1GC8TCL4+omCXRu0W/1R1AHG8nr+mR0BjNVb6nKc1VTsrWyJevsI7XMwEluPAENNJcVZpOEz+NfHP4kzi/chGp7TwKJywc+ycE0kmYTh0ERmNJiaGaI3JiXAxCFLxUwgSK7Cl/55DH//8LMEYAKwAGa+Tw73jwQICDBMiBkyhQ57e/bqs8al9IS8mctmclvBh5OoQ+wbhab2glFnFLQAkw+fN/YZMZ0ZTUW2t7xmoz/XprNe4jA7G93aP8tWde9+pB7Xoyrh31+9DX/7xudjCxGD24OJPFJSfkoDDH2ntXgLARitz64UF3Q/+sG4wsv68ME0v6LdKuuKjvGY5YwIjd+1QrVzCWf9L3k/TLVaRYoZpMFhPHLw0zi7dB/8wlldKt9YpfX55hnSY4McRL8IB5Rnjd42efFA+UCSTaKSXo4vPjSBj3/nGkxnzzUglnu/WrFNk9SZq4U2GKyy3kfZzL3WfGs/rxUd6cis2z217HMsWBjgqaX72ZVjP7eg6JzM3dNaX+FnCViM598dmMTfvemF2KzdKzr5WWI5rLnfqDS5bYIBGnp36zWGsNdRD9Z1Kwowq/XqrQCGWdTKm0UaHMEjBz9jAOaMLmQph87e9xo0JIEE8/3KLcwqJrGU7cGdD0/gEw9fh5nsmrptvpbgmbfV89l2I+kN3FaL1u6+jgKXCgX8LEWUEWAm8OFbXohNBrMbu2rYBNxcVU35Va9nF6Z8fm4ZaIDRGowGmOnS1+AXGgHGyCm5MEIHMJfK5uHe01GgHQUcwLSjUP/fDyzAlMtlYyI7gu89+VkHMP3zgruDo8AlRQEHMKs/3QMNMLE6CxUeFYCZKX/daTCrzy/uCY4C64YCDmBWfyoHFmBKpRIswHz/qc+1BBjmzWifTD6bx/lgVp+t3BMcBdY+BRzArP4cDQTA2BbK+SiypaUlAZgsOgYHMKvPKO4JjgLrjQIOYFZ/RgceYGgiI8DMVu5HUDwL0x9MoricBrP6DOSe4CgwqBRwALP6MzcQAJMng9Vi5ufnJUw58Q/jsWfuEIBhFJnu/6TrO7kw5dVnIPcER4FBpYADmNWfuXUDMHPVb0g/GAcwq8807gmOAuuBAg5gVn8WBxZg5ubmahrM44fuRDPAeGw1q2gma87Yd07+1Wcr9wRHgbVPAQcwqz9HAwMwzeX6CTBJNi2JlgSY+fiBBg2GAKOr4OTL4btEy9VnKfcER4HBoIADmNWfp4EFmNnZ2RrAPHH4Cw5gVp9X3BMcBdYVBRzArP50DizAzMzM1ADm4JEvOoBZfV5xT3AUWFcUcACz+tM50ABjEy2pwSwk3zzHREbyuUTL1Wci9wRHgUGkgAOY1Z+1wQaYlD6YY6AGs5AyTHmq1irZk6ZRBBhbZr1eZVmTtbNump1MQZxNYhGspjyOTzx8ba6asulQaDsWsmS/FE/ms3P9RnpuuduqInS+zHu+UnNz+Xkzlj5aznZCG3eOo0B7CtjGb1waLZpQSV38fM+e/PrtvRq5A5j2M9PvGQMJMGw2xjyYSjyNLJzCU8e+jPn0HvjFE4jjCnw/RBSOgD1jgtC2RNa9zmtlY9gbJmMpGTZ/qDdsam6PY9s0L0dofl9R4ygHV+DzDw7h9oefg1n/Wt2kSrFXxLBuDOWXTFtc1vrm80zL5r56uvuAH+keFtUqEEX6X8KuSQl8P4NK2dOdCzg07Zt1Ay2PXRplZOyQ2Fff2X550F1/KVPA5/pjFw0PCLhGYwTFCGm5BITkbfM922xIPyfdQVf4WXo8NQNP58R0ANM5rXo9cyAAprllMsOPFxcXsVg6DRWcFoCZi+9BNHIaKouRJAqBN6KjyPyyYUoyZACr2dT7wizfk47goUOdl9mA2SATHspqHNXoAO745yF8/OEfwIzHhmMePBXqzpUEmGDJdCfkn80A0/P0AWkGRAWEYYQkToCUbaEzQLE1dAo/8KCozXmmTR9pkqUIslRa7ioE+nt3OApcDAokMRAVgSyEz/VWWdT8O1QA4lS3NpeDjQIJMrrD5Eq0PHcAs/oTPhAAY2uR5cnBWmQz80cQjZ7BoRP34PT83cjCkwhD08wrK8jGnqol00+TAOPnwIIp/7aFXSOh84Byvoafcp7yUErHUI32445/GcLHH7oKs7gG8EJ4WRFIqcEQ2yzAWNNUk0bVw1x7mUIx8FApl+AHEVKCjecjKlDyi+H5GRKloHxqKQZg+BylpJsfKZVysToNpgfqu0v6p0CGkNpKkiErs514gKAYIq2WAZUCxSEgtsKdA5j+6X3h7zBwAGPzYdgPZursEWTBNOZKj+LMwoNYKB0SNToIQmQqEO0jjEwnSWmRnPfLcDM2eTGierc/zgGbzEPgB1hKRlCJ9uCOhzzc/p3LMetfLTfzaAZLqMEQYMpagznHB9P+ucudQYCJKNnR5BUUJKmU5kNqJr6nkKoUmR8gZbIpTWki+XEw2kSmNRgCTO9jcFc6CvROgQyoLIlZN4xGtQYOhXCoiKS0YExkobm90V5krdLMHDkTWe+Ev2BXDhzAWG0mjmNMT8+iUk0RRBXE2SGUY5aKSSH5laC2AiQJTUVMutRObjr960BBkNEAZD/Lg4i+DwMF9C+tfoZ+gMUkxGKwAZ9+cA7/8O1xnPV3I8tKZiMvGhNZrE11BLqMi8YuHEpmnQHcuVyRAXGMoFDU2ossvJRGLxQiHwRhLypAEWA8+mCaACbLoER7cQhzwVace1CNAh5SFCOycIw0i1AojqC6OA/5kJKQ1H0yvhauHa4Tu1ZkDVFgdD6YtcxSAwEwzVn8drNfWowxM0OfSwUpzsIPYgRBgDRNRXsR/4OiVKTDlTVAEEwsyGgfiz34vf1nP+O9msGlfg5NZEAZBJgxfOKbx/CRh4GZaDvgLwGqqrUYcbvocYB+GXFQcsPnB3TC2/I13bOKRyepFyCjvdr3MIQEWWUBBS9BEPhIuE49X7QYdhAXA2KWIVRa0+F3ygFM94R3V/RPAS9DnMQoDI9icT5GOL5B1kRCExnjVwJaISg05Z35XCvNUZi9DcX5YHqjWzdXDQTALPdCSmWolBMsLM5jqTSjPQq+LwCTqkS0GWOTMtpLHWC0NuMhU77ReFprKK0AqAZIyhPNQUWjWIpG8Y/3P4UPPbiEheI2eAWCi0LG6BiOQhyUBBia6qy5jhpUfozdTJ05V2m/C4IQWJrFhrCKCb+K6vwUxoYibSYTKtQ1FQJMQDMZfVRsytbDY90ljgL9UiD2C6gUJrCUFZGGYyhXU/iFohhuqd0oCndi2s03DLQCYT7Mv7eROIDpjW7dXDVQAGM1mXpUmagEsn1yn6UNl+o2NRdK7xpgCBx5kmgGrZnRxFRFkKmf1Mqxv9xnoi1FI5jzQvzlF/8NH7z7BE5jAvCqgGgJBW25Mqa4Wkj0SlqlqJEEIYaSBfz8zS/Gr9w0KsHRda9T4xI1QZ5Chz7hrRtec+c6CjRQoATgnmPAb/2PTyOOxlHJQr0ufQ+hl4k/UQQn4zvVC5dmMv5C7pYPeqaqA5ieSdfxhQMFMOe+FcGCvg0ejBrrZNe2DNnJue3oyHtVUUGAJYS47Y7v4j13HMR0sK0Wry+hymIis1u5iVwTzYXI07SA2j2y4XujmxiNZELN4Vd/4kV447/fjlEAOrxAU8UGIucNDPzOhEB09VR3sqPASlBgDsCXjgFvf9cnMYdRJOGw8ZVSw9Ym5VRC6O2/DJ71h9ZC6x3ArMRcrNY9BhxguF0yqZBb6JAWZppxo9VnK0ZNbs+JAZgAt93xr3jPHY9jOthqhCsfnkSvNQMMVX/jd1E0AVhprJeB0filECiFDek0bvnx6/FrN+/DuAEYbQCrJ6hlCOUTphpY9Ol9ifYyXneNo4CmwCyAO44At777dsx4Y4jDUZ34zPRf4yNMfZ8xkTURSQNMhswBzECw0ToAGGowRBVGazUdHSkrvUeh2LDfigcw2+a2zz2J99z5CKbDTQZgGAmtHZTaRMbDlHLxKKFRg8kbsnrgGZPD4imFjekZ3HrzNXjTq/fTSIeIUqAArk6uFFOgV9AA0/AoBzE9UN5d0icFZuHhzsMEmI/hrD+OajhmoiyBMNNRl9RgNJhoIYyh+cLRK2CAcCayPiewg8sHHGC0BqEPmsjMZmo38gbtxW7wJlS3xqD9GIkYcgwwEHrJI8Acwnvu/G4jwBgXuwCMJGaard1qMPnyNR1MWOMpBC9bxynDpmQKb735Objl1QcEYIKsqgMAagDjIfPoRK1XYmukWdcDcBc4CvRMgTl4+OIh4C3/8x8w5U+iGo5rkzF9ilksjv7EAgxD7TPPAAwFtp4fW7vQAUz/NGx3hwEHGGv+4WtSwuHfRjOo5ZlY0Ml9XgOefiV3zeUCMKLBPIX33PmvGmAMcNB8RUksk6ROq7HwV1NJwOTntJuott9nwKb0DN5+89V406uvFBNZQClQOnry0JqegtZgbEzZCqzTtkNzJzgKtKKA+GAOAbf+z4/ilL8B1WjCJFACoaoIwMQ+hSgTeUmAUTQJZ1A1G2/vtHUA0zvtOr1ywAGm+TWt05/bZiHnk7GfmxpgDQDTzxarAU47+a2JjBrMZuO850aui21qics69blo+tGc7HvnzHuZj43pWbz95mfjlldfiTHJtknBtEsNvzoYgrn/1kTWz5t3ymDuPEeB5SgwbwDmLe/+CE4FG1GNJnMAU84BDNetTrh0ADNY/DT4ANPgZ9FRXVo+bwYYfk7zmDGlWd9ER5Fny00qn5eigrCuwXzhO5gOLMAwsVGXv9C+y3yRvlypmp5DLfMaXIgNCQGGGsx+iSJj+ID1UEWSW6CQGs2OaZcagV2hy8FasutntASYL9NE9u6P4KQAzAYDMEwEpgaT5DSYPMCwvl5zG47u6eI0mO5p1u0V6wdgREHghsktlRu5LcViI8vsVktGtZ/1G2KmN/gqAiwC+MDntYlsRgBGm+w8L2Y6o8T2y5gUo924qdsSMRZoup06rY9IMqcB1In0LN5x81W45eb9osEQSm0QN6nBc1l7TJvHWLbGJGn2BbK9jNtd4ygA5DWYk8FmxKLBaB9MYExkiZjIjJNfBDQjGNUsAFxXOWpaS0EHBCbAFFQFr7pyEn97yw3YzBXFJWFuqTV81uyzB59vE6czxrLBdwLaeSk9+ABzzuvpYngZe7HkbUDyO7/rTmJvVaam4ZEKSH0dcvmBOwkwj2HW22iy9quATz8IS+iTawtAMi4VmH1vUbL4WS6/2zHVn68zniXKxhvGSHoGv3XTftx6835MSEFLOvmZ6Nn0zrJIjQQo3zljWQf7kTtlhSlAH8wXD1OD+Qec9gkw9MFwnVD4ScAiRvVaecZrWPMpspS/beDXPDDLzy34uvaRB18lGFJlvPLKSfzVm18Axn5anb6+Kmj5sDlsBD9tAZEKNmblutWzPGMMPMDYumIijIuwQ3nelJEg/zWY0Op+D90XxtYnayRQuyZjywHM++44iPfeeRBz3iYBFb3Bx8iozkuhSZbvH4WnOELmMSfQcf69sij1kYT1ZwF/GMPpWfxfN10hADPJsOQawLD8pT4EaoQmeYBZ4Z3D3c5RoAMK1AHm7zHlb0E1JMBo4UdX+7baub6ZFqRy1ZUNwNjV0xiyswzINAHMcA1gbsDGlgBDGwDN3AQZAoxOX3YA08EEi1HpfA1POrvHGjjLSuT2J7koBEsZBdQceNR6v1izWGeSe548ywEPZRyq+7cRYD77OGb8zYgY5SJRXIkwY+qbApeqgED5CEQXTxAHBKDeil0yJyDMUqmWnPojGE2n8Zs37cdbbj5gosio3QSyNPIZ/J29+RqYVjeEdU0BayK79d0fxml/KyrhuLba0vRkNBiJGbOR+IQcAzA6H8aWjamTSYPMOaaLFnT0pFrAUKpNZH/z5h8SDYaV++g5rd9BWwk0yDBUWmswomiJiaxX4XBdT23t5QYeYESbpmQumzRNTlStdVgjK7H6bLalZY5caW8yhcmwbyxUds6st9NmbFjBAoAPfv6JHMBQ048BX4kJTRFg+EyOiRoMUcdTSPoAGJ0voP0qyh82AHMAb775gPhgGC9ml0e+RODyPTwvDaZ3b7k2KJAHGGowlXBC+0CaAMYmCwuf1wDG9DM67/7ONdYMOPV3tyayHz4wiQ+9+SXYIMnIzLHRlcfzsOWBeTn8jH1orMDqgmTacdJgA4wNhDLm2QxVpFIi34fvs+kYC15qEtCUpmUOIpIuPaGxRd9kuZ4vrcr16/tpWYk/4qCApWgE/9/nH8L7v3wYs9EOREEIlSWM5DellExjLw7INPzSkpB2v/d01MbPfi8FjKZn8Js3XYk3Gyd/JJKXNo/lTWR1j0y/QQ49jdpd5CggFJA8GPHBfBRT3hZUxAejhcFzTWRaX6jndRm/yLIA0sGaogajlvAjB8bxd7e8DBOKtgj6S7lydJylhSdqMQS+mvm9tqLM5uPmtCUFBhtgGJRcBgqsEuNVoLBk7LZslZxrMiZ+f9vrRQOMrnnEnkaM8rIVlpcHmjwA5XvGELjKWYhStAF//eVH8MdfPY2ZYKdoTiklIha1pA/G2qUoognYsROlNuXpiLNeDrsEuPAijCVn8Js3U4O50oQpa4CxMGoXi/7AmhfcAumF8u6a/ilgfTC3vvvvcdrbYhItLbdyfRjHqpXkJGrHrhWdX9Zck6I+KmsaP884swRRpgHm79/0UkwopkxzrTKDjIH9+YRkggtBprmKs1s/5+OEgQcY9oTx/SoSnEasZlFgAy5kiLMUPstMNGgbFkj4IUuDs+EWnXjsgmk1kjrIkHDUYJbTbrS4FWMhDlAKduDDdx3Gn929gLPeLiiCC51AIRuLKSAwlQRY3FLAzSwQMQn0epgx8w5egA3JGbzz5itxy6t/QACG/hkdSpeLIqtFkJnlI1E5vY+g15G76xwF6mHKH8VpmshsFJmtyLEswJDvU6msTLPV+YJkGh3/jTQXwPAq+OEDE/iHX38RNtKkTcHPl56wGmDM+pQAoponsxMfj5tfEWgH28nPCKoFxNkUjp16GKfOHEQQUJVOkcQpCoWC3uiNwK61GLOxsqe3mKhMGHEOiLTA1Jo1G/rG0PsRKCwmQ4gL+/HJB0r4uweGsFA4AD9gK0ndwVJALqB0xL+pblHjsACja8X2duhKylrm87ExOSN5ML/+41dLPxhbna3x3laDslFkfZjoehu0u8pRQChQ98F8BKcEYJgHw81bA0jrXi9Wg0ikMyuFNQ0y3R/SBNCv4lUHJvGPv/YCbJYWzbp+X2ZLKlkBUDDFhso4raVTag8swMhG7y3Aw0kcmfkWHnvqK4jVFIJQIUmqiKIC4qQKUWhqEeu5KLMawFDKtx6KTslmsELkHQUUt+P0wlbc/b0JfPK7+zAbXw6ECQJE8OMxXeAyqEhF5VR5WoEJE4ANlbwiPGOu6+7purJs4KWIq2UMDY1gkzqLW37kAH71J35Qakvb+tL55VD73QCvzpFxGky3tHfn908ByeQ/DLzpv/8tZoZ2YclnNWWG81Pj537O9WHFL+MvFI3bVAenBtNBsVi2UbdCY8o1R0NbSMEvgRfGeNneUXz0TS/ATpEEjc+UbS2YS2dfU2qf6YrkOgxBf+NWzvn5YKABJvNmUMUTOHjkLhw6cQ+8aFo0GDr6QzJQxjh6MhQZ0jCmaA78iDFW+V7f3S8YscqybXKwGSV/Lz77zQI+9d3nYja7CghjoKLgq0n4WQg/SKEY8UUXEN0ukRlXwtDHXnWYDFEYIK6UUCwUUJh9Gv/5tc/HG29+tmgvpoJTrbClhdq60cw5+bufdXfFSlFANJhngLe/9yM4XB1DNrpdoh6R0LRsEi5rW3hrgKk7N1uPilGgWbUqoOUPDUlLdemUyYXIgKAgxo9dvRV//cbrsd1ARxJXEIZmBdXcnDZURgcI5QvVOJBZniMGFmCUYn2vWcR4Bt957NOYmnsA4dCM5JaklHxESmEiJU1geYAx5f2llIxVt3tjEU8FKGIIi5UI1eJ2fP7hYXz0W9diLno+EJCpmexYFDOZT8mL2kvi60o2AjB2LD0uWZHmIh1Zk5axM5zFG1+yA299zXVScYxmMitv6Sdog5qFFafo90h3d9mKUICh/XcfBn79v/055kf3YsEfQ2yDw4zMRYN342H7wmgBTfeKWX79+kEAlSTwAn3DrFIBogiFYhFpZQFhModX7t+ID916o5SKyVK2HzcZ2hwMgUYWijXZaYCxmWtO/18nGkxzyRYCjPJmkXnH8eAjH8N8/CCC4lnEcVm0ajrnAzKVNPYSJ4jeWsWpT6als906uHsDGOazhCpAnBZRKWzAw8f34f2fvwyn1POYmINgZAQpw9wk56UgQOOl3PozZAHHQfCzekUvazYEolGgVJas/e3eFP7ibT+Fl16u2yWHaYpQ1lU9SJlJmY3hl07N74Xy7pr+KcD6fYcAvObNf4Uj6SQqxU2ivBSGRxBXK/B9D6kwq/ayaIuDBgomYnIdqXYmXprRwgBZrLWYaHQUMUFmcRGFkRATyVn82n94GW790V0YJ54EQFKtoMBf5NEM0uEv1vKhIcVl8nc2/wOjweQBRqK/FCsDzyILjuPBf/1HLKbfAqJTiOOKdu4zHFgAxTjmRGPh34x1p4RCJ3+/8odu2RwUxjBXLuJ7p/fjz754GU7GL0SMLUgrChhlgUtT4ZljSAs6+9ePoaRrX2/gZjUScnqxEAKlWWxPT+JrH/g5sGGzvJ34WRjuaR36gXS0bAy/7IxR3FmOAitNAba4OAXgHR/4Or7yyEmUi5ug/AjVhBFiCn7IXDINMFbv1hqLzvTXALNcFKQRo0wkWhAGSGkqUwpeoSBBPOPZIjbMP4m3vOYV+NVXP0eSk7k2BFoSDUgIhwyYMIyGPh+a7rh+e6lsuNIUXPv3G1iAoYYiABOewEOP3I6F9BtQ/nEkSYxisShZ/DpiLB81lgG+ieYSwNHM2jpapf3kMQol86uoxAqBvxHz3jX45L9swVce9JCm+xAN70YpTVGlOc9jA7AAQRKC/kLPZ9WBfFRK++c1n6EzntnhRVeFfd2PvxTv/Il9mARQWpzHyPCwKZFTz5dhYicp0i+0dj9ad4WjQCMFuBKnMuCbTwG/8d6/EoCZL8VIMw+TE+OYnZtHEGpfqWgwHk28WoNhMz1pPHZO1r19hqkxXihgcXEBxaKuIcb9gQFANKOPJHN42398JX7xR/ZgYwYUaBUJfGSpQmgDf/zQenEl9ZJWC63Z9CkbXiLMMLAAQ0ddms0ChVP4zqP/hJnKvUB4CkqltSx+0XqkbwTFDdpSubOTra0GQ5Vb92vp5ZAaY8gQIsKQGkYJkziObTh0ehynD2/G0UMFKG8nlD+OcGhIGNtP2TaZQpDZ9Hv17xsNhWXNf/DZV+LaH3w2btgLbOPnqgT47FxZ7/pi9SSrvehvHNT0Mu/umpWigObBEgKcBPC3dxxEJQWefOYQyuWyBgJKZsaMrIPytak7zBJjNtM+kXMPvb7iuCoBMGL1SJUIn/Pz85iYmMBrb345XngFxPcyLCHPCSrKF/OYp7TPhSWeTDiO+DUD68SUArZ8Qh8LeKXIuIbvM9AAk2QzUMFxfPexT+Js6R6EQ2eF1JmosWbixcHPv+kMbzaRUQrpHWCkEB9LwlRTFKo+guIw5kIP1XQrgurV2L7xFQi8ZyMq7sb4Jg/jxXpj55XgCb6hDVPg7wxLHskqOtSSiWK+Noflnfr8vRYHI9n82sRg9TgtmOXKUMsi0vDECB/emQY/nZ7aq+63Em/v7jHoFCAf2qZ4zOqnycyKPVyVxqhd8xnmbQ3dpAfzXjrrrS5SkXep0zAQht9p/Ua3P7fRl/zJv3PF+mWNcTXYOgJrZQ6a/ap21Voa8z11Rp49+jHNd/7WAwEwzf4Xhh5WKhVx8qfBUTxy8DM4u3Qv/MIZDS7mqF0nnxlzmHX614xEfZjI5Dl6Sw5ZfsbzUJXNeSNQ2Ytdm1+OAq5DGm/EZXsuw8iQHttKBQc3a+m6xKcNYrAF+zR4NLKT7muuD30XLQ9qwJIgTGXkNt9HHGuzQhUhZgB8/WngLz57L775b08CQVE0JXc4CnRLAZ2JTxuAj9gvIPW4BebWbwv/ZD3/RAKa+7JTSR5ZxqpjqfFX1oMGaHoWQGKYc26liHlbh+nU26B3++IrdX6uCogyFhE/88Vs7iOWatH/20/9BN540xZcBmDU9NlhAFJcThDRbLjKODNwAGPnhgCTYgYqtABzXxPAKFGLvQYnoE2Wqm+sKzXXtuoygw/8bBKo7sTOTS9DMXsesngL9uzZjZERyhG2xFJOtT4v4uTZu9VoewdI4S55ttZMLMAENBdI2QxTC8oPodIUlSDCCQA3/dqfY2p4O2Ywgsyj/OcAZqX4yN3HUaBjCuQARpvcteUmEICpIsyqGA4UfunmF+K3fmwzNovFIoVKUviB0cUcwOiyLZIwZX5yAggwSTZdA5jp0tfOARg9UXl39uoBjEAWnZAtAEZVN2Pv3st6BJiO2a37E3MaM11DNfOZ2ClsCRpGJ+iM5rMp8JdfOYw//PjdOO5vQDqy0VSkXmUu7f7N3BWOAuufAgIwRsPKAYwE/zC6NYvhJ1Ec/e4AACAASURBVCXsSE/hwdvegE2CQbRVeCiXEwwVi06D0RK/Bpj8QSegBZjvPflZrDWAySo7RIMpqOtFg7n88j3nAEy+ll9fqyFvWu3xRrqBUh2S86nKMSt3BLq8+hv+x+fwwNEKZoe3YZFVCISxV2AAPY7bXeYocMlSQJad2RfFIMIAIpPvRxMZYgwHGSYXnsGH3/kfceOBcTm7XClhuDiMmL7jwupaHwbWRFYqlRoAZqb89TWlwRBgdmx8aQPAjI6OmLVgXOm5auQXZZE040IOZGz+p8CHB1QSYDEEfvn378aXHp3C4tA2IKBrdK25Oy8KJd1DHQUuPAVqAMO8HGN/qLX+0JVC/LSKHelp/NWbfxKvvGoUSapQCHyx6zBQzuaTrtbgBxpgYnVWTGTff+pzaAUw2qyWd4WvvInMmu6siUy0LTUBCzBRep1oMPv27cW5AHOuZrZaE73sfVuATEPQtjHtxhkw7QG//Ef34Z9PKZxYDDTASMRab2HeF/xd3QMdBdYTBfImMtFgWIOKsXemtA0TrZMqdvsz+OtbfxI37gtEg5FTM7F8r7aPfzDK9bcykS0tLYEAk0XH1gzAWN4lwKjydtFgCDBItoqJbGyMXVqsWtvoU+qd71fIRGWj7zy2YCZk6DLoNhSB8tAZAK973z34wiOn4U/uQUpsaeiX2ftbuCsdBRwFuqSAaS8tMqJP6GDhXNN+QxJFU4kG3VQ5jr++9T/gR64q6lhalaHg19d2l0/t6vSB0mDyQEOAqaZnagAzW7lfapHZFsmStXGBNBg69q0GIz+bAMZqMKsDMDbTpat5bzo5bxtjhQGyJqUdDz4bunk+KqnCbOjjdR/8Gu4+OIclNarrq/VRCaGfEbtrHQUueQpkunyNNmObOm1SAstWiVdSum3j0hF85Ddeixsv1x0QhkMT96mYiL66ATprHmCatRf799zcnMmDOYLHnrkDBBjmwUjPIAkIuLBhyiwDboEmS8YQqj3YOPICFBTDlDfjyiv315z8ksoo/hcdUV/XanpZMv1pMMwmECOiaDAmjLEGMD5CiZ0HVJbhbBDg5953D+55ahFlCVG2ANPLuN01jgKOAn1RwACMrsnGO9Fhb0pgSfAN167C5uoJfOjt/ytefoUnSaX2rIaW1H0NZPmLBxpgbB4MAWau+g140dRFA5i8L8YCzIbh56OYPX/FAKZVl83m6Lpu+CQPTeIjFPUrEchLEArwhHKSZtazPgHma7j7yQWUMQRFZl5lCaib93HnOgpcUhRoABibZJAHGN29dnP1ZBPAsNSOWfAi5K6eFjPwAJMGR/D4oTvPARjP0xWXL2SipQWAPMDkNZi8k7+uwXS3JFjAsw4q/TGGwIbhM8lQFl7T5r5Y13xGKPXSqcIozEQhfvaPHjAAE0nlW1HQ+xtGdwRwZzsKOApoCpwDMDR1Wx+MFR8zDTDveA1evk9rMCx3K8nUIlCubtnbgQGY5mTL2dnZWpgyAWY+fqBBgyHA6A3/wiRa5hNBVTyKIL0M1GAswDzrWQcaosg6BRgNkl7OnJYP++pf+tD9NurFYVk0RgCGfTBYp0n4VIPOjO/jFz7wL/jK47MoI0TKKgn9D8FtF44CjgK9UMA4+aVwjQiGBBhTpS2Xn9YaYOotPFZTQhw4gLHzMDMzUwOYJw5/YU0CzOTQ8wRgkGwRH0zeyd8pwNT5TkskmQkJ1pqML33D8wzSbEZrb0IzhS6lKGiCMIvFIhZ7Q7pMelKRmsyZUpiKxvBLH/xnfPXgPMoeNRjb7qCX1eGucRRwFOibAlJt2vS94g8p8uvVq7WDGswpfOjtr6n5YLQG4wDGaIHnlokRaXpmRsKUmQdz8MgX1wTASJkYOvuNBkOACZPr4KVbQQ2mH4AhoBBcdEGDeknAVMqK62oH9mceZKpsspT7/pzfU+0gTCkBqQQRAUaxaGdR2tF6WVXaoyMlwOzGLX/xAO55poSKtJJl3H3fS8TdwFHAUaAnCuSESxbxrQEMo8rquWlbqqfwNwZgaJcgwGgfDC/opi5194McWA1menq6lgdDDWYh+eY5JjK9ma5uoqXdsK2JLA8wE8XrEaXXiwZz1VVX9gwwBAzRWCQphdFxSvrepCoGTYGi2cg51iyoAae5CnUzAEncWJIKwCSermwbpVUNMB47+bGPTlW6cGSJwml/J2790L/gnqfLSEITDilRK84J0/3Sc1c4CvRLAZP7wttIlXj6SnVUqAYYnSUtGsw7Xosb9+nWBLRIRBJh5nwwLQtdkp4WYFR4TDSYheQBCVNmp0uajsS5T6tPrSOKlvzrh0lR72tz1NVL9eavN37fD5AlE/CquzE5fD3C5BqjwVyF8fFx83i7+XfarIjaCzv4laEwixjzKJUXUamUEIQEEx2S3fzPvmuzdpP/27bLkXLfWYpQNCIW+46kVLlSsQ4USxXOhgfwmx8+jK8d8pFE7JbJFtD9OmHy4NSDOtTDJf0ua3e9o0CNAhdVtmoCGGmaZvtgpdp0lmmA+du3vxY3XmEBRmsxtpL6agqIA6nB0BTFrnRLlVPwiifw2DN3opQ9CL9wGnFSQhAUADUivmkviAHPljMxjccE8U05eht10cuayQKo1Efg8zllZNJVJUJSGQeql2Pz2AuA6n6E2IEDVzwHk5NjubnM5+mc/+GpqsD3y0hxFE+c+DyePvKgtFzWeSv9JFrWe8Wwh4S0pdWdx3WPNpGE2IeckJNhKrsOf/SlHXjo+G4kwThUre10r6usGZxygdM14KjFTzcSyaQQ9frkXqbbXeMo0EwBSXDs6+hHQsqvHx2c42W6Vy2kk69eT1sqp/Dht70Wr9jv1ewN9V63nQq5vb3kmgeYVq9FgFlYWMD84gmgMIWnjt4lYcrB0EnAJ8BEgBpFwjLAfqkGJqLVKNMHwWevOoVM1VuutnKIL+ckl88pLSgqnSkybxEqS+BjGKq6CX5yBTaNPQ9eshdxaQLXPffFGBqKxIfCpEX/nPyR1hupmEq9KhKcxanZb+GJo/+IxepjKBR9pEr7V3p1hGgg8VgvCGGWSrIlI8PEw+OxEZSJXTbRKlPqhXjfnVfh4WP7kbBcP99d2+16POwCMWiRrwpQi5Cxt9YLudVy7HeJ9zh4d9klTgHhxYsKMKYSraxTpX39mS+WBwEY0WA0wPzdW1+DV+z3xZ8qAqNt2d6XBac9AwwEwLTyJbBUzMzcSQTFJZw8+yBOL9yNxHsamT8jmkTgjejeLKLBUNo3MeIZAUZv2roScGsTT76BWCsy6u+5OQfCY57P6Ct2kxtDWtmErLIHY8WrMRweQGVpBC/5oRv1Bmm6EUsAlozD3r01wLAyQYYSMn8WTx67CwePfQyIjoIukCSttgCq9pNef+JaAZg8DQwdpNuhhRRN60Zwqfdq7/yN3ZmOAhebAs0iUp/ikfiYHcD0Nas2Oos3sb8zOurs9CnEahGV9AjOLHwLlfQQ4nQa5coCwkB3j/R8qo46Rjxjr4SM5U24OWmzWavs+PxnARuh5I7G8wkwLBGTGpOVj9AfR4At8NNdGBu6QrSX4eJmXHvt9QZgTAVlnbsIv3b75TWYajyPsLCEJ49/BU+e+Di8wjGorGoc/L2T9uJrMA0Ia2zClg4GiWsIbBZibT3av/sxMfROO3elo0BN/mlLCis0nSsmaRNbHyDjAKYt9due0Apg+BlDlReWFhAVE5TjY/CCEjw/k0Y6gU+A8aCyCjKWrbYRZVkokWX6s8aoK31O42e1+mJNn9v7UYNRKhENJk21FpOlBaTxEKJwAl5WxK5du7F9x2YEvvZyeFINKGoqBbSMrwFAqTKDsLiEg0e+jKdOfhzB0AnQLxOGBLe25Fv2hLUBMMsNLw8crRagBZg+CNA76dyVjgKaArYKuc2Mb0GXuu5dTy+QS42J2gHMRWamPMDkzWWlUhkzs3NiEqtU58QUFrB8iQqQqQiKdVA8ain1XBH6XDQvaCCRc1rkkeQjrVoBj/7eajAJ/DBBmlb1/ajVpKH4gnbu3Ildu7fB8024rwGYLKM/Ju+/WM5EplBN5hAUFvHE4S/h6VO3Ixw+KRoM36uxFE53E7V2AaYduOQ0n1y8f3dv7852FFgBCrQBmOXAxQHMCtB+pW5hN/tmh7suowIslRZQLi9KK9A0IaAAcUwHft6JnNdOdHSF1lb0ZtUKUPgNw56bAaj+t85PSZIq/EDXPgvDAsbHNmJ0ZAOGh0YxuWFE2g1rP5CO9GAkulIBfHHeWCq1BpgkiZGoBfiFBTx17C48ffJ2BMMnoFQVSRoLoPYqAa0NgDmfiet8pgP7nTORrdQ6c/dZaQpInsQ53sP8U5yJbKVp3uP9mkEmr8kkSYIwpOmLG34q2fTaFMVNaLkop+VNUnltt1WQSP17+lPIQ2mNiYhHEsVmI249oFpVKBQ9ifoKxOlCLUoXk2wHMASwcnUGqXcWR07fJwCTRUcQhBrcarWHeqDr2gGYVhpLO7u0+b7NAu6BLO4SR4GOKGBk0zbnthOA2vF5u9s7J39Hk9XzSTmfsNyj5jPTfRnrO3izxNvnxDY8jIOwcecm7LllsEgTqGkrmzmW12DidA6pP43DJ+/Boal/QhYeNUEFlJB6L/Ww9gDGEiM3Nzbsjkge6JavmdEqJUKCTZN6Zh53oaNA7xToCGAayuLrZ3kmhDRjGaewMYio69E4J3/XJOv+Aqst2CsbQCa/0+d/txPbTsI433DyESB5kOHnrRinAVGabtwaYOK4ikTNC8AcOnE3Dp/55DoEmDwpmuCCi9FGMhBY+Dc1N/nJ6/rJw+me1dwVjgINFGgn3dDPKmYOExVpeZn8y1w4U0uwZ6o6gOmZdB1cSL8GEyY5y0O5iI5mxSW/+dtNaYU2pgZc4HhMhn2DhmNNdXkJvZkzlweYOJ0XE9nhU/fi8NQnxUSmM/nXgwbTzgRgFibLJaQpgohBHMxv8pHEzHHqUwLsgMvcKY4Cy1NgeVO77Ev5XARrb7caOLUXBzBrmbnoNCfAcJKZ30LfR9PG3WCCymsrFxJgbLWAvMbTTNfWjFqtVqABZhqHT92DI2c+DRSO6oABydTtvWHQ2jCRdcBfBJQwgEpihGGEpFox0p+CZJz2nU3dwRjcKY4C5yxZllGqr9tzjLVWcxFTrvRyhxcEOrBIQGYFmvU5DWa1+dLax3S0V90Jc76NN1+/63ybfrux22c3O6mbggta+bDPuXVrgKlULMBoJ78ATHTUVE/le6xvgKG9mj4XRtxlKkVgNJcwDESLqVppsN1Uue8dBVaYArLKGwAm/wAGKHvwfPJpgIR8yn9SxsX4TaUnSz8melcqZoWntMXtavtyPgzY+kDagYwFpF6HKaKIuTivpZyHb5a12S4PMMyDsVFkR89+BoiO1Yt19uGDGAgNxixgLtfQ96DSVExkUrk6YJh3OyN4r3PrrnMUOD8FRDTNhZzmNRiGH/NvtsNgvT5PNG0ToOIHAjzkYwcwa53LavsyJ8vWFqsXsKzHC+e0m440ih5evOV9l41AaHpAa4Apl8s1E9mRU/fh6DQ1mGPig5Ew5T5iqNYUwDSbNi11VIowCpHEDPHW/WtGR4bB4AdqNFLgr18psIepdpc4CpACuiCspoVewRpYLFcWh4exuLAoWkuhOIQ41h1jqdWoNMnXiuqNoM5E1hvdOr6qti9bbaLZoc471ZvviEmpWStdCSF4WXBpNsdZraoZUPJhznWOLVeqqMYMUz6DI6fvxbHpzxqA0VJ8P4eEPlBjZ5c7hvtmGVJu4rkCoDabiM3IptQNeN+dP4CHjx1A4m801ZRXgnh58G+aHCavFiIkpUVEITAaZHjWnu0YCxVCJPAdwPTDAu7aPinAdhZ5jtXtLvTBhn2V1MPjh07gTMWDVxzTgSmMMY0KSAkwfVUjdyayPqevs8t1omUgExbQbCKZ+Ww6lt/8jFOttnnmfC+9mkFNzxSRXsw9dIdJU0STkkpD33qCm83et1n97AjJwxbllO2+BoLlskIlnkbincKxM/fi2MxngfC4kZjqLZQ7o1TjWVwcbDTGIYeKiZ8KqV+REv7IishqvXL4nBhn1AsEYB46+iwk3hYoVcj1nehlBIZwMk3NZXOsdqbDPD2VYFgtYTI+g89/4GewEYCuNucOR4G1QwEr8pEvuaJLAP7sCydx2+cewnwwKVq3Lr9u959eNx/zzk6DWd3JZ3kWXaKFG7VOrlTs8Kh8BEEoKRN6F7LNuYy0bFopL9fvpdNRn8seGsg82TB1t0t9MOtfd9mUQ1qc8rAAYxqgaX2idl6plKISn0Xqn8LRqXtwfJYazAlJsJRqBrXGQp2OuH6e6HwMx888hGkgY1LBkoAOG7Yhi0zTO+o0FUxlL8D777gKDx29Com/DSpdYYDhPNle4bUk2dAATIzRdB5bqyfwxQ++HtsAjDmA6X7S3RWrRAGuJopo+vChEMPHIoAPfP5xvOeORzETbkGmaBbLBwE5gFmlCVm523JPokAQxxVEkc2LMBt3a9dGbqPnOKyjvvsxaXurLqCpFSbjczGtS+tKlK6RxrBiLbxY34yV3Ot1yrQ3UI+lVK4KwCTeSdFgjs9+BghP5toO5PNuuht/hgApQvhZgFDqtsVQ4QIUmxdJY7ZQTGg0j3leFVPqeXj/nQZgvK1QPKdfFUIIp5ekTtO3dLGSgQOY7mbVnX1xKOAAphXdB6Lh2PkYRvxk3Jtkn06hMu1E0yVUWFDS9qjWm7/+Lrcrshqv0SZa9Yax5frzY8if59EkJ9WTCRw+gtAT0xy7Q9aeUgMeUV1M3xMLRrKrGu2LnzUmDpZKJZQqU0j90zg+TYD5JBCeAjImllLr6D0SheDIDpa+IsCQTglUWEIm/bqL8l5a0WMr6Cqmsufj/Xc+S2sw3rYcwPQhhTmAuTj7oXvqClPAAcz6Axgr7FrM8KpSul8O6dMCqa4sB51xtqcLN042H5N+MdY0dW4vGF6WB5jmXjHc3NOsAl9CDplhTqTj5uyhEI5geGgEtNwxQlGjjWbC+mFfwG7QxkdjcIjnLy0tolQ9IxrMiel7cGL+E0B0smbCyhVf63rBZF6K1I+Niawg41Z+goygLBoMAYb0S8QHM6XyALND+2AIzv2UzHcA0/W8uQvWIgUcwKw/gDF7Nqe2mpxBGCXIQJDRCYj5qsjaF2JBRrdP5vfsRmn9JOcASA5gWn6HBKkq6/ukEQK/AHbApDaj4ggeihgZnsDQ0BCGhglomgnr5jQ7JTlzWc2kp/1JS6USlko0kZ3Gydn7cGL+diA8AahR8ZHUTW3dLzoCjPIrAnlhUpTunCnDnwVgWBmBACOeGnhItA/mziuNBpMHmN5NjJoYHLszkXU/g+6KtUMBBzDrEGCoQZQQeCVUcBwBSpivnkG5vCTRW2EUiF+m3rnSNCATpYY+GpbQZz0rvas394Sxn+VNYo1mNCX5KNSUVBIhDIYQRUVkaRFIJuBnk8jSUYyPbcL4xBh8qZvFjPRcdGKzj6im5FRl3ItLFSyV5pBkMzg1ez9OLHxC+2AIMNL6uWySLrtfajqKTNWd/Gw8EMQaVBhBxs6fxonEj6ayG/D+Ow/gYYki24ZUNJh88ET3Y3AA0wPN3CVrkAIOYNYhwBA8ZnDs7Hfx6JP3IMnOQGVl+L6SBCi2MvYlUcLu4raEP/dubbeiFF//vjXftvLN6DNt/xluxgUoRmKJeWwTNo5diS0bno2kvAEbJnZjcnJDrTlYgwbTMghBdDINMIuxNFRLsjmcnLkfpxZZrv+49sGIKa2Ui0jrbt3RvyLLglFkEqacIQmq2ixmouy0euGDraElD+YL+/Hw0SuReFtzAON8MN1R3p29/ijgAGZdAYy0O/ZmkeEoHvr+ZzG98F144YwGGOkumcIjuDBCTCRyG7llzDkCMMaJ3UcmuO/T5MUSJuxVojUUT00gSC/DFZfdiCDdC6QbsWvnHtFu6kcr1YWf0dnOn/QleSiXU8zMnoHy5nFy5us4tfQJeIWj8kwGE9h20HkNLD/R5wvD1gDDgGofQUJwVMhCtk+jz0WbrtgCms/yswizwUvx3s/uxndOaA0mkUAA54NZf5ule6PuKeAAZh0CzDQyPI2HHvsnTC8+BC+all711FqknbIFGNmwzcYtrYu1BsOsW6uJdM9Qoj6YTV5HkjGKTPw56QT8eC/27XolIvUDQLoZu3ZejkKBoMYjp0nVilXWI+jr5/iYm13C/MIMwqEKTs89gENT/wh/6IjUy2M75cDXpr7ljlbalwUdAowSBc+XPBgWlFQEZ9CXxYg85hdFUClPDDEbvBjv/dwOfOfEflSxUefBSGJrH4fzwfRBPHfp2qGAA5h1BTCSYOlNQ3mH8DABZulBeBFNZDGoVVDy1hupqU8mWem5BEdjIqtpOD1xqgYWG8mlpf4UWTIGVPZi7/ZXYsi7Bki2YtfOvSgWGVZM411s6mfZhKv8Jm0zfM1nGXD8xHF4YQWl9FE8feqfUE4PIgjZGjpDmtIBv/zRrMHk/xYrmM+gBIUw1WHVCQFYkuczpARpL9QAk4aYjV6I379jE75zcg9ibwKpRJppTbDnwwFMz6RzF64lCjiAWXcAk2RnkQVH8fCjn8BM+QENMOJ38U37BW6ZJmGvBii5DHop29KHicf0wtKbNrPqNXggHUdW2os9216FYf/6BoBh5r2cI7DEjTnf8jjvy6hv2keOHIVCFX7hLGZKD2K+9BTiZEme11DNNR82Z2a7VeCCZQSOhImUWapQoKGMyarSLZLdiX2kVG/AagjUYDxMh9fg3Z8L8e1TmxEHBaSkqUnI7HmpO4DpmXTuwrVEAQcw6wpgKLkn2bTU5dIAcz+8aMoADKVyT+en0JdBLSNj2C13db25S5SU1Wh6zuOwSZo261z/7akNBmD+HYrZdUCyDbt37UOxGEppF45J+2tMUmWDO6ax6CVNbouLSxJNVqnOwwtn4QUVMY9JqRhGehlgafWzVXi1/YzRYklGDShDJJHSGaqKkXm6lpqYzxCJ2S9TVUx5e/G7n5nFgycCVKMqFIHVAcxa2uXcWC4aBRzArCuAYYFLhu6yLtfD3/sEZqtfg1+YkoKXvk+pWxe71ImXFNMtwOjoLBtF1p+JjAEE2iFOR7j4XzxW+N0AlPfhsq2vQkFdKwBz2e7LURyK4FkfUD5jvwFgcjkxMmMJVJZhZqaEhYVFeEzuVAlSah1RAXFVA2YzkLQKra4BiwEk3jeF0qWRqrr8PSJdRUmhBM9nmQSCDcGsgtPYg9/99DwePB6gEtJEqfOJnInsou1q7sFrhgIOYNYdwMTpNFA4hW9//3bMVu/LAQwLQeqaX1qDMWHJ4iNhaDO1BLZXrvtPeuNTDQbi3FcEM/6ewlOT4oPZveXlKGTPhZduxe5dezA0XDAAY303xD6rsZhCmNahUgMdAiK1Cn7BvJ4Us7NzYKdLVpCmiSxftr/ZqU9Nzx55EOJnkqOvPERhiKzChMsE0aiPqjqD+dJBKH8KC+VjTPekHQ3T/jV416eH8PCJnah6k0g9Zv+b1s29EVDXHnOJlr1Sz123ZijgAGb9AYwiwJzEt0WDIcCcFsmeG75Yv0SDsVFjJpOeACNhy9zQ+VnvLYd1Vn4G32NVAFNTTApFTiAr78auzTdiyKOJbAsuu+wyDA0VBWD0nmrMY6LRaF9HHQnqvypU4EtggK7OrAiczEuplZ45fy2yXEW0c+ZfgrhVJpFoQpKsCs9fwInZ7+CJZ76A2aVHEY1WkKpF+CrFbHQD3vO57fjOyWchybYjYS6O+LB6zeTP14SzdUJNuyaOR3BY9zKnvW40ncWW5Bl86f2/jh2mmvKa2V/cQC5JCtTyoutl0k29jnw15cfwnjsew3S0BUhjU03Z+l6txaIH8tVctjqBXPY8VlmnxCZbIE9Q2FI5gY+87afwiisiCfrkWueeor/vI0CngyEPRLFL8TU0tcalBJ9iBio8hkcOfgZnl+6FXziTKw+jy8JYsNGEtD4TAzC5xlod0GqZU/QmaZ/D/Btm8KO6SwCmmF0PVd2EPXsuw8gIO5jogpv1cTXnwzQ/Jt8szUaY5c/JBwZ0+xYmT4gVDbIQnhS1PIkHvvv3WKg+AESnkZpQby9ewlnvefjDrx7AQ0f2I0k2IfPGdGn/niOVbedRHX3HPJxAefBp3sxCKD9FEi3qxaOKKKoz2J79G/7kP/+fePnmzRitr+5uX9yd7yjQNwXy0EDDcq2SutlXWK6f/WD+9ItP4Hc++W+Yj7YgCjPECUGGIf4RQAtDi+CcTgYnNhOatZEhKAbiM81iI6x6od7ykjJ2Bmfw4TffhJfvG5YhSvCoVEm3vuOeF3DbYa4DgDlqAIYaDAHGEks7qqUHS20HtBuqQMKKdhOxAMjwaQ0wO7Fz08tQzJ4HVd2MvXstwBirUL+d7NpObScnSI0b0RBSj3lBJSg8jvsf/hAq6cPwCrOoMskyAMYKGY7H1+L3Prcf3z5xFaJwG8olj+Fmtk9BJw9sOkeb/TRC05RpASaAn4VI/QRJtADplZyNYxSnMDz/BXzgN1+Pn9x3HYZihf+fvfcAl+y6ykT/fUKFGzrnbkkdlVMHydiyEbaxZBmwCQP44QCYZDPO8GDmmwe8ecMANrZxfB4Mj8c8BowjNk5gHOSALEutVitYOXSrc7p986068X3/WntXnVt9Y9Vtdbdcx4h7+1adc/bZZ+/1r/gvLzy7GlgbD9U95YdkBtQ+cFwXRYAh3HjCxUGH/Ae/8CDe941nMOgvh59NwA8DRJaKCaSDbxNgiBaB7yHhNUTMkUOQNQZ0XZNdJIVXMqic+gH+6T/9NH5sy6KGv4Z2jpZwFOXjwr+4CxpgmEWWBQowpycY5J8MMDpdRRfY2QMYtWJYfzMZYErZ9cjjFecpwDgrOkfmU585idH8+7jrno8D3kGY0hgiuqlMgjwbtgyaqwAAIABJREFUw2nvBXjvl6/BA8euRJ6TC63EUn9b09PO4rT9y8U6dSY+WQPkpkJZk9GlyU2T9KK/fAqr/G/ij9/4k3jl5hvRIxbMzIWm7Yyqe053BuY6A8wJdeqquMztSqboZvoNAeajX3kC7//60ziFRTDJmChlQuLe0wckdQGCdg8jTBsZEPiAFF2zLs0m3iRUHiOswnH8z7fcgps3VqR8IzT8Row8ieCH9KqcPSXtggWYWq0macoEmIef+tJ5BzB5fY1YMEWA6e3tkXU02UXW7tJaoPNoVlO2+9wqRzGQfgt37fkESqVB5N448rKHBBGieBT13pfg3Z/Zgh8cvxr1qAp45ENLJ9XizHdUNnJlW/Q4q5JeZN26Jgxh8hDZmI/l1RPoTz6Hd73t5/CTG29Cla60WZgM5jue7ve7MzC/GShCzGSAYf4qrZi/+tcn8Mf/tBe1vrXICShBiKTEYmy6ysj71x7A8G4ehYlHDwR9XgEL2TR4SbeDEPnGWBYdwt+981W4eXOP65eLUODPJjt1AebMGAwbcRUBZrB2x3llwRBg1ix9QQNgLrnkIjiAWWj33Pw2RMu3cwb6U3hkUcZRnMruwO49n0E5HEJuRlE3dcRs/hp4GDI78ZEvrMd9B7YiDy5BlPdInKTtfjB5Dt+2UdANIo7hSVxsiHJ4QS/8yMfiYD/K9U/jL37/V3DbJS9DL8j/1j26M3CuZsBFYVwwUBUk91fCxlgG3HMww6+/7zM4UKuip68Po/SKhf2AxxhMzWp4bTxDniK0XIuxAE2gXq8sQ6UUwEvr8FFH7+h+/MMf/jKuXVNBDxvE5oCfjNruvyzfmNzksI2RTHvKBWvBjI+PI84GkIeH8cjTX8ZUAKNkkMVYy8K7yPQe1ky2v0sWmQWYML1OXGQEmL4+upWcQX3+iMYkjeGLBXMMp/I7cc+9n0bZP4k8H0Ya0PzWvjADySbsPrIdn/tGHUdPrYSpXITYD5CwpWgbh0euMwEYILFamIbQ6GZkPREQmBBekqHMTZM+gtteNIpXPf8qvPTiV6GHbrrzZxrbmIHuKRf2DDiHWHFPWwtC/sRm48AAgN/8i2/i+0+dROaXMJ6HGDE9gF+WpuUabJ//wf0DSRgwiLIcQakMn3HnpIZeL0U6MYSyF+O3f/Hl+I2bV2GpvQXhJBTnHe/bBRgbrJ8sSc5HgHFLhACT1VaLBUOAIRfZ+QowskUYXDd0hR3DQHYn7tn7cVSCA/AwLFZ8UC4hSmqISisx2nMlvvStAfzg4T6MxhdjNF+MxNjWAfPfI5oebYwFGGvd5zmCjOCTwCQRyqaOHm8M65eexC///BqsK4d4yabXw8vWaWCzJcOwjWF0T+nOQBszUAQYJqK4SzgyW7VsaibEN/fluOPRw/jsF76M4dggqS7HBDn+GunE8799DobqQ3hBGbUkQSnw4MU1+NEolpUz+NEwrr18M/7kbbdIWj+jLeNRip6SDx81dkm0bu6uBXNGmjIBJkpPNSyYofr34JcHJIilB+thnh0LxrVVdplkRYAJElbyr8TGjReftxaMm7EEJ8RFds99H0fZewaBN8ogiAB8kkbIyz04lZaRlTdhIroUTzzj4cDxBAk0tjTfQ2xL29Qs9gDuNwb2+XcxnLIUZT/FuhU98NMBXLGlAi9+ABt61+OFm98KxOs1uNm1YuY79d3vL8gMTM4jm3RJiauk7NmO1Kti0DMYBfDwvgSxCbD3sYOosabNcy1D5j8gAkyU+vDDCqIklRoXP61hUZjj0vXLsLTq4cqLPQGWvpxWS4LEBFIryH3VrL9rzwMxlxGf9y6y1hoY9+/h4WHpB5P6B/HY/n8BAYZZZAQYFfTPbpqyEmwqupFNOcguwtKenQhTkl2uwJYtm2wdjNbAaKD/HEvGQiI/XWC5OYpj+Xdwz32fRsU7IRaMFlEymEgA8BF5ISJTRWT6kBJYskqT120uK67wHWaLsdEZj5jM0H4qqck8vCyQezLdJmCcJ6sh9BJ46TjW9u3ADZt+T4D7LGdZzvOJul//4ZqBJsCwELrYhMOVcAvTBSMhtNJtSjPPYoi9GLlpZ96cwdTa/KOYSybKmgglphtwD5dknM9W7uUFDTBaaHlIAGY4utOSXZ4bgCnGYhzALKnuQCnbjjxejq1bN5+fANNoQ5MhNUdwPP82dt//WZS80/CocxltLcDiR2nQRkIZL0McsGdMDj8jXU17QKkAozGyhADjZcg8bj02bSuJYUIeNN82kPNMCXlSwsq+m7Br0+8D2crzKl+iHSHRPedCngGbgsnyBHgaX7eP43jSJcuLf7fKJHeQapfy22zNdOcwOS4DzdWT2VME2ArxIEkG8KTeTZJGz2pycnPYFzzA0IJ5/Jl/PQNgSEApTceexULLBpuxtWAIMM6COW8BxqlBbPlijuF4/k3sfuDTCLzTgBlXfrXcg5eFUp9CsCEIJMEEMkPWgvYBhlfTZqMGmfGFFYDtzvh33k/ycfKaJCBIGwZTQZr0YPmi52HnxrfC4OIFLpedw37ufqU7A40Z4PrUflM5168FmKJl4gigGtvMZk2KZiRUVu0pZxyCJlza9iNCe6VZmNKFxI3ReSmEGsYgsR+oVbOgteZTrosLBmCca8z9HBoaaqQpE2BGYvaDIV2/WjDKcMwZfHYKLZ0FI8WWca+0TG4FGKYpq1uMsaHzwUVW3CAeMnMSJ7Pbcff9n4IfnELujSoVTO7DT0vwCDSk7vciAZicAJORx6zNTSJkpLrKNWCpVTECaAJc/AtbYBNgUgGYJOnF8kU3YvumN8HgIjZ7tn11unKvOwPP9gxMDvJztRa8zg3lx9V6NUChMMxGXkAbQ1cFrAgwTHiR1k0NhgG/cAPpYGvv0/h7m1t3rsO94ADGPdjg4GADYJ448NXzEmAWV7Y3LJht27ZIHcx5CTBivVC0D+B0fAfuuf/TMKUjyPxBpD7TGQEvrdi4SI6cHGHyd7rISjA2jjLXRee+Jx1AHRmpMiSJ+kWA4e90PBjpUEprlKSiBJgqli2+ATs2vwk5LhLSUG3c1j26M/Bsz0CxDsa5puxPq0gW62IcHDmZz1WrlkS7MGNJLnm+3TNMWSbk2D6+WtNvLZUzUhK6Foz2OSlaB0WAYR0MYzBPHvy38wJghCaGwX5rwRBggkTZlAkwrIM5rwCGGpCYfEAswn4AI9GdEuQ35UNI/QGkfk0BJlOA4dcyL0PKWInJ4aV0nbUr4HWDSh2A5iu39JehNcP+PqxFo7uzjDStqAWz+c2AuMgWllPu2RZR3ftd2DOg0GDXMNdxAyzop9JIjIOPqQBGLYk2AcZ6ALR0zF7DY7mB1t/w7ySOsd4xa11plqYoZV2AmR5gTp8+3Si0pAUzmtx1hotMlYOzW2ip92iCYBFgFpWvbwDMpZduPQ8BpumHrUmY8hTG6ndg732fAkqHrQUTi+D3aKlYgj5S6BNgJKW4bXCxDgOeT7bkRqfRkrQmENcZ/y41OvzBGEwJWVrC8v4fwY5NvwtgfRdeLmz5fEGPvmh/22YaajuI4FaLnLtKFLSGc8r6pBwQNSyd+U+F9HNyQOJiO+IGoxXjKS2MWDeqRCrS8CxrOz0bAJPZyHS7rripxtiKx5OuLcGH4lkz33k6C0YAJiUX2RE8efBrGE3vbDQcYxqwBPdZY9Gg0S5qCs60dfdu9+l16ZBsTvu85NpNM+mHiTZgcXU7/PgqaTh26aWXoa+vr9HHpZl+3cm9578ozzxDoyCR6DQKMPfu/SRQVhcZA/mapkwKfWpjgQh/BvoJMJ0VodjGa0L5H6kel5cVYOxmyPNUyZQz5vmHyNIQy/ufj50bfw/A2gUAGBcD0pkpvg39pJgX1ATklr928CKae8GtSnexqWyz4t461yung4d+Tpx6JsAUbRQHMPqWBGAEBGxERoQ+rRzuqfY8AA5geDa50BVIJC0HqbiY0aBi0sXtVljDOXfW34NJG6lPTSoodfW0IK3deo2sB/exHaIrSJWs08ah24F/ylgIRGp3Zl1wEujy8F273fltFXZpHB0dxUT9FGIcxdHTd+J07dvIg0MwXiwFqsir2tTLREoF75CbWrgVaJrG1wldtYcsNfBMhqAUI0kieKYMky1HNnExFlWug4m2ws9XY+uWK7FkSZ9MBts9B4FbVOfSxdPUgchqZDCIofod2H3/p2BKR5F5g8hpWUhbaLVkCAACqo1GaZ00bHOgzzXBl8bOoLx+sxlbjkjWYpbm8E25YcHs3PQOGKzrIAfH3VsFPAk7eDiHhjoSOKIYacxU6aptfKbTwMJQbuUgJQBOUwmtmRwzbOICXBjVcV35W2NVpKRkb5IoFsFHx9c9zuUMnAn4k/8yWX04UzZ28gaLComug+a9nZzWldN632dP5gjAsKthYAFFt0OrLuVgovlp83FsB0LJj7OPKF/TlFM9UxJPbYM122KXFaz2k7lowcWCS/5OgBkZOwETDuLwqTtxYuR2pN5B+AGDwowV9EsbY3i1yQCTlay5yNgCizE5rna3Kc3QEjKylnpjSNI6WDfr56uAaCP6K1ehhM1Iaotw9VW70NNT0pYNFsDTNIHPpkPn7GgCTJ6HMGYQA/XvYvcDdJEdRe4N2SZtfL6oCTAE5QbAdLJY3TpzMRi+C86H6z6aogkwBPIKsqSEFYtuxM5NbwOwoXOAsSBAvzWPwK5Z59pANiHriToiW+fISvEh6Z4cvRSsifKohb10kWqvbruxZwMYx6QrAMM6hWKPEdfn1NlLkvaARNpgE3iCLsCcs73TvfFcZsBkeZpHcYRySNIzoB5pr/eptbIz8VADXNbV0fA8UXPTIDDBy3jcnBQQngRs+fXIKndzqSh1wfPiA5FNeWDwMEw4jBOD9+HU2J2IskOAqYt7zOS9SBPem+NwJVC0oKxAl9bJ3K5zGUGLDuCEh6TShvJMfhhLKm2ekiF1Kbx0A3pLtF7WAuki7Nz5PLlIkReSlphYdefsaLoKGasy5hQG4tux+4FPKMCY0WaVvliBfM9cJxTGxVbJrVrSXB+o6KK0up7EZKzzwVBoM8jvI0u9AsDsws5Nb1mYIL91VTQBRtM+6QpU5UhbXKfwpQugZORIV9IYUZqiJP002jvk6W1HQuez19oIp3KRzJAWuJ1fAp0EjougPj/rv72Rds/qzkB7M2DyPMk1Q8dlPTQvFEURSiW6LHRTTXWox0/9jc2vED1sJakEbLXGgQlLkhFkd5DbJrNtkSLAOEuGbqZTA8eQYgy15DDq2RNIcBxJOqGB/awi7itD6hERVBrcyjMKDguAYH2FrUyywXr3jM5zWHzmhjexkSniIU8CuXaOui0SLMHHEoRmDcrBGowO+Vi+bB0uv/wyeyl+l7NxLoHlzDcpctY7iYGYhZYflxhMbsYUUETo27wUuhhF8hbrlhcCYKxJoFK3cX3OLS2ILKWApwUTYMWindi56T9agOmwJpnZN6TxsBk55GvSw1mWORJaJ562BvBiAl5mvXhc22rzuDVcnAnbqmPanSnWEAGm4UqzO8J6AMSnTrOJQSj5Lv34noxFay4MfOfKbm//d8/qzsBZnQGTJ1Tz7faQlFVyarEHhwpASUJotF13nj3dRiLHKbwtwEjBnQjfTIK0/F+UJPA9uoZoFQEjwzUs7q/AY2xEpBo14pldVEWAKWr9IyNjGBwcR8bO18FJ5GZE3FUS5EcFaUpNU4GuCTCaoeT+zmfVwkf7TLkWaBYBZrrP8sxD6PdITCVJxwU8aRExEJ0lPYjrHnp7l2DjxkuwZClrYJQAj+zFOYsXz4tmWfb55dUPYCD+BnY/8A9A+ZAUWoIuxQag8Ltaq6KxSqtYtO2o4sKyWTe0GFxGWQNgdIl4tIDFgmEWmY8Vi7dj58bftgDjXGpt7JOmAYdYAEb7a6hF7ixdjYuQyYk7QpicUuV1GhufkJ4eUZyC61KZIwyCQEG4Xq+ry2yag7Pnu8Jba5VozWphn2UZenuqKJdCIUaUnh+sW7LX7DQC1sasdU/pzsCcZ8AMZTnZ0pGyCY1VIovdCVqDWK2aGr/bGrFpDT7xnCgDSp7qhfwvGx1CbzkA5tCysxh/KQIMWyEMDcWIorpmlKEGZh0pwIRIEiVvaAKEpi3rv3XkxRonByytgKJAOxl49DsGcT2VIDQtJf6MowxpahD6faCrfPPmTVi5qgcp02x9F0o2SFMPviQ5nMvDvSladgSYQQxE38TuBwkwBwWw1SXGR3UWqfyjWdjVUR6XAxgn0AlcloVWMtQIMMYCDIHGAsyiHdi50VkwXE1txtAKAJNYmppgGoAZS4GyD5RpMw8NYagWIzUBoiRDlhuE7LxpDOKYMUC+W18Uj5kARnLUnILTeAYdlNoyrAPSam2TxtJEanF/H6o9PVKt7Syk2TwA53KFde/9wz0D5sE8z+95FDhw6BjqEaOYHoKwjPFaXTQmWh4qUtxidz3YtbhIW9vy/zN9lRtdIUnI3bgDshR9PVVctG4ZygbYtZVV4cAaHwizBIFo8XM/is29VAIxKwuIkwmkWQwGzmW0GYW4df01Lt+0VBws8jvOwTGd1eJOb3Wb0QpiENoPCD4ENgqYDGFQxYrl6xAGdJ9Ztzl7YIvwsjR4kr3WYZbv3Kdtmm/aWIe4DvmuhzBQ/zZ2P/iPBYCRUq2CS8zO15SusvkOyLqEZC4KrstG1p8qBB55nqSSX+tgVvTfgJ2b3tp5DKYFYKh0qMOLVpq14K2h5uoNaoOnMTA8hrhnGcZYeBqUUI9T6Q5IwyWKINYM45iiuFFzm/ZQyqCplDiZmTxDGtfRXwlQSieA2gj6yx6WLV0Mr1SxGWpdeJnvqut+/9mbAfPGr9XyL37xS6gnyrZJkClVezBRi1Cp9oj/2QEMfcAKKloBzt8d/LDPQE7LwW4YmkWySbIEPlt7mgxlUkaPD+Atr/kJvObHtmCxyVDyNV97tqM1i0zG5LLVpNCx6NJjNk/hqs2o6Wy3aeNz1m/EAm4ES6nhIJeWVJ3n8H0PcRwhDF1NjlarE2ia4NPGbRfkFGfJUdCxdug0BiJmkRUBptziunLcRy4WU7Rs2hmUs4YcwDCobW1osTap89BtS2ugjCypYEX/8xYoi6wZWkxtjYCmKTvXn7VcxbI3SOIUJ48cRl5dgiNeP/7523sxFgEHjhzD2NgYSqVSw9LlmKeK402eIcfBphmVUm8k3Tzt3uK+8YAX/8h27LpsPXrTEVTTMaxe2odybx9yKlCBVQDamfruOd0ZOMszYK7/yJP5vv37MTYxgbBUEW2MQOGHZcRJCtOoh1ErRraC3QCqZem2UIAxsjl4MLDP75cYo4lr8LIYfWGGsD6IX/upm/DmV2xBvzTJMQhsELMIInN77km1rGeqglNepFVfnNudZv+WE9b85lSecedMtJ87gsi5oOvsN+/oGwqEHMgJnKjdjvsf/Swi8xSCUiRpwQREtWLoR2P8wVl9xWymdobgKvgLMQ9XmywxEFsFLfkjMdLEIE/7sGrxTdi5+W3Is1WTsvLaGYHDE7XDXcJKk7SQJOzK8Bzg5PFTyNIMp71F+Ni3HsYnv/MAxkwfEuMSYeY3Ar0ja4q4q9T6pzLGe3IfiWKGBH35GF75/Mvx8y/ZiWX5IJaWcyxfutS63zp9B/Mbc/fb3RmYzwyYvv/8vZw1JfB8lCpVCVhK8Jb2Pq2aSUFKG/EvVsdLYJb/OVdXYgU9U4KZ3xnDNymq5QB5bQTlZBg/fvVavO+3XoilSYLQMwgbCQVKuSIAZelXZn4YCjr2D9Fa1jMS3aYU3sUI0wJsznnhlfvyeYAqbmILQ8pxFIPx9/D9vf8Ar3oYuWdjMBT2Ln1YKF0KeVOTqHjms/TEvLUUMVxXLqjO9UdEoeXkw3g56vUxcUOWwl6YbAl6g+uw67K3wO+40LI5Xs3s46H/v1l5ov1wOKYTR04iSQ1OlVfjd/7+dnx73wgifxGyNgFG76607Y3aH6mLUWXEI4tBWkd/Oow1+Ql89I9+C6uyQfjjJ7Ft82ZhNzDnRaLIPN979+s/NDNgzJu/LllkfhCKBSIxCRYq+j5yR6DWmA4HMKp7idYl4MLCO7qomEZps8Ocj15o1nN4rEaOJ9Dnp9i+JsT/93svxtIoR8nnf7YOtQAqcwOYZgxhxmLJM+T5AvnMWt3rLr204WY5j4BkuiVNHUC8o0xWOIUcj+Nr93wMpnIQUXrC1ulQ4Lt6oSJJiuULa5esrzgmKXZ16e2sRq2I8CWwpFkNxsuQRD68fDnWLH0BrrvkDYiTVSgFri6nvT07GfIt4aYtdtScOQIMO2r6OH7oGKIswImeNfipP/0MDuXLAW/2LMjpR9Z0Uer+4XqxhIncVyzcRIq+dAhLRp7C3/3Zm7Gsdhz9+SguuXiD/X6HadrtTVv3rO4MzGkGTPjO7+b0FycZUy01TVnARcwIdw31D1vToqHnic4n4GKBRoje6uJCk8rwnHn6ug+SqA4v9FHxUvzIRT34n2+9AUsiIDQpyuGZNSFzBxgHFjYFrvWxz7aMP8MoWWALaU6vsf0vWY+m1u/hNFI8ja/d+f8gK+1DWBnRFPBG4LuYrWXXhMRLis88n7E4FgX7kpwLTtLdFWAILsJH5ocI/SWYGOnBqiU34rptv4TQ0vW3nUVmV7W1mfVfYqk5G8ICDFPd8wDHDh5BYko4Wl2DH/0v/4jx/o3TlYfNbRJY44NEGXgavZ/tghKPgLB8ohKfxtbSEN73zldjZXQUy4MaNqxbaxNwOqE6mtswu9/qzkC7M2DwjttzZoqx2JKWDOtfxHAROopGJN3WPEx1Gwod5udzm1LTq8OX1Bj1oYt7gQBG68Q38JIJ/NiWJfjrN+3Aqpg1MnR9BGf0p58bwBRRsCjpi6jiUoWm+7zdqZPJmebkefnNOhlA5+c2O7gCAiYn8MiBbwj9znj8NMLKmNLtTGmluLltdxguW8uBFSlptM9Ms8BTs/ImxjwEZgUQr8a1V7wCa/pegBzL4LXBxDBptA1j1sXIVCNqJpixkp/ctD4OHziE3JRwpLwWL/tvn8VgZYMWP7Z75AlC6ZWeS8ozFTYG+SXULwBD5c0gqA1gfXYUf/VHv4INGIU3dgxbN2+RupuAmZ7t3r97XncGzvIMGLzj20y5srexG92Ci2GabWMDFZdx83fm6UshjVwjhRGAYXsCug4Yh8nUY18pI48m4CPBj23qw9++6QasjMbhBQECW0NQfNa5A4w7yxFaugwgF2gvVuq4z1oBaCFmeaptfh7GXFoetVgHlGZ1BNJIbAAHh3bj2KkHcWLgCcBoT5jmYetXVAPpINfaZZA5gKGvThucqYJiJPkgFraURbh82/OwuHcTlpa2AliBJK0g9Blg70DENl5RgU5IUlmKT6vctAcPHJBg/0F/DX7mPV/CEQJeR/dOEUgMUalo5HklqYBOORZUKjVMJRnG8vF9+Ls/+TWsSYYRTJzCpk2bGrluHTz9Qiz87jW6MzDtDBj8zve1kp9mi61bkaRMj7xhTA91rWvsvp8kUJj1kmjRl3Bq0X9cl97tmbg4bOopAYtusLSOUpDhxZeU8b9++0ewbIIdE8sIypX2LZiGgHB93DhOV1chkqqgfVthuKBy39VUWzfftC6zTgTx2VrBOTJ2jLSNkViYyiQL32d9zwhr1VmPbufPVcxbS1Vq2/mwjhG7nTEWYhCO4HJSqyQyno0jINEkSkIkKpxgKFuqHWYqduAiapoptpCUwp3XI8ecDfYXpPeBA/sRGIOj3hq86l2fx2FvtfRi7wRjGinRNubCDp6a0G5dz1mO3nwMa+OD+Mv/41ewYuIwFpkJbNy0pcBZ1s7cd8/pzsDZnwGDt9+pIrHB+porvxGDv1EdtGKah1KEuDpjAgqDoNK33VlBQs1C14ezYLhfPckmM4FBkIziResD/P1bb8bKZAiZFyIotQswRf6qYqNQW8xoawua7p2FFvJOQHKGpiPtcBaUk1RTjaE1W+Dsv3i9A8emzLwsVg0CZm4BrLcNQgq5yOryrGnSVNxmKx/LhNAxp9psaO/mzxevLfUY5bRrsiK0L+ELcbsGt5orhNVVI8qTzFCGwwcPIDQGx4K1uO2/fhInq5eoXtYuwrjsMQF4/kfuMc45rX4XvDfoy0awYuJp/M0f/QbWZycli2zLpZdp8WnD+zDVPPLdUlGgBer2R6vLuNO15u7b4gVpZJoWP+czOS4P/qSM4LqaX7F1pyPunv/szYDBO+/QFTCljGv9Y4sxLn1VLP2+ip8mV5VLX5XGX7qovTxGmNZw87bF+Ogbb8SKaAJhYFApTaasbxJozjYRRWFd7KThxlJITmhcqlXAdyLcp5ofN0fus6mu3+rU6GQMs83R9J9bHd1+QQHS0dRrqwV1G+mMWWtBI9LNQ+RKe+NvFczNWXFLshXAVYjp95qWqbZMm/9Ba8UlXGvr2snGLqnznf3OtJeDB/dLceOJ8ga84r9/DidKzOTq9LDrUSwYdgglr7O1YCRL06AnHsTq+BD+6g/fgNXRcfRlo9i4aXOjkFMYA7LYcts1SWdJVmrwOA6P7sHRk0+hVj+Nidow4qQm+qByp7VJs+Mmq0iC6vrCu2QNkyBN6yiXy4gj1jBVsXzJFqxecSlWLN2MHmm3sApAb6eT2D3/PJ0Bg3f+e3u7s7HAnBDgT24Wl/1iUz6Zp2/bdvogwEzg5q1L8JE33YjlcQ1lvxOAOU9n9QIZVkNQC3mlCrqi2Ha5VPqJtdAWGGAmeakmRTT0k8mLU0ci424o7Eqq2s7hyI54rujQxXg9BbCFWLVpchx8Zj+yPMfx8kW47b9/DidL69sG18njtYqZVPErMwJJa8SqMQbVeBBr4sP42B/+KlZHJ9GbDmMz62AsH54xztWp7j3XLBHmNB468L9wcuRuTMTH4QU1IWWlUkiGidmZBmabVReLs4XxY8qWAAAgAElEQVSyQq9jLTFp9BfDD8jNlyJLA8kCzOOlqI9XsbjvYmzacBM2LLkZwLLZbtT9/AKdgc4Ahp4x9hFRZ4KyK1uA0Yp+D5kUgunnJq+jnI7hx7b04y/fdBOWR6NC+FipMF5TOBxWXaCTesEMuyiX52KMFR/M0bm0SzSpKwYp03Rt+wK2b5PWdC1jcaQHMw2x3TnnGPQQ8p6G1aZr1rZyYLA9Mziy/xlxXh0tb8Btf/I5nCg/uwDzl39AgDkhLjMCjOCs7auUw3W08YW/TT3eR/H13e9GPX8UCEYRlsn4zP5I2rGWFowe7QG0ntuwAZW/TZrR2XmkdWMSbWeRkbGjB8iqqE2QhXwRVizajl1bf11aX3eP5+YMdAgwBh5JEmV/MkDKfaiarm9ZYlMJgipZoskjVNJRvHhzH/7yt16IFfEQvKCMUhdgztnqajDWNE0XJ2+nHlMjJqGcZEzfbTcGoj1PSQKq4l3dcKbRX8sNYEaA6UQ2yrpVIUvXoNpHzOqyjM4Nhgha4cChfQcFEo9V1uO2P6WL7NkHmFV1ushGsGXLFoUGLV2zRKpOM9OXGWMfbr/7vciCp2DCCXg+20po1po8c5aJJdMZwCg4a6Gzs8Sca1pVCN5DrRggDCvSvoPxNLYVv3XXfxPS0u7x3JyBDgGmyToLNvaStaYVyD79u7kBAUbSmBm2zCOxYF6yuR8f+y1aMCOMJqPUM40F07Vkzuqqo+B2VJUuMuWqQCb3Li1GR9QlpW4phQXrtGpjrLai0Z3pfF8NH1hzFFMF0hvRtI5ARqMsygcmLelsQFyTVXKUtcw0B57ZfwR5FuFYZR1+4s8+h1MEmI7uXXxwdS3N5CKjBdMKMO7+wpcmYKnWA+FlNH4Ed+z9IFDaD/hsHR5bi0fBXD1sRY68+b5C+wacBjDpdOvOZIdOG4PVe7HJX4KMtUXxVty2830AFCy7x3NvBjoEGC4im6Yp5rDlpmeb5CzVehguZGkDmyMwCcJ4HC/evBgf+80fwfJ4Aib0UO7R7KVGMk5REWuNhz/33sE5eyIninS6Xdu4RpRjUpxDB9mEFpdJ2BHAqOe0+e5FAZ7MDNAEFhd/cRLdLZIOgtQi+AgwjmzSLUGaBQQYRg2biQAH9x0SK/xEZS1e8aefxykG+acUrvN9pbPHYFZHh/CXf/AGrKofEwtm61bWAhUINhoAw/mj27GO0xP3Y/dDHwVKzyD3JtSLwHbiNhWb1g8tjPZR0lkuLr2w+O40M473YrablMpJvg8t1lipieJt+PFr3gNg23wnrPv9C2QGOgMYVxMj+8MCjKQoM8c5QSBNuph0SQuafT0yhEkdN29ehv/xG7uwnJX8QYJqjza1cpqwyyKbezbZBTLb59kwmTOmZKH8yd1PV9AU9TwFU8HZLire3f/afLCi9m+tFs1ea8ZFVL9wmrK7j/XnyYeTiyLnMxIXO9RnPjM7jqLXVQHxG4f274Of1nCysh4/8WdfwPHSRQXX0Hzu3PrdGQAGQDUZggOYlbWjDYARYlgXKhIeP3VJGQGYCQyM78U9j/wPmPIBZIatxBVg2PtHiTtY6+bcWe2M31H92GC/axbX0Ba1CynvRytGstY8uuXUpR6NbMBP3PABABYs2xlC95zzegY6BxjJQGK0n8zLjdUuvcR90ZAUYIRKxuQIHMD85i4sjxKEBJhqF2DOxSohkaKIUNHkyZhs6UmKg3EWpP2por8ZsNHsss4Pd0V3fRW5TaA5wxVVGE+7Xiq12pwFw+LKQszaU/ehNkfm7OQ4tO8xBGmEk5WL8fI/+SKOVS5pgl9HU9ABwEy6L7trklyWzzSB07W9uOsHHxaAyYWCh8F9tvTWRm5BENoGfe0OvggwLFfgfQtlCxKX4f3YlTSwhdvkKeQ4gLy2CbfueDcATVjoHs+9GegMYNhtUFwEOTLGYMRFpp0sDbUlfuJTg8mBMABqY/C9FDdd1IO//u0XSh0Mmfp7qpVJ1oub5vZ9+8+9F3U2nojClZXjfGdZlMELGQvT6IpkJdnUZU09tTUoDVemjbkVPptqjMVUWNeKofi9IrAU4KRQttoEM64rxkpYmRMxQM3WxG2nGHAU6k5SCynUJ3SJVawNLqQpB3kNh598XPq27s/X4Bc+eif2ZSttfW27ENdc6S69d7oYzNrkCD78n34Fa5Nj6EmGcOmll57R0qJJr0SrdAIDE3uw++GPqIuMFDwSA6FkL2oNnfigiy4yejDcjNE8coaoXTsuhdnVyvDR65tw684/BbDxbCzv7jXPgxlYAICh5kdgiZGbTCqfeWg1sk0CCEvSOhlBjrA+jBdv6sXH3vhC9I6cQE9vP8qkimlzMmbb2lNdd7ZzikOZbVyzXWu289t87AU5TRxPtpZCrBICjfXJ86cC/HTZXU5T7UTEF1w8k+yiZj5SHMXS7z5jf/sgENZvsn036/vbzWHjFNIhp2kOhCrDrp72hWaNekUmIkTCEXbkicfFtTSw+HL86P/5zxjs2aiWu8xZJ8fsMZipAYaBfXdf2yFV/s3ZGVeAeejDNgZjO4U2wMVpCg3/ZxsP4NK4dS4bAbUpEwestSNAY+tl6htx684/6QJMGzN/oZzSIcCoCUzNkqR91IhF3zSqBSsjrO2XkcSAn2IRxvGiDT4++usvwmoMIg96EFR61GQuSGttlducxuJnkwDgfJbg5/sqIKbkAHvMsfMu31pKLjlLXUIFQWtTrHE66Xmsqt+wcvTD1uK9Ka0W+zJtl2J98QzuG7IKu9ZfDEarhTKp4lFaP9QQVFx/Gttawo5tunUy7auwsZ+io6/pKVMXmiGq5DkOPPk0UOrBvuBivOK9X8Uo2ZTjMUCKIzs55gYwH/p9WjBHxYK57LLLxNWkmWM8As0Q46/y/8YxMH6PtWD2I/eKnUgdILgvt7uJWv2nDqzswpIXp++1GSxyFo0HRJtx6w5aMJs6mbzuuefxDHQGMOJU0EJKnz3TWVBllVLhcGINjEe3i9L5e7VRLPFq2LkywV+/5WVYmZ9GnBoEYVncMUXh5Mz9ooBq/Vxkzyx06a3XnUoIzvR+Oq12Ptvnz3b9mT4nVUpuQsRsCudTC6cQSqXDKOsUPBMiT9WlovEKF7NoCgyGlVtTiFvdYq1jcP9myC6QeqkcqZciY1MxrwAwmY+0nqPsl2FSg2qljLHxQVR6SojTGuKUFel2fU0BbrPtO96ZFpFYMDaVVoqFZe1qa/CQ/VjCEuIow9B4BFPtw5NYhVe95wuoBattz/AiBcBsd53q87kDzJr4iADM5ZdfXkBeXjMsVPAXAYYWDAGmyDbeCjDtjLl4zlR1MA5cij9tvx2XtFEnwLyrG4PpdPrP4/M7AxgpoLRZRynTkrXLpYgMSTcl34aBKVeRj46j4huEyQR+9LKleO9vXodFtQmE5Cpit0vJONOWyS7jhER+0wknN6dTacgLCRizAdhs7/Zsn98JwJCktG4yGAbCshx5wuZvdGfmSCK2uvbVmhFvigKBWqj8rRhlb2rAMwJaq3khsToV5gSXzGRIZd3wdp4U8VaDKqKxOiphRYr1kiyGF9CuIAIyrDDZSTnbeml9X9KVVepc9L4pGcRtJTqTIEpUtOsp6lkJptyLyHgY6FmDn/2//hZjizYhjhyx6mwrYabPOwUYns/WGg3GHwCjGJjYjd0PWxeZpF3zYLage59FoGl3/M7V5gL+RdJXBy4uFboQT+P6EYD58y7AtDv1F8B5HQJMI/YrsVJPUpLZw0JjMg2HdpSgHFTh5wb1Wg196Sn8y8d+GtUaUM2AkuYFNGkvWD8jjLmTZ3Aq98dc+j3N5DaZzaXS6eezrYFOAagTgEkN+1XWUWIMLPKQRwmqfo4sOo2e0hgCbwQmG4UxsX2VVB7UJcV4mxwu6Dbbg05pYTDm49ypDOA3/fiMsnhUTnIfScTWyf1I0It6VkWEHsSowg+rkq1YLAqdH8CwY6bQIWuTPDrEjC8AYwyvm8CkkazpvLxcojVxmmHP/mN4zz99ByeyPuReL3JhCO7kmB1gyEX2od//VeEkowVzxRVXWLeTZS+fxEHGsQxjoHZ3MwbTIKXUPjt6LETL62JqhrNk3Ma1gNJ4rw7Q7DldgOlk0VwQ53YGMFygDHLKjwAmD6Qzn6Yts3I4EqZ+k2YIUgZoQyRhH8phAn/4Eey8/GIEmYFPYMqYvqj040VrZjoLpeFmaUWhlmmfTQB3+pY6vX6n53cyfloNMeoIvDL8WgXlNEElO4FF5QO4+vJh9JYfx0VragjMCPw0gJcxUMOYGt9vXULkrHOaqWXxVC5KN2aKGfHACT2MxnpoSXhMtZWYXo4kB0q9a/DIvnGcrq/BA/tKGMs3YTheh8QsliSFyawDk2dkJgtXLDFPqWlCLdZCRleTdKUgbX4ihZUmrGIkq6IepVhS8fHwE09hpLQU4yghF669dmMYbqxzBxjWw5Dski4yDfBbLrC8EOQX8B/CQO0u7H74Q0DpgII335Vro9EAGNdord2V5GIsDrNcHKb4c1JpUxPcmEXWdZG1O/EXxHkdAgwXlwWYjBst0MC+WDBKTYE0gm88BHmIBGWkhlpnHWGlhqw+Cl8aSbHaVzVi19+i6C7rZCbnEnTu5PoX8rkECC/MkUY5griKxX4N/enD2LbuMH7m5WUs7XsMPp5CCAJMCI9dJrNQBbqw5abIGhxUdM+cKWhnSlMWB4rEXDTbkCnvjMnQNWV4fSYk+yFG6gHicD0mvM04FV+GD/zt/Rjyb8JQfZW0DC7WSErmW0GpbjItuz+qpcJ7EUhSIWGlBaNuOaar8BDrhTYL07iDMsbTEsISQXgCcRwhCarIg5I25OsEXxrn8hdrwclQ6XpWC6MaD2FtdAwf/r03YFV8QGMwV1xl59ulHjc9AJqOTIC5G7sfJlXMQQswdI/ZpBu6GC11S/uV/M4C0hmbmtWgADSuhYc8V65pygsKMEUX3FT1WUV3avGlTXazzm9Pt/vyXdyukyy++Y30XHy7Q4ApvNCGoNGmZK6RlesnQu1JBIlklmkFuVSSSwC53Zd0LqbsuXVPLXrzkcYZloZHsArfxttftw0rg/tQwT4YusnkXVE4NfuxaHpzp0wp6hbTVaRdJOlGlViPxAz4Vw8JK8GDHowlfZgwF+HbP1iMT37vYozk18D31GWX2iJfxm0UPPTaJiDRYqxp8moiyfLzs0Ay5MTDZ2M5AoaMO9GKztjLxNLac6XKuiUQaUpyJvRHjmCnzTXhxiP7wKZNcmuEZWC8BlNleecYytEQNkycxkd+99ewOnoavfkItl15NTLWoRVAvZlFxouMYWDibux+5INASIBRC01aUUu/FiqAWmTaNt1NA6CKdP3c/7a+SK7vhLdbP45cMwOiTbh1O2MwHXCR2RAQgd6TNWCfSQqHC+9lkkziP2zseBJzxHzfo8aLyY4ge0EKy8907U9dJOw6wtJluTDFyvMd/bPx/Q4B5tkYYvceZ20GZAMquHOP9HuP4/JF38Ubf2YVVuEhBPEBpnnZKImtq2dSgNX2JbeskYLaziht4kAjaUAD+yLApb4kRyBCMRfZGOcVRN4qfO/Jtfjbb12BgXwXkOaa9eViyylrWZQ1wkZ3bKqs3ce2XYmX0aXrIZXIuASIGsLQeH4j2SSXLLOpjmLsoZ1n56QbthEFMnJz5VqQTMHnh0At0gTNoI6KAMwgPvy7v4rV8X705MPYduVVorAV9V9H3a9ijnUwtGA+oC6yBtMxhSETJCasoscyg3YFHOfOuuiyYmdK/p0x2EKX2QZLhLPU0gUFGKXBaZbG5rTURHktki246innknTvrX0LRgGmdf6msKTOALsuwLS5a7qnXTAz4AAmy+CVfFTSh/G8i+7Ha1/W0wAYEzpBfW4Axmegn+nEeYrc70MNK3DvoU342L9twal0u8g3AkwmPq4CeaYVqSIA+D8WkYo0tiovC/5ENroCLCsBXFaH0XOahysyWcC3m5MXLBDePj+gs04oYQVgwoR89nzmDJV4GGvqJ/GB//01WJUeRTU7jcuuvNxChj6f0JU2ssgKAPPIX2ihpQzbxctsEo6o3baxWVuP5SwGa8GIlWupo8hx17BwOMfuPvYlEQxYaNmhi6wJqg5cXA9S1gUFTd/ITE6SdvHFJieJl0aurw0oCHZ8duUap4XirKViLMqBUNdF1tbS6550AcxAAWAQGJTiB/GiLY/i1S8uCcBU8iPIfRbPiuGvQmpBLRixVWzas5ogrRYMDRlSwsRZIgAzli3BD45fjg9/6SKcSncgkKwvBzB0f2lWmKQOWPcrXWEEGhZxisQh26LNoLW9g/VlOUBxqYmThFK7UmiGdZAz+liRlElDrjDfICFBQlBGGCfCXoDQQyUdwaroGN7/e6/FyvgoerNBXHHlZeKg41sRPji6BS2ZuT4cqWLoInt/AWCKwsxaHh25yIoA4yr0de7V/WaFqFhIdFlZ95i46JIFBhgl+qR15hgomIDi3Fcz7sZOXq1dI9rwTZUXJRx18+tiXnYEC2D4XgCSpTHErovsQnpbCz3WgotMgsn5I3j+JQ/il15awYrsQfQHpxDnNQswtmJ+wQGGsRJXVzM1wAS+37BghuN+PHzyCnzwCxtwOr8Bfk6AMdaC4QPZeIZ0W/VgpCGeLRGlMAhZ9MuvKeO3HLYGRhvjuRhB4e8LPe/2egKAiZGGXHE2Br8cguEir1SBHzODLUdicpTTYaxKDuEvfpf9YI5gUTaKq6+4DGyVbL3+LQBDLrIYA+O7LcDQReYofVqlqWNBb+chLcCI16tIGVR0EVl3lFgwBfcYASbauDAxGFEOlEVCXGWTaBkcqLZyNVgg7Cj+q1AmJRYEFck3cdYKXWCy4GzdUeF+1ohuZ8YvtHO6AHOhvbGFHK/IBxZaBlLX0mcew6519+J1t/RiWXI/+oOTSBCdc4BhIJvKb2p6MJIQYK4UgBkyN0qFP7uoZn4huCzRVoILM9MY49DgPt1oIgcZV0kY36mjFIzAmFqjuFcNGScIXVZjJyru9C9MRB9JO4MSxqMYXqkP9aQiTc6YwOaT7dhkKGWDWJUcxPsZg5k4hsXJGK658vJGFwOXRidyyzEaI8HA+B7sfuR9mkXWAJhiHMJRurT7fBbQreZeYLi0wOfApWjd2MxTsWAY5Gc/mM6C/I5Ob3ISoxtb8XmL78KZp0UwnO/majKZaNsLCyjy9Il2DDXKFN+06Drh7pvv+M7997sAc+7fwbkbgQUYcROR1Tp/BDes34vX39qH5ekDqOJowUXmLBhlyabw7jzIr1rdTBYMYzBZmko2WIIqxrLFeOiEWjBD3o0ioCWjy7PZUdLBhQDjw2QB/LyiqcR+hNxnnxRqzjl60woWBUMw2d2olk/D90mPw5719KdrT/vJRbDtCuHpXy9BPUEdXtiHWrwU9WQ5gvIlGBwJkQeL4VV7kWTj8LLTWB0fxAfe+StYN3ESS5JRXHXFZbYVeTOIrdxkFHRKCyNkl4+817rICllTDTJKqv2dxmCcZu5+tsYWitlj/I51jzUA5r0dAIzeK8tj4WTT1hFlJIkreWCGpJTHFrJaOQYHDC5o1z7VDyNnmmpBelhmMC5WQ7joHhQs47qkC8+1xCjEZc6dBDjrd+4CzFmf4vP4BkKgzJRc1sN4EoNhkJ8WzBrvEYTJwckAIxvl2QWYshcijiIBGGaRTWApHjx2mQWYG8S9JR1TmQYnxYS2CTRNlZypyOxHQnMggSHA5OPiclobTmBd30m89IU9WL5oDNVqdRJFEUGGgCPWjA3gLvSbzE2K1I9QSwKcGAjx1P4Y9WQ17vnBCAaTizGOpUDow8uGsCY+iA++4/VYO35ELJirrrryTICxhLOO1VjILh99D1DapyUCfJBGVb2rn+kEYFqSIBopv84HVCC2dO4xATe65WjBbMat2zsFGMZexoW5gMWxCVKM1yaQJDE8slLk7ORpedgmJR04RgNn4bT3dskZ75PqCjHSxEPorUBvZSkCpt0L0W+/usmKfSAaGX3P7QC/ei7f+e8Lr5q19666Zz3bM1B88yZHr3WRvf7WXrFgeswxSRfWID+JMc82wBTTlG0dTKa1HuQei8E05ZW47/BWfOTLl2iastTiuII/ifarVi61CeQbipR3CCzwraFcGkIl2YOfesEgbr4G6E1OokwhNOPhJmpht4pwsJnUlnQGMKXlGKn14+6HQnzpe0sxnF+FmrcMpayG1fE+vP/tr8aG9BCq9UFcc+0OTZ9rUH9pRX7GuiZ59hyn6SJ79M+Ql55qpCmnqbJlBATsOJIaqPaPYj8YlzVRjGKri0wtQiP3CwIffmBQr0/ATy7t3EUmgx/A8bE7cODIXTg9vB+5mUAU1VCplERJ0MO6PcXC0/Wsk9fJOyUDiSdM5HE6KHcJvCWoT/iolpfhorXXY9OaH0WIdUizHviedZfJPa0iJBZNu2ni7b+5Z+vMLsA8WzN9vt6nIQ9mABhLM6IAQ1fEArvIBCRUWDEwL3cR1wZZugkwWnF/JsDsVMEpAMOqewMj9RgsUKRFQ4K8MZvVtAiIR9BXOomrNjyJn73pMWxe/CQqUR3htLUu7qXZSXLNYhboXTZEm2dQT+pIvRL8yirsP70Nn/nORty3fz3GzGqUshSromfwF+94NdanB1CJBnDNdbuEpsfFHXJE6rKka5BWaZ5hYGw3dj/6bnjVp5HmsYCJbypIErYvZmo0v1cshpzvgzmCS80ubPSDaQTOCSwsdLXvkrxRtF9SFkX6MNEW3LK9EzZlLegcrj2CB5/6ewzX7gf8Afih9iFVFgkHglbhaAAM63+sBdbme+X88z8voB0zKO8i9BehPhEgjSvoLW3GksoOXLXtNpRwMZBzbdohiduOo1sIqqH5vrdn7/tdgHn25vr8vNNcAabRwPhsAYwKKwUY2yF1RoC5GKeww86pBqslK0soi5hZxpgMYy9sCc3CwhIQD6LPO4Jbrh/HLzzvKVRr30foJUJNM/vRiaY73dWNDK0cliVOVItThOV+DJsd+PSdW/G1vVWMeasQpsCq+lG89x2vxdr0AEoxAWaHOF1Y6UEHjabJUmjaqnIAp8f2YM/j74NXfQq1+LTElCrlxVLNH8eJNHJLEtfpcvYZOOMbk3joXNGl+5ZS9ni+gmCea9CbFlTglxEEZUQjG3DbDZ10tGSG4yCeOfUdPPjkx2FKh+CHdYnJhEEFcUwgc9aBs2CoiHCtUdjzM0eZ08bzSzJiLq0uMoyKuzbw+uTaZNnO42UI0o14/s5XY1FwDdJ0EXxfGSHEa/tDEO/vAkx76+q5c5bITRXQveZxySI7w0VmixNVxGpNuHZ/VD6vztwM2v9lsgUzH4Bx/n6SVup/Uh0iAEOSsVj5xJhAakZQjZ/Gbdvr+MWdT6Iv2SNN8DTDZ7bjbACMxT7Plx48SUJuN4PB/Dp87p6r8PX7+zFq1iBIDVbVj+M9b38d1qQHBWCuvf46W5bJELO0irMAowKVBX+j0Q/w73vfi6B3HxAOI44nYFCG76kVo66rFrLK2aah+Lm8fCfAXbqz4yRz8RnW+OTikksSgmBJ/ovqBkG6Dbfs+iMAF83nroXvjiLDUTx6+F/wzPEvI+w5hSyvI4oihEGPgJmmcvNwAEPuRLpRKwo0wjjQXpBfUgxsszxj6mIV0kUb+FV4poQs7oNJ1+K6y34KK3teCGClTUTwugDT5hvvnnahzYADGC9HLzRN2WWRNWIwMwJM54JXNqpU1JOEcj4WzE4r4JqxABW2trCPwJnXYJienKQohRPoyfbjZdeM4D9c9zBWlR5BlEeW7qb1xU31XJ0/62T5TAAkK8wE/CCQglIC91B6HT5/z3X46r2LMYaLEKY+VkRH8J63vxZrk8OoxCdx/fZrGqnAAjFClWJ5xWzWUox9uP2uD6GWP4LqonF4AYVvbGMBTO6gBt6ecJ08W8VU3yJvD1AqBxgdHUIQ8n4GYdCHJGIjuyqu2vYKbFz8HwCsa3PXjCLHEdzzxKdwcvRbQHBMwELiSrl2+GwE1yVbzrpSpU8VG9URdwgwc1EwzhyiKDKZL1ZMEObwTC7JBWK5SbO+HvhYiU3rXoxNK18JH2vtRbQnT7Mwts3HvwBO61owF8BLOqtDFANAg+S9cBaMpinPDDDWWigmErU50KYFM1+A2WWrw4u+hiZViMgPMncHHqKYDdRGsKR0FC+7dhg/c/X9WBk8hNgyCUwlPvRvCwsqkwCGthsBJqnBhB6M50n3ixHswOfvuRb/srsf49iEIPOwIj6Id7/tNVgXH0NPfQA7d16tLAg2DqMpytZ6kd+ZuHAKJybuwcNPfB1j0X6YYAxxXEPIpnJSwe8VXEhtvDwbk2tU7LvsqEmusxRJWpeAu7AU5D1I4yoCsxTXX/UKrCg/H8CKNm7OU0YEYO569B8xHN2JBEfkOkEQIGWfB4bnWvvgSAyGr5VzwC/w3+2BLAGG1mBMWh9mk9FDScYJzj/BJ63Ay5di07qX4NJVvwhgLdKMAK+BfaH2ee7G9xW/u1lkba7t58ppzwmAKaTgNgSIVlCHsqGBmAllGEJvcAQvu34YP3f9g1ic7YXhZp8WJM9O9phbOsIenbEHTYa04iHJM2RxihFch3/eexX+dQ8BZjP5RrEsfRp/ToCpDaC/Powd2wkw1j1IhVzYhDXtVeMxFJwEmVE8duAunBh6BBP140izmlgTSawkjVIj1PZhiyYbtCjadkHBSzPZjMcKd00Fjuo5Qn8pli/ZiPVrrsKaxeRTW6YZfm0ddJEdxp7HP4uh+veQecfl+V1SAS0TI8kilP/OYmGbCZoP0zEbzH0gQtLjBUIKof2s6A7M1BJlmnJWQZ72YsuGl2HLsl9Cnq8RFx7jQspR9tw/ZgGYuWhvC6DCPmfnebb5W4i5a61FKE5m8bNi5bLVzC01l6Qheyl68ezx9ikAACAASURBVAR2rb0fv3xrH5Zle9HjHUVmElsIyUJLLSgTz3vj0Tp5hub8ZLbSXOM7Or5GsRoFKLPI8goSsxL3H96CD3/lIklTlg6qjTiA5cASd7u6IULGX1jP4odiwZTNAbz42iG8+nmPCcA4Msypl+DZBRi2FSjlIepJjLTkSfM1gs4IrsHn9lyGr97bh9FsE4LcYHn6FN799l/C+onT6K0NY+f2a5vASJYD21pAQUdrTRw/VooxeKA7aQwZ6toCQWbOuo3a3n+2pqVh5RHoXdW+SwFW7Z4xIQrVHFWkKCPAUmlAGHo9LWm6xZjJTAPj90YBHMHuxz+DI6e/Ab98GuVyBfV6HWHoIcsJJrbCvmCxuLR7l0XW7grmCJgsUSqVm9lyrohVElaqFmBuwbYVr0OWrYZnWcLjOLOWZNuTf0GceCbAFHoENzsFTicobXC2Iz6fC2Ke5jHI4lwVBNSkVez+0WmhlQ2yujiKqx62xmmDS0RyWe09xedufebCNCzqHXIvQR+exK41D+OXb+nD8nw3qv4hpF6qZJI29dd1kJSmYC4NtO33z/tr/44MJRFBuZfCZxvthPlROeIgRurnSHO2N6amuwIPHtqED//LepzKdyE1JaWtt8/C31nZr/m7OTym49pnZmfOijmMl+2YwCuvewDL/Qckyj5TR8yz6SJTzyTdZB4i6S9DWk4Pg+mV+MK9l+Pf7u3HaL4FYe5hefwU3v22V2NN/Rh6k1Hs2HH9FGvSxUKKP/k1znFrNbs7vbNCw8mDcOusUZzTXGuNNekASBsUqrVjFZ6pGqfYPOzJsOOebxjAYdz96CcxSAvGnBCLQvv62OJKWVW6T/QsMkcwvVgLLbn+Zn7/M299BauWZAft0aqJBOlibNlwC7Yu/yUgX10o2m0X1uYhis6Drxq8844W9GgRkKLlTg0wWoPQqZA8D2ah7SEUN/JcFkwr5bvrvjiXc6cbpHPitgoV916KP1s3smUepp/aY8f7J3HD6kcswNxlAUapWBRgKMi5HkiPYdljCx0t5z+NDmAYKK1oh0mvjiDPUYnZr8WgHiZIfOUPyLIKTL4UDx7ajA995SKcxA1IGUyVDpW6qWkJScKATAuj2Cl8C4aBGUYVRxRgrr8fy70HpfK/EwEz/2cunsH511TaWASgA5irLMAswgi2oiQxmKfxrrf8PNbFR1CJR7B95y7Lcd3q4XProHVkRaWmZQwLFmdqUxY0xEvr2FW+TPVE+jSs3j+Iux/7BAZr30PqndDgugUYZTSePD9q39EaLwJMezEYnUULMDY9vMk5xo8swKy/FVtXEGBWzeCO7Wwlna9nG/zO9yejh9Mm5A066vPZht+JgJzt2ufz57ZzX8MH7TSZgkbjirnsYpzcQ76zHiNN+8hZIvrOmm+j+WrV4UQfTHGM9h0TYEyMHvMEblj9kLjIlme70eMdEesltdp1s/NIBq9RoNdJMr8dK/ui5FVkrGz32UY7QTkmXHiokyPM89XJIlpnP+4/vBUf/PI2nMSN6uUQnzqf1bpoxIJxVhrTUlVLDzGMHhzGLTvG8Krr7sNy/0FhVT53q1epbYyvdpw2EPMxkF4lMZiv3lsAmPqT+PO3/gLWRYfQm4xg+44bHVF/ywaZXhyfHelWJJOcC8C0rkkdfuPMhjXjKHqanRVafQMGE/DxDHY/9o84XbsTmXcCxiPA0GphRoFtjtcAUL2CNjlwrtXOLJguwMwsnw3eeWfzvU3aafbPUxsvUyzq8xkIztbYVB9qulEKKZpSXdaqNdq4QsM11ZlwU3O/VT/QwjsXw5isnVOno1vTckTJzuZ3tRaEMZgb1jxoAWaPZpGJ9WJbEFtRoMLAaX0dimepXaFboyTuscxnvCBGifIBPiKvhIxtkfMMaR4g8/pw3+FL8YEvs6Pljc06hka/d+uesYFl5VLXLLkAw+jFQbx8+yh++rq9YsFkHVlgna4rpZf3fCOprqILGw8D6dX4/N6r8a97F2E0txZM/SkBmLX1g+iNR7Bz143TUIxMt2FneE9z2uNTPKtTQicpWLOthyYAijvTXrbVzm54ngpOtiJ0qt3Aup4D2P3YJ84AGLrI1P1ls5OLMT1xXwVW4erURdi1YGbaBQbv+O4MUm6WxSKC0gVjO91sF975qgm19sFwZrPbOS27V6a0ADwd1LnJPpHcfjd3RQ3SafACD4X3NFkPlHbDdkSLGINZ+wBef0sfluX3oscct0WLBDKG2YmZDJ77Uq/RqCtos1BNAVi7IPI3kj9mfh0mzxAy4g0fMcFF7kmACZH4i7D38KV4/5evwFB+A4CaCBJ9D87374L91gK3DxhiCP35Ady2fRg/c90eLPN/gJiC5hzlispbYX6FR5DVmAF5106lV+FzAjCLNQaTelgR7cO7BWAOiwWzcycBpsX/c062UFHsz9WCcWuwCTCTrBhrZ+jjtNgt7p+y5rXQ8vuPfwqDtGAMLRgCB7+k89kALpFV/Lc2AhOlpuOW32583ESW063RaK3rIpN3at7xbX1lLhxQFH6NBTsN0JAmYZIGf05W+Dm7KYWa+nI1JbOZweN+tz+L0+fIo5yF04n79wwBM9V7KozFvi/ZaNSYGby3zb5Y4EiA2bl2L1738l4sy/egBycaWnIu2WQU5c0sIbWOOqDakKp7ss5KcqkCDFNLWZMuAOMhIdWHzFUqABP5S7D3CAHmcgznN8DkdREamk1G4OOkaNKCWHHki5JYIRnKCDD78QoCzLUEmAcRk235nAEMayG0FsXkkewlPuqp7Gr8EwHmXgLMJoSZj5XRfrzrLb+INfVDYsHsukGJPs+hf6+w7yZJ/Vn2Y6u5pGt26r/aT8T9WfQWWMXBG0OO47jz8U9jiDEYCfKHWjxqBX1DlSsAjHpVVTGU7dcmF1kTALsAM91LN3jnd+y7LbpzJknEmRdM4+WfMzl/7m4sgomkisW+7lz8anY791TDkyBaenO4jU01m1dhrk9YvKBLvpAxuhu4sbFfCjchL6yfm8xgER7HjvX34LW3VbAUu8WCIbeXBPYNrQQCku0L04j1zEVrnfoB1HRWS4hU62KPyVx6Uh/CcSUeayk0GyzOS4iCpbj3yDZ88MuXqgXDIgQBkJJNTbaCSCq0+bzWHWgY0RnConx/wYJ5wOYQLdQLmOuLcqLJl0pwBzAi7ownAPPZ+66RGMxothGljJX8+/GuN/8CVtcPoz8exg03WB629qffDrZogcxv/IXIyXxPbN7bZa0ys6vFHeYeTfI1rOKgGXHW7SlEpsfw/cdowWgdjAKMWtx6UjMJxlkwkhDiAKYjcHED6wLMDABDC6bAH9TqwplRRbISrVX9aHO5XXCnNTa3OHiaCk1RJyvAt6b1Fg6ha+/0qe0FWrL9mhl+rgjRfa+4jSmblV6E+7HfPIbtG+7Ga24rY7FRgPHTEB61bDvMVJYKXQ2x9W+3TzfenA2XTcZZ1OtRCPBgggEpOLycABOi7i/HfUe24sNf2ooBcZHRIUKQZ2W2b6n5NWlBAYaFlBZEacHgGbx8+whexRiM/4Ctgzk3C9hRjSjAxJpC6wU4mV2NzzHIv7cf4+klkkW2PD6AP3szLZjD6I+GcOOuHU353tEa6iQG4RSEdtdwoX+PtBhgMkfTF9BUf1x2b+vaHZE6mLse+wSGandIkN8zWviYe0wL0YB+U8Fi9qNa7+ri1dhiZ4dVcLousimn0YS/+91cO/lpZa9sRo954uxZnrFva8uJLS9kUpZUZ69qTmdP7otqs4fmdObCf4mClpo9M6qSFKZSRR6n5KpQzYnzVxxv0dqTwLMbUicSQqrsEJTLSKIISGKE1QryjO+UtSrO/ekiMS6TTBykOn9pijAsoxw/iJ2b7sPP3+JjcbAHveYEgqQkIOOLJWOQssLSRPCEioSWEF2E7fJdUNO0DcykMJLWkVQbWh86kOY+Sj5BLkE98TFmluDhE1fio1/YiIFsB1I/QepRUJStBcO+ghZgxCJinQyBJ0Xgj6En348f3z6GV+54CMvMA/AbdTILvzxmvyItL1bTkz+L0+ihnhmcyq/BP++9At+8fxHGk/UIEmANjuMPfu1VuBgDWEQL5tqrIRQFsmfntn60W2eB4p+Ctmhezz7glm9YDWsGD5ks84JuQ7mijAOU/oQT9uthmrzr4eNL8WIQaqV765O5W+nPMRjsx71PfBKnRr6NoDIoJJ5yQy9HzOdlVlmDCZy/6Z5wbSEWgqxVFfRuDGaq5WOu+fO9+eHDh1GvR6j09CBJM0RxAsN+DXbxuywAcfk4xG/gjJq20x3a33zmQ/s2TH1Md747Zy7Xn+3+M30+0/XF90/qDVKSez6iNJU+6pw/Eu41rQhupsm5FE3f8OzzM9P4ykGAWq0m9w/CkigKSZpooNxnfYgLbKojSvrXC529vjfhBUwzpBN1LK8exrWXPIyfe3kVfeEelLIjCLMQQRYKyEhBpGF8g/ECZvBQQJCSpX2A0YI4luq7WBavxT4ubDHL1OQAWZIj4NIL+jFhluMHhzbhb764FqfiK5AHqQBMYsrCyxUwK8tSpUhdTR7CC7TxlE+qGHMYL90V49Ydj2IRHkSY57YQs5NV0sm5zCDTTI+UL8QPMeJdiy/t2YKv3R0gxQbEo3WsCYbwB2/8RaxKBrC2anD11k2q/Eknz3bWEDPYrFLZyfBn3duzDE+Yrl09li+8XsqV5gDIuQDUWrIOUHGUGdQQYB/2PP5xnBy+HX5poLEWuU79METMlttyns4RY32iI5HDTVzWnbgIZZBWg+sCzJQA8949SX777d/Cw488ajOSKCwDeH4goEOW1+JRjCucaYJ2vlJbwcYJ+OlAqBUApjtflsIMQFYcefF7MwMYGVRVy1KywRy+r50C46iOSo+24ZVNIbUkjkpef6dF4GV0/7Q3bwQRJBMol8tITYDxKEfM+EWpjDAMkMV1+OTikk2lzgetdKceR8EE1GqjWL5kKaKJGKg9jZXV+/DWN14Hk9+FSukYfAps4czSrBvGRBiIVyHO7N/QUpC39wwqXDgfTVeb8Gh5ttUtYz4pUBL6/cUYqi3GY4fX47NfX4qTIxsQlhQ0U5SQ5wYBObkkYSDROfYrIriTJIKfD2NRZRAvuD7Gzdc/iWW9zwgpYjviud2nnXyevbPQ5muwmfA6VN+Ir96zHt+5m7xaq7CkZwmed+UGvHTXFVjux1hRDXD5tq1qIQcz1yHJ+rOWs+ssqetA590RZC7M87irFJyflu2huY8LTgdRALRdg/xfoUGnxl1Yw+Q6P3KCNKOQblNlGKsjoAXz+McxNPEdGHKRWadBnEYIKxXEqVOoHMBYqqPMAUwnLsIuwMy2bsw9Q3k+OqbNb4ISUI/surVcbFzDFvo1K7XFbBV/52x3mePnRfnfiP217P7ZMOKMMIf1Ak0GkOa/zvBg2Y9mu49qQ+oliqIcvT0GExPkF9Ie9/zJfhRuA2k9icvaaqYGqzY1/QRJt99pDoqWMvmW8hRR7klVe9ij7bPGx9WDIp5tyR7jZlX3gSZsag/7wAMicjf5FZTNEKp4BMOD30Fq9sAPDsOYmoAJXQocSuyzsl85swg8DJZqknE7B33hOpOSPCBaJf+XKBuwSZT2JfNhkhBp0g8v3Ijqkhfh2OgO+KWtMCmf3yhlTEbuMfrYU62pIbCwhbLxUAo9VMsRotoBIL4LVfNFZMnDQFC2fvp2xt/pOSRLJIsB91yKPI1EIQjCy1H3fxKZ2YEsWgaTBiibcfjJBMI0wtXbtmL50iX6Pp27acahEGSoAOl7Ul4wt4I7aZnsBGxxAU+9mHXp2biH9WI5a6RoQ1DehPT6kuMr4Chl19inozuQVp0CTC70NwfEghmP7oAxR5DxvNBHlNS1xxDrqAoWu2ZQqotMLZguwHS6imc63zz09MGcBHGyGVM1K2m9pFmOtIEuTppSIEyue2GDpJlyJen3nc8xFwtmJkuk3c/cGFvPn83qKfmBNFLiZqeLiiY+hYZSeDOepQVdXOyubsYFHqm7ZbPQhc90fx+svo9QGx1CtaruzTpdDKWy/B6USJFu2WRtHrqzQK1hD98zqI3XUK30w+Rj8OLDCMKDOHz6O/DKxwFvREBG3IEmRRQwldiDl5VgRAvUOpv2DoU6HqnNyPMY69H8MRGEBGjPVBBiMbJ4qTSn6um/DhPpJgBLUMoisQBT29vRJ7GlWDAcrwc/7BHyQ98wBjOBLD+FWm03PPOvCCqHxclCcDs3h0GWGnFvcqkEZGRLa0hqa5DhpQi96+CnS5FGHhiSYNOutWvWY8P6NQ2igtnDX5MD45xTBRvOsbb8bT+G5rpYFiMjk9eC3EM9xBr/aVamqHvJsTl7ISZiupjpmre5jQQCUYwKICAWjCYDpKgjxQnsfvIfMTz+LZSC48jqNVRKfJ8J4lQ7mTqAsaqMZkU2aq+6LrKzufbNicPP5GQDrdXrmKhHML7GDhIbT3D9iKQzXANcHMioNjwTwMwmoKcT7LM9dGsMZrb7zPZ58X5z/S6fPo1jTZAIyfQbokaNudyHehbgiX2HkFgBJqBiEyKsN0SEYCq1H+0JaD9PcOnF6+Al4+j1M5h4TCyakpcjqk1IoDTO1TposhVrTEZjM8zyVTeJZPtmERb3eBibOAiv9xQGRp9Ckg2D3fqEVN4kQj5Jq8JPq5qJ0yAVnO2NTfU5veNMf6YFou1+PSniVIAR/ZixLLrh0l5UwjXwzRp4ZhXibJEkGPgp62CARM5VF5mAIV15MupQEh4CWjTZCIJKHRPxfajnX4NfPSZB9XNVB8OnDCRWx+C+vpN+P0dWWwUvvxlecinK6RJhHF6xZqU4JTdcvEm9/pSdc2DpIcsymQKc7dLM0XJrrt34mbNeWi2A1rXs5MPknyLWUyY3aNvoNAjljdMmcT9dt/pW6sxiplmEo3jwqU9hePQbKIfH4SV0m1GZEPVNkkQcP50qVZpFxrUiTyA/2tt/uqK7MZgZLZg8jVhooBMlmpzqo1rvOvloQkkR9TtZoFMPbe4xkPmdP1fgmKuo1LoFbgcfEwgwJHXlwH/+4FfwvYf2oxYuQuz1CPDQguHCJigwrhFwG1HzpmuozUI/CuIsSbHIT/C6V9yE37jtIizhaCYmUC0zcM7G32VxK0z2ZFODUxrznGmdakPI5mPnR8aOU4yTIF8UZA2R8u2z9zifkH9jfw0NyHMjt3Oo9aLzl6Ii2V5CTCl/07oYJhGIBioNgUntXtXUY3ErscmTfkYwES+9yAp1xOsTOYYyWpQTSDCKp47fjqePfhLs+CgJGh0JmHaeXM/hfbO4hoAU86YkySHisEs3YNOG12DjihejjH5pjpVJZhxZ2mzKeBIjYOqZoMxMh9urSpnPzEL2K1FHGeNV4ihq/yEmnXsmuLAE1pP4mkGak6mALlUHGWyjnEvW5UgOxAa4+8kMSdnD7gcOI/NLAgCixtpCSY0faQZkyZzAkuBRrFj8FILSvSh5h1AiO3ZSE4WCmooSWzoPAl1jltnCel66acodvPo5nGryPHEkSIrvgixNojl3DQc2TdBxi6ld//scRnfef0WiEmIlTJiSAMz//dVn8Ldf/C5OowdxaTEyps9SO5dNxbReAktsySL5F61Ab+/QUvyKSdBbO4Y3vuomvPXWtdLCKUjrtlMlYxChxGWawpYyRTv7UcMXG8KwroVbsYR6FCMoKUsx366AjMUQxjYkH80K+QbbehsPoOJfXYnKEODKPrm2CDAEEcYpmEhgqSac9iMCxGZfWfJCBRiFUrXaVPmhUC3JA0wgRQ2PHv0anjjyCQSVozCSFNAeQLbxyJNOUR4DZaumq46u6ZKfoz66ApvWvRbbVt2CEvqQxAY+kzZsXUeaJSgLSLgZ48+W/ejMHJDSfgwJxjFWH5QEFCai0GqldcMi1vYBZiprZfKsUKnz/UDaJdNjFQYV9FYWIWBSBnqQYRmGcw97DgF//Zmv4c4Hn0RS6kMa9KGWsn2DFvY2aV6s9yQ36MERLE7uxqt/aiUu3XgAQbYPVT+QuJwxETKmoIuLmlaqjTq5OHIxyCpLy9bN2AJlFxu0KTwNV+6Z5P+andmkKdJdJWubbMrJUqXrX6EdLX/YDpPn4hw5w16Zfen8sE3VVM+rNSSJH0jro7uOAK//43/AUHkVauwYWOlR93GRXLLBQlwUCB2ANAVNbQLl0GBJ/Sj+/r+8GjeuA3rY7l0sGBtYLejpmqFjhapNV3aBVNUum46UhtXaGG5h3NY70NlKUFu5mUbqrlbMLmnN9LAjtAFaPVcByoV/afm4kWY52yUz4WICnqnjqePfxEP7/19UF59CwpRyF/yeS2ZHZw/bcrZBKShjfHwcfokFghSMbFdwMTaueh22rLoNHhYzlcO+kyYYyHsqzD8D3qoOBCyF0hIZn9bmw3jkyL/hwNEHkZsx5CzoFCFL1mEuzU4ARoVpE+gKBK+N9F/bOZOxJpRgUIHvVbF+3UZcuvpmpLgKp9CHN3zoTnx/3yBGJmooVfrEtRUnGbxA3yPrpZwoVxeqQU9+DIvT3fj1n12JbcvvxJLyESR1X1pPw4+QpXWUGPcRT4GqTy492YEAE3J836AejyOslhFJxmGGnhJbO6tKpmdqIWzC8g3plKptHqjOMKwgK5KJAyRtFbCqwWMLing5tl5EgPk5ZDndu9pplYq86AgdbP0FXYpn6WImX2i/0Vka6Hl7WVm82lvvK48m+I8f/QpOhysbe5/+f11FdjW5gGUjfa0T9wQv6/KkPSyLT+Ijb7wVt12uziRNBCwKkKkE+Xk7s3MYmHs2K9hks9qe61Kf00z1y8VhFiPDMJ468nU8c+oTGI8fRxBqN8LiUUxNP7vbw6gX0/cRBIx7Tkj9j5dswKZVr8eW1bdJIgNg60IazmuOVjt2Kkjw18gCDGNOVm55g3j86N/j6OB3MVLbBy/QzDw+LxMndGl2mkVVBJhmnFGvq6n7THqh9SKuvqSEJPbR37sCa1fdhItX/G/43jPL8Avv+TxOeSvgEWj55SSHF5atR0XZsBtgRvdW7qGKY1jm7cVrby3jhovuQTl6FIFZDD8sYSIZQaXiAXWSp+ZIWTwubYxpDfO5I43FMDlElk8NUZ4g80PWTKNCyhkyehuCIm3hSGpmYk+pk8oZAT1DQgXNYzO8WHjlfNOjCotXg8/unfUVAjBblr8SSboCeRZonU/h3c1hoV+wX+kCTKevjoWNxmDUAH/zzWfwXz9zD4aDFTClEvJ6XesUxJHcCjCd3tien8Yw5TLyeoJFySn80c9uxxtecrECjGTuPJcBpjCHDcPKZs3RhdfyMa2DFKdx8P9v78ujLavKO39nn3PuvW+quShAQIZCiEYQG2JsI4gjGKf0SrfGoBLNgBrTsRM7q7tX/9Gr1+r0inGmhCRtJ+m1NDGDxkSRQREwKhFQEBWZw4xQ05vvvWfq9fu+ve8979V79d4799560z6soqpenb3P3t8eft/87b8ZDz79WSR4RNSH8wNFHaioeqeq+nKZ60vvw0g9EbMsQRgVKNonYO8J78Dpx78WgQBMeS68qS3A8Mq1xn4tj+x+rn9K8Thuvv3DaAf3IKhNwEQtURsFAYsm14VTVxNOLypCR3i3vy1LLhJHjrzQoGPS2AQ1mGAISTsQKWakfg7Of97v4RsPjeFtH/lHHK6fgDAOkdHzkfFJkcY2qdfHkQDTCJ7GWHAH3v2WrXjBtm/iuNqTQFKXMg9JPoOiaKEuRrlcAYZZJwoWrSNfxkwUpF9DgDmOE7SSWUTDI+r4khSgeTqMaGske9gWZ5zEEHAK1AgwRSYsi4kZO0gnEup0CaCcexthMIYIJ+Ok3S/H2Se8BQV2i5TDdDYuPklos4EfDzC9Lm5JgvnUV36Cj15/Hw6ZHTC1GnICDHUVgwSYPIWp15G3UmzPD+E/vWYvPvCGszeJBGMXrywEysXm6vKUFpfmqqIFE0zjmal/wb/cvQ9jOybQSlqdAFwXiNgNTlx+cG61beQqWmrSy1qtoXVvmsfh7FMuw0m7Xm5VZDYoTT7iGAarynTZiJhhQfT+9ApU5c1U+x58+86PA/WHEdaagGlbl/pQLnvxfhQVWZ8AppzRwQKMSI4qMohzhgnqyFLGikUIi7Px8vP+B7758Ha881PXUh6xjikcHyUZ63i0CMDUcRBj4X3496+q4aXPvR27ogdQzLYEdRsjdSRtxnDRwkiAUYN/kA+JBxkBRqLDilFJNmqycZUgY2aEoAKRIBwhlazeVMKq92RitBKmAkyOgoFkpkCWz0riVQKoxIYFQGS2IZnZjbNOfR1O2fUqhDjOitRli3bXdaraHlrbrTzA9Lo+1NkGNKMCV15zLz52w/04EO7UXl3usQ7AWNuHSxDW67fdhUM1Geu2ZwfxwVefgd/+xbM2McBYtJmfI49R43kboWlhMvkJbr3rT5GZf4Wp0VtOuVm5aFwePvF1odNLL5fvUgusmSAYC4O8ISqkJMnQCE/FeWdfjh1D5wIY6dhgFupN1GH2jmJOPMnVQPd3zODw9A/wvXuvRh49BLDOjsn1W1IigaohcbQfIMBkHRsPgZMXN+0wBFP5lZyJV53/YXz9/jFc9olrcKh+gkbv0+OS3l8EGMlRtrAEU8tbGM4n8MLnPI73vGE/tptbQdDJk0lRh0VRXVRiDAdIQwZeFgjyuthh6MlJR5DprIZ6LUTU3o8GA80zetoVqAURwiBGKlm9aUfSoN+2JFUNEFEyk2QIMTKq1vIZ2Tv1aEzAM0nokbkFYXYKLrzgV9HA80XdSeaFe6orGfffC3epXXcs/90DTI/Upi9/GhqxwVx97f34o2t+jMPxbiBJINFxNiWHqsgGBDC06kZ1bEv24z9fejauuPRMuZYiclRq0bez3Gg2mNLizXdCcHEO1imyk1ASCVI8jScO3IJ7H/oGTH0cVIuU2wAAIABJREFUaT5l83LZ2AibXqWbWuVom6QXG1ohGtQspS1mCHkWY6gxiufsORdnnfAmAHssuFgJZo5Thf6lkzPVMsUEGXoEFpjGoeb3ccc9VyGP/hUZpbeQ6hka97UkgtgeXPr7yudgIRVZFxBEdSdpYNzgHbhFyFtn4qJz/wg3P7wTb//4V3CgtkedT8QleWmAYYaKKEmx3dyHS89/DC99AePBnsXYSI7p2SkBmCKNRbWVEWDE+5EAE0r+OfEui+ow2QzGsv1omASpfJsAxLyxmixTHolXC5BI8lTmvGO+P9peQnESCEJKx8RHqsgIkHXEZidOPfEl2Hv8y1HgRBT5iJxHl1XhWOSCq7ysfWroAaZXQpYkmKuufRB/9NUfixdZ3m4jiDXIr6siGwDAcFeniQR6bms9IwDz3kv2bhIJhpeWzZgwJ6S9exOrWkxLElPtot5mM1JH5P4n/gVJdhBJNi3JMN1DMNLDvxwXnx4AJsiQZU2EYQ0htiKORrFnz/HYOXwaDE5GUYx1HRDKTofCMLjxzrM1SZQ+Xbwncaj1Pdx+z6eB2uPIbNwTVWMEl9x6M+oce5jDfC+yjluUqt6oglO7j0qEmh1EAS5rnYlXnP/H+OcH9+CyT34VB8JdNobJ2SkIoPNtMJpDTbIXE7RCShsHsXX2HrzixcdjyIxjz+4Qpj6NgEXnKCmJm7It65DTBmPAiCKNSUuwxczgZXu3I5g9IPFqtShGKGDBZKtuD+TybwowhD9mZeb4IoRMaRPMIsvouUYArWFsdAe2bz0Je8aeB4NdaLdHUKNx33anma1VnbmRHw8wva6uDRDjlXXlV+7Dh6+9BxONPShoqKSBWDgyZ+QfAMBwfxLEwhq2Nn+KD11ylqjIhjq+RxvZyO/iaNQ9t/s4gOHvvGzVFTpntD/jfkRFwRWjYrMpOa0YEKh50LoHfukca726+KoxmGNnTEgrK9BgYCwaaLeHUYvVwDwnFlKGx++6FECa7qWcTJLODASYg63b8d0fXolo+GnJ2MzLnRKM5j+ju7Km76/+lO033eBJK6pr1A49rDKtzcM/u7IglBIIMK8872O46aGdeNvHvozDjROFwydzJvjJ5IiSBVMliI79yXqRaYBWG0y13WhOYjibRi2YQZEfgqlPil2EcV2UWHSlmO+ORnp+vY24aKFRNPELP3Mi/viKt2GrMB4OA+g0UbaPKDBm4v4uo7fLQoaFY2NGCX6Fa8nvca8N0ZkaWd5AKMAOtNMMtRrHUTEJdvXFWpWWHmB6JXsJYPZdcz/++Lqf4FBkbTCqEzsSYCRrQr84Fxs5VhhsTw/g91/3PLz/9c/bJABT5uQXypuigbDdvBT0InJp1bk2LjFJL3aWXrh/XkyayUBtLQRJK5E5g/mi26Scm8HmW+jYY9jHBA42b8ftP1YJRiPWnfMD94zWrJ8bILjSw+BUYaXKoXMuZUebhYA4QN5WgLn54V2qIot22yJxtj/HmHVsMLYfSbLK6HxmAeAaZjBpgJhZCmRNE+RhS85dmA3bhKxUiWmZcIJVgJYCTN7Ey87chT/5wFuwBapG42poytj549fQWA1ALnvzOUaG9HNSMuNn2JNmnei4zPfr2K90qVbpfQ8wvRLeAgx5YQLMR5YBMNymKnn3Y7dtZoAhDctxGI67L9O1bMRWd9nO0w/y97R/OHYLMFJwbYEtMaf0b3nAzm2XjTgnGs6dwZ8/m8DB2dutiuyJUjofm1GCajTJL7iMhGaLznE+wHB886IHF7AbOQnHAcxNAjBfxsHoOHVHlgvZZm6Qgmp2nW0+RAmzJMDwxVBTwlAVJh50Ui7ZjYtR/Q0YlqUW4jBrAv89ETViRDfmvIUL9+7EZz7wMjCVKh+Fa32sVa5kxlQ5Rf9vSw10VJZdSXrR9IKdf1j1zdfTzl1uYw8wy6XUYu+VAear9+Mj1x5FghEs0ItBUomXtnD1YWxygDnCNuFuNHtBLYrjXRVTf4C+ygo6gOF1Vg4MdaongqPjlF1Btvkg4wJ5mY6l61EmKrLZO0oSTCmgUlLs2FxvEi9U9bKz4xQzjlMnlX6XtZnft/t7gby9F6988UcxF2BsBOJRAcYWDBMpxmaS62Qk6OSC6UpsjJoXPsQmNqW6LaBKK0Etz3DRGTvx/95/AZzeoawY0z8vJIK4tXFA78B1sQqvrg9V11ZPD1Vln61eGw8wvdKeelXrpvzpRQFG8kkonFjjaleCqXq43cA9wHRx2l2iC8TBdO46Z7dxkk8vF2yvm8dy5o5n7nD7zsbiLjECEMc5f6xORagX1lyAmSoBzGOdVCtKK5ektVcJhp2VL98yoNhr+ohyHmWAOQMXv/ijVkXmJBhbYEoAxqYpOEKCUYBh5m0psy0lg9TOo/ZOZ7fROCNNgGD3hFQAZb8E2BQmz3Dx3h347Hv/DXbbyIK52mvNfda1xwmaWuB3e8nJPVYldsS2KEubDr42QZ4Yue8GmwujHydwzffBrSoqMgLMdT/BYRcHIyN35WBV6JYqlHNUZB5gelrgORKM05tbJUdZ9S/nmj9wNpnypdDrGlSdgXNdX6C9qMbcfBzHO98gX54gjf3OtMe2BJjvWQmGAMO8Jw7BnITk1GtVx18GlLK9wvVnufoFa0apBNMrwAR5qKUZQqr8ciC3iWU7GeITdbSReBYGRWpci9JWM3dffMZWfP6952NXCSudANXN0Vd2AHHt3R5aZB0726pM7/l7bWMDjQeYXs6WbUufHfqfLAow8p4HmD6Q+sguOgCzADd5hGbDGdXZTbdE80DGtaxOS2q8+e93UqOUOd7yS25yXdDpAgxBdFoBRtyUCTD8GduUU5M44i1rsAuhYKfGUbcC2hGobt2S512sTKVPgOkY+VcuwUjEfBEio/6LAMP5ZcwV5kpgMFBTGQoWx5OkqK4+ucQCMWaojVfuHcPfvvcCbGfyMXF/1opnOpOuja+sOlOAcgC6MGnm/rQjntofO+ahFxtY1XU7du08wPSB1isDGN1YaoOZu2WrDWWTq8g6RJsvmVh1UudclyUCevaUshGvlgAzx0vJSQNuMM5LTH2ajnycLr87eI3d4ZsqUx9sUoLZZwHGSjBi1Lf58eSTJdvMijegjUeRdlo6oSt1leez0D53APNx3Pzw7pKRf/kqMq6h1FISAU+rypo0RJizzpERg35uSzpIzArHyPfYgMZ/QeQZvGrvCP7ufT+HLVJ+mwCjFUadFFOGBrcScwTnMk53lsMBk1MVziOu0KpXL74VL9gxb+ABpg8kPyrAuBTwNt6ga4PpB8DMVZHsEDfls/C+kpty9xpyxuJu+bA+TH31u5DTL4nUbR0OZ2ydzxnqv+tlEVmVSZ8wvjIVyqqT+QDjOGQ7j3mXWJmzdp/nz9QgzczKMwIwt/34aqD2KEAJxnmNiScd+52XgmWF89AqrbyQ2ZBxI2Ww6l7F3aJec21jRXsvXsU4GOemHO7p+ASowxglEKfSKtnXxN3anp+OvUUzAJjMWIBRswt/aS4xNqG1n4yI6QCMCWbwyjNG8LfvdwAT6TftJ+ZjR8fb29JqjhZsDri4llYFNl9YdHalvjCZK1y4Y/i6B5g+ENsBzEJGfrpNyhZ3dd9dPZiOBNPLAMixFhIwx7O9qziM33vd2Xjvpc9DgzUryKh1nFitLprZg22d9F6+vBbals8oOVWNYShfPmUTtLora2oUJje0nPw85prLxfRjoiVZTgxiL9KPbA2b6cG5T4eatJIafwVDy0rPY4jFZu2yFUtxNTVE63DoITWDw6278d0fEWAeRxA0NXZDvqOXnny+E8C48hVV8zdzhXG8BDWWI2ZNFEqIkbgLUzXHWi5yucvaOG84DvMMvOa8P8ZND+zA2z95LZ6NT0DAVDZpgjg0SLMUBYOVmUOsYHJJfoHR8JxlGXCsfc3yW+UC0TIrQSvHTNjAZzoJsNxf0cLFe8fwV++nioz/RjtNV3pRcLI9lsQWrdKoIZdHPguKNIu818sGWvmaHesWHmD6QPFFAUa0V7qzhdsTNsqpEvq0saRPqR8sucg+9Is/i/e9/kxJFUMlEfl28UEqOEq6ZzLVBaON9enTKPpAxZV3Ua5EwGy5/C/qAIzVhEg+Nr0g0jxBGqQIA2bL5SVo9e1S9dI6H80jyKBrkMn+EEHG6v0NE1XS+BzZcsZW8+TuU8sQM2elApEijxTTKhXHoorsUPNO3HrPn6CoPWoBhgkaabegFKsXo1781WwxCjC0d2RSyE0AhvVWBGAY8V6gMG0UhokirToodwBTAK29ePV5H8W3HjkOb/3IP+LZkHEwsWQlrhkgIcDE3MU5TK71blhaW/P62Yqm1YYuczdFhrho4+IztuCzv30BdliActpT3ZEq/XQqqtpDoxKkA5j1fIpWfu5W0sIDzEqotci7qwcwzKvBk0IuMsCW1tP4/Uufj/e//jTUcqBuVQQSZVEwY7ACTCYAo9XYXY3yPpDh2HfBm4AXM9OxhZlw8byWjXgMLYCggfqQ8R4RU7cYeeemh9ErRTPeUkUThXNzfR05yeqXC5eO4xETgr3MVInnHEK0nhzt0iJo6K2IwuR0sLUSm0puvNCZoFEC9EU4G8fh6dvxnfuuQtZ4BLlh2pQcUcagQ9Yj0bTzrt59lcWjHVGAjhKMLeCl4NJ116X3Gv9dcYAz1cj2gHnY2mfipS/6KL718PG4/KP/gEPRcQi4l/MCzIKf5fQOIy3KAEMJxgJMRWB0c/UAU2XVV9bGA8zK6LXg26sHMNbeYIsWbW0/iw++/oW44nUndSQYZ0asa8o/pvg7QlNe/YrsA/F66EIsCdQOBkCLYOru1pJpRcrl0r5tzQU0f0uaK/suC4YzseFiTw8M8pIzK7sdLOas6hRaYomxYR5lXzjJhCUFtBRX4k4Gkyb2T9+K2+7/JPL6w5JNmEAVp7EATC6lsoOOU9WSg13kBWYYFkmKlTIF6DQ2peuYwKBilbBcFgVR1Zk22slZeOm5n8HNj43gNz9yDQ6ZbQiZJy1nIkmuK9VV7IsAQwmJazdfRVZ15F6CqU655bf0ALN8Wi365uoBTIEgLERnTRXZdjOL973uXLznkpMlF5k148rBZApFXlYuA5Vy6utbReb4ZM7DKgBtHqluug8xEVP9RY4YkMovvNgdPZwJRiw0dDJSFbyVJwZLH2fid4Dnvsu/EwhFYHEqztJalR2yXapF58zB9JAET0pGs9kd+P7d/xOm9qCoqOi+G6c684QSX8BSwEdxlV7ibIjs10lxo6o6qt/0UdRWWwVBx0lMGkUPM4WZ7GfxonP+Gtc8YPBfr/oaDrMYmCTEtA4OIplT4slhClXBZdaGqPFl1oOy4hn2EkxFwq2gmQeYFRBrsVdXD2Cog0/VyA+D0aKJC8/Yhp8/6yTENIoGAWaFoy1QK1iDnLmYYqns171Gqe8fJJ/eBwIv0gXdTCnBUFXTDumWqrXTySFL1cI8QpQ3EBkWjmqjXbRZMVeM96aVIkyn0QgnEYVtLb5lDS6u0JjWkFnC0r9gEOEy5yxG8BxRxLIOBkmLWXaHgWgLmtEwmizTa8bV0pGOwoj9gm0y5EadA+qmgXaSIavxEi8QswwR1VVmAqNDP8QJ27+KRnSPqsNIj6wm9GpFCXJDyWDpnNGLzYZGdyNGfboFz/PyKjcSowatY+oRxno1TG8/np+LHz77Ntzx2F5ce/vDyOqUYHIkrKVEjoDZpKnuFIChkwIBhqBD1aj1DOti2TKJ3n3NA8yKSbbiBh5gVkyyIxusGsDQLZPqgzBGSutD0sRYOo4htJDlrBdukMbDoqIICTBUZgSaDVYSA4pKX0216/ER6cOqjdrkfANCp86TxmaqgpAaRKFBO51CblLUhmsIkhS1mRw76gewpXYHto0extDQUKeC5crqdFjLcAUCcl3oKRWYBmZbdYwfjjE9vQXN4ARMxidhysTIY5ayo/vtEExe0/QoYpxXt2ACrNgqalqGoF7kiNFCPZrG6bvvxW+9+SlsDb4vqjC2DbNY7CbtmBJMgTAjSFRTkqr0x/lnKIyWJtZr3yn8rC+c7DGulUoy8jtCHMzPx3//TIyn85diClsQNsYQFG2kZJgovZg6ICWLCYRNtduIykyNi+Lf4gGmws47dk08wPSB1qsGMNYXSKr6UgVRi1FPZ1C0Z2FqdSRBiIx1KKR0YTltfclxqJcT2gfa9dpF55IRSzgnw4A76w7LiywvEIYGWd6CiTKEURvZ5BM4ebiJ8/fmuPglGYbjp2wxLDVgOKll6SxKDlwqAnRQIIpCNNsBCrMNab4Tjz2W4zt3t3DX03swzuxYkXVvy2sAJRgrxUgdFCl6RTd1FoCvq9MCEgTZFOrhLM458UG875L7sCu4XRwfVNpQm1VC1SoBhnd51eEr1NnkrQpYXY0b1WddRZnaZ/h9JvWsiZPBgeLn8d/+chRPpi9BWN+OZsICYS0EkUHBujiyHKyjUogEI1UlaWzqAIxzta62i7wEU41uK2nlAWYl1Frk3dUEGE1cSC6P2nee9bZ4hokaTCKSXbldGwcjnCwPrF5cmTX29oEMq9KFXo6UzPTeEXKoXCfjERUiL1EzhDhKkLX+FdvjH+HX3lTDmbuexFjwLGoFM8lVeVygYpW2kggQEdegKJAEEVIWpyp24EeP7sLnbtqKp2afhzTajtxajCTGJKeqKUMRzogUI9VLsgBBNCLVUwMzCxTTciG/+KRH8YHX3IsTojsRZBHSlIXpMgRRgEQqS9LrjqDkgmxWNg+N0VErkXpal1Pla/8su8X/ZCVYhI9vhyGyIsezwS/gQ39+HJ4tXq4MkjgrJLafWO0vzC1mbTBlgAnsgvfCH3mAWdl6V3nbA0wVqs1rs7oA4zIc8oBaScVloZXkftbUL1llaeh1AKPm18zo5bA+H+cFZS82Xl6sC0JPOVEF0kAzqzQohhAW0xgJH8cLT3kIl73mcRwX3Y1ayrogzvWqChWqq8jEIpGmCKMQQSPCVCuDCbdgvLgAf/3Pz8N3frIL0+kOAR6xcYgEQEaiCzCsGZ8njPWpI2flyLglmYIJHOed+Ag++Nr7sGX2n1EzdZgwQBryAteod5YGzpkepeIOIMCQ3lqEizYwbkEa8dXPTTA/D5C2U8RxDWEUodmeke/HjQhPpC/F7//5yThYXCS2FomjIUMgQGX9/EStRhWbViZVHwKnIvMSTJUdeyzbeIDpA7VXD2DsYXORFCKZqG5eUpgLS29rmne4VBfprhN3mQb6QIZV6UIDWG0ACMEzZ4wPg/yoGqToMq06IEbu5xPYFj2DV54zjn//c/diS3qH1GbXDNdVHueDVqWtqo/oNdVKE4T1GpIsE2P/dPgS/P1t5+C62xtIzAlIgoYEK4q0ko+oYpQqMgY4iujA4FEgyVtSVob/HBUFfmb7ffjQG+7Hc+t3IpttIk3bKOryj6JOo0TBEsou6HKls1C7DkGPEqOmze8CjDqPEIAajSHMzExLWeqoTrVtjiI0eDL7BXzoMyfjkAAMv04gYdS/TdMv+jZKSeWf21Hqx3py8/MSzEpXfOXve4BZOc2OaLF6AFMyqFpVEQ+N8nUWZMR+65Th7n1rhJU2qsdfj0+naJtLHChmGEpk5H4JMAxyYelccr9U1ExitHgcl5w7hTe/8G7sjn5USjlShQIut1Y1IzkvUtqyZ5qzCOsNhCZCkbRxKD8HX7zz3+DGH2zFTLYbSTAkXmMKMNYBnfVPeCtnTKNCT7QcCbMBS2oVok0bJ9fvwv+6fAr1w1/B7jGq1hJMp23E9RhZ2kIYRsjEiF7OsLx8OkiAqAADHSz4y+41AQqOi9iXY3i4jtnZCYT1GHlYw8R0BhNtxwFzMf7g/27BoeIl+lHZh86WVhqH3dtz005Uo3l5dh5glr/WVd/0AFOVcqV2qwowNolm53Daw+hApmt0dREV5d85CZe1tw+EOOZdWBuIzFldYLvZ16ztifPjxRtFiMw4hvOH8PrzZvDG59+F42v3IWXEfuVxlz2mKnQSpEgxizBm4GMdecLUJRkmgxfhb75/Lm64awyz6fFIMKYGdE36o/MkcPL3lEAaAhGdGzgGAhDdxCaxM7gdV1z6BF5y+uMIZh9FzTQR1ocwOTmFelxDHEXIUjaqdllrKw20JADqGDUvQSAeb1SipciLGRThNMLaEGbawzDhqWg2T8MNdzTwhbtPx8HgbDuE0jiozi2FBIsfmjirVB7uEQvkAabCnl1hEw8wKyTYQq+vHsDwsNlDKWoed+E5TnJ+dlv77+KWauM7ekh22AfS9aELBw8WYKTuifWqE129LY0cMkXKQYzgYbzxJS28+fl3YTvu7kS0Vx9I9UBFqvAKtBHX6milQNpOMBIBh/Gz+OwdL8C13x9DZk5Dgq3d3ARywTIS3s6T3mXizGETWTLQR2JeZrGl+AledNIP8SuX7kG9eARBehAjI6OYnWlhqDaM5kwTMeNneoBYARipda+qLXWBj2HyuqjPIsM5ziANJpAFIdrFDmTFaXj44S340tcP4In8ZzFpTtB6YLInrc2lyGAktRElNzoQaIkBlwS0W9el+sp5gKlOu+W29ACzXEod5b3VBBiqt7r5pOgVZgPRZLw25rucY7xTslyByXlf9YEMx76LOUDJz/NCsoBCY3gRICqYtYumY4LNYYzGj+N1L57EL537A2zJvi9qoqoc/ILqnBVQgeq8kE4JhUEzzxBHAYajDM9kZ+GvfnAurr1rG2bTU5AX22z6FS25XY5bktWXpeTcu2laYsPSJ4dRD55GPXgSL73gONTCw5ie3I+dW7cjmaEbsUEutpyqNihVg2kqGB2H5B5mpmJJekkPNzou5EiDaQT1Gpr5MB59KsNjT9TRTHYhM9vFxpRKQKvNzcAA2iIRe6IkypR9qjnONKhTc7JpNP8KCD7vVQ8w1Wm33JYeYJZLqbUIMBJoyUOuIMO/zQUYpzJyp1AvBKcfV925Xgrr81F1jDyuAqRIZC4OJkBE110m6Q8MwmACI+ETuOgFB/DWC36MneHdyJnIq+ojZKt6Odu68kkohvY8DCSQENkM9hfPx9/f82J8+fYRtHA6imKHzfHFlbLeWTYliyaS1P8CE6JgcjXmYjYhsjRDGIbIs3HE0X6ZfxRoTjIkNRi+bzSdfpXH7SXdUZrbTOzulDQKSoyajJXYkZsE7SJDFjaQBWNoJdsRhqMImDHZejPaLJ3qriyMAT3KyhKMB5gq67SabTzA9IH6qynBqO1FeXD9ky0L0JlX+QK1f55/pzo1Wx9ocUy7KNte5qSdt8Bj7cViJTA5IoxjOHgMl5w3jbecexd2mh8K+XqAGDvdaj2IwkfCmELGg2rGBRQ4kD8fX/jBC3DdnaOYLk5FVmyXeBBhIiihWZflI2m9MKNAz6xA0ukzfZAmktRoen7TSgKVF65sFCnbUObWsFf1meQkoC+ZevlRIrHUn1PhtWNHtJmipVvrseeyDsi4e3u8BNMb/ZbT2gPMcqi0xDurCjB9GP+67kJZ5q43mHD21iBsU+KoKouuvIcxisfxuvOm8Uvn/AA7wx/Kxb6qD43ZxiC3Oc2YpuZg9nz8w13Px/V3jmIKz0VabJcAS8lDZhzAOBfp9Sp9rirVlRXz9WAGvggeYPpAYg8wfSBi1S48wFSl3KZv5wFm8FvAA0wfaOwBpg9ErNqFB5iqlNv07TzADH4LeIDpA409wPSBiFW78ABTlXKbvp0HmMFvAQ8wfaCxB5g+ELFqFx5gqlJu07fzADP4LeABpg809gDTByJW7cIDTFXKbfp2HmAGvwU8wPSBxh5g+kDEql14gKlKuU3fzgPM4LeAB5g+0NgDTB+IWLULDzBVKbfp23mAGfwW8ADTBxp7gOkDEat24QGmKuU2fTsPMIPfAh5g+kBjDzB9IGLVLjzAVKXcpm/nAWbwW8ADTB9o7AGmD0Ss2oUHmKqU2/TtPMAMfgt4gOkDjT3A9IGIVbvwAFOVcpu+nQeYwW8BDzB9oLEHmD4QsWoXHmCqUm7Tt/MAM/gt4AGmDzT2ANMHIlbtwgNMVcpt+nYeYAa/BTzA9ErjAkgCYBbAvmvux4evuxeHot22vGsudS2Y7Jf1SPiwxgUfKaAk2X5XOZ3vEan6y/nrbabeTsJeKf1kx21rv9sk7JXJKLVsuk/nbzKu+ZmCObZubZtONU9pXk47Xypl7Oq8mxwmGMdo8TguZbp+ZlM2P0QvBZMrz7k83yKHMVK7UeqohDA4kL1A0vUzm/I0TkFabJMiXlJfi7VbOin2uX8WolM/RrZO+ughmXQXYLbis799PnbIFmIxGhY40Edzc5dKErjtZ8tDsPyA26cyFLffAqm6JH3oz13dIJfpuz/nvvuNzsDmnARbt7ZzQtyq9kC2FW0MDzArItcCL9v7eDYAPvGle/GRGx/GAbMLiOtA1obJZxEhlXKxUg2jaCvMBEMoWLtctnJ/NtvKp2IPAS9zudA5GdYL4Ti1gBQroyNiSd5c5oOsCRNECMIRZO0MiNiuYtEtqVzI0rg6fy2bxnohBgXpJaAcaMUqXqpJW0ogR3GIPM+Q57mOTRrb8bN0sPydFRC1AiRrxiM0CMwUxvLHcck5U/h3596NXeGPkPHfWatkAaBn6vyln+prp/dZARMZJFmKWhjDtAocDl6Ez//ghbjurjHM5M9BhjG9qGQ+rmgwgYZTZAWZ5Yxz6ZmsxzeE+kebPhmY0Na+abeBKIJhEbYkkd0dFwkuOn0r/up3zsdOwZFEdmOCWLqNhShaepy0lj0l31RmS2vb2GLlsqBkILXKWo5QysOxjyBPFHxY4S8ic5mhsKUaqtKdZ4VHMA6NlpeWgYRyo3AUHGfNdu7Yry4MdSrsVP38stp5gFkWmRZ/KU9SkUbSCLj1CeCt//tLeCY6DqgNy2Vo0im5RFMBGEILa6lzOwzbaox2Q/Y4jmqth19UAAAgAElEQVTNLfc7D2C0oiAv+xAFL3m5uxMgylELEqQJa7CPIgjrKHIqCKsDjEJcmftSkFFwMTC1GvLpKQGSgECQJjChjslEIdKU9GQ5ZMurEWAE82I50BHrpxggZUVLM41a80G86YI23vTC70s9mIVAhMDlAIfSxeJPr8W6OHROJEArbQnA1NMQT83+DP7p4X+Lf/pujGZxAjKM2iEQUYwKMLbMsYLL5gWYpaYexjEyAkvI/ROgIFOSKRNSrxlErUl88JdfgQ+8vIHjZDlnuLGQ2Ks5lq3JqnCUdXmGWa3T/SyzAEPQt1Wcc1uvxxBcQjkZbBW2m8ooFQoAvA7krz0wl1pFVPdnmLZ0G4R16d/qGRAJ48Tx61jcSTtCMqt2gSzZygPMkiQ62gtcLt1klEu+ce8kfuMTf48DjRPRLHjBBYhFcAmQmNhKCeQ0+EPyFtwRBJhqJWt7Grq7siwLKEBiuTUtd64AgzDSqodZEyjaiJFIcaysaACcE6slVgQYBS89tHOkOKdm4HFIWqiPDKE1PSWcZ70xjNnZWUBqtBdAZAQMjQBMgEwOLf8XwZBDzKbk5Gd5gTBuYaR4FK87fxJvueBujKV3IGSlSHKVjh4BSxcHorbi75m9jBamde8AQ4kkyRIE9RC1uIagCexPz8Hf/eBcXHfXEFo4Dkkwai83t0acn/DFdv9UBPh+bKC13gf3SJIAsTt/xBqWk04RJlPYiUm85zUvxh+88TRspRormQJqdaSo633dARMtSd4BGEEZd27tHpbtwMu8QB4QYPR0c6XiNLOSeIBMJE/InqwZBaeqjwxPtA5krKiJ4FjsPskIdmTAKHbV5My4naJKWbZ256/qCI7ezgNMT3TlcmVoZRlM2MA4gN/6xHX49oP70W5sw0w7J9MvGzMxNeGiLfuDIKd6jPvV8Rs9DaRSYwJJyEuYgBFQ1cKt2eVxOO6MQJNnaEQqfXFjFmGMZtAQFQA5J+XJVv5Q/ZZSleDAzaofCFgEB36LevI8SxBHEdKMqq4YKdV3YQ2GByptyyUQZnpQ0jLAIEMjpiotRVIYNOoJipkH8dqfS/Dqc+/C8cP3I8pSGCuxUGopa8UWUpsdOcvqKjL2FZkQSZ6hqBnkuUE2FSBpvAwf/9IQ7j9wBmazrUgwLFJyTg5c9kuAoqiryowllCvSf+UrtrZayPyt6nCxkQWBUVVUQPqydLRe52QctkYptrZ+iq9d9es4HsAQpY+8CUQxCtRF0InkriZoWMZFLnTLK3ZkBb6k6jNhegLaXLvKbyrEQmFUuNcDEbbdruHeFYauwqPsDaXtDCGleotvlGpF8KZKW/YLiUSAjYUd5KNn1gNMBbIfyyZED3IJXM0I4xlwKAT+z1fuw+e/eiNaeQRDMTkIkVCNRmMumQzKPDkvULU7rJaKw1CFlIuVRS55t89FaSVGyhBhVMPs1BTG4kDMHc0kQRLWMBsOybwbRYKIB7PCIxaeIJXv6vfV7iNqMwEYgl+GKIrQTkjnEFFjGIcmZuT3iGqPrCVqgChTp4nUkHskYWkuz9GeOYzR0VFkCNFuTmD31hzBzK34b+8/FfXse4jxLCIza6UWlV54IfECoqqM39ZnsVugN/6TKr6wUcd0miJL69gaPwfT6bn4w784hGdmz0JebEeGIZlTLuo/qkK471TlqurFijdUhTVba014OR9tBRygKPOgkikl4KGhIZy792T82hv+LV5+GrCdwnB7GqgZgGq0cBhFx96lR7Rs69JvKoOp/+j2iVLISSlk2/KkKVKTSBZBJC2SvEAcBlZCqk5Vmh675xZSAjyk1lW2bGptQhwiNRFU/enD0eqJ72X/Lj1uL8EsTaOjvNEVk9NWTqUuZgD5NQHgvicASqnyFpltA1HhkPOq0w4o3mWrdz3w+5EYjtVGLjpa65jk/iyMUQIMB0CrBbS4M0eBw3ZOYerUCCsnJL9rTfRCB16iHfmJnB1VC+QGU6AWAe2WkFiYRI6r2QRqsX4/ss5Vadjth0dnrA5McjGMtjF5gpHwSdSTf0E2exeS9BGgmFCHAbmxC7mEHKh0pZj5l7g7nNUZBM6/Ua9jfGoKwcgQonALmvsjbNn5MiRjr0YzeK7ajAWAu2sjmhA7nM0LLd2r0dFioR3IZRVbhyUU+QVqzBoN4OzjgS0ARvhLcLqNrDWDcGhI9hyZq+4dXLYUui/x4FhzuniFWqy3Z4l/FZsr1WZywAwySuIWlgg0TlG+8tOjQ3N+ne7TsoXtrzBXvOwyIWoBdgCjqu3q+3c5Y/YAsxwqLfIOtbJJnsiFFCJCq50hiEIRgWmT4WJS/6qSim4Gbi7+fcj+vgZM/HMsIM4Q6DYu58CxNjifApgOgP0Avvck0AyBu384jUL4oWoPPdZoi6GEoVJTIJJHWKTyKyoSmHQWv3rpCTIGPtvswbTYJz9zFgke2jlGTkv3sqm+zveLZxEFUzjcfATtbAqtVgtJkgjQkNNVTYrzLlsIXNx8u26qK6UA7UbZTI6RsVFM5jPYum0X9gw9V2Y4gZ1IYYSy8yxUalC2H9vM1pcy574c2ltZQ2hHunHPiJdVkqFGb8iMjixuPQ3ShB6LurPct+by++5UW8eUkjzA/mWNkmnxGiuKGIkxaAIYtwyTW7temITOd+YRgH3y3HL/cI5ydkTbwp8QGC3UyN+P5siyHMou/o4HmB7o19GBqr+T5Sp1G9NawUuK3HWHwwo0ZkY0tnKTW/aqhzH0tamNr6C/jM5ND5tYN5p6KvYb4M+vfwhXfeGfxM7UyoeRgVf2yh/ndiuuyVSRCcBQshPrjwBMLaAraRNxMoW3v/FV+I03nIHhAthGLj5vIjVsEyGmyoheoIauo5nomglVZP1jQ16NkE/4CpEmCWohuVN6FykrwFZs0TW5UrtNF2rHHpTnV74SqgOM7ISCxlcyHtMIUUOQ1oGwgem8hTisI6YruwhLLv7IXXHWeNuB1pXTf923sBLvUhd0m+stQEEVUqG2O/lLBiPiO8+h2vCyzDIY/JtIsvruwsokp57s+kK61XEXf8A9FkQYzw3aBrjjkRyf++I1aIm7cq3HIAXalYA4ipElLYHBiJ6V7TaGhxo445STcNkbzhQJbTu95joSCyUqZ5vxALOGz4EN/GMQnNuFIqNQv6Mbuqsi5yZWd1luS5oRVW4fHPewFOGc/rY8Cj0y/E+PiEgUVEnlQDsEngTw6is+g4O1EcxGI0hpgLbRAkt9b/6/qw1IrS4a+zLXYVkgLmAcQQrTmsC2YhK/8aaX4zcufS62ZRT/E+Ry8YYwuZWixIBKaFDRXwCeHw4IJKnG9aAGY20YenvPtyG5i8ONeCFeuaPM60GPTbUJ430KZBJ/ESES70NVp1IWi5zxWFGmq0MU477upE1rgimpola69/i+2inoZk/S1mRvlBWf5T6PlFzcT7RFF2q62gp5I02RRhGeAfAXNzyOv/jS1zCR1YH6KNriXNMNyFzpHMRmGSgDEhWpOMTYyDVhDhkeUS9a+PB//g947SnAVjtnQikdZ+iV6VVkK6X6MX3fcj/OkiB3jlXSONFTdh7/l6h3ieFGVtF1sOa1pQnBUc2NWHZtKMMowLRSoM5AwKk2stEa/ujLj+FPr78NB+MRtEzDustWBEkr3QkT6ajBWJfO0C0HGRQIWlPYEUxiT/pTfPWq3xSvn1retrcEJRUNrFShi30odW24CGDI8atDQSHwHnW0z0uvw2IA4/TXS/ew6GqIYEKA4dgihBb1qWbtKF467DMdEOx9KJ9cTEGy9NpvlDeWkl6ONk+BBQl8pqCr8SMLrehcK4X9ogT2zsX8Mjvi1F+8wg/lwNU3PIR9X7wF043dmA3H0CYHEcbWhazqLNS5SEV39fBUlbO4EWkgaTqL3cmT+O5V78COkmpZ5kxHo6PGefW+S7yKrAcaKp/P/2zwlJVM6KDIn4mSxgGMiMqMk6NYHKjVonNxrI4mXaPm9VB1IcJZMNStUjS4lj2bNMDHvzGBP/z81zE7vAOIGqJmqM5Buy87K4PzynG3KNVekfiEGpNjSzaOoQM/wbf/4newR9xKW1a1QYCxvp/Od9UBlju78nO1MLmMAZz50ibOhcClvGkqgqt0YRkUGxXO9ZC4b5sdQjU5zipmo9EdadwQOu/0sJE3a1NBa3qH8GrWGJGF9oPlWSygzAWYshdXmc3onKsCGA+AP/zyv+LPrv8emsN7MNMKgXhYYszQnup6eq10HWwwskj6RVtc+4XFFY8xqq3J0c7ixOKn+H+/81pcfMaYgFB7Zga1YSrOlt79Kx3S/Pc9wPRAQV5VTERCTb3jflQy6fJCAjPcyAIw5C7IPdOF1gEMN+zqAYyTo7qaZnvJy2YlGx0jzwoUWYbJWox3fPxbuOGBCbSHd2h6JdHlVouDcW6bOgbrVsDcbS5DGA9QNAyIi3KBaHY/To0O4bpPvBM7UmBbRDURQcgebQFsR8sFDk/pNZXQOIKlpI+luMul2h9tg7m1dyDiANdKY8IhOzeQWtfQXB6SqM5WZ//0cHT623SpJVrqawEzBKqay3k1llVeXYAp+UTbPedidHW3dZkBGZJ9nU4xV1z1bdz44AQOZQ2gtgUwdWBqUty8mK+wytMFN8orzHmozJMAjLFuREGOHTMP4+9+//W48LRhUZvJw5QyWd6Jn6ny/eW08QCzHCod9R1KMAowfHSDqipGOWSaia2KzHLPeq2p/rOXVBE9D90ZtY+QpGgE5C8N/mOuLJ6Wgwjwto99E996rI12bQtS6s8Cwmu1C07jbVRC0Yf9JBIDQ8pIpBAjkK0aaSibxNbpR/DNP/stnCDupc5OZM9MRxPubhy1IbnLQlfEvVs231Ybf6/0VwbFAV1ZZSrJRey4NRVPIL5AGpzbhTSdWa/3a6/zWK32vUB7eRdYOUboqpH76hbuFJDKDOo/6KUu7iOqmbJmMV0tG7woNlkbeJnnmIgM3vaRr+OfH29iMo2B2qjGdIWROJx0LY8ro6TGixEau7YXYW8Za0MJxnqMjU48gC/+lzfhFacNy7hTZk+KACYXqNMEuLLPruhtDzArItcCL8vGs5eYeIjpRlNDuXo48RH96JxsQN2UDqt1QYiCqKxCsn5WMhuJC7GGd4mBmcFEfRjvvuq7uPH+CTSnc9R37Ea7NVM9VYwAjLOzODUZA4c0yFLpp47egQmwNZjFlqlH8LVPXy4AM5RlCA3dm900XHpOh5guYWeXx+fX5qo8HLD1uhFW3p4zdABDY74edHVakFQ91HCgZaG2JkxJV/J1XK/OcTM+vc+6m+RIE8FoVgthrJzG1QUkMoKRtg2xb6jlwwGMgj7Bxa6JOJB0pdBxA7z1Y7fglkenkdVof6EXh6qWg4iSabWZqHuAk73sgKz3Z07GTBi0ACfiWfzley/ChaePSBAmH02SOehEMVQ8LC8fxmbcv8ubs6i/7Ko5fbikZ9Dsq4zv4OM4zw6375IzDl4Nuvg8Osimsrzj9mVIVonMAEjGv4RBikOI8M5P34pvPTSDHA3MtFIEsfjDVXw0dl/4cFe+oBM6ZtWMIbNSM0FhilrrEE6JxvGVT/2qGPkZJOc+rqoKBSZ5ZE2U9o4bZXRSSAmJBy+jCsGhTcXh99hMlVscc4BAIk3niVgcZqDMCiNixJ7nhC06LcgiuUirHgezjptX3X+OnKqYJAPIVDG6bwqjySE7LIrQXVMbOVXa3BQvpbQsdCIpbJblHNgfAu+6+i7ccN8BpIYSOZOwSmAD2ha4qpHf3TslV3lRgXGE1jaYptjRfgJf+IM34BdOpd3Fqu643ZgKx+kEqw1gyVYeYJYk0RIvlAFG9qBmXtVFJsB0EzI4DfuCOptex1G1vezRrsZZo0G6sTtMUMAQAfJtB2Dwzn3fwU33jiNnMsB4SMBnbl2WFQykYEClAgnFekE5Z1MQA4+9dMMIYVBgOJ3A1qlHcPP/+XUcx4QCHelL4VyVavaHJYDRLAX8TlsiqzU+ZkRBqJcwlhVMdaFXnYJL7EDl6FC9y2RsdMNWeYy6+lKaXPGK8wBTFVzcru8Y40USyCzAGAswGvSr3ma6KKzrZGXMrjQpoohbQL5HhVk3tf/+ALjsqrtw/b0HUNTI2LCA1DQk03Mn2WuVzcTz4mRyG6/VARjdXUxRs3PmUXzudy/BxXu17IOE/bgKHVU+u4I2HmBWQKxFXy1ddF2dk1OdzRV/O3+b06Yfg6jWhztgwr3JkEspLyz3rz3n2A+Dyz/9Xdx432GkpiGeN5XBRXY668EoITQXGamjB1qtU85Gw5s2wVg2gV3tp/D1q35NvMgYgeMuijLdlcYqGjr1gxr12beDUKeiXF0bhs7SBnhKdc7ujDinbkE095bbQS4OZvOqyKrt+G4r3Xlut1CCcapVJ83bvHilD5VjZYSZsYwQJXCVGyyz1nE8KXDQGFx25W246cFJsDoUvcdMTkCjhNpLNuOy+mPed9V9Vc7Y7vbT+NwH34wLT4u1fJPWVCu7sfZKykXbe4AZGGnXfsdzGGLxZOFPmHW1u/c6HGKRY39g8K59t+Hr9x9CYhpWrdXDPCXfmHKHLqOyQoIz8s8FmNFsErvbT+EGCzBMYr+Zjdw9UN437QMFFJBUkcbaLx3VWQd4dG8fNBHe8anbcNNDk5ihswbjXyQRpUvLXM0Go9yVPawB7UdUAGjGZikQKAFmBXa1nsHnfveXcOHpRgCGP5YMBiWA7QM5FuzCA8ygKLsO+l11gBFVnJUgbEE2565Mn36VYLQ0c5BnGMmmsCN5Gjd8+nJVkQ28msU6WEQ/xFWmgMqgjj1T/z8+3fiwA0GIy668A994cAotendJmiKrUlNf/+pz8ABTnXa+5WApsPoAQzdLxgZxnk7dZg+c89e3njBUKYxkk9iZ/BTXf/rd2M1Mye4w93A+B0th3/uGp4D1YHQA083s5fZxgAOBwTuuvF0Apsm8fZKl2bk0e4DZ8Htks05wLQAM8ydpiQB3NNUO041gVxVAnCUYzcaxq/00brj6CpFghoRLHLAbzGbdHH7ey6eA9dFwKjI1b3RVVAeDCO/61K24+UFVkbFgH4uEqYarRy8TL8Esf538m8eWAmsOYDqVLd3ISA8HMG2MZYfVBnP1+8TIX5M8Ut1SuMeWev5rm54CIjmrF6QrOa7g0o345x8PBgEuF4CZQJMuzAQYVlEV70ZVAVd+PMBUJp1vOGAKrAWA6eifOzYY6/3S0UvrATRZG1vScexuP4mvXf1bmuzSpkKvGqg2YPL67jc4BSTkMnd1VWxgo/VEcwX8CD8HAfzalXfglgfH0WR8jBj5ne2xRyJ5gOmRgL75wCiw+gBjpyYcnPWGmePHr7nQxNefRv50Ase1nxA3Zamhbp14PcAMbIv4jo9CAUkQxcJd4l5eLi1IT65uQWUFmO/hmw8etgBTg8S3z3FJr0hqDzAVCeebDZwCqw8wPJglGwrrWbCCpY1vkeBLet3QzsJat1PP4vj8GXzjql+RVDEsPOZSXwycWP4DngLzKKAu9QQZjf7Xx8Zm2YDMNAcOG+A9+76Lm+87hIx1lNq5ZlKWWs495sHzAOP35VqlwJoAmDn5a7WKJZNd8iHABMPbkE8zLb9hchoclzyFaz75yzjZepH1eDzX6tL4ca0nClhhRDNg2DRRQajxKAAOALj849/EzQ8cRsIifaaukf4s+JU7/7OKE/YAU5FwvtnAKbDqANOxhbp8sloq2UXx55RuUgaNMfo5wGh6GLubj+Kmq9+NE+nYnDSlJo0Lmh44wfwHPAVKFOD56eZTUBlGa7LQg4whxBrXTxXZr+/7Dr750ASmizrSeASZ5GCiCricYqYCeT3AVCCab3JMKLDaAMMYGB5ITZnhUp7YoBZh/gyCWgNFkiLI29iBKWydfAg3/9l7sacAYpa7layxPXjhHBNK+49sRArQzkITv3NP1uRDVJmRc2KyzABpnmPcGLznk9/EzfcfxnTQQF4fQ5Gx1lEMZFqOofLjAaYy6XzDAVNg9QEmR1xo7ZyUhdg6eZlKbsrMpGwKRMxFlk9iR/MpfO1Pr8BOUZGVMlkPmFa+e0+BIyhQin/RlJNOptGSxZLAvwAmAuA3r/w2br7vANrhENqmjiy37sm9Gvo9wPiNuVYpsBYAJhKAYRr0mk20aQMt6Z1jc5I1ajHydgumOY7d4Sz+5pNvk0BLJh/vJVXgWl0XP671QYGyQ70Ll7Q5jUWycYlkqSL7j3/yI9zy4ydsMbBQXZXJUDFnfi+PB5heqOfbDpICqw0wkrNWUsVQF80KfC7lOF0/W2rwZ0ZhJsMsAtRqdaA9g59/4dkIZvajzhSD1GP3kstpkAT2fW94Cric3W4va32jACkdVPindBbteAw3PTCBJKtJCUkmmsxZ0E/ApUf1rgeYDb/H1u0EVx9gHOlcvIuTXuhJRoBRj5zAREhoTa03gCST4mMNhh1klH58IrJ1uwHX+8BtNvBuyWNlmKR6UhCKNyTthO0gxmy8E4iHgdaUjZ2hq3KPaWJIPw8w630Xbdzxrx2AcYGWrk4AR8aYGAWPohOI2eX2eHir1jLfuCvqZ3asKaA7ssTk2D9yz4oEw6zggUFGZxRK6J3syX1ijDzAHOsl999bLgXWDsAsd8T+PU8BT4E5FPAA4zfEWqWAB5i1ujJ+XJ4Cy6SAB5hlEsq/dswp4AHmmJPcf9BToL8U8ADTX3r63vpHAQ8w/aOl78lTYFUo4AFmVcjuP7oMCniAWQaR/CueAmuZAh5g1vLqbO6xeYDZ3OvvZ78BKOABZgMs4gadggeYDbqwflqbhwIeYDbPWq+3mXqAWW8r5sfrKTCPAh5g/JZYqxTwALNWV8aPy1NgmRTwALNMQvnXjjkFPMAcc5L7D3oK9JcCHmD6S0/fW/8o4AGmf7T0PXkKrAoFPMCsCtn9R5dBAQ8wyyCSf8VTYC1TwAPMWl6dzT02DzCbe/397DcABTzAbIBF3KBT8ACzQRfWT2vzUMADzOZZ6/U2U02Kz1KvrErMgissZRFJ8nGXGN9V7WMR2P0weNe+2/D1+w8jNQ2peeEfTwFPgVWiQMHSZnxYtM+dWltjJsgA/qwIsLP1DD73wbfgwtMNavI+S11oS/f7oGYQFIUtujGoL/h+1ywFWNLVAYwW9+J+DDulXnXrWtxBhgMI8c5P344b7x1HZmoCML7g15pdXj+wDU4BMn0GyhhmrOwqDB8Bhk9qD2+E7e1n8Nn/9EZcdGqIhtTbTJBLsXEDM2CI8QCzwTfh0abnJBjyMosBjHI5ZIZS7A8ivGPf90SCEYCRzdynwkmbeB381D0FqlCAABMIi6gVNAVgXFEzp5FAjG3JT/HZ3/tFvOK5EYZYyE8AJkbhAaYK2X2blVCgow7jhgwo07CqeFeAFo5IjDUJDoUx3r7vTtxAgIlYs5j/5gFmJfT273oK9I8CZP2sSoy2GLHH8OzmiIpEjm0ahiWACTFMQJKzTmVZt0Js/8Y0tycvwQyKsuul344OjJwQfxFk+HDjhkDhACbFeBTjV/bdiesFYCLLLXkhZr0stR/nRqOAVYsRWHLChR5mUxSIikxOchIabE+fxl998BfxitMi1HnGc9pn1BozaIzxALPR9txK59MBGOF3uCVtD5ECjIBMIRLMeFjD2/fdIQCTEmDUPcByTiv9sH/fU8BToCcKBCqxUMUQ5FSXFcj1r4jlD0BiAuxMnsbf/O4b8IrTajA0/vM8B5G863roaRxHaewBZlCUXS/9Wh0ZuR3V6bZk5AVoYwllA4rZMG/jsKnhsn234Wv3H0JqYmRiVOSvwYva64WcfpyeAseUAgSZohAbaoEcOY9jYRBmei4zU2Bn8hT+9j++ERcRYEwu76VQb1HHJg5qzB5gBkXZddQvwUUBhnBhvVIQicJMRG5uxCLBwSDGO/fdihvvOyRG/iyILMg4z5V1NGk/VE+BdU8BgotBUBSIixR5kCONKJaEQEobaQCEGba2n1SAOT2CEXBRgOF5r1uQGRQpPMAMirLrol+NcnHOjtxw9C3hxqSibK41JsUhRHjXvu/gG/cdRmKGBGAo80BEdf94CngKHHMKlACGsTBJJOwgkBE6yDG2BWA+/7tvxkWnGTCwIAftMwowhKFBRrN5gDnmO2ItfVAdlemumFj/ecv3dADGidEhMhxEiLd//BZ869E2poshwPBt6nQdFK2lufmxeApscAo4/XWRI87IJgZoRyGKzABpAyaOkIezGJ16GP/4X96KnzsBGKZvDs9sQumGTgKD1XB7gNnge/Do08sBBlgGBBjyNsrR8LFx/dbCogZEBlq++8pv48aHZjCVjwBDY0B7Svvwj6eAp8CxpYAGqKnRvp3CUJNQr6MIaihaIZCngJnCibVx/OlvXopXn1lDmFN2oSeZ9UCzXs6DGrgHmEFRdj30S8lDACaw6i4K1wSTvCNCB9ykKmtjwgS4/BO34PoHJjA9dDyQFPSJ9ACzHtbaj3HjUYCAkuYwjQbiAkjTRJRf6vlZRxCkqMczqB28F3/9X9+FC0+LrUqshZA5AJptRI3hgYowHmA23rZb/ozI+Yj0EaAwmiKGqScIMJ2UE3kO8WcsDA6bEF97DPjgJ76An5ptSKJRIKWKbPmf9G96CngK9IsCtH8aNZamiZ7lRgSEEYI0QFy0UM8PYnf2DG751K9jq805WAsy0VcE6r5TSi/Tr3F1+/EA03+arp8eXSZLjljiKbnpKLGU0l26hGVhjKYBngXwgY9ch+88/CwmzRYk4RakLmhr/czcj9RTYGNQQNRkAWACwZogSJC3ZoEkwwjaGEsP4oo3X4TfvuR0bLEG/TxvIjIB8jyHMXQGGJwXqAeYjbHNqs+im83SAgslGgcwGiHMDZjnAZoB0A6BSQB/fv0D+MsvXo8WQSawHivVR+Fbegp4CqyYAgWyPIUJQ9VA5CmyZMeKOhAAAAIGSURBVEbU3Lu278Bpu7fhvW99JS54DrCN4JLkiKIAJiAr6TIqD9YI4wFmxYu6cRq4ZJecEQVlVXWVEIeaMfqJMQ0FHVNygElbiTnjpT97DdnG2RN+JuuLAjZwvxNSwHPszjUddho21iXMEpiQeQZDtNoFajU93GbAEQYeYNbXfurraJ32SwMs1SGl/DDFUUYzjZPCrY2myDIgrKOVZqhFGu3vH08BT4FjSwHNPabahjQPxJksttousaxScybJaKn2tqHUQY3aM4Q2A1Q44MPrAebY7ok19zUXwb/YPpsvnbiEei613oD355qjlx+Qp8DaooACTMlqKsObo/nuyDca9DL33wY7Gw8wg6Wv791TwFPAU2DTUsADzKZdej9xTwFPAU+BwVLAA8xg6et79xTwFPAU2LQU8ACzaZfeT9xTwFPAU2CwFPAAM1j6+t49BTwFPAU2LQU8wGzapfcT9xTwFPAUGCwFPMAMlr6+d08BTwFPgU1LAQ8wm3bp/cQ9BTwFPAUGSwEPMIOlr+/dU8BTwFNg01LAA8ymXXo/cU8BTwFPgcFSwAPMYOnre/cU8BTwFNi0FPAAs2mX3k/cU8BTwFNgsBTwADNY+vrePQU8BTwFNi0FPMBs2qX3E/cU8BTwFBgsBTzADJa+vndPAU8BT4FNSwEPMJt26f3EPQU8BTwFBkuB/w8Hm2XTLWY+HgAAAABJRU5ErkJggg==;" parent="1" vertex="1">
          <mxGeometry x="500" y="190.41" width="65.89" height="59.59" as="geometry" />
        </mxCell>
        <mxCell id="hd3xNhnKDJkrJA63kzbW-8" value="" style="shape=image;verticalLabelPosition=bottom;labelBackgroundColor=default;verticalAlign=top;aspect=fixed;imageAspect=0;image=data:image/png,iVBORw0KGgoAAAANSUhEUgAAAZgAAAFxCAYAAABOcL4fAAAAAXNSR0IArs4c6QAAIABJREFUeF7svQmUZFd5Jvi9LSL3rH1VlUpVQkZYSAIEZhFLe2kJ2z0e6Dkz9vEG2MZjIxCb7Tnt7p45ntPuNjR4AYSX8Yox2AZhdolNaAEhkC0BtkBLaal9yarcM5b33n1zvv/eG/EiKrJiy6zKyLrvqJSZEW+577//vd+//97vnMyy2//pKB577HFUEwXl+fCCCGmqgCACsgyAB33wd/5zh6OAo8CKUIDry+P68mVteUjgZZn8xiPwgGfvGMfrf/Q63LjPw+jMMVyxZRQjYxPIsgyez+vc4SiwNingPe9Pj2bf+973UanGCKOCAAz8EGmawQsjZEo5gFmbc+dGtS4oYAW4ZoDRwBH6wGg8i63lQ/ib3/01bFw6hUm/gm07dsIPwnVBAfcS65cC3ug7v5otLpUwNDwC+AGqcSI/lcqcBrN+59292ZqhgAEYCnZiHLAajC86jA+FCTWPyfkn8eHfuwUblk5iLFvEnj2Xw/ODNfMWbiCOAq0o4EVv/UpGVTuICgIumcrgU5OBJwzsNBjHOI4Cq0mBHMDwMZkBGAEcD4GXYah8BgcKM3jfb/0CdmEaw8k8du66DL4zj63mxLh7rwAFPP+tdxmniidaixeEAjYJfTAN/hfh/roPRr6j9cz6Z1ZgNO4WjgKXHAXOBRhNAuNbiWNM+kuYnD+ID/33W7C1choj6QIu33fFJUcp98KDRwEveMd9osForKD/JQCtY1maajxpkJIcwAzeFLsRr20KWIChuUsWnhHijPkrrmLrsMLk/BP4i9/5FUzOH8cEyth3xRUi/zn5bm3P7qU+Og9vvZdcrQEmCMVEJpwbmggyq6nIGQ5gLnWGce+/0hTIAwyXmAUY4+QPAnhzx7DXO40//a+/gj3eLIbiOezYuQthGNTiO1d6VO5+jgIrQQHPe+c3skyRqam8hFBGc/HCEFmS5EQkG55sfjoT2UrQ393jkqfAMgBjfDBQChNYwJbyIfzZ//3L2LR0AhuDCi7bsxe+7zmAueT5Z20TwMPbv96U2NLKp9IELqLMOB/M2p5aN7rBoMByGgxNZJ78N1Kdxs7kGP70v74B26pTGE0XsO+KfbIEfecCHYxpvkRH6eHt97fJnGwBLg5gLlF2ca+9shQw5mg6Ujzjc8mYdyb2hBzAzGBnctQBzMoS393tAlCgDcAsAy4OYC7A1LhHrH8KWJ9mZwDzJ/+FGsxpjKbzuGL/fqfBrH8GGfg3bGEia36nZRQcZyIb+Ml3L3CxKcCCMEqXhRENxjNOfo4rbyKbwY74CP70v/4StlZOYUwtCMDwcBayiz2H7vnno4CHt3/NFRdzPOIocFEokMHLUmQSaxzogBqJIjN/y88MI/FsA8BQgzlw4MBFGbF7qKNANxRwANMNtdy5jgIrSoEMvgAMYcTWFbM+GP7dCDB/8l+owZwUE9mVV165oiNxN3MUWA0KLA8wDfkvLmN/NYjv7nmpU0AJwPBQXmSIcX6A2VI+ISYyBzCXOu8MxvuvAMDYvBhrM+bfXCTagelRPIOnUznFYGyrxxrrsTPQDQanrMtR1qokmbdr1ZZC82+jt0PBM9Fe2rzVqyfEaDBcH9YHAw042gejKyxrE9lR0MlvAYYmMs+l8a9LrlxPL9WniYwLlAvCB9QQwOQwLwW8BEAsuTKhYtE+H8r3oDwG7huAUYF87vrLrCd2Gqx3oYOdwpDIQOTh2obNOnxmoydPy2ZvTVb8LkGoqiI2JV6ITM7p9bASli4V47HYpYyKPhldYXk0ncP2+Cj++LdfbwBmHs961rN6faC7zlHgglGgT4DhAuVCDAA1rBepT4CJAa+qASYNBUhSKQ5LgDEmAKU/dwBzwebaPaiJAgQINvgSXdsL9YYuf2kQ4feZAA/BhSYsfq+/i1RFvo/7Bhir2ut7+xmFswxKAE0D10g6hx3xMXzwt1+HrWIicwDjmHkwKNAnwFhzGNGjYKRAlpfhIjESoIrgZb4GF2o3BCB24lPsd+FDifTYq4lhMIjsRrlWKaAQ0MnOYGEBEauJcKOP4QvAaG0iEx+J+T7jdQYIPPJ2v/xrO1ouDzDbq0fxwd9+PbaWj2M80z4YZyJbq3zlxmUpsAIAY0xemXFSEkQILh41FQM8tEHI31q7of3ap/aSeUhZ66LvBeom1FGgBwqwD5L4UjykTQBDALEOeGoxBCBttpKQL8lf4S9132IPz69d4gCmH+q5a9cuBfoEGL6YBRgt3Xlg2KWNhKFd2Up+BB6aHarwMzpJ6dj0kfblJF27hHUjGwwKBBlBgnBhTWQct9ZgCD4aSNhXMkDqBcZkZrtPEmlsQEs/79sZwNz2n6jBHBMNhj4Yp8H0Q3N37YWgwAoAjBlmxsquNjM5yyWPGeeoSIqUCmMTU8azKRn2a164EGRyz1ivFKhFOdaiuLTQRGe7jxS+CdcnwKgawGgtRqsyqw8ww8kstInsDdhSOooJLDqAWa8Muc7ea+UARpolEWCk8IWAh0TXNBTxy4d3mrBmqwStM8K61xkQCtQ06HwkmHX0U4PRUV6aq8nPVqCyAGPrifXzvufXYCzA3Paf3oCtZQcw/VDaXXthKbCyACOSn30BAzU1DaXW18xEmxmAUSshAV5YormnrSMKtDTR5kHDMrQWmzTa2O9XqqVkdwBDE9lVV13lTGTriA3X66v0DzD59dekjRBi2HUvLi0hKDJPJkBaqiKY2IC0XDGVMNJa0lovRG5nh7btoJe798W+vt072/Et9x79jt+4qZcdRruWVu2ub/t+fUQQ8t3bze9yz6+Nu9YS3ICGgIfuw6KLT3q6bTj/jisIixFUrHNgbISZDm/u52jvg9mZHMcf/sYviqmMeTFXX311Pw901zoKXBAKrBzAyHBNRJiAjhLXKNIYw8PDWFxYAoICwtEJJHPzQBTB52KtlmtmiAvyxk0PsRvUcht1uw2s3Qa/Uu/Ubhy9AuiFGn+vdMi/90qOlffVEWBGM2FkY60lOF37BBUfSJUGGEY7KobgU4NR8H1ztqlU0ev76es6B5htlSMCMM95znP6e6S72lHgAlCgf4DhIGuxmgQYk6yWpeIkDbNUVPnEi5AmCigMy3rNygtgq2YvKvaXR9BNkEBzfbVOCGzv38u1tQ3sPA9qd9/m9+u2Rly7+7f7vhMareVzJKy4XT0imnZtxJjxH5pM+sLwMKqzs4jGxxBXysLr4egYksWSfmtRXmzUZK+EaA8wTLTMazAOYHqltbvuQlJgZQCGMhjDjmvlNnQJGWYlh2mKICyglALB8CjSxQWEUYbxdAFhloD50J1GkrWS4vuVars1QfWqSfQ6qc3vt9LPb0e/ds9b7et7pVun10n+LzlXAEaHLOvoRt1RUqkUWaYQxzFGxiewlHioJh4wtgmoxiaheHUBhk5+msj+4J2/ICYyZvLTRNaO9p3SwJ3nKLBaFOgfYIyFwZeUfE9qjunwzRSeSjHkBahUU6hwGAhZUqaEoXgG25MpXLd/l+TMnE++XG6Da2faakew812/nFmm3WZ7vmeutA+l07H0uwm1e067+7e7vt08dft9V89jRj50eL3N51IiKNVjIdmvZXRkGOVKBRWEeOzYDGbUEJbCSWTFMaQJM/r7Pdo7+VtpMO1o3++o3PWOAv1SoH+AEYuYh4B5lJKZT7OBKYKZZfArKYZHJ7EYe0DoAckMNiZTePcv/y940YHovODCl2u2brT7u5kgy1lIzmc1yX+3nIWsrdWlxcx0es1y53V6ff7R7a6RIL7zHO027H6/b8fAzfdv/ns5R3+7cfG5HsPqmZ8lfn2juTDfxeS40IdY8BVKSwuIhoZRDUcx4wO3/r8fwsLILsyXAUjwSr+5XJ0BTF6DoYnMAUw77nHfX2wKrADA6KSzINHm6FgARukENAUUUUClkgHRqJSJGSqW8KIdAW5744sxMl8SpaZTG3arTaOTjaRxw22tLy23keUXcbvNrpPJbHePVhuoBtrOxt08hm7p0+317e7f7/fdjKfds+y96udJtpbRX3QiZZLp8Hm6+VkuJlIlFMIApThFubABx7JN+ONPfR3fPFrBbDa8+qViPA/DMVsmH2swkTmA6WS1uXMuNgX6BxgjvfmpTkUTDUaSYVjU0oOX+AgLY4i5cNMlhN4cbrwswm1veCW2JzMIglx+QQfU6HQTWe5WnUjArUxk7YChg6HLKcsBSKvvOnnXdue0k3JVGxWm3f3bfd+OLr1e3yvgNo4nk+AwBoKpLJByMFLYUvK5+FuCohdDJTEWShUshhtwtrgb/+1Dd+AbJzKUh7ZA2bL+7V70vN+fR4NxANMXZd3FF5cC/QOMbqZhSmbwF1vy3ACMFyGrhXJWUcAibtw7jA+87uXYUj2DqBBiYnJC1H1uGvmfF5c07umXBgV0sUvTFEb/mmsiQR8MZahnnnwGs3GEU/4WvPdjd+G+E8B8OLlClcDPAzBZhtFsAQxPpomMP0eSWVx77bWXxvS4txxoCvQHMPTlS9FKaxbjymQMsrFty5+RWbGUCGOEWQkvu3xEAGZz5TSiYoTJyckGe7IFmoGmrBv8gFDAZufn/CjUaMzo2ZmFgQAEmJlqgDPBJrznY3fhXgGYjRccYLaWD0sejAOYAWGvS3yYFwVgXrp3GLe9/hUCMGEhxIYNGxzAXOKMePFefzAAhsBiNRgHMBePW9yTu6PA6gOM9Nmg3aGuwRBgPvC6V2BL1QFMd9Plzl55CnQHMFP+Rrz341+94BqMBRirwVx33XUrTwp3R0eBFabARQWYzZVTYiJzGswKz6q7XRcU6Bxgpit+zUR230nvgprICCy//46fFx8MNRgHMF1MsTv1olHgggJM6CUI1BKsBkOAoYls48aNLqb/orHApf7g8wOMLhwDPH3wafHBWA1GACbaVCuw3B8V2zv5t5QO1QCGmfwOYPqjuLv6wlDgogHM+3+RPpiTNQ2GxQPd4Shw4SnQOcBYDYYmsosJMNRgrr/++gtPKvdER4EuKeAApkuCudPXGwUGC2BoKqMG4wBmvfHh+nyf1QcYVqX1WYMslTDlCGW8+LIi3vcLdPKfFBPZli1batS1IcpMAHRazfpkurX1Vp0DzNmyJz6Y37/9bq3BBBtM9fB+36izasrvvvVnQIBhHswLXvCCfh/qrncUWHUKOIBZdRK7B6xtCnQGME898RQIMGfDzXWAuRB5MABG0jkpFfOut/x0LdHSAcza5io3Ok2BiwYwf/TzzOTXPhinwTh2vHgU6A5gqMH8wSfu0RqMA5iLN23uyQNBgTUHMJZqLpt/IPhnHQyyc4A5U4JoMBcDYNgHJq/B3HDDDeuA9u4V1jsFLirAbK6cEA1m69at59DZAcx6Z7218n6dAcyTjz8pJjKrwXztlH9BNRgHMGuFX9w4uqHARQOYP/y5G2smMgcw3UyZO3dlKdA5wOQ1mAsNMEywtBoMw5SdBrOyXODutjoUuCgA80O7C8j7YBzArM7kurt2QoHuAMZqMF8/HVwwDYYtk60GY0vFvPCFL+zk5dw5jgIXlQIe3navbuSi/5c7ztelr74oWU1ZVztnkzGWT5YOYrqJGJtkseKyH0gpfh8xhlDCi3cV8Ae/cCM2SaJlAdu2bVshE1lDofUVqnTbZn6kGyL/Z+vv6l7utj1YnYr6E/u5/Yutrfrth3hROWjAH64M/WXGbFM3qabMVmRsPsEzgIOPPYGpEnAm2oo/uP1efH0qlP4wbVuytqOP6aZpFg/YHkDzianh52W64Vj1KH7vzf8HtlWOYiSdxw0v1D6YOqe1e9B6/r7/FdR+5zh3Ra9niq7Uu3l485eyqFiEUhlSNp+SHsPkXF/nr5zTSTE3FQQP5rnIkSKT5mMFs7FzoaTwVYwgjBBXM4QFH8XKWbxi3zDe9bMvwUTpGIaGR7Ft+w4BIAEh30dXOTBmX+Bw9SYfgyXWgRCeXaTyPpZkzZ0h+2BO6auWAgEJkUDJJuVL8yrfD5EoIPTto/ltKoVHNBzpjYul4F0Ng5Vi5+7uQxBJ4cs8hKjqJnlmVlJEZgNPZMaeeOxRTCcRjqQb8EefegDfmCqi7LMfDHmtmac6H4eX8e6ebqMkyEIeotCmAcYLMoSLx7FXncB73/rzGJs5iJF0AS966Q/lALBN3+vOhzNgZ3Lmcr18Wo2e+4pS8AKzT3GPY9UQ0ln2Ky0gJ2YmbUaSFhPze0YeYPJNEvvYPwaM2r0M1yv+xr1ZpVJBGBUEZPgvJOBknvyOho6Heflbayd2ZbDFrCwUr2AmjhpMAtYfI1gl/DytYoJZyJtT3HbLT2J04QiKUYSdO3aYtaUbjqVpisAyRJu3Uql+nAYYbhCxuYIbRMAizvrgOcIL+c1ANzk7V3vrjJTs6a7vrRBnZXlA5BWRsSeO6fQpyo08lXRgr0S9oQgY6RE6DaYzcq/4WXmAiVABRHvQcBN7GmD0Np/g4GPfx1TFw1S0HR/41AP4ylMVpBO7kcSW35YZnuGDc76t8Z1u0QzfMooWUvSTuf5KmPAWsKt6FL/zK6/BtuopDKtFPO+HbhAW0xrWJQow7JjbDmDYyJAAY0BFgocaylLp9Z+YHkAtAUbmSqRpwx8OYDpdjJ5/61dlh1OVKqLRMfhBiMrCIhBGQBDWNkq7TZLQetPURLcdzbnZZtzlbXl+YfoUoZ8hKZWAoXEgKWPSL+EFu4fw//zsq7Atm8aYr7B7Wz2TX2CiC4DJvyg1BD6TWlWWaXCp8dI5Goz9IK8cd0q2+nlJkoqGprIMgdX+OAwyJfvx+lbCpaRFyanpGY2iUvcDcFf0TAFRQK3OIpII/5GHfZFohTNioBACRw89jWdOzaA0vhsfu+97+NQ/H8HC0DYs+UUkBoxaDuQcC0D+LPJEoDcua2bNlP5VTM0KgR9jk7eI8ZnH8K63/By2JWcwrEq4/obrZHwGnnqmwaBf2InumCQKIU0JTYeWN42x2tMwrXWanNBnO/bmAKZ3kXTQqd39+L2f/sRMdv83voG5uXnRYmKzYSZKQ0e+p7vekkn8OsjU6G++ST3K5JwkyocKWRJjeHgY5SSDn1YwjhLe8Ys/JeViJpJpbBkbxpYNEw0j78pEZq7MKH16HJuRQczAauvbLmD+FAnRMhzNgr1JgJoSWvWWp+YVPPtGnqCN3jAssfKY5gCme65doSvEVKktJPDFNCUOQ+FfSrQ8Qn6fAWdPncYTh49hzhvDlx9+Ep/6xqOY9SZQLYwjZtfWDg+tMdcP3RE2gxIezBAKwFi+yqCyKia9JVyz2cNb/vebUJw9ip0bRvCs5zxbrzPKMZ3ssh2Ob5BOk2XUxkJmdQ0rTqZmqYv2R5O8RvMmQTpPhUZgsqR2hrHOOMW761SWPfXUFL73/e+LnXJoaBilcgVRoSiLjdpEba+sIXudzBT8tO+FkMLFokmvnY8KhTDEwsIixsYnUVmYwXMP7Ma1l2/BxmwWQbKIrTt3ozg0rKGL6utyJoXzvI/4bxDDpzrMcaRUi3341CBkMNpHIiBEnUu40jhR5e86wNgNoHkjsONr+OnReAJU4xgFPxRzF7wUQ8URBH4IWk+CgtbzxJ5uJSQLMEZgdjayzph1Vc+yJivDMgQe4XK62HwgLVfwb48+hvk0xJwq4OmzFVT8YTz1zBFT0L+z0TXyFYUwmk6VAAyfR48QtW/lRUhpEQh9hMkCfux5V2EsnsVEuojLd+/Atr2Xy3OtCbazp6/Ds+w8dfhqNdeLNYzLvFvt1eom1p5eW7F6f8oZ0x3QdEZw7+BUJZubn8fY2LiQeXFxCVGBfhQ625s3fC2z5+QvHSxGXcVIfnUw0pt2uVrByPAo0iSBl1QwHmUY8arwyzMoRAE27NoL+NzsewcY/cyyMXjQyU7/kWf8ObFs+lmmFzLBhOBDgCHQKGV8I1ZVNsEGdjw2+CD/d+13/uJrn1HRDxCnCZYSosoIAmyEQojJrQVtKctRjTrPpW7a6Iw9L9xZViK1Bk0rctANGZn5O3TkDI5NnUUVESp+kQbgmtCw3EhbCSr2XAo82hiXQokQ5BntJUSCAhIvQBUZhiOgUJrBuFfF5mKA51x9FWLjM7iUFeBWBoPmebDzyOUdNKkdSQoMBWYtZlVjLjMOXRsA0Ggwq8mCDmA6W5ve408dyorFIqrVWMKJqbmkqZam4oRagYm+ENNSsztcmxUIO3nTmNYj9OeZF8gGnKUxhkMPRSSoLM5j86YNmGR4svhs9Pab12A61Wa4n4cRnzWHarogEWhBEML3CCA0MdAJayK4ahoMAUabNdK0aoDH2GJzQMPveT87tuafJElarYjbntFvVS9ApTiOpWQci/MbMDRaQHFCu7M0hOqDFLUbQ95a1tmUubNWigJ2v8l742SOc6EgnCdCgDWCTZeAJ56awlI5RlgoiO/tfMdyACP8bV0vXCsUfsRsQw0mROpFAjBZFCJLqyjSf1kM8KKrNxtIAsMSajGbK0WTQbpP8/y1GnuzKcvqK1bI47wOAShyb6AQanxwBHszQ3r9m5vXgv3M385Udn6O8bIszSrlCuJqbCIkdWQVF04UFZAkJLo9GiOetC+GC4NRGKFMiAR+0o4sgbg+lB8hjmMMF3z4aRXDYYBgeBjwIu1f0+Ff55jGOgMYBZVV4HtLKOMwTp95GouL8wjDAJ7ny3MZaS0AYyJBJIRZTGRkLb4B37tuBmzeEPJ/N/9O5ipw/JlCJamiEm3F0shz8Z0nUtx//1EslkMkQYzCCBAWOAYgjQvwUBD/lLCt+P0vUSP6GtjN6htEq61ICxhRFKHMIBhu9kohTRMUCxEYfZnY0P5l3qXZ5NvAX4yCMnljmfHVEWB0bJg2kcX0z6Sx+CpDhkzGVQkqmS5VMDY5ibhKzf3S5B8N0OePwuT8hWFYM/Xzb/qEd+/ejc1jEX7mh/dhHAADzj1aMwRgtIks75m15jEjCtdAx2WxdQAw+pT8ArPu/MaLz0Vrk0xJODEmMhuEayNy2AVGS+06bFl/HoiEpn9rNB91uueI6cpbgI8zODL9IB576suIs1MIwhRJUhWQoQYW0IAuoYxG9pCFbH0wGnz6WaA+TWMqRRJ4mPN+EJ99cD/uepAwuwMphpEGVWReYkJJta1dLO2K+UIBUt9G4nX65u68laWAlVStvCqeRBGSBPplo7EmYG4nOsg8qCVEmjyWHgalmzFb3UjzCB32krwsz+S6EvsAQob8s0cSI5cZ5eb7AkBa27o05ehOAOZ80zKi5vFLP34D3vTqK8E41kIupaFK35sxO+S1Fx1QwYAiu2daP00PDHAJXCIazLnvqYnW/EWdjXPWT9EM9GLgobdxqpuMzqIkpgFGloKoofw8QlVUUL28ekk01AAzhyqewpNH7sIzJ74ML5pCEMVIU+b16OoBIjFKeLDhFublGMirRXX16Cllvkscp4iGx7CYKkxlL8Lv/OUY5rxXYbE6DC8cRoqSmOB8CVdSUD6fTwN60UhLsqNcAqy2Fl9Rb+R6t8g5e0UDtxn1OmxZRCHhcZvxT17mNf1408x9Za/Splz+p3M7fM2eIpAQWHT4Mm0EAjl07PUQELMWZ6HnMcmy6R1ch9NZ7MIJvOvNP42bDhQxyik3Um/KwI6mvUliT2XO8wBzKXvB2s/csgCznFRUhx2zKZo4QRsuWA+Z1FHllAAFgmqYpIGnaqI/egUYqrrUYGLvGL776Gdwev4eRCNTyFBCqso6CS3wDcAwRFibxPRCNmHDtc2lNyaVLOyEET/D8IY343PfCvGRbz0fZ/yXIPMYGUcTGE0YCTwJS+LmYMbRYOl3ANOeVVfjDAsenH9q2BpYqH/aJFrmdknZGPoiJc+pDkY2X6VXM4loH3ITbljUYGhy1mYzSciVx+U8QjYBU/LNzOdWaFsN8qz5e5p12yPQFtQiRitH8ZbXvgJv/dF9mEjNPkVw8TXWaI3V7GGyj5mIM9m/+I0DmPOxiZdljJNpPNqp3A26jZEiZDFYxJfPmgCGH8nn2prJKBj+Vnfxd8fNBBiFBcA/iwcf+RjmqvcjGDqJJF2UxaqTNa1uRA2GJqmcpCi2736kT76KjygYQqkSQQVbcfvXMnz+6R/GSXWdyeAjwMRaa1MMKY2Q1dyyVSMlc0Pp7t3d2StDAYKHNlNpftVZ8VrL1luXMYjJebZchI2L1VXMNCD0JqBo8KCgZAFG85ROsjTmL/mOY7Hajq1RZjY6MZv1lse1MlS8eHexwmuvmlyYlTCKWdz0g9vxB7/0EmxnYrZxtlSUyTM3JZ3IJwIlEvTDE3Vahi401Nv8XzzKXbgne+p8cZRtxqGBRvs0aAqzAKPNC/XP7QTY6DL+TTnRLptOpqfZ6U8AIcCoYAoPfvdjWEwfAKITiJMSCgU69ZQJHDD5uQIwtDGw5hQ/C03Np959MLLphCHKFZaH2Yl7v78Jf/6NKzEXPI9efSBlCLTx/6QFeCo01Q5YbYAAw+g2JwFdOHZvJUhZKKEJivxhogZrOd35a/KbidZk9BroXULQwhy1epOQS6EnozBitRSG2dNPZwUia+ql4KLNv52sn4tF49V8rpZte397DxWEyQxevm8cH33bD2OLxXLOCHFewtNp8eAsm5B0kccVshzA9D6C1aTO2rh3W4CxxGu1hPR32qfBnA8N/toJmrdh2/pbenla6VBLiPV/yxPEYqCNyOHfBJg0m0MWncJDj9yO+fgbyIITEvVWYPioYjQcaxBJoo7x9nADYXAnF6Y1mVnDa/cTknpAxSOQbQTiy/Clh0bx0e8+B2fiZ8MrjiBj2rAATACk9LmQY3Xeg0idUtewoTBF94NwV/RBgfrWoGOGNJc3aCvmE63VNH+vOb8fgNGaiU4E1o+i4GMrTfCZDKPXNey0xk2A4TObTb19kGGQL+1rd48xUojxkt3D+MgtL8VWKxcbLGfEqWcARjHyU2QJLVAoFuXt3wYyyJTvaOw13icKAAAgAElEQVReZgP5W01UM6q0nEytIdSXn1bu6wtWYnJqsKLldePwF4xpb6ZaDmCS7Cy86Di+/djtmKncDwRTAiw+Q6AVNSoCjKkqJU5+qrYEGPJIpBeyKdHREbWaTkp8YBExhkcuw9LprfjKQ+O4/fvXYDq4DmkphRcVtflDnLZ8zxQIS3ocotFYR24vT3fX9E8Bw9AS6qrzULSfzjr1zeZvciSEp2vlZCwI9K696PEbn44AjA2ft2WFKFJT080BjNQu45qrmM97NTL3T721cYfe6c86HIFfwUv3jOIf3vIybLdKJF8s4Cqtwpf1y/2rqG0u1GC8TCL4+omCXRu0W/1R1AHG8nr+mR0BjNVb6nKc1VTsrWyJevsI7XMwEluPAENNJcVZpOEz+NfHP4kzi/chGp7TwKJywc+ycE0kmYTh0ERmNJiaGaI3JiXAxCFLxUwgSK7Cl/55DH//8LMEYAKwAGa+Tw73jwQICDBMiBkyhQ57e/bqs8al9IS8mctmclvBh5OoQ+wbhab2glFnFLQAkw+fN/YZMZ0ZTUW2t7xmoz/XprNe4jA7G93aP8tWde9+pB7Xoyrh31+9DX/7xudjCxGD24OJPFJSfkoDDH2ntXgLARitz64UF3Q/+sG4wsv68ME0v6LdKuuKjvGY5YwIjd+1QrVzCWf9L3k/TLVaRYoZpMFhPHLw0zi7dB/8wlldKt9YpfX55hnSY4McRL8IB5Rnjd42efFA+UCSTaKSXo4vPjSBj3/nGkxnzzUglnu/WrFNk9SZq4U2GKyy3kfZzL3WfGs/rxUd6cis2z217HMsWBjgqaX72ZVjP7eg6JzM3dNaX+FnCViM598dmMTfvemF2KzdKzr5WWI5rLnfqDS5bYIBGnp36zWGsNdRD9Z1Kwowq/XqrQCGWdTKm0UaHMEjBz9jAOaMLmQph87e9xo0JIEE8/3KLcwqJrGU7cGdD0/gEw9fh5nsmrptvpbgmbfV89l2I+kN3FaL1u6+jgKXCgX8LEWUEWAm8OFbXohNBrMbu2rYBNxcVU35Va9nF6Z8fm4ZaIDRGowGmOnS1+AXGgHGyCm5MEIHMJfK5uHe01GgHQUcwLSjUP/fDyzAlMtlYyI7gu89+VkHMP3zgruDo8AlRQEHMKs/3QMNMLE6CxUeFYCZKX/daTCrzy/uCY4C64YCDmBWfyoHFmBKpRIswHz/qc+1BBjmzWifTD6bx/lgVp+t3BMcBdY+BRzArP4cDQTA2BbK+SiypaUlAZgsOgYHMKvPKO4JjgLrjQIOYFZ/RgceYGgiI8DMVu5HUDwL0x9MoricBrP6DOSe4CgwqBRwALP6MzcQAJMng9Vi5ufnJUw58Q/jsWfuEIBhFJnu/6TrO7kw5dVnIPcER4FBpYADmNWfuXUDMHPVb0g/GAcwq8807gmOAuuBAg5gVn8WBxZg5ubmahrM44fuRDPAeGw1q2gma87Yd07+1Wcr9wRHgbVPAQcwqz9HAwMwzeX6CTBJNi2JlgSY+fiBBg2GAKOr4OTL4btEy9VnKfcER4HBoIADmNWfp4EFmNnZ2RrAPHH4Cw5gVp9X3BMcBdYVBRzArP50DizAzMzM1ADm4JEvOoBZfV5xT3AUWFcUcACz+tM50ABjEy2pwSwk3zzHREbyuUTL1Wci9wRHgUGkgAOY1Z+1wQaYlD6YY6AGs5AyTHmq1irZk6ZRBBhbZr1eZVmTtbNump1MQZxNYhGspjyOTzx8ba6asulQaDsWsmS/FE/ms3P9RnpuuduqInS+zHu+UnNz+Xkzlj5aznZCG3eOo0B7CtjGb1waLZpQSV38fM+e/PrtvRq5A5j2M9PvGQMJMGw2xjyYSjyNLJzCU8e+jPn0HvjFE4jjCnw/RBSOgD1jgtC2RNa9zmtlY9gbJmMpGTZ/qDdsam6PY9s0L0dofl9R4ygHV+DzDw7h9oefg1n/Wt2kSrFXxLBuDOWXTFtc1vrm80zL5r56uvuAH+keFtUqEEX6X8KuSQl8P4NK2dOdCzg07Zt1Ay2PXRplZOyQ2Fff2X550F1/KVPA5/pjFw0PCLhGYwTFCGm5BITkbfM922xIPyfdQVf4WXo8NQNP58R0ANM5rXo9cyAAprllMsOPFxcXsVg6DRWcFoCZi+9BNHIaKouRJAqBN6KjyPyyYUoyZACr2dT7wizfk47goUOdl9mA2SATHspqHNXoAO745yF8/OEfwIzHhmMePBXqzpUEmGDJdCfkn80A0/P0AWkGRAWEYYQkToCUbaEzQLE1dAo/8KCozXmmTR9pkqUIslRa7ioE+nt3OApcDAokMRAVgSyEz/VWWdT8O1QA4lS3NpeDjQIJMrrD5Eq0PHcAs/oTPhAAY2uR5cnBWmQz80cQjZ7BoRP34PT83cjCkwhD08wrK8jGnqol00+TAOPnwIIp/7aFXSOh84Byvoafcp7yUErHUI32445/GcLHH7oKs7gG8EJ4WRFIqcEQ2yzAWNNUk0bVw1x7mUIx8FApl+AHEVKCjecjKlDyi+H5GRKloHxqKQZg+BylpJsfKZVysToNpgfqu0v6p0CGkNpKkiErs514gKAYIq2WAZUCxSEgtsKdA5j+6X3h7zBwAGPzYdgPZursEWTBNOZKj+LMwoNYKB0SNToIQmQqEO0jjEwnSWmRnPfLcDM2eTGierc/zgGbzEPgB1hKRlCJ9uCOhzzc/p3LMetfLTfzaAZLqMEQYMpagznHB9P+ucudQYCJKNnR5BUUJKmU5kNqJr6nkKoUmR8gZbIpTWki+XEw2kSmNRgCTO9jcFc6CvROgQyoLIlZN4xGtQYOhXCoiKS0YExkobm90V5krdLMHDkTWe+Ev2BXDhzAWG0mjmNMT8+iUk0RRBXE2SGUY5aKSSH5laC2AiQJTUVMutRObjr960BBkNEAZD/Lg4i+DwMF9C+tfoZ+gMUkxGKwAZ9+cA7/8O1xnPV3I8tKZiMvGhNZrE11BLqMi8YuHEpmnQHcuVyRAXGMoFDU2ossvJRGLxQiHwRhLypAEWA8+mCaACbLoER7cQhzwVace1CNAh5SFCOycIw0i1AojqC6OA/5kJKQ1H0yvhauHa4Tu1ZkDVFgdD6YtcxSAwEwzVn8drNfWowxM0OfSwUpzsIPYgRBgDRNRXsR/4OiVKTDlTVAEEwsyGgfiz34vf1nP+O9msGlfg5NZEAZBJgxfOKbx/CRh4GZaDvgLwGqqrUYcbvocYB+GXFQcsPnB3TC2/I13bOKRyepFyCjvdr3MIQEWWUBBS9BEPhIuE49X7QYdhAXA2KWIVRa0+F3ygFM94R3V/RPAS9DnMQoDI9icT5GOL5B1kRCExnjVwJaISg05Z35XCvNUZi9DcX5YHqjWzdXDQTALPdCSmWolBMsLM5jqTSjPQq+LwCTqkS0GWOTMtpLHWC0NuMhU77ReFprKK0AqAZIyhPNQUWjWIpG8Y/3P4UPPbiEheI2eAWCi0LG6BiOQhyUBBia6qy5jhpUfozdTJ05V2m/C4IQWJrFhrCKCb+K6vwUxoYibSYTKtQ1FQJMQDMZfVRsytbDY90ljgL9UiD2C6gUJrCUFZGGYyhXU/iFohhuqd0oCndi2s03DLQCYT7Mv7eROIDpjW7dXDVQAGM1mXpUmagEsn1yn6UNl+o2NRdK7xpgCBx5kmgGrZnRxFRFkKmf1Mqxv9xnoi1FI5jzQvzlF/8NH7z7BE5jAvCqgGgJBW25Mqa4Wkj0SlqlqJEEIYaSBfz8zS/Gr9w0KsHRda9T4xI1QZ5Chz7hrRtec+c6CjRQoATgnmPAb/2PTyOOxlHJQr0ufQ+hl4k/UQQn4zvVC5dmMv5C7pYPeqaqA5ieSdfxhQMFMOe+FcGCvg0ejBrrZNe2DNnJue3oyHtVUUGAJYS47Y7v4j13HMR0sK0Wry+hymIis1u5iVwTzYXI07SA2j2y4XujmxiNZELN4Vd/4kV447/fjlEAOrxAU8UGIucNDPzOhEB09VR3sqPASlBgDsCXjgFvf9cnMYdRJOGw8ZVSw9Ym5VRC6O2/DJ71h9ZC6x3ArMRcrNY9BhxguF0yqZBb6JAWZppxo9VnK0ZNbs+JAZgAt93xr3jPHY9jOthqhCsfnkSvNQMMVX/jd1E0AVhprJeB0filECiFDek0bvnx6/FrN+/DuAEYbQCrJ6hlCOUTphpY9Ol9ifYyXneNo4CmwCyAO44At777dsx4Y4jDUZ34zPRf4yNMfZ8xkTURSQNMhswBzECw0ToAGGowRBVGazUdHSkrvUeh2LDfigcw2+a2zz2J99z5CKbDTQZgGAmtHZTaRMbDlHLxKKFRg8kbsnrgGZPD4imFjekZ3HrzNXjTq/fTSIeIUqAArk6uFFOgV9AA0/AoBzE9UN5d0icFZuHhzsMEmI/hrD+OajhmoiyBMNNRl9RgNJhoIYyh+cLRK2CAcCayPiewg8sHHGC0BqEPmsjMZmo38gbtxW7wJlS3xqD9GIkYcgwwEHrJI8Acwnvu/G4jwBgXuwCMJGaard1qMPnyNR1MWOMpBC9bxynDpmQKb735Objl1QcEYIKsqgMAagDjIfPoRK1XYmukWdcDcBc4CvRMgTl4+OIh4C3/8x8w5U+iGo5rkzF9ilksjv7EAgxD7TPPAAwFtp4fW7vQAUz/NGx3hwEHGGv+4WtSwuHfRjOo5ZlY0Ml9XgOefiV3zeUCMKLBPIX33PmvGmAMcNB8RUksk6ROq7HwV1NJwOTntJuott9nwKb0DN5+89V406uvFBNZQClQOnry0JqegtZgbEzZCqzTtkNzJzgKtKKA+GAOAbf+z4/ilL8B1WjCJFACoaoIwMQ+hSgTeUmAUTQJZ1A1G2/vtHUA0zvtOr1ywAGm+TWt05/bZiHnk7GfmxpgDQDTzxarAU47+a2JjBrMZuO850aui21qics69blo+tGc7HvnzHuZj43pWbz95mfjlldfiTHJtknBtEsNvzoYgrn/1kTWz5t3ymDuPEeB5SgwbwDmLe/+CE4FG1GNJnMAU84BDNetTrh0ADNY/DT4ANPgZ9FRXVo+bwYYfk7zmDGlWd9ER5Fny00qn5eigrCuwXzhO5gOLMAwsVGXv9C+y3yRvlypmp5DLfMaXIgNCQGGGsx+iSJj+ID1UEWSW6CQGs2OaZcagV2hy8FasutntASYL9NE9u6P4KQAzAYDMEwEpgaT5DSYPMCwvl5zG47u6eI0mO5p1u0V6wdgREHghsktlRu5LcViI8vsVktGtZ/1G2KmN/gqAiwC+MDntYlsRgBGm+w8L2Y6o8T2y5gUo924qdsSMRZoup06rY9IMqcB1In0LN5x81W45eb9osEQSm0QN6nBc1l7TJvHWLbGJGn2BbK9jNtd4ygA5DWYk8FmxKLBaB9MYExkiZjIjJNfBDQjGNUsAFxXOWpaS0EHBCbAFFQFr7pyEn97yw3YzBXFJWFuqTV81uyzB59vE6czxrLBdwLaeSk9+ABzzuvpYngZe7HkbUDyO7/rTmJvVaam4ZEKSH0dcvmBOwkwj2HW22iy9quATz8IS+iTawtAMi4VmH1vUbL4WS6/2zHVn68zniXKxhvGSHoGv3XTftx6835MSEFLOvmZ6Nn0zrJIjQQo3zljWQf7kTtlhSlAH8wXD1OD+Qec9gkw9MFwnVD4ScAiRvVaecZrWPMpspS/beDXPDDLzy34uvaRB18lGFJlvPLKSfzVm18Axn5anb6+Kmj5sDlsBD9tAZEKNmblutWzPGMMPMDYumIijIuwQ3nelJEg/zWY0Op+D90XxtYnayRQuyZjywHM++44iPfeeRBz3iYBFb3Bx8iozkuhSZbvH4WnOELmMSfQcf69sij1kYT1ZwF/GMPpWfxfN10hADPJsOQawLD8pT4EaoQmeYBZ4Z3D3c5RoAMK1AHm7zHlb0E1JMBo4UdX+7baub6ZFqRy1ZUNwNjV0xiyswzINAHMcA1gbsDGlgBDGwDN3AQZAoxOX3YA08EEi1HpfA1POrvHGjjLSuT2J7koBEsZBdQceNR6v1izWGeSe548ywEPZRyq+7cRYD77OGb8zYgY5SJRXIkwY+qbApeqgED5CEQXTxAHBKDeil0yJyDMUqmWnPojGE2n8Zs37cdbbj5gosio3QSyNPIZ/J29+RqYVjeEdU0BayK79d0fxml/KyrhuLba0vRkNBiJGbOR+IQcAzA6H8aWjamTSYPMOaaLFnT0pFrAUKpNZH/z5h8SDYaV++g5rd9BWwk0yDBUWmswomiJiaxX4XBdT23t5QYeYESbpmQumzRNTlStdVgjK7H6bLalZY5caW8yhcmwbyxUds6st9NmbFjBAoAPfv6JHMBQ048BX4kJTRFg+EyOiRoMUcdTSPoAGJ0voP0qyh82AHMAb775gPhgGC9ml0e+RODyPTwvDaZ3b7k2KJAHGGowlXBC+0CaAMYmCwuf1wDG9DM67/7ONdYMOPV3tyayHz4wiQ+9+SXYIMnIzLHRlcfzsOWBeTn8jH1orMDqgmTacdJgA4wNhDLm2QxVpFIi34fvs+kYC15qEtCUpmUOIpIuPaGxRd9kuZ4vrcr16/tpWYk/4qCApWgE/9/nH8L7v3wYs9EOREEIlSWM5DellExjLw7INPzSkpB2v/d01MbPfi8FjKZn8Js3XYk3Gyd/JJKXNo/lTWR1j0y/QQ49jdpd5CggFJA8GPHBfBRT3hZUxAejhcFzTWRaX6jndRm/yLIA0sGaogajlvAjB8bxd7e8DBOKtgj6S7lydJylhSdqMQS+mvm9tqLM5uPmtCUFBhtgGJRcBgqsEuNVoLBk7LZslZxrMiZ+f9vrRQOMrnnEnkaM8rIVlpcHmjwA5XvGELjKWYhStAF//eVH8MdfPY2ZYKdoTiklIha1pA/G2qUoognYsROlNuXpiLNeDrsEuPAijCVn8Js3U4O50oQpa4CxMGoXi/7AmhfcAumF8u6a/ilgfTC3vvvvcdrbYhItLbdyfRjHqpXkJGrHrhWdX9Zck6I+KmsaP884swRRpgHm79/0UkwopkxzrTKDjIH9+YRkggtBprmKs1s/5+OEgQcY9oTx/SoSnEasZlFgAy5kiLMUPstMNGgbFkj4IUuDs+EWnXjsgmk1kjrIkHDUYJbTbrS4FWMhDlAKduDDdx3Gn929gLPeLiiCC51AIRuLKSAwlQRY3FLAzSwQMQn0epgx8w5egA3JGbzz5itxy6t/QACG/hkdSpeLIqtFkJnlI1E5vY+g15G76xwF6mHKH8VpmshsFJmtyLEswJDvU6msTLPV+YJkGh3/jTQXwPAq+OEDE/iHX38RNtKkTcHPl56wGmDM+pQAoponsxMfj5tfEWgH28nPCKoFxNkUjp16GKfOHEQQUJVOkcQpCoWC3uiNwK61GLOxsqe3mKhMGHEOiLTA1Jo1G/rG0PsRKCwmQ4gL+/HJB0r4uweGsFA4AD9gK0ndwVJALqB0xL+pblHjsACja8X2duhKylrm87ExOSN5ML/+41dLPxhbna3x3laDslFkfZjoehu0u8pRQChQ98F8BKcEYJgHw81bA0jrXi9Wg0ikMyuFNQ0y3R/SBNCv4lUHJvGPv/YCbJYWzbp+X2ZLKlkBUDDFhso4raVTag8swMhG7y3Aw0kcmfkWHnvqK4jVFIJQIUmqiKIC4qQKUWhqEeu5KLMawFDKtx6KTslmsELkHQUUt+P0wlbc/b0JfPK7+zAbXw6ECQJE8OMxXeAyqEhF5VR5WoEJE4ANlbwiPGOu6+7purJs4KWIq2UMDY1gkzqLW37kAH71J35Qakvb+tL55VD73QCvzpFxGky3tHfn908ByeQ/DLzpv/8tZoZ2YclnNWWG81Pj537O9WHFL+MvFI3bVAenBtNBsVi2UbdCY8o1R0NbSMEvgRfGeNneUXz0TS/ATpEEjc+UbS2YS2dfU2qf6YrkOgxBf+NWzvn5YKABJvNmUMUTOHjkLhw6cQ+8aFo0GDr6QzJQxjh6MhQZ0jCmaA78iDFW+V7f3S8YscqybXKwGSV/Lz77zQI+9d3nYja7CghjoKLgq0n4WQg/SKEY8UUXEN0ukRlXwtDHXnWYDFEYIK6UUCwUUJh9Gv/5tc/HG29+tmgvpoJTrbClhdq60cw5+bufdXfFSlFANJhngLe/9yM4XB1DNrpdoh6R0LRsEi5rW3hrgKk7N1uPilGgWbUqoOUPDUlLdemUyYXIgKAgxo9dvRV//cbrsd1ARxJXEIZmBdXcnDZURgcI5QvVOJBZniMGFmCUYn2vWcR4Bt957NOYmnsA4dCM5JaklHxESmEiJU1geYAx5f2llIxVt3tjEU8FKGIIi5UI1eJ2fP7hYXz0W9diLno+EJCpmexYFDOZT8mL2kvi60o2AjB2LD0uWZHmIh1Zk5axM5zFG1+yA299zXVScYxmMitv6Sdog5qFFafo90h3d9mKUICh/XcfBn79v/055kf3YsEfQ2yDw4zMRYN342H7wmgBTfeKWX79+kEAlSTwAn3DrFIBogiFYhFpZQFhModX7t+ID916o5SKyVK2HzcZ2hwMgUYWijXZaYCxmWtO/18nGkxzyRYCjPJmkXnH8eAjH8N8/CCC4lnEcVm0ajrnAzKVNPYSJ4jeWsWpT6als906uHsDGOazhCpAnBZRKWzAw8f34f2fvwyn1POYmINgZAQpw9wk56UgQOOl3PozZAHHQfCzekUvazYEolGgVJas/e3eFP7ibT+Fl16u2yWHaYpQ1lU9SJlJmY3hl07N74Xy7pr+KcD6fYcAvObNf4Uj6SQqxU2ivBSGRxBXK/B9D6kwq/ayaIuDBgomYnIdqXYmXprRwgBZrLWYaHQUMUFmcRGFkRATyVn82n94GW790V0YJ54EQFKtoMBf5NEM0uEv1vKhIcVl8nc2/wOjweQBRqK/FCsDzyILjuPBf/1HLKbfAqJTiOOKdu4zHFgAxTjmRGPh34x1p4RCJ3+/8odu2RwUxjBXLuJ7p/fjz754GU7GL0SMLUgrChhlgUtT4ZljSAs6+9ePoaRrX2/gZjUScnqxEAKlWWxPT+JrH/g5sGGzvJ34WRjuaR36gXS0bAy/7IxR3FmOAitNAba4OAXgHR/4Or7yyEmUi5ug/AjVhBFiCn7IXDINMFbv1hqLzvTXALNcFKQRo0wkWhAGSGkqUwpeoSBBPOPZIjbMP4m3vOYV+NVXP0eSk7k2BFoSDUgIhwyYMIyGPh+a7rh+e6lsuNIUXPv3G1iAoYYiABOewEOP3I6F9BtQ/nEkSYxisShZ/DpiLB81lgG+ieYSwNHM2jpapf3kMQol86uoxAqBvxHz3jX45L9swVce9JCm+xAN70YpTVGlOc9jA7AAQRKC/kLPZ9WBfFRK++c1n6EzntnhRVeFfd2PvxTv/Il9mARQWpzHyPCwKZFTz5dhYicp0i+0dj9ad4WjQCMFuBKnMuCbTwG/8d6/EoCZL8VIMw+TE+OYnZtHEGpfqWgwHk28WoNhMz1pPHZO1r19hqkxXihgcXEBxaKuIcb9gQFANKOPJHN42398JX7xR/ZgYwYUaBUJfGSpQmgDf/zQenEl9ZJWC63Z9CkbXiLMMLAAQ0ddms0ChVP4zqP/hJnKvUB4CkqltSx+0XqkbwTFDdpSubOTra0GQ5Vb92vp5ZAaY8gQIsKQGkYJkziObTh0ehynD2/G0UMFKG8nlD+OcGhIGNtP2TaZQpDZ9Hv17xsNhWXNf/DZV+LaH3w2btgLbOPnqgT47FxZ7/pi9SSrvehvHNT0Mu/umpWigObBEgKcBPC3dxxEJQWefOYQyuWyBgJKZsaMrIPytak7zBJjNtM+kXMPvb7iuCoBMGL1SJUIn/Pz85iYmMBrb345XngFxPcyLCHPCSrKF/OYp7TPhSWeTDiO+DUD68SUArZ8Qh8LeKXIuIbvM9AAk2QzUMFxfPexT+Js6R6EQ2eF1JmosWbixcHPv+kMbzaRUQrpHWCkEB9LwlRTFKo+guIw5kIP1XQrgurV2L7xFQi8ZyMq7sb4Jg/jxXpj55XgCb6hDVPg7wxLHskqOtSSiWK+Noflnfr8vRYHI9n82sRg9TgtmOXKUMsi0vDECB/emQY/nZ7aq+63Em/v7jHoFCAf2qZ4zOqnycyKPVyVxqhd8xnmbQ3dpAfzXjrrrS5SkXep0zAQht9p/Ua3P7fRl/zJv3PF+mWNcTXYOgJrZQ6a/ap21Voa8z11Rp49+jHNd/7WAwEwzf4Xhh5WKhVx8qfBUTxy8DM4u3Qv/MIZDS7mqF0nnxlzmHX614xEfZjI5Dl6Sw5ZfsbzUJXNeSNQ2Ytdm1+OAq5DGm/EZXsuw8iQHttKBQc3a+m6xKcNYrAF+zR4NLKT7muuD30XLQ9qwJIgTGXkNt9HHGuzQhUhZgB8/WngLz57L775b08CQVE0JXc4CnRLAZ2JTxuAj9gvIPW4BebWbwv/ZD3/RAKa+7JTSR5ZxqpjqfFX1oMGaHoWQGKYc26liHlbh+nU26B3++IrdX6uCogyFhE/88Vs7iOWatH/20/9BN540xZcBmDU9NlhAFJcThDRbLjKODNwAGPnhgCTYgYqtABzXxPAKFGLvQYnoE2Wqm+sKzXXtuoygw/8bBKo7sTOTS9DMXsesngL9uzZjZERyhG2xFJOtT4v4uTZu9VoewdI4S55ttZMLMAENBdI2QxTC8oPodIUlSDCCQA3/dqfY2p4O2Ywgsyj/OcAZqX4yN3HUaBjCuQARpvcteUmEICpIsyqGA4UfunmF+K3fmwzNovFIoVKUviB0cUcwOiyLZIwZX5yAggwSTZdA5jp0tfOARg9UXl39uoBjEAWnZAtAEZVN2Pv3st6BJiO2a37E3MaM11DNfOZ2ClsCRpGJ+iM5rMp8JdfOYw//PjdOO5vQDqy0VSkXmUu7f7N3BWOAuufAgIwRsPKAYwE/zC6NYvhJ1Ec/e4AACAASURBVCXsSE/hwdvegE2CQbRVeCiXEwwVi06D0RK/Bpj8QSegBZjvPflZrDWAySo7RIMpqOtFg7n88j3nAEy+ll9fqyFvWu3xRrqBUh2S86nKMSt3BLq8+hv+x+fwwNEKZoe3YZFVCISxV2AAPY7bXeYocMlSQJad2RfFIMIAIpPvRxMZYgwHGSYXnsGH3/kfceOBcTm7XClhuDiMmL7jwupaHwbWRFYqlRoAZqb89TWlwRBgdmx8aQPAjI6OmLVgXOm5auQXZZE040IOZGz+p8CHB1QSYDEEfvn378aXHp3C4tA2IKBrdK25Oy8KJd1DHQUuPAVqAMO8HGN/qLX+0JVC/LSKHelp/NWbfxKvvGoUSapQCHyx6zBQzuaTrtbgBxpgYnVWTGTff+pzaAUw2qyWd4WvvInMmu6siUy0LTUBCzBRep1oMPv27cW5AHOuZrZaE73sfVuATEPQtjHtxhkw7QG//Ef34Z9PKZxYDDTASMRab2HeF/xd3QMdBdYTBfImMtFgWIOKsXemtA0TrZMqdvsz+OtbfxI37gtEg5FTM7F8r7aPfzDK9bcykS0tLYEAk0XH1gzAWN4lwKjydtFgCDBItoqJbGyMXVqsWtvoU+qd71fIRGWj7zy2YCZk6DLoNhSB8tAZAK973z34wiOn4U/uQUpsaeiX2ftbuCsdBRwFuqSAaS8tMqJP6GDhXNN+QxJFU4kG3VQ5jr++9T/gR64q6lhalaHg19d2l0/t6vSB0mDyQEOAqaZnagAzW7lfapHZFsmStXGBNBg69q0GIz+bAMZqMKsDMDbTpat5bzo5bxtjhQGyJqUdDz4bunk+KqnCbOjjdR/8Gu4+OIclNarrq/VRCaGfEbtrHQUueQpkunyNNmObOm1SAstWiVdSum3j0hF85Ddeixsv1x0QhkMT96mYiL66ATprHmCatRf799zcnMmDOYLHnrkDBBjmwUjPIAkIuLBhyiwDboEmS8YQqj3YOPICFBTDlDfjyiv315z8ksoo/hcdUV/XanpZMv1pMMwmECOiaDAmjLEGMD5CiZ0HVJbhbBDg5953D+55ahFlCVG2ANPLuN01jgKOAn1RwACMrsnGO9Fhb0pgSfAN167C5uoJfOjt/ytefoUnSaX2rIaW1H0NZPmLBxpgbB4MAWau+g140dRFA5i8L8YCzIbh56OYPX/FAKZVl83m6Lpu+CQPTeIjFPUrEchLEArwhHKSZtazPgHma7j7yQWUMQRFZl5lCaib93HnOgpcUhRoABibZJAHGN29dnP1ZBPAsNSOWfAi5K6eFjPwAJMGR/D4oTvPARjP0xWXL2SipQWAPMDkNZi8k7+uwXS3JFjAsw4q/TGGwIbhM8lQFl7T5r5Y13xGKPXSqcIozEQhfvaPHjAAE0nlW1HQ+xtGdwRwZzsKOApoCpwDMDR1Wx+MFR8zDTDveA1evk9rMCx3K8nUIlCubtnbgQGY5mTL2dnZWpgyAWY+fqBBgyHA6A3/wiRa5hNBVTyKIL0M1GAswDzrWQcaosg6BRgNkl7OnJYP++pf+tD9NurFYVk0RgCGfTBYp0n4VIPOjO/jFz7wL/jK47MoI0TKKgn9D8FtF44CjgK9UMA4+aVwjQiGBBhTpS2Xn9YaYOotPFZTQhw4gLHzMDMzUwOYJw5/YU0CzOTQ8wRgkGwRH0zeyd8pwNT5TkskmQkJ1pqML33D8wzSbEZrb0IzhS6lKGiCMIvFIhZ7Q7pMelKRmsyZUpiKxvBLH/xnfPXgPMoeNRjb7qCX1eGucRRwFOibAlJt2vS94g8p8uvVq7WDGswpfOjtr6n5YLQG4wDGaIHnlokRaXpmRsKUmQdz8MgX1wTASJkYOvuNBkOACZPr4KVbQQ2mH4AhoBBcdEGDeknAVMqK62oH9mceZKpsspT7/pzfU+0gTCkBqQQRAUaxaGdR2tF6WVXaoyMlwOzGLX/xAO55poSKtJJl3H3fS8TdwFHAUaAnCuSESxbxrQEMo8rquWlbqqfwNwZgaJcgwGgfDC/opi5194McWA1menq6lgdDDWYh+eY5JjK9ma5uoqXdsK2JLA8wE8XrEaXXiwZz1VVX9gwwBAzRWCQphdFxSvrepCoGTYGi2cg51iyoAae5CnUzAEncWJIKwCSermwbpVUNMB47+bGPTlW6cGSJwml/J2790L/gnqfLSEITDilRK84J0/3Sc1c4CvRLAZP7wttIlXj6SnVUqAYYnSUtGsw7Xosb9+nWBLRIRBJh5nwwLQtdkp4WYFR4TDSYheQBCVNmp0uajsS5T6tPrSOKlvzrh0lR72tz1NVL9eavN37fD5AlE/CquzE5fD3C5BqjwVyF8fFx83i7+XfarIjaCzv4laEwixjzKJUXUamUEIQEEx2S3fzPvmuzdpP/27bLkXLfWYpQNCIW+46kVLlSsQ4USxXOhgfwmx8+jK8d8pFE7JbJFtD9OmHy4NSDOtTDJf0ua3e9o0CNAhdVtmoCGGmaZvtgpdp0lmmA+du3vxY3XmEBRmsxtpL6agqIA6nB0BTFrnRLlVPwiifw2DN3opQ9CL9wGnFSQhAUADUivmkviAHPljMxjccE8U05eht10cuayQKo1Efg8zllZNJVJUJSGQeql2Pz2AuA6n6E2IEDVzwHk5NjubnM5+mc/+GpqsD3y0hxFE+c+DyePvKgtFzWeSv9JFrWe8Wwh4S0pdWdx3WPNpGE2IeckJNhKrsOf/SlHXjo+G4kwThUre10r6usGZxygdM14KjFTzcSyaQQ9frkXqbbXeMo0EwBSXDs6+hHQsqvHx2c42W6Vy2kk69eT1sqp/Dht70Wr9jv1ewN9V63nQq5vb3kmgeYVq9FgFlYWMD84gmgMIWnjt4lYcrB0EnAJ8BEgBpFwjLAfqkGJqLVKNMHwWevOoVM1VuutnKIL+ckl88pLSgqnSkybxEqS+BjGKq6CX5yBTaNPQ9eshdxaQLXPffFGBqKxIfCpEX/nPyR1hupmEq9KhKcxanZb+GJo/+IxepjKBR9pEr7V3p1hGgg8VgvCGGWSrIlI8PEw+OxEZSJXTbRKlPqhXjfnVfh4WP7kbBcP99d2+16POwCMWiRrwpQi5Cxt9YLudVy7HeJ9zh4d9klTgHhxYsKMKYSraxTpX39mS+WBwEY0WA0wPzdW1+DV+z3xZ8qAqNt2d6XBac9AwwEwLTyJbBUzMzcSQTFJZw8+yBOL9yNxHsamT8jmkTgjejeLKLBUNo3MeIZAUZv2roScGsTT76BWCsy6u+5OQfCY57P6Ct2kxtDWtmErLIHY8WrMRweQGVpBC/5oRv1Bmm6EUsAlozD3r01wLAyQYYSMn8WTx67CwePfQyIjoIukCSttgCq9pNef+JaAZg8DQwdpNuhhRRN60Zwqfdq7/yN3ZmOAhebAs0iUp/ikfiYHcD0Nas2Oos3sb8zOurs9CnEahGV9AjOLHwLlfQQ4nQa5coCwkB3j/R8qo46Rjxjr4SM5U24OWmzWavs+PxnARuh5I7G8wkwLBGTGpOVj9AfR4At8NNdGBu6QrSX4eJmXHvt9QZgTAVlnbsIv3b75TWYajyPsLCEJ49/BU+e+Di8wjGorGoc/L2T9uJrMA0Ia2zClg4GiWsIbBZibT3av/sxMfROO3elo0BN/mlLCis0nSsmaRNbHyDjAKYt9due0Apg+BlDlReWFhAVE5TjY/CCEjw/k0Y6gU+A8aCyCjKWrbYRZVkokWX6s8aoK31O42e1+mJNn9v7UYNRKhENJk21FpOlBaTxEKJwAl5WxK5du7F9x2YEvvZyeFINKGoqBbSMrwFAqTKDsLiEg0e+jKdOfhzB0AnQLxOGBLe25Fv2hLUBMMsNLw8crRagBZg+CNA76dyVjgKaArYKuc2Mb0GXuu5dTy+QS42J2gHMRWamPMDkzWWlUhkzs3NiEqtU58QUFrB8iQqQqQiKdVA8ain1XBH6XDQvaCCRc1rkkeQjrVoBj/7eajAJ/DBBmlb1/ajVpKH4gnbu3Ildu7fB8024rwGYLKM/Ju+/WM5EplBN5hAUFvHE4S/h6VO3Ixw+KRoM36uxFE53E7V2AaYduOQ0n1y8f3dv7852FFgBCrQBmOXAxQHMCtB+pW5hN/tmh7suowIslRZQLi9KK9A0IaAAcUwHft6JnNdOdHSF1lb0ZtUKUPgNw56bAaj+t85PSZIq/EDXPgvDAsbHNmJ0ZAOGh0YxuWFE2g1rP5CO9GAkulIBfHHeWCq1BpgkiZGoBfiFBTx17C48ffJ2BMMnoFQVSRoLoPYqAa0NgDmfiet8pgP7nTORrdQ6c/dZaQpInsQ53sP8U5yJbKVp3uP9mkEmr8kkSYIwpOmLG34q2fTaFMVNaLkop+VNUnltt1WQSP17+lPIQ2mNiYhHEsVmI249oFpVKBQ9ifoKxOlCLUoXk2wHMASwcnUGqXcWR07fJwCTRUcQhBrcarWHeqDr2gGYVhpLO7u0+b7NAu6BLO4SR4GOKGBk0zbnthOA2vF5u9s7J39Hk9XzSTmfsNyj5jPTfRnrO3izxNvnxDY8jIOwcecm7LllsEgTqGkrmzmW12DidA6pP43DJ+/Boal/QhYeNUEFlJB6L/Ww9gDGEiM3Nzbsjkge6JavmdEqJUKCTZN6Zh53oaNA7xToCGAayuLrZ3kmhDRjGaewMYio69E4J3/XJOv+Aqst2CsbQCa/0+d/txPbTsI433DyESB5kOHnrRinAVGabtwaYOK4ikTNC8AcOnE3Dp/55DoEmDwpmuCCi9FGMhBY+Dc1N/nJ6/rJw+me1dwVjgINFGgn3dDPKmYOExVpeZn8y1w4U0uwZ6o6gOmZdB1cSL8GEyY5y0O5iI5mxSW/+dtNaYU2pgZc4HhMhn2DhmNNdXkJvZkzlweYOJ0XE9nhU/fi8NQnxUSmM/nXgwbTzgRgFibLJaQpgohBHMxv8pHEzHHqUwLsgMvcKY4Cy1NgeVO77Ev5XARrb7caOLUXBzBrmbnoNCfAcJKZ30LfR9PG3WCCymsrFxJgbLWAvMbTTNfWjFqtVqABZhqHT92DI2c+DRSO6oABydTtvWHQ2jCRdcBfBJQwgEpihGGEpFox0p+CZJz2nU3dwRjcKY4C5yxZllGqr9tzjLVWcxFTrvRyhxcEOrBIQGYFmvU5DWa1+dLax3S0V90Jc76NN1+/63ybfrux22c3O6mbggta+bDPuXVrgKlULMBoJ78ATHTUVE/le6xvgKG9mj4XRtxlKkVgNJcwDESLqVppsN1Uue8dBVaYArLKGwAm/wAGKHvwfPJpgIR8yn9SxsX4TaUnSz8melcqZoWntMXtavtyPgzY+kDagYwFpF6HKaKIuTivpZyHb5a12S4PMMyDsVFkR89+BoiO1Yt19uGDGAgNxixgLtfQ96DSVExkUrk6YJh3OyN4r3PrrnMUOD8FRDTNhZzmNRiGH/NvtsNgvT5PNG0ToOIHAjzkYwcwa53LavsyJ8vWFqsXsKzHC+e0m440ih5evOV9l41AaHpAa4Apl8s1E9mRU/fh6DQ1mGPig5Ew5T5iqNYUwDSbNi11VIowCpHEDPHW/WtGR4bB4AdqNFLgr18psIepdpc4CpACuiCspoVewRpYLFcWh4exuLAoWkuhOIQ41h1jqdWoNMnXiuqNoM5E1hvdOr6qti9bbaLZoc471ZvviEmpWStdCSF4WXBpNsdZraoZUPJhznWOLVeqqMYMUz6DI6fvxbHpzxqA0VJ8P4eEPlBjZ5c7hvtmGVJu4rkCoDabiM3IptQNeN+dP4CHjx1A4m801ZRXgnh58G+aHCavFiIkpUVEITAaZHjWnu0YCxVCJPAdwPTDAu7aPinAdhZ5jtXtLvTBhn2V1MPjh07gTMWDVxzTgSmMMY0KSAkwfVUjdyayPqevs8t1omUgExbQbCKZ+Ww6lt/8jFOttnnmfC+9mkFNzxSRXsw9dIdJU0STkkpD33qCm83et1n97AjJwxbllO2+BoLlskIlnkbincKxM/fi2MxngfC4kZjqLZQ7o1TjWVwcbDTGIYeKiZ8KqV+REv7IishqvXL4nBhn1AsEYB46+iwk3hYoVcj1nehlBIZwMk3NZXOsdqbDPD2VYFgtYTI+g89/4GewEYCuNucOR4G1QwEr8pEvuaJLAP7sCydx2+cewnwwKVq3Lr9u959eNx/zzk6DWd3JZ3kWXaKFG7VOrlTs8Kh8BEEoKRN6F7LNuYy0bFopL9fvpdNRn8seGsg82TB1t0t9MOtfd9mUQ1qc8rAAYxqgaX2idl6plKISn0Xqn8LRqXtwfJYazAlJsJRqBrXGQp2OuH6e6HwMx888hGkgY1LBkoAOG7Yhi0zTO+o0FUxlL8D777gKDx29Com/DSpdYYDhPNle4bUk2dAATIzRdB5bqyfwxQ++HtsAjDmA6X7S3RWrRAGuJopo+vChEMPHIoAPfP5xvOeORzETbkGmaBbLBwE5gFmlCVm523JPokAQxxVEkc2LMBt3a9dGbqPnOKyjvvsxaXurLqCpFSbjczGtS+tKlK6RxrBiLbxY34yV3Ot1yrQ3UI+lVK4KwCTeSdFgjs9+BghP5toO5PNuuht/hgApQvhZgFDqtsVQ4QIUmxdJY7ZQTGg0j3leFVPqeXj/nQZgvK1QPKdfFUIIp5ekTtO3dLGSgQOY7mbVnX1xKOAAphXdB6Lh2PkYRvxk3Jtkn06hMu1E0yVUWFDS9qjWm7/+Lrcrshqv0SZa9Yax5frzY8if59EkJ9WTCRw+gtAT0xy7Q9aeUgMeUV1M3xMLRrKrGu2LnzUmDpZKJZQqU0j90zg+TYD5JBCeAjImllLr6D0SheDIDpa+IsCQTglUWEIm/bqL8l5a0WMr6Cqmsufj/Xc+S2sw3rYcwPQhhTmAuTj7oXvqClPAAcz6Axgr7FrM8KpSul8O6dMCqa4sB51xtqcLN042H5N+MdY0dW4vGF6WB5jmXjHc3NOsAl9CDplhTqTj5uyhEI5geGgEtNwxQlGjjWbC+mFfwG7QxkdjcIjnLy0tolQ9IxrMiel7cGL+E0B0smbCyhVf63rBZF6K1I+Niawg41Z+goygLBoMAYb0S8QHM6XyALND+2AIzv2UzHcA0/W8uQvWIgUcwKw/gDF7Nqe2mpxBGCXIQJDRCYj5qsjaF2JBRrdP5vfsRmn9JOcASA5gWn6HBKkq6/ukEQK/AHbApDaj4ggeihgZnsDQ0BCGhglomgnr5jQ7JTlzWc2kp/1JS6USlko0kZ3Gydn7cGL+diA8AahR8ZHUTW3dLzoCjPIrAnlhUpTunCnDnwVgWBmBACOeGnhItA/mziuNBpMHmN5NjJoYHLszkXU/g+6KtUMBBzDrEGCoQZQQeCVUcBwBSpivnkG5vCTRW2EUiF+m3rnSNCATpYY+GpbQZz0rvas394Sxn+VNYo1mNCX5KNSUVBIhDIYQRUVkaRFIJuBnk8jSUYyPbcL4xBh8qZvFjPRcdGKzj6im5FRl3ItLFSyV5pBkMzg1ez9OLHxC+2AIMNL6uWySLrtfajqKTNWd/Gw8EMQaVBhBxs6fxonEj6ayG/D+Ow/gYYki24ZUNJh88ET3Y3AA0wPN3CVrkAIOYNYhwBA8ZnDs7Hfx6JP3IMnOQGVl+L6SBCi2MvYlUcLu4raEP/dubbeiFF//vjXftvLN6DNt/xluxgUoRmKJeWwTNo5diS0bno2kvAEbJnZjcnJDrTlYgwbTMghBdDINMIuxNFRLsjmcnLkfpxZZrv+49sGIKa2Ui0jrbt3RvyLLglFkEqacIQmq2ixmouy0euGDraElD+YL+/Hw0SuReFtzAON8MN1R3p29/ijgAGZdAYy0O/ZmkeEoHvr+ZzG98F144YwGGOkumcIjuDBCTCRyG7llzDkCMMaJ3UcmuO/T5MUSJuxVojUUT00gSC/DFZfdiCDdC6QbsWvnHtFu6kcr1YWf0dnOn/QleSiXU8zMnoHy5nFy5us4tfQJeIWj8kwGE9h20HkNLD/R5wvD1gDDgGofQUJwVMhCtk+jz0WbrtgCms/yswizwUvx3s/uxndOaA0mkUAA54NZf5ule6PuKeAAZh0CzDQyPI2HHvsnTC8+BC+all711FqknbIFGNmwzcYtrYu1BsOsW6uJdM9Qoj6YTV5HkjGKTPw56QT8eC/27XolIvUDQLoZu3ZejkKBoMYjp0nVilXWI+jr5/iYm13C/MIMwqEKTs89gENT/wh/6IjUy2M75cDXpr7ljlbalwUdAowSBc+XPBgWlFQEZ9CXxYg85hdFUClPDDEbvBjv/dwOfOfEflSxUefBSGJrH4fzwfRBPHfp2qGAA5h1BTCSYOlNQ3mH8DABZulBeBFNZDGoVVDy1hupqU8mWem5BEdjIqtpOD1xqgYWG8mlpf4UWTIGVPZi7/ZXYsi7Bki2YtfOvSgWGVZM411s6mfZhKv8Jm0zfM1nGXD8xHF4YQWl9FE8feqfUE4PIgjZGjpDmtIBv/zRrMHk/xYrmM+gBIUw1WHVCQFYkuczpARpL9QAk4aYjV6I379jE75zcg9ibwKpRJppTbDnwwFMz6RzF64lCjiAWXcAk2RnkQVH8fCjn8BM+QENMOJ38U37BW6ZJmGvBii5DHop29KHicf0wtKbNrPqNXggHUdW2os9216FYf/6BoBh5r2cI7DEjTnf8jjvy6hv2keOHIVCFX7hLGZKD2K+9BTiZEme11DNNR82Z2a7VeCCZQSOhImUWapQoKGMyarSLZLdiX2kVG/AagjUYDxMh9fg3Z8L8e1TmxEHBaSkqUnI7HmpO4DpmXTuwrVEAQcw6wpgKLkn2bTU5dIAcz+8aMoADKVyT+en0JdBLSNj2C13db25S5SU1Wh6zuOwSZo261z/7akNBmD+HYrZdUCyDbt37UOxGEppF45J+2tMUmWDO6ax6CVNbouLSxJNVqnOwwtn4QUVMY9JqRhGehlgafWzVXi1/YzRYklGDShDJJHSGaqKkXm6lpqYzxCJ2S9TVUx5e/G7n5nFgycCVKMqFIHVAcxa2uXcWC4aBRzArCuAYYFLhu6yLtfD3/sEZqtfg1+YkoKXvk+pWxe71ImXFNMtwOjoLBtF1p+JjAEE2iFOR7j4XzxW+N0AlPfhsq2vQkFdKwBz2e7LURyK4FkfUD5jvwFgcjkxMmMJVJZhZqaEhYVFeEzuVAlSah1RAXFVA2YzkLQKra4BiwEk3jeF0qWRqrr8PSJdRUmhBM9nmQSCDcGsgtPYg9/99DwePB6gEtJEqfOJnInsou1q7sFrhgIOYNYdwMTpNFA4hW9//3bMVu/LAQwLQeqaX1qDMWHJ4iNhaDO1BLZXrvtPeuNTDQbi3FcEM/6ewlOT4oPZveXlKGTPhZduxe5dezA0XDAAY303xD6rsZhCmNahUgMdAiK1Cn7BvJ4Us7NzYKdLVpCmiSxftr/ZqU9Nzx55EOJnkqOvPERhiKzChMsE0aiPqjqD+dJBKH8KC+VjTPekHQ3T/jV416eH8PCJnah6k0g9Zv+b1s29EVDXHnOJlr1Sz123ZijgAGb9AYwiwJzEt0WDIcCcFsmeG75Yv0SDsVFjJpOeACNhy9zQ+VnvLYd1Vn4G32NVAFNTTApFTiAr78auzTdiyKOJbAsuu+wyDA0VBWD0nmrMY6LRaF9HHQnqvypU4EtggK7OrAiczEuplZ45fy2yXEW0c+ZfgrhVJpFoQpKsCs9fwInZ7+CJZ76A2aVHEY1WkKpF+CrFbHQD3vO57fjOyWchybYjYS6O+LB6zeTP14SzdUJNuyaOR3BY9zKnvW40ncWW5Bl86f2/jh2mmvKa2V/cQC5JCtTyoutl0k29jnw15cfwnjsew3S0BUhjU03Z+l6txaIH8tVctjqBXPY8VlmnxCZbIE9Q2FI5gY+87afwiisiCfrkWueeor/vI0CngyEPRLFL8TU0tcalBJ9iBio8hkcOfgZnl+6FXziTKw+jy8JYsNGEtD4TAzC5xlod0GqZU/QmaZ/D/Btm8KO6SwCmmF0PVd2EPXsuw8gIO5jogpv1cTXnwzQ/Jt8szUaY5c/JBwZ0+xYmT4gVDbIQnhS1PIkHvvv3WKg+AESnkZpQby9ewlnvefjDrx7AQ0f2I0k2IfPGdGn/niOVbedRHX3HPJxAefBp3sxCKD9FEi3qxaOKKKoz2J79G/7kP/+fePnmzRitr+5uX9yd7yjQNwXy0EDDcq2SutlXWK6f/WD+9ItP4Hc++W+Yj7YgCjPECUGGIf4RQAtDi+CcTgYnNhOatZEhKAbiM81iI6x6od7ykjJ2Bmfw4TffhJfvG5YhSvCoVEm3vuOeF3DbYa4DgDlqAIYaDAHGEks7qqUHS20HtBuqQMKKdhOxAMjwaQ0wO7Fz08tQzJ4HVd2MvXstwBirUL+d7NpObScnSI0b0RBSj3lBJSg8jvsf/hAq6cPwCrOoMskyAMYKGY7H1+L3Prcf3z5xFaJwG8olj+Fmtk9BJw9sOkeb/TRC05RpASaAn4VI/QRJtADplZyNYxSnMDz/BXzgN1+Pn9x3HYZihf+fvfcAl+y6ykT/fUKFGzrnbkkdlVMHydiyEbaxZBmwCQP44QCYZDPO8GDmmwe8ecMANrZxfB4Mj8c8BowjNk5gHOSALEutVitYOXSrc7p986068X3/WntXnVt9Y9Vtdbdcx4h7+1adc/bZZ+/1r/gvLzy7GlgbD9U95YdkBtQ+cFwXRYAh3HjCxUGH/Ae/8CDe941nMOgvh59NwA8DRJaKCaSDbxNgiBaB7yHhNUTMkUOQNQZ0XZNdJIVXMqic+gH+6T/9NH5sy6KGv4Z2jpZwFOXjwr+4CxpgmEWWBQowpycY5J8MMDpdRRfY2QMYtWJYfzMZYErZ9cjjFecpwDgrOkfmU585idH8+7jrno8D3kGY0hgiuqlMgjwbtgyaqwAAIABJREFUw2nvBXjvl6/BA8euRJ6TC63EUn9b09PO4rT9y8U6dSY+WQPkpkJZk9GlyU2T9KK/fAqr/G/ij9/4k3jl5hvRIxbMzIWm7Yyqe053BuY6A8wJdeqquMztSqboZvoNAeajX3kC7//60ziFRTDJmChlQuLe0wckdQGCdg8jTBsZEPiAFF2zLs0m3iRUHiOswnH8z7fcgps3VqR8IzT8Row8ieCH9KqcPSXtggWYWq0macoEmIef+tJ5BzB5fY1YMEWA6e3tkXU02UXW7tJaoPNoVlO2+9wqRzGQfgt37fkESqVB5N448rKHBBGieBT13pfg3Z/Zgh8cvxr1qAp45ENLJ9XizHdUNnJlW/Q4q5JeZN26Jgxh8hDZmI/l1RPoTz6Hd73t5/CTG29Cla60WZgM5jue7ve7MzC/GShCzGSAYf4qrZi/+tcn8Mf/tBe1vrXICShBiKTEYmy6ysj71x7A8G4ehYlHDwR9XgEL2TR4SbeDEPnGWBYdwt+981W4eXOP65eLUODPJjt1AebMGAwbcRUBZrB2x3llwRBg1ix9QQNgLrnkIjiAWWj33Pw2RMu3cwb6U3hkUcZRnMruwO49n0E5HEJuRlE3dcRs/hp4GDI78ZEvrMd9B7YiDy5BlPdInKTtfjB5Dt+2UdANIo7hSVxsiHJ4QS/8yMfiYD/K9U/jL37/V3DbJS9DL8j/1j26M3CuZsBFYVwwUBUk91fCxlgG3HMww6+/7zM4UKuip68Po/SKhf2AxxhMzWp4bTxDniK0XIuxAE2gXq8sQ6UUwEvr8FFH7+h+/MMf/jKuXVNBDxvE5oCfjNruvyzfmNzksI2RTHvKBWvBjI+PI84GkIeH8cjTX8ZUAKNkkMVYy8K7yPQe1ky2v0sWmQWYML1OXGQEmL4+upWcQX3+iMYkjeGLBXMMp/I7cc+9n0bZP4k8H0Ya0PzWvjADySbsPrIdn/tGHUdPrYSpXITYD5CwpWgbh0euMwEYILFamIbQ6GZkPREQmBBekqHMTZM+gtteNIpXPf8qvPTiV6GHbrrzZxrbmIHuKRf2DDiHWHFPWwtC/sRm48AAgN/8i2/i+0+dROaXMJ6HGDE9gF+WpuUabJ//wf0DSRgwiLIcQakMn3HnpIZeL0U6MYSyF+O3f/Hl+I2bV2GpvQXhJBTnHe/bBRgbrJ8sSc5HgHFLhACT1VaLBUOAIRfZ+QowskUYXDd0hR3DQHYn7tn7cVSCA/AwLFZ8UC4hSmqISisx2nMlvvStAfzg4T6MxhdjNF+MxNjWAfPfI5oebYwFGGvd5zmCjOCTwCQRyqaOHm8M65eexC///BqsK4d4yabXw8vWaWCzJcOwjWF0T+nOQBszUAQYJqK4SzgyW7VsaibEN/fluOPRw/jsF76M4dggqS7HBDn+GunE8799DobqQ3hBGbUkQSnw4MU1+NEolpUz+NEwrr18M/7kbbdIWj+jLeNRip6SDx81dkm0bu6uBXNGmjIBJkpPNSyYofr34JcHJIilB+thnh0LxrVVdplkRYAJElbyr8TGjReftxaMm7EEJ8RFds99H0fZewaBN8ogiAB8kkbIyz04lZaRlTdhIroUTzzj4cDxBAk0tjTfQ2xL29Qs9gDuNwb2+XcxnLIUZT/FuhU98NMBXLGlAi9+ABt61+OFm98KxOs1uNm1YuY79d3vL8gMTM4jm3RJiauk7NmO1Kti0DMYBfDwvgSxCbD3sYOosabNcy1D5j8gAkyU+vDDCqIklRoXP61hUZjj0vXLsLTq4cqLPQGWvpxWS4LEBFIryH3VrL9rzwMxlxGf9y6y1hoY9+/h4WHpB5P6B/HY/n8BAYZZZAQYFfTPbpqyEmwqupFNOcguwtKenQhTkl2uwJYtm2wdjNbAaKD/HEvGQiI/XWC5OYpj+Xdwz32fRsU7IRaMFlEymEgA8BF5ISJTRWT6kBJYskqT120uK67wHWaLsdEZj5jM0H4qqck8vCyQezLdJmCcJ6sh9BJ46TjW9u3ADZt+T4D7LGdZzvOJul//4ZqBJsCwELrYhMOVcAvTBSMhtNJtSjPPYoi9GLlpZ96cwdTa/KOYSybKmgglphtwD5dknM9W7uUFDTBaaHlIAGY4utOSXZ4bgCnGYhzALKnuQCnbjjxejq1bN5+fANNoQ5MhNUdwPP82dt//WZS80/CocxltLcDiR2nQRkIZL0McsGdMDj8jXU17QKkAozGyhADjZcg8bj02bSuJYUIeNN82kPNMCXlSwsq+m7Br0+8D2crzKl+iHSHRPedCngGbgsnyBHgaX7eP43jSJcuLf7fKJHeQapfy22zNdOcwOS4DzdWT2VME2ArxIEkG8KTeTZJGz2pycnPYFzzA0IJ5/Jl/PQNgSEApTceexULLBpuxtWAIMM6COW8BxqlBbPlijuF4/k3sfuDTCLzTgBlXfrXcg5eFUp9CsCEIJMEEMkPWgvYBhlfTZqMGmfGFFYDtzvh33k/ycfKaJCBIGwZTQZr0YPmi52HnxrfC4OIFLpedw37ufqU7A40Z4PrUflM5168FmKJl4gigGtvMZk2KZiRUVu0pZxyCJlza9iNCe6VZmNKFxI3ReSmEGsYgsR+oVbOgteZTrosLBmCca8z9HBoaaqQpE2BGYvaDIV2/WjDKcMwZfHYKLZ0FI8WWca+0TG4FGKYpq1uMsaHzwUVW3CAeMnMSJ7Pbcff9n4IfnELujSoVTO7DT0vwCDSk7vciAZicAJORx6zNTSJkpLrKNWCpVTECaAJc/AtbYBNgUgGYJOnF8kU3YvumN8HgIjZ7tn11unKvOwPP9gxMDvJztRa8zg3lx9V6NUChMMxGXkAbQ1cFrAgwTHiR1k0NhgG/cAPpYGvv0/h7m1t3rsO94ADGPdjg4GADYJ448NXzEmAWV7Y3LJht27ZIHcx5CTBivVC0D+B0fAfuuf/TMKUjyPxBpD7TGQEvrdi4SI6cHGHyd7rISjA2jjLXRee+Jx1AHRmpMiSJ+kWA4e90PBjpUEprlKSiBJgqli2+ATs2vwk5LhLSUG3c1j26M/Bsz0CxDsa5puxPq0gW62IcHDmZz1WrlkS7MGNJLnm+3TNMWSbk2D6+WtNvLZUzUhK6Foz2OSlaB0WAYR0MYzBPHvy38wJghCaGwX5rwRBggkTZlAkwrIM5rwCGGpCYfEAswn4AI9GdEuQ35UNI/QGkfk0BJlOA4dcyL0PKWInJ4aV0nbUr4HWDSh2A5iu39JehNcP+PqxFo7uzjDStqAWz+c2AuMgWllPu2RZR3ftd2DOg0GDXMNdxAyzop9JIjIOPqQBGLYk2AcZ6ALR0zF7DY7mB1t/w7ySOsd4xa11plqYoZV2AmR5gTp8+3Si0pAUzmtx1hotMlYOzW2ip92iCYBFgFpWvbwDMpZduPQ8BpumHrUmY8hTG6ndg732fAkqHrQUTi+D3aKlYgj5S6BNgJKW4bXCxDgOeT7bkRqfRkrQmENcZ/y41OvzBGEwJWVrC8v4fwY5NvwtgfRdeLmz5fEGPvmh/22YaajuI4FaLnLtKFLSGc8r6pBwQNSyd+U+F9HNyQOJiO+IGoxXjKS2MWDeqRCrS8CxrOz0bAJPZyHS7rripxtiKx5OuLcGH4lkz33k6C0YAJiUX2RE8efBrGE3vbDQcYxqwBPdZY9Gg0S5qCs60dfdu9+l16ZBsTvu85NpNM+mHiTZgcXU7/PgqaTh26aWXoa+vr9HHpZl+3cm9578ozzxDoyCR6DQKMPfu/SRQVhcZA/mapkwKfWpjgQh/BvoJMJ0VodjGa0L5H6kel5cVYOxmyPNUyZQz5vmHyNIQy/ufj50bfw/A2gUAGBcD0pkpvg39pJgX1ATklr928CKae8GtSnexqWyz4t461yung4d+Tpx6JsAUbRQHMPqWBGAEBGxERoQ+rRzuqfY8AA5geDa50BVIJC0HqbiY0aBi0sXtVljDOXfW34NJG6lPTSoodfW0IK3deo2sB/exHaIrSJWs08ah24F/ylgIRGp3Zl1wEujy8F273fltFXZpHB0dxUT9FGIcxdHTd+J07dvIg0MwXiwFqsir2tTLREoF75CbWrgVaJrG1wldtYcsNfBMhqAUI0kieKYMky1HNnExFlWug4m2ws9XY+uWK7FkSZ9MBts9B4FbVOfSxdPUgchqZDCIofod2H3/p2BKR5F5g8hpWUhbaLVkCAACqo1GaZ00bHOgzzXBl8bOoLx+sxlbjkjWYpbm8E25YcHs3PQOGKzrIAfH3VsFPAk7eDiHhjoSOKIYacxU6aptfKbTwMJQbuUgJQBOUwmtmRwzbOICXBjVcV35W2NVpKRkb5IoFsFHx9c9zuUMnAn4k/8yWX04UzZ28gaLComug+a9nZzWldN632dP5gjAsKthYAFFt0OrLuVgovlp83FsB0LJj7OPKF/TlFM9UxJPbYM122KXFaz2k7lowcWCS/5OgBkZOwETDuLwqTtxYuR2pN5B+AGDwowV9EsbY3i1yQCTlay5yNgCizE5rna3Kc3QEjKylnpjSNI6WDfr56uAaCP6K1ehhM1Iaotw9VW70NNT0pYNFsDTNIHPpkPn7GgCTJ6HMGYQA/XvYvcDdJEdRe4N2SZtfL6oCTAE5QbAdLJY3TpzMRi+C86H6z6aogkwBPIKsqSEFYtuxM5NbwOwoXOAsSBAvzWPwK5Z59pANiHriToiW+fISvEh6Z4cvRSsifKohb10kWqvbruxZwMYx6QrAMM6hWKPEdfn1NlLkvaARNpgE3iCLsCcs73TvfFcZsBkeZpHcYRySNIzoB5pr/eptbIz8VADXNbV0fA8UXPTIDDBy3jcnBQQngRs+fXIKndzqSh1wfPiA5FNeWDwMEw4jBOD9+HU2J2IskOAqYt7zOS9SBPem+NwJVC0oKxAl9bJ3K5zGUGLDuCEh6TShvJMfhhLKm2ekiF1Kbx0A3pLtF7WAuki7Nz5PLlIkReSlphYdefsaLoKGasy5hQG4tux+4FPKMCY0WaVvliBfM9cJxTGxVbJrVrSXB+o6KK0up7EZKzzwVBoM8jvI0u9AsDsws5Nb1mYIL91VTQBRtM+6QpU5UhbXKfwpQugZORIV9IYUZqiJP002jvk6W1HQuez19oIp3KRzJAWuJ1fAp0EjougPj/rv72Rds/qzkB7M2DyPMk1Q8dlPTQvFEURSiW6LHRTTXWox0/9jc2vED1sJakEbLXGgQlLkhFkd5DbJrNtkSLAOEuGbqZTA8eQYgy15DDq2RNIcBxJOqGB/awi7itD6hERVBrcyjMKDguAYH2FrUyywXr3jM5zWHzmhjexkSniIU8CuXaOui0SLMHHEoRmDcrBGowO+Vi+bB0uv/wyeyl+l7NxLoHlzDcpctY7iYGYhZYflxhMbsYUUETo27wUuhhF8hbrlhcCYKxJoFK3cX3OLS2ILKWApwUTYMWindi56T9agOmwJpnZN6TxsBk55GvSw1mWORJaJ562BvBiAl5mvXhc22rzuDVcnAnbqmPanSnWEAGm4UqzO8J6AMSnTrOJQSj5Lv34noxFay4MfOfKbm//d8/qzsBZnQGTJ1Tz7faQlFVyarEHhwpASUJotF13nj3dRiLHKbwtwEjBnQjfTIK0/F+UJPA9uoZoFQEjwzUs7q/AY2xEpBo14pldVEWAKWr9IyNjGBwcR8bO18FJ5GZE3FUS5EcFaUpNU4GuCTCaoeT+zmfVwkf7TLkWaBYBZrrP8sxD6PdITCVJxwU8aRExEJ0lPYjrHnp7l2DjxkuwZClrYJQAj+zFOYsXz4tmWfb55dUPYCD+BnY/8A9A+ZAUWoIuxQag8Ltaq6KxSqtYtO2o4sKyWTe0GFxGWQNgdIl4tIDFgmEWmY8Vi7dj58bftgDjXGpt7JOmAYdYAEb7a6hF7ixdjYuQyYk7QpicUuV1GhufkJ4eUZyC61KZIwyCQEG4Xq+ry2yag7Pnu8Jba5VozWphn2UZenuqKJdCIUaUnh+sW7LX7DQC1sasdU/pzsCcZ8AMZTnZ0pGyCY1VIovdCVqDWK2aGr/bGrFpDT7xnCgDSp7qhfwvGx1CbzkA5tCysxh/KQIMWyEMDcWIorpmlKEGZh0pwIRIEiVvaAKEpi3rv3XkxRonByytgKJAOxl49DsGcT2VIDQtJf6MowxpahD6faCrfPPmTVi5qgcp02x9F0o2SFMPviQ5nMvDvSladgSYQQxE38TuBwkwBwWw1SXGR3UWqfyjWdjVUR6XAxgn0AlcloVWMtQIMMYCDIHGAsyiHdi50VkwXE1txtAKAJNYmppgGoAZS4GyD5RpMw8NYagWIzUBoiRDlhuE7LxpDOKYMUC+W18Uj5kARnLUnILTeAYdlNoyrAPSam2TxtJEanF/H6o9PVKt7Syk2TwA53KFde/9wz0D5sE8z+95FDhw6BjqEaOYHoKwjPFaXTQmWh4qUtxidz3YtbhIW9vy/zN9lRtdIUnI3bgDshR9PVVctG4ZygbYtZVV4cAaHwizBIFo8XM/is29VAIxKwuIkwmkWQwGzmW0GYW4df01Lt+0VBws8jvOwTGd1eJOb3Wb0QpiENoPCD4ENgqYDGFQxYrl6xAGdJ9Ztzl7YIvwsjR4kr3WYZbv3Kdtmm/aWIe4DvmuhzBQ/zZ2P/iPBYCRUq2CS8zO15SusvkOyLqEZC4KrstG1p8qBB55nqSSX+tgVvTfgJ2b3tp5DKYFYKh0qMOLVpq14K2h5uoNaoOnMTA8hrhnGcZYeBqUUI9T6Q5IwyWKINYM45iiuFFzm/ZQyqCplDiZmTxDGtfRXwlQSieA2gj6yx6WLV0Mr1SxGWpdeJnvqut+/9mbAfPGr9XyL37xS6gnyrZJkClVezBRi1Cp9oj/2QEMfcAKKloBzt8d/LDPQE7LwW4YmkWySbIEPlt7mgxlUkaPD+Atr/kJvObHtmCxyVDyNV97tqM1i0zG5LLVpNCx6NJjNk/hqs2o6Wy3aeNz1m/EAm4ES6nhIJeWVJ3n8H0PcRwhDF1NjlarE2ia4NPGbRfkFGfJUdCxdug0BiJmkRUBptziunLcRy4WU7Rs2hmUs4YcwDCobW1osTap89BtS2ugjCypYEX/8xYoi6wZWkxtjYCmKTvXn7VcxbI3SOIUJ48cRl5dgiNeP/7523sxFgEHjhzD2NgYSqVSw9LlmKeK402eIcfBphmVUm8k3Tzt3uK+8YAX/8h27LpsPXrTEVTTMaxe2odybx9yKlCBVQDamfruOd0ZOMszYK7/yJP5vv37MTYxgbBUEW2MQOGHZcRJCtOoh1ErRraC3QCqZem2UIAxsjl4MLDP75cYo4lr8LIYfWGGsD6IX/upm/DmV2xBvzTJMQhsELMIInN77km1rGeqglNepFVfnNudZv+WE9b85lSecedMtJ87gsi5oOvsN+/oGwqEHMgJnKjdjvsf/Swi8xSCUiRpwQREtWLoR2P8wVl9xWymdobgKvgLMQ9XmywxEFsFLfkjMdLEIE/7sGrxTdi5+W3Is1WTsvLaGYHDE7XDXcJKk7SQJOzK8Bzg5PFTyNIMp71F+Ni3HsYnv/MAxkwfEuMSYeY3Ar0ja4q4q9T6pzLGe3IfiWKGBH35GF75/Mvx8y/ZiWX5IJaWcyxfutS63zp9B/Mbc/fb3RmYzwyYvv/8vZw1JfB8lCpVCVhK8Jb2Pq2aSUFKG/EvVsdLYJb/OVdXYgU9U4KZ3xnDNymq5QB5bQTlZBg/fvVavO+3XoilSYLQMwgbCQVKuSIAZelXZn4YCjr2D9Fa1jMS3aYU3sUI0wJsznnhlfvyeYAqbmILQ8pxFIPx9/D9vf8Ar3oYuWdjMBT2Ln1YKF0KeVOTqHjms/TEvLUUMVxXLqjO9UdEoeXkw3g56vUxcUOWwl6YbAl6g+uw67K3wO+40LI5Xs3s46H/v1l5ov1wOKYTR04iSQ1OlVfjd/7+dnx73wgifxGyNgFG76607Y3aH6mLUWXEI4tBWkd/Oow1+Ql89I9+C6uyQfjjJ7Ft82ZhNzDnRaLIPN979+s/NDNgzJu/LllkfhCKBSIxCRYq+j5yR6DWmA4HMKp7idYl4MLCO7qomEZps8Ocj15o1nN4rEaOJ9Dnp9i+JsT/93svxtIoR8nnf7YOtQAqcwOYZgxhxmLJM+T5AvnMWt3rLr204WY5j4BkuiVNHUC8o0xWOIUcj+Nr93wMpnIQUXrC1ulQ4Lt6oSJJiuULa5esrzgmKXZ16e2sRq2I8CWwpFkNxsuQRD68fDnWLH0BrrvkDYiTVSgFri6nvT07GfIt4aYtdtScOQIMO2r6OH7oGKIswImeNfipP/0MDuXLAW/2LMjpR9Z0Uer+4XqxhIncVyzcRIq+dAhLRp7C3/3Zm7Gsdhz9+SguuXiD/X6HadrtTVv3rO4MzGkGTPjO7+b0FycZUy01TVnARcwIdw31D1vToqHnic4n4GKBRoje6uJCk8rwnHn6ug+SqA4v9FHxUvzIRT34n2+9AUsiIDQpyuGZNSFzBxgHFjYFrvWxz7aMP8MoWWALaU6vsf0vWY+m1u/hNFI8ja/d+f8gK+1DWBnRFPBG4LuYrWXXhMRLis88n7E4FgX7kpwLTtLdFWAILsJH5ocI/SWYGOnBqiU34rptv4TQ0vW3nUVmV7W1mfVfYqk5G8ICDFPd8wDHDh5BYko4Wl2DH/0v/4jx/o3TlYfNbRJY44NEGXgavZ/tghKPgLB8ohKfxtbSEN73zldjZXQUy4MaNqxbaxNwOqE6mtswu9/qzkC7M2DwjttzZoqx2JKWDOtfxHAROopGJN3WPEx1Gwod5udzm1LTq8OX1Bj1oYt7gQBG68Q38JIJ/NiWJfjrN+3Aqpg1MnR9BGf0p58bwBRRsCjpi6jiUoWm+7zdqZPJmebkefnNOhlA5+c2O7gCAiYn8MiBbwj9znj8NMLKmNLtTGmluLltdxguW8uBFSlptM9Ms8BTs/ImxjwEZgUQr8a1V7wCa/pegBzL4LXBxDBptA1j1sXIVCNqJpixkp/ctD4OHziE3JRwpLwWL/tvn8VgZYMWP7Z75AlC6ZWeS8ozFTYG+SXULwBD5c0gqA1gfXYUf/VHv4INGIU3dgxbN2+RupuAmZ7t3r97XncGzvIMGLzj20y5srexG92Ci2GabWMDFZdx83fm6UshjVwjhRGAYXsCug4Yh8nUY18pI48m4CPBj23qw9++6QasjMbhBQECW0NQfNa5A4w7yxFaugwgF2gvVuq4z1oBaCFmeaptfh7GXFoetVgHlGZ1BNJIbAAHh3bj2KkHcWLgCcBoT5jmYetXVAPpINfaZZA5gKGvThucqYJiJPkgFraURbh82/OwuHcTlpa2AliBJK0g9Blg70DENl5RgU5IUlmKT6vctAcPHJBg/0F/DX7mPV/CEQJeR/dOEUgMUalo5HklqYBOORZUKjVMJRnG8vF9+Ls/+TWsSYYRTJzCpk2bGrluHTz9Qiz87jW6MzDtDBj8zve1kp9mi61bkaRMj7xhTA91rWvsvp8kUJj1kmjRl3Bq0X9cl97tmbg4bOopAYtusLSOUpDhxZeU8b9++0ewbIIdE8sIypX2LZiGgHB93DhOV1chkqqgfVthuKBy39VUWzfftC6zTgTx2VrBOTJ2jLSNkViYyiQL32d9zwhr1VmPbufPVcxbS1Vq2/mwjhG7nTEWYhCO4HJSqyQyno0jINEkSkIkKpxgKFuqHWYqduAiapoptpCUwp3XI8ecDfYXpPeBA/sRGIOj3hq86l2fx2FvtfRi7wRjGinRNubCDp6a0G5dz1mO3nwMa+OD+Mv/41ewYuIwFpkJbNy0pcBZ1s7cd8/pzsDZnwGDt9+pIrHB+porvxGDv1EdtGKah1KEuDpjAgqDoNK33VlBQs1C14ezYLhfPckmM4FBkIziResD/P1bb8bKZAiZFyIotQswRf6qYqNQW8xoawua7p2FFvJOQHKGpiPtcBaUk1RTjaE1W+Dsv3i9A8emzLwsVg0CZm4BrLcNQgq5yOryrGnSVNxmKx/LhNAxp9psaO/mzxevLfUY5bRrsiK0L+ELcbsGt5orhNVVI8qTzFCGwwcPIDQGx4K1uO2/fhInq5eoXtYuwrjsMQF4/kfuMc45rX4XvDfoy0awYuJp/M0f/QbWZycli2zLpZdp8WnD+zDVPPLdUlGgBer2R6vLuNO15u7b4gVpZJoWP+czOS4P/qSM4LqaX7F1pyPunv/szYDBO+/QFTCljGv9Y4sxLn1VLP2+ip8mV5VLX5XGX7qovTxGmNZw87bF+Ogbb8SKaAJhYFApTaasbxJozjYRRWFd7KThxlJITmhcqlXAdyLcp5ofN0fus6mu3+rU6GQMs83R9J9bHd1+QQHS0dRrqwV1G+mMWWtBI9LNQ+RKe+NvFczNWXFLshXAVYjp95qWqbZMm/9Ba8UlXGvr2snGLqnznf3OtJeDB/dLceOJ8ga84r9/DidKzOTq9LDrUSwYdgglr7O1YCRL06AnHsTq+BD+6g/fgNXRcfRlo9i4aXOjkFMYA7LYcts1SWdJVmrwOA6P7sHRk0+hVj+Nidow4qQm+qByp7VJs+Mmq0iC6vrCu2QNkyBN6yiXy4gj1jBVsXzJFqxecSlWLN2MHmm3sApAb6eT2D3/PJ0Bg3f+e3u7s7HAnBDgT24Wl/1iUz6Zp2/bdvogwEzg5q1L8JE33YjlcQ1lvxOAOU9n9QIZVkNQC3mlCrqi2Ha5VPqJtdAWGGAmeakmRTT0k8mLU0ci424o7Eqq2s7hyI54rujQxXg9BbCFWLVpchx8Zj+yPMfx8kW47b9/DidL69sG18njtYqZVPErMwJJa8SqMQbVeBBr4sP42B/+KlZHJ9GbDmMz62AsH54xztWp7j3XLBHmNB468L9wcuRuTMTH4QU1IWWlUkiGidmZBmabVReLs4XxY8qWAAAgAElEQVSyQq9jLTFp9BfDD8jNlyJLA8kCzOOlqI9XsbjvYmzacBM2LLkZwLLZbtT9/AKdgc4Ahp4x9hFRZ4KyK1uA0Yp+D5kUgunnJq+jnI7hx7b04y/fdBOWR6NC+FipMF5TOBxWXaCTesEMuyiX52KMFR/M0bm0SzSpKwYp03Rt+wK2b5PWdC1jcaQHMw2x3TnnGPQQ8p6G1aZr1rZyYLA9Mziy/xlxXh0tb8Btf/I5nCg/uwDzl39AgDkhLjMCjOCs7auUw3W08YW/TT3eR/H13e9GPX8UCEYRlsn4zP5I2rGWFowe7QG0ntuwAZW/TZrR2XmkdWMSbWeRkbGjB8iqqE2QhXwRVizajl1bf11aX3eP5+YMdAgwBh5JEmV/MkDKfaiarm9ZYlMJgipZoskjVNJRvHhzH/7yt16IFfEQvKCMUhdgztnqajDWNE0XJ2+nHlMjJqGcZEzfbTcGoj1PSQKq4l3dcKbRX8sNYEaA6UQ2yrpVIUvXoNpHzOqyjM4Nhgha4cChfQcFEo9V1uO2P6WL7NkHmFV1ushGsGXLFoUGLV2zRKpOM9OXGWMfbr/7vciCp2DCCXg+20po1po8c5aJJdMZwCg4a6Gzs8Sca1pVCN5DrRggDCvSvoPxNLYVv3XXfxPS0u7x3JyBDgGmyToLNvaStaYVyD79u7kBAUbSmBm2zCOxYF6yuR8f+y1aMCOMJqPUM40F07Vkzuqqo+B2VJUuMuWqQCb3Li1GR9QlpW4phQXrtGpjrLai0Z3pfF8NH1hzFFMF0hvRtI5ARqMsygcmLelsQFyTVXKUtcw0B57ZfwR5FuFYZR1+4s8+h1MEmI7uXXxwdS3N5CKjBdMKMO7+wpcmYKnWA+FlNH4Ed+z9IFDaD/hsHR5bi0fBXD1sRY68+b5C+wacBjDpdOvOZIdOG4PVe7HJX4KMtUXxVty2830AFCy7x3NvBjoEGC4im6Yp5rDlpmeb5CzVehguZGkDmyMwCcJ4HC/evBgf+80fwfJ4Aib0UO7R7KVGMk5REWuNhz/33sE5eyIninS6Xdu4RpRjUpxDB9mEFpdJ2BHAqOe0+e5FAZ7MDNAEFhd/cRLdLZIOgtQi+AgwjmzSLUGaBQQYRg2biQAH9x0SK/xEZS1e8aefxykG+acUrvN9pbPHYFZHh/CXf/AGrKofEwtm61bWAhUINhoAw/mj27GO0xP3Y/dDHwVKzyD3JtSLwHbiNhWb1g8tjPZR0lkuLr2w+O40M473YrablMpJvg8t1lipieJt+PFr3gNg23wnrPv9C2QGOgMYVxMj+8MCjKQoM8c5QSBNuph0SQuafT0yhEkdN29ehv/xG7uwnJX8QYJqjza1cpqwyyKbezbZBTLb59kwmTOmZKH8yd1PV9AU9TwFU8HZLire3f/afLCi9m+tFs1ea8ZFVL9wmrK7j/XnyYeTiyLnMxIXO9RnPjM7jqLXVQHxG4f274Of1nCysh4/8WdfwPHSRQXX0Hzu3PrdGQAGQDUZggOYlbWjDYARYlgXKhIeP3VJGQGYCQyM78U9j/wPmPIBZIatxBVg2PtHiTtY6+bcWe2M31H92GC/axbX0Ba1CynvRytGstY8uuXUpR6NbMBP3PABABYs2xlC95zzegY6BxjJQGK0n8zLjdUuvcR90ZAUYIRKxuQIHMD85i4sjxKEBJhqF2DOxSohkaKIUNHkyZhs6UmKg3EWpP2por8ZsNHsss4Pd0V3fRW5TaA5wxVVGE+7Xiq12pwFw+LKQszaU/ehNkfm7OQ4tO8xBGmEk5WL8fI/+SKOVS5pgl9HU9ABwEy6L7trklyWzzSB07W9uOsHHxaAyYWCh8F9tvTWRm5BENoGfe0OvggwLFfgfQtlCxKX4f3YlTSwhdvkKeQ4gLy2CbfueDcATVjoHs+9GegMYNhtUFwEOTLGYMRFpp0sDbUlfuJTg8mBMABqY/C9FDdd1IO//u0XSh0Mmfp7qpVJ1oub5vZ9+8+9F3U2nojClZXjfGdZlMELGQvT6IpkJdnUZU09tTUoDVemjbkVPptqjMVUWNeKofi9IrAU4KRQttoEM64rxkpYmRMxQM3WxG2nGHAU6k5SCynUJ3SJVawNLqQpB3kNh598XPq27s/X4Bc+eif2ZSttfW27ENdc6S69d7oYzNrkCD78n34Fa5Nj6EmGcOmll57R0qJJr0SrdAIDE3uw++GPqIuMFDwSA6FkL2oNnfigiy4yejDcjNE8coaoXTsuhdnVyvDR65tw684/BbDxbCzv7jXPgxlYAICh5kdgiZGbTCqfeWg1sk0CCEvSOhlBjrA+jBdv6sXH3vhC9I6cQE9vP8qkimlzMmbb2lNdd7ZzikOZbVyzXWu289t87AU5TRxPtpZCrBICjfXJ86cC/HTZXU5T7UTEF1w8k+yiZj5SHMXS7z5jf/sgENZvsn036/vbzWHjFNIhp2kOhCrDrp72hWaNekUmIkTCEXbkicfFtTSw+HL86P/5zxjs2aiWu8xZJ8fsMZipAYaBfXdf2yFV/s3ZGVeAeejDNgZjO4U2wMVpCg3/ZxsP4NK4dS4bAbUpEwestSNAY+tl6htx684/6QJMGzN/oZzSIcCoCUzNkqR91IhF3zSqBSsjrO2XkcSAn2IRxvGiDT4++usvwmoMIg96EFR61GQuSGttlducxuJnkwDgfJbg5/sqIKbkAHvMsfMu31pKLjlLXUIFQWtTrHE66Xmsqt+wcvTD1uK9Ka0W+zJtl2J98QzuG7IKu9ZfDEarhTKp4lFaP9QQVFx/Gttawo5tunUy7auwsZ+io6/pKVMXmiGq5DkOPPk0UOrBvuBivOK9X8Uo2ZTjMUCKIzs55gYwH/p9WjBHxYK57LLLxNWkmWM8As0Q46/y/8YxMH6PtWD2I/eKnUgdILgvt7uJWv2nDqzswpIXp++1GSxyFo0HRJtx6w5aMJs6mbzuuefxDHQGMOJU0EJKnz3TWVBllVLhcGINjEe3i9L5e7VRLPFq2LkywV+/5WVYmZ9GnBoEYVncMUXh5Mz9ooBq/Vxkzyx06a3XnUoIzvR+Oq12Ptvnz3b9mT4nVUpuQsRsCudTC6cQSqXDKOsUPBMiT9WlovEKF7NoCgyGlVtTiFvdYq1jcP9myC6QeqkcqZciY1MxrwAwmY+0nqPsl2FSg2qljLHxQVR6SojTGuKUFel2fU0BbrPtO96ZFpFYMDaVVoqFZe1qa/CQ/VjCEuIow9B4BFPtw5NYhVe95wuoBattz/AiBcBsd53q87kDzJr4iADM5ZdfXkBeXjMsVPAXAYYWDAGmyDbeCjDtjLl4zlR1MA5cij9tvx2XtFEnwLyrG4PpdPrP4/M7AxgpoLRZRynTkrXLpYgMSTcl34aBKVeRj46j4huEyQR+9LKleO9vXodFtQmE5Cpit0vJONOWyS7jhER+0wknN6dTacgLCRizAdhs7/Zsn98JwJCktG4yGAbCshx5wuZvdGfmSCK2uvbVmhFvigKBWqj8rRhlb2rAMwJaq3khsToV5gSXzGRIZd3wdp4U8VaDKqKxOiphRYr1kiyGF9CuIAIyrDDZSTnbeml9X9KVVepc9L4pGcRtJTqTIEpUtOsp6lkJptyLyHgY6FmDn/2//hZjizYhjhyx6mwrYabPOwUYns/WGg3GHwCjGJjYjd0PWxeZpF3zYLage59FoGl3/M7V5gL+RdJXBy4uFboQT+P6EYD58y7AtDv1F8B5HQJMI/YrsVJPUpLZw0JjMg2HdpSgHFTh5wb1Wg196Sn8y8d+GtUaUM2AkuYFNGkvWD8jjLmTZ3Aq98dc+j3N5DaZzaXS6eezrYFOAagTgEkN+1XWUWIMLPKQRwmqfo4sOo2e0hgCbwQmG4UxsX2VVB7UJcV4mxwu6Dbbg05pYTDm49ypDOA3/fiMsnhUTnIfScTWyf1I0It6VkWEHsSowg+rkq1YLAqdH8CwY6bQIWuTPDrEjC8AYwyvm8CkkazpvLxcojVxmmHP/mN4zz99ByeyPuReL3JhCO7kmB1gyEX2od//VeEkowVzxRVXWLeTZS+fxEHGsQxjoHZ3MwbTIKXUPjt6LETL62JqhrNk3Ma1gNJ4rw7Q7DldgOlk0VwQ53YGMFygDHLKjwAmD6Qzn6Yts3I4EqZ+k2YIUgZoQyRhH8phAn/4Eey8/GIEmYFPYMqYvqj040VrZjoLpeFmaUWhlmmfTQB3+pY6vX6n53cyfloNMeoIvDL8WgXlNEElO4FF5QO4+vJh9JYfx0VragjMCPw0gJcxUMOYGt9vXULkrHOaqWXxVC5KN2aKGfHACT2MxnpoSXhMtZWYXo4kB0q9a/DIvnGcrq/BA/tKGMs3YTheh8QsliSFyawDk2dkJgtXLDFPqWlCLdZCRleTdKUgbX4ihZUmrGIkq6IepVhS8fHwE09hpLQU4yghF669dmMYbqxzBxjWw5Dski4yDfBbLrC8EOQX8B/CQO0u7H74Q0DpgII335Vro9EAGNdord2V5GIsDrNcHKb4c1JpUxPcmEXWdZG1O/EXxHkdAgwXlwWYjBst0MC+WDBKTYE0gm88BHmIBGWkhlpnHWGlhqw+Cl8aSbHaVzVi19+i6C7rZCbnEnTu5PoX8rkECC/MkUY5griKxX4N/enD2LbuMH7m5WUs7XsMPp5CCAJMCI9dJrNQBbqw5abIGhxUdM+cKWhnSlMWB4rEXDTbkCnvjMnQNWV4fSYk+yFG6gHicD0mvM04FV+GD/zt/Rjyb8JQfZW0DC7WSErmW0GpbjItuz+qpcJ7EUhSIWGlBaNuOaar8BDrhTYL07iDMsbTEsISQXgCcRwhCarIg5I25OsEXxrn8hdrwclQ6XpWC6MaD2FtdAwf/r03YFV8QGMwV1xl59ulHjc9AJqOTIC5G7sfJlXMQQswdI/ZpBu6GC11S/uV/M4C0hmbmtWgADSuhYc8V65pygsKMEUX3FT1WUV3avGlTXazzm9Pt/vyXdyukyy++Y30XHy7Q4ApvNCGoNGmZK6RlesnQu1JBIlklmkFuVSSSwC53Zd0LqbsuXVPLXrzkcYZloZHsArfxttftw0rg/tQwT4YusnkXVE4NfuxaHpzp0wp6hbTVaRdJOlGlViPxAz4Vw8JK8GDHowlfZgwF+HbP1iMT37vYozk18D31GWX2iJfxm0UPPTaJiDRYqxp8moiyfLzs0Ay5MTDZ2M5AoaMO9GKztjLxNLac6XKuiUQaUpyJvRHjmCnzTXhxiP7wKZNcmuEZWC8BlNleecYytEQNkycxkd+99ewOnoavfkItl15NTLWoRVAvZlFxouMYWDibux+5INASIBRC01aUUu/FiqAWmTaNt1NA6CKdP3c/7a+SK7vhLdbP45cMwOiTbh1O2MwHXCR2RAQgd6TNWCfSQqHC+9lkkziP2zseBJzxHzfo8aLyY4ge0EKy8907U9dJOw6wtJluTDFyvMd/bPx/Q4B5tkYYvceZ20GZAMquHOP9HuP4/JF38Ubf2YVVuEhBPEBpnnZKImtq2dSgNX2JbeskYLaziht4kAjaUAD+yLApb4kRyBCMRfZGOcVRN4qfO/Jtfjbb12BgXwXkOaa9eViyylrWZQ1wkZ3bKqs3ce2XYmX0aXrIZXIuASIGsLQeH4j2SSXLLOpjmLsoZ1n56QbthEFMnJz5VqQTMHnh0At0gTNoI6KAMwgPvy7v4rV8X705MPYduVVorAV9V9H3a9ijnUwtGA+oC6yBtMxhSETJCasoscyg3YFHOfOuuiyYmdK/p0x2EKX2QZLhLPU0gUFGKXBaZbG5rTURHktki246innknTvrX0LRgGmdf6msKTOALsuwLS5a7qnXTAz4AAmy+CVfFTSh/G8i+7Ha1/W0wAYEzpBfW4Axmegn+nEeYrc70MNK3DvoU342L9twal0u8g3AkwmPq4CeaYVqSIA+D8WkYo0tiovC/5ENroCLCsBXFaH0XOahysyWcC3m5MXLBDePj+gs04oYQVgwoR89nzmDJV4GGvqJ/GB//01WJUeRTU7jcuuvNxChj6f0JU2ssgKAPPIX2ihpQzbxctsEo6o3baxWVuP5SwGa8GIlWupo8hx17BwOMfuPvYlEQxYaNmhi6wJqg5cXA9S1gUFTd/ITE6SdvHFJieJl0aurw0oCHZ8duUap4XirKViLMqBUNdF1tbS6550AcxAAWAQGJTiB/GiLY/i1S8uCcBU8iPIfRbPiuGvQmpBLRixVWzas5ogrRYMDRlSwsRZIgAzli3BD45fjg9/6SKcSncgkKwvBzB0f2lWmKQOWPcrXWEEGhZxisQh26LNoLW9g/VlOUBxqYmThFK7UmiGdZAz+liRlElDrjDfICFBQlBGGCfCXoDQQyUdwaroGN7/e6/FyvgoerNBXHHlZeKg41sRPji6BS2ZuT4cqWLoInt/AWCKwsxaHh25yIoA4yr0de7V/WaFqFhIdFlZ95i46JIFBhgl+qR15hgomIDi3Fcz7sZOXq1dI9rwTZUXJRx18+tiXnYEC2D4XgCSpTHErovsQnpbCz3WgotMgsn5I3j+JQ/il15awYrsQfQHpxDnNQswtmJ+wQGGsRJXVzM1wAS+37BghuN+PHzyCnzwCxtwOr8Bfk6AMdaC4QPZeIZ0W/VgpCGeLRGlMAhZ9MuvKeO3HLYGRhvjuRhB4e8LPe/2egKAiZGGXHE2Br8cguEir1SBHzODLUdicpTTYaxKDuEvfpf9YI5gUTaKq6+4DGyVbL3+LQBDLrIYA+O7LcDQReYofVqlqWNBb+chLcCI16tIGVR0EVl3lFgwBfcYASbauDAxGFEOlEVCXGWTaBkcqLZyNVgg7Cj+q1AmJRYEFck3cdYKXWCy4GzdUeF+1ohuZ8YvtHO6AHOhvbGFHK/IBxZaBlLX0mcew6519+J1t/RiWXI/+oOTSBCdc4BhIJvKb2p6MJIQYK4UgBkyN0qFP7uoZn4huCzRVoILM9MY49DgPt1oIgcZV0kY36mjFIzAmFqjuFcNGScIXVZjJyru9C9MRB9JO4MSxqMYXqkP9aQiTc6YwOaT7dhkKGWDWJUcxPsZg5k4hsXJGK658vJGFwOXRidyyzEaI8HA+B7sfuR9mkXWAJhiHMJRurT7fBbQreZeYLi0wOfApWjd2MxTsWAY5Gc/mM6C/I5Ob3ISoxtb8XmL78KZp0UwnO/majKZaNsLCyjy9Il2DDXKFN+06Drh7pvv+M7997sAc+7fwbkbgQUYcROR1Tp/BDes34vX39qH5ekDqOJowUXmLBhlyabw7jzIr1rdTBYMYzBZmko2WIIqxrLFeOiEWjBD3o0ioCWjy7PZUdLBhQDjw2QB/LyiqcR+hNxnnxRqzjl60woWBUMw2d2olk/D90mPw5719KdrT/vJRbDtCuHpXy9BPUEdXtiHWrwU9WQ5gvIlGBwJkQeL4VV7kWTj8LLTWB0fxAfe+StYN3ESS5JRXHXFZbYVeTOIrdxkFHRKCyNkl4+817rICllTDTJKqv2dxmCcZu5+tsYWitlj/I51jzUA5r0dAIzeK8tj4WTT1hFlJIkreWCGpJTHFrJaOQYHDC5o1z7VDyNnmmpBelhmMC5WQ7joHhQs47qkC8+1xCjEZc6dBDjrd+4CzFmf4vP4BkKgzJRc1sN4EoNhkJ8WzBrvEYTJwckAIxvl2QWYshcijiIBGGaRTWApHjx2mQWYG8S9JR1TmQYnxYS2CTRNlZypyOxHQnMggSHA5OPiclobTmBd30m89IU9WL5oDNVqdRJFEUGGgCPWjA3gLvSbzE2K1I9QSwKcGAjx1P4Y9WQ17vnBCAaTizGOpUDow8uGsCY+iA++4/VYO35ELJirrrryTICxhLOO1VjILh99D1DapyUCfJBGVb2rn+kEYFqSIBopv84HVCC2dO4xATe65WjBbMat2zsFGMZexoW5gMWxCVKM1yaQJDE8slLk7ORpedgmJR04RgNn4bT3dskZ75PqCjHSxEPorUBvZSkCpt0L0W+/usmKfSAaGX3P7QC/ei7f+e8Lr5q19666Zz3bM1B88yZHr3WRvf7WXrFgeswxSRfWID+JMc82wBTTlG0dTKa1HuQei8E05ZW47/BWfOTLl2iastTiuII/ifarVi61CeQbipR3CCzwraFcGkIl2YOfesEgbr4G6E1OokwhNOPhJmpht4pwsJnUlnQGMKXlGKn14+6HQnzpe0sxnF+FmrcMpayG1fE+vP/tr8aG9BCq9UFcc+0OTZ9rUH9pRX7GuiZ59hyn6SJ79M+Ql55qpCmnqbJlBATsOJIaqPaPYj8YlzVRjGKri0wtQiP3CwIffmBQr0/ATy7t3EUmgx/A8bE7cODIXTg9vB+5mUAU1VCplERJ0MO6PcXC0/Wsk9fJOyUDiSdM5HE6KHcJvCWoT/iolpfhorXXY9OaH0WIdUizHviedZfJPa0iJBZNu2ni7b+5Z+vMLsA8WzN9vt6nIQ9mABhLM6IAQ1fEArvIBCRUWDEwL3cR1wZZugkwWnF/JsDsVMEpAMOqewMj9RgsUKRFQ4K8MZvVtAiIR9BXOomrNjyJn73pMWxe/CQqUR3htLUu7qXZSXLNYhboXTZEm2dQT+pIvRL8yirsP70Nn/nORty3fz3GzGqUshSromfwF+94NdanB1CJBnDNdbuEpsfFHXJE6rKka5BWaZ5hYGw3dj/6bnjVp5HmsYCJbypIErYvZmo0v1cshpzvgzmCS80ubPSDaQTOCSwsdLXvkrxRtF9SFkX6MNEW3LK9EzZlLegcrj2CB5/6ewzX7gf8Afih9iFVFgkHglbhaAAM63+sBdbme+X88z8voB0zKO8i9BehPhEgjSvoLW3GksoOXLXtNpRwMZBzbdohiduOo1sIqqH5vrdn7/tdgHn25vr8vNNcAabRwPhsAYwKKwUY2yF1RoC5GKeww86pBqslK0soi5hZxpgMYy9sCc3CwhIQD6LPO4Jbrh/HLzzvKVRr30foJUJNM/vRiaY73dWNDK0cliVOVItThOV+DJsd+PSdW/G1vVWMeasQpsCq+lG89x2vxdr0AEoxAWaHOF1Y6UEHjabJUmjaqnIAp8f2YM/j74NXfQq1+LTElCrlxVLNH8eJNHJLEtfpcvYZOOMbk3joXNGl+5ZS9ni+gmCea9CbFlTglxEEZUQjG3DbDZ10tGSG4yCeOfUdPPjkx2FKh+CHdYnJhEEFcUwgc9aBs2CoiHCtUdjzM0eZ08bzSzJiLq0uMoyKuzbw+uTaZNnO42UI0o14/s5XY1FwDdJ0EXxfGSHEa/tDEO/vAkx76+q5c5bITRXQveZxySI7w0VmixNVxGpNuHZ/VD6vztwM2v9lsgUzH4Bx/n6SVup/Uh0iAEOSsVj5xJhAakZQjZ/Gbdvr+MWdT6Iv2SNN8DTDZ7bjbACMxT7Plx48SUJuN4PB/Dp87p6r8PX7+zFq1iBIDVbVj+M9b38d1qQHBWCuvf46W5bJELO0irMAowKVBX+j0Q/w73vfi6B3HxAOI44nYFCG76kVo66rFrLK2aah+Lm8fCfAXbqz4yRz8RnW+OTikksSgmBJ/ovqBkG6Dbfs+iMAF83nroXvjiLDUTx6+F/wzPEvI+w5hSyvI4oihEGPgJmmcvNwAEPuRLpRKwo0wjjQXpBfUgxsszxj6mIV0kUb+FV4poQs7oNJ1+K6y34KK3teCGClTUTwugDT5hvvnnahzYADGC9HLzRN2WWRNWIwMwJM54JXNqpU1JOEcj4WzE4r4JqxABW2trCPwJnXYJienKQohRPoyfbjZdeM4D9c9zBWlR5BlEeW7qb1xU31XJ0/62T5TAAkK8wE/CCQglIC91B6HT5/z3X46r2LMYaLEKY+VkRH8J63vxZrk8OoxCdx/fZrGqnAAjFClWJ5xWzWUox9uP2uD6GWP4LqonF4AYVvbGMBTO6gBt6ecJ08W8VU3yJvD1AqBxgdHUIQ8n4GYdCHJGIjuyqu2vYKbFz8HwCsa3PXjCLHEdzzxKdwcvRbQHBMwELiSrl2+GwE1yVbzrpSpU8VG9URdwgwc1EwzhyiKDKZL1ZMEObwTC7JBWK5SbO+HvhYiU3rXoxNK18JH2vtRbQnT7Mwts3HvwBO61owF8BLOqtDFANAg+S9cBaMpinPDDDWWigmErU50KYFM1+A2WWrw4u+hiZViMgPMncHHqKYDdRGsKR0FC+7dhg/c/X9WBk8hNgyCUwlPvRvCwsqkwCGthsBJqnBhB6M50n3ixHswOfvuRb/srsf49iEIPOwIj6Id7/tNVgXH0NPfQA7d16tLAg2DqMpytZ6kd+ZuHAKJybuwcNPfB1j0X6YYAxxXEPIpnJSwe8VXEhtvDwbk2tU7LvsqEmusxRJWpeAu7AU5D1I4yoCsxTXX/UKrCg/H8CKNm7OU0YEYO569B8xHN2JBEfkOkEQIGWfB4bnWvvgSAyGr5VzwC/w3+2BLAGG1mBMWh9mk9FDScYJzj/BJ63Ay5di07qX4NJVvwhgLdKMAK+BfaH2ee7G9xW/u1lkba7t58ppzwmAKaTgNgSIVlCHsqGBmAllGEJvcAQvu34YP3f9g1ic7YXhZp8WJM9O9phbOsIenbEHTYa04iHJM2RxihFch3/eexX+dQ8BZjP5RrEsfRp/ToCpDaC/Powd2wkw1j1IhVzYhDXtVeMxFJwEmVE8duAunBh6BBP140izmlgTSawkjVIj1PZhiyYbtCjadkHBSzPZjMcKd00Fjuo5Qn8pli/ZiPVrrsKaxeRTW6YZfm0ddJEdxp7HP4uh+veQecfl+V1SAS0TI8kilP/OYmGbCZoP0zEbzH0gQtLjBUIKof2s6A7M1BJlmnJWQZ72YsuGl2HLsl9Cnq8RFx7jQspR9tw/ZgGYuWhvC6DCPmfnebb5W4i5a61FKE5m8bNi5bLVzC01l6Qheyl68ezx9ikAACAASURBVAR2rb0fv3xrH5Zle9HjHUVmElsIyUJLLSgTz3vj0Tp5hub8ZLbSXOM7Or5GsRoFKLPI8goSsxL3H96CD3/lIklTlg6qjTiA5cASd7u6IULGX1jP4odiwZTNAbz42iG8+nmPCcA4Msypl+DZBRi2FSjlIepJjLTkSfM1gs4IrsHn9lyGr97bh9FsE4LcYHn6FN799l/C+onT6K0NY+f2a5vASJYD21pAQUdrTRw/VooxeKA7aQwZ6toCQWbOuo3a3n+2pqVh5RHoXdW+SwFW7Z4xIQrVHFWkKCPAUmlAGHo9LWm6xZjJTAPj90YBHMHuxz+DI6e/Ab98GuVyBfV6HWHoIcsJJrbCvmCxuLR7l0XW7grmCJgsUSqVm9lyrohVElaqFmBuwbYVr0OWrYZnWcLjOLOWZNuTf0GceCbAFHoENzsFTicobXC2Iz6fC2Ke5jHI4lwVBNSkVez+0WmhlQ2yujiKqx62xmmDS0RyWe09xedufebCNCzqHXIvQR+exK41D+OXb+nD8nw3qv4hpF6qZJI29dd1kJSmYC4NtO33z/tr/44MJRFBuZfCZxvthPlROeIgRurnSHO2N6amuwIPHtqED//LepzKdyE1JaWtt8/C31nZr/m7OTym49pnZmfOijmMl+2YwCuvewDL/Qckyj5TR8yz6SJTzyTdZB4i6S9DWk4Pg+mV+MK9l+Pf7u3HaL4FYe5hefwU3v22V2NN/Rh6k1Hs2HH9FGvSxUKKP/k1znFrNbs7vbNCw8mDcOusUZzTXGuNNekASBsUqrVjFZ6pGqfYPOzJsOOebxjAYdz96CcxSAvGnBCLQvv62OJKWVW6T/QsMkcwvVgLLbn+Zn7/M299BauWZAft0aqJBOlibNlwC7Yu/yUgX10o2m0X1uYhis6Drxq8844W9GgRkKLlTg0wWoPQqZA8D2ah7SEUN/JcFkwr5bvrvjiXc6cbpHPitgoV916KP1s3smUepp/aY8f7J3HD6kcswNxlAUapWBRgKMi5HkiPYdljCx0t5z+NDmAYKK1oh0mvjiDPUYnZr8WgHiZIfOUPyLIKTL4UDx7ajA995SKcxA1IGUyVDpW6qWkJScKATAuj2Cl8C4aBGUYVRxRgrr8fy70HpfK/EwEz/2cunsH511TaWASgA5irLMAswgi2oiQxmKfxrrf8PNbFR1CJR7B95y7Lcd3q4XProHVkRaWmZQwLFmdqUxY0xEvr2FW+TPVE+jSs3j+Iux/7BAZr30PqndDgugUYZTSePD9q39EaLwJMezEYnUULMDY9vMk5xo8swKy/FVtXEGBWzeCO7Wwlna9nG/zO9yejh9Mm5A066vPZht+JgJzt2ufz57ZzX8MH7TSZgkbjirnsYpzcQ76zHiNN+8hZIvrOmm+j+WrV4UQfTHGM9h0TYEyMHvMEblj9kLjIlme70eMdEesltdp1s/NIBq9RoNdJMr8dK/ui5FVkrGz32UY7QTkmXHiokyPM89XJIlpnP+4/vBUf/PI2nMSN6uUQnzqf1bpoxIJxVhrTUlVLDzGMHhzGLTvG8Krr7sNy/0FhVT53q1epbYyvdpw2EPMxkF4lMZiv3lsAmPqT+PO3/gLWRYfQm4xg+44bHVF/ywaZXhyfHelWJJOcC8C0rkkdfuPMhjXjKHqanRVafQMGE/DxDHY/9o84XbsTmXcCxiPA0GphRoFtjtcAUL2CNjlwrtXOLJguwMwsnw3eeWfzvU3aafbPUxsvUyzq8xkIztbYVB9qulEKKZpSXdaqNdq4QsM11ZlwU3O/VT/QwjsXw5isnVOno1vTckTJzuZ3tRaEMZgb1jxoAWaPZpGJ9WJbEFtRoMLAaX0dimepXaFboyTuscxnvCBGifIBPiKvhIxtkfMMaR4g8/pw3+FL8YEvs6Pljc06hka/d+uesYFl5VLXLLkAw+jFQbx8+yh++rq9YsFkHVlgna4rpZf3fCOprqILGw8D6dX4/N6r8a97F2E0txZM/SkBmLX1g+iNR7Bz143TUIxMt2FneE9z2uNTPKtTQicpWLOthyYAijvTXrbVzm54ngpOtiJ0qt3Aup4D2P3YJ84AGLrI1P1ls5OLMT1xXwVW4erURdi1YGbaBQbv+O4MUm6WxSKC0gVjO91sF975qgm19sFwZrPbOS27V6a0ADwd1LnJPpHcfjd3RQ3SafACD4X3NFkPlHbDdkSLGINZ+wBef0sfluX3oscct0WLBDKG2YmZDJ77Uq/RqCtos1BNAVi7IPI3kj9mfh0mzxAy4g0fMcFF7kmACZH4i7D38KV4/5evwFB+A4CaCBJ9D87374L91gK3DxhiCP35Ady2fRg/c90eLPN/gJiC5hzlispbYX6FR5DVmAF5106lV+FzAjCLNQaTelgR7cO7BWAOiwWzcycBpsX/c062UFHsz9WCcWuwCTCTrBhrZ+jjtNgt7p+y5rXQ8vuPfwqDtGAMLRgCB7+k89kALpFV/Lc2AhOlpuOW32583ESW063RaK3rIpN3at7xbX1lLhxQFH6NBTsN0JAmYZIGf05W+Dm7KYWa+nI1JbOZweN+tz+L0+fIo5yF04n79wwBM9V7KozFvi/ZaNSYGby3zb5Y4EiA2bl2L1738l4sy/egBycaWnIu2WQU5c0sIbWOOqDakKp7ss5KcqkCDFNLWZMuAOMhIdWHzFUqABP5S7D3CAHmcgznN8DkdREamk1G4OOkaNKCWHHki5JYIRnKCDD78QoCzLUEmAcRk235nAEMayG0FsXkkewlPuqp7Gr8EwHmXgLMJoSZj5XRfrzrLb+INfVDYsHsukGJPs+hf6+w7yZJ/Vn2Y6u5pGt26r/aT8T9WfQWWMXBG0OO47jz8U9jiDEYCfKHWjxqBX1DlSsAjHpVVTGU7dcmF1kTALsAM91LN3jnd+y7LbpzJknEmRdM4+WfMzl/7m4sgomkisW+7lz8anY791TDkyBaenO4jU01m1dhrk9YvKBLvpAxuhu4sbFfCjchL6yfm8xgER7HjvX34LW3VbAUu8WCIbeXBPYNrQQCku0L04j1zEVrnfoB1HRWS4hU62KPyVx6Uh/CcSUeayk0GyzOS4iCpbj3yDZ88MuXqgXDIgQBkJJNTbaCSCq0+bzWHWgY0RnConx/wYJ5wOYQLdQLmOuLcqLJl0pwBzAi7ownAPPZ+66RGMxothGljJX8+/GuN/8CVtcPoz8exg03WB629qffDrZogcxv/IXIyXxPbN7bZa0ys6vFHeYeTfI1rOKgGXHW7SlEpsfw/cdowWgdjAKMWtx6UjMJxlkwkhDiAKYjcHED6wLMDABDC6bAH9TqwplRRbISrVX9aHO5XXCnNTa3OHiaCk1RJyvAt6b1Fg6ha+/0qe0FWrL9mhl+rgjRfa+4jSmblV6E+7HfPIbtG+7Ga24rY7FRgPHTEB61bDvMVJYKXQ2x9W+3TzfenA2XTcZZ1OtRCPBgggEpOLycABOi7i/HfUe24sNf2ooBcZHRIUKQZ2W2b6n5NWlBAYaFlBZEacHgGbx8+whexRiM/4Ctgzk3C9hRjSjAxJpC6wU4mV2NzzHIv7cf4+klkkW2PD6AP3szLZjD6I+GcOOuHU353tEa6iQG4RSEdtdwoX+PtBhgMkfTF9BUf1x2b+vaHZE6mLse+wSGandIkN8zWviYe0wL0YB+U8Fi9qNa7+ri1dhiZ4dVcLousimn0YS/+91cO/lpZa9sRo954uxZnrFva8uJLS9kUpZUZ69qTmdP7otqs4fmdObCf4mClpo9M6qSFKZSRR6n5KpQzYnzVxxv0dqTwLMbUicSQqrsEJTLSKIISGKE1QryjO+UtSrO/ekiMS6TTBykOn9pijAsoxw/iJ2b7sPP3+JjcbAHveYEgqQkIOOLJWOQssLSRPCEioSWEF2E7fJdUNO0DcykMJLWkVQbWh86kOY+Sj5BLkE98TFmluDhE1fio1/YiIFsB1I/QepRUJStBcO+ghZgxCJinQyBJ0Xgj6En348f3z6GV+54CMvMA/AbdTILvzxmvyItL1bTkz+L0+ihnhmcyq/BP++9At+8fxHGk/UIEmANjuMPfu1VuBgDWEQL5tqrIRQFsmfntn60W2eB4p+Ctmhezz7glm9YDWsGD5ks84JuQ7mijAOU/oQT9uthmrzr4eNL8WIQaqV765O5W+nPMRjsx71PfBKnRr6NoDIoJJ5yQy9HzOdlVlmDCZy/6Z5wbSEWgqxVFfRuDGaq5WOu+fO9+eHDh1GvR6j09CBJM0RxAsN+DXbxuywAcfk4xG/gjJq20x3a33zmQ/s2TH1Md747Zy7Xn+3+M30+0/XF90/qDVKSez6iNJU+6pw/Eu41rQhupsm5FE3f8OzzM9P4ykGAWq0m9w/CkigKSZpooNxnfYgLbKojSvrXC529vjfhBUwzpBN1LK8exrWXPIyfe3kVfeEelLIjCLMQQRYKyEhBpGF8g/ECZvBQQJCSpX2A0YI4luq7WBavxT4ubDHL1OQAWZIj4NIL+jFhluMHhzbhb764FqfiK5AHqQBMYsrCyxUwK8tSpUhdTR7CC7TxlE+qGHMYL90V49Ydj2IRHkSY57YQs5NV0sm5zCDTTI+UL8QPMeJdiy/t2YKv3R0gxQbEo3WsCYbwB2/8RaxKBrC2anD11k2q/Eknz3bWEDPYrFLZyfBn3duzDE+Yrl09li+8XsqV5gDIuQDUWrIOUHGUGdQQYB/2PP5xnBy+HX5poLEWuU79METMlttyns4RY32iI5HDTVzWnbgIZZBWg+sCzJQA8949SX777d/Cw488ajOSKCwDeH4goEOW1+JRjCucaYJ2vlJbwcYJ+OlAqBUApjtflsIMQFYcefF7MwMYGVRVy1KywRy+r50C46iOSo+24ZVNIbUkjkpef6dF4GV0/7Q3bwQRJBMol8tITYDxKEfM+EWpjDAMkMV1+OTikk2lzgetdKceR8EE1GqjWL5kKaKJGKg9jZXV+/DWN14Hk9+FSukYfAps4czSrBvGRBiIVyHO7N/QUpC39wwqXDgfTVeb8Gh5ttUtYz4pUBL6/cUYqi3GY4fX47NfX4qTIxsQlhQ0U5SQ5wYBObkkYSDROfYrIriTJIKfD2NRZRAvuD7Gzdc/iWW9zwgpYjviud2nnXyevbPQ5muwmfA6VN+Ir96zHt+5m7xaq7CkZwmed+UGvHTXFVjux1hRDXD5tq1qIQcz1yHJ+rOWs+ssqetA590RZC7M87irFJyflu2huY8LTgdRALRdg/xfoUGnxl1Yw+Q6P3KCNKOQblNlGKsjoAXz+McxNPEdGHKRWadBnEYIKxXEqVOoHMBYqqPMAUwnLsIuwMy2bsw9Q3k+OqbNb4ISUI/surVcbFzDFvo1K7XFbBV/52x3mePnRfnfiP217P7ZMOKMMIf1Ak0GkOa/zvBg2Y9mu49qQ+oliqIcvT0GExPkF9Ie9/zJfhRuA2k9icvaaqYGqzY1/QRJt99pDoqWMvmW8hRR7klVe9ij7bPGx9WDIp5tyR7jZlX3gSZsag/7wAMicjf5FZTNEKp4BMOD30Fq9sAPDsOYmoAJXQocSuyzsl85swg8DJZqknE7B33hOpOSPCBaJf+XKBuwSZT2JfNhkhBp0g8v3Ijqkhfh2OgO+KWtMCmf3yhlTEbuMfrYU62pIbCwhbLxUAo9VMsRotoBIL4LVfNFZMnDQFC2fvp2xt/pOSRLJIsB91yKPI1EIQjCy1H3fxKZ2YEsWgaTBiibcfjJBMI0wtXbtmL50iX6Pp27acahEGSoAOl7Ul4wt4I7aZnsBGxxAU+9mHXp2biH9WI5a6RoQ1DehPT6kuMr4Chl19inozuQVp0CTC70NwfEghmP7oAxR5DxvNBHlNS1xxDrqAoWu2ZQqotMLZguwHS6imc63zz09MGcBHGyGVM1K2m9pFmOtIEuTppSIEyue2GDpJlyJen3nc8xFwtmJkuk3c/cGFvPn83qKfmBNFLiZqeLiiY+hYZSeDOepQVdXOyubsYFHqm7ZbPQhc90fx+svo9QGx1CtaruzTpdDKWy/B6USJFu2WRtHrqzQK1hD98zqI3XUK30w+Rj8OLDCMKDOHz6O/DKxwFvREBG3IEmRRQwldiDl5VgRAvUOpv2DoU6HqnNyPMY69H8MRGEBGjPVBBiMbJ4qTSn6um/DhPpJgBLUMoisQBT29vRJ7GlWDAcrwc/7BHyQ98wBjOBLD+FWm03PPOvCCqHxclCcDs3h0GWGnFvcqkEZGRLa0hqa5DhpQi96+CnS5FGHhiSYNOutWvWY8P6NQ2igtnDX5MD45xTBRvOsbb8bT+G5rpYFiMjk9eC3EM9xBr/aVamqHvJsTl7ISZiupjpmre5jQQCUYwKICAWjCYDpKgjxQnsfvIfMTz+LZSC48jqNVRKfJ8J4lQ7mTqAsaqMZkU2aq+6LrKzufbNicPP5GQDrdXrmKhHML7GDhIbT3D9iKQzXANcHMioNjwTwMwmoKcT7LM9dGsMZrb7zPZ58X5z/S6fPo1jTZAIyfQbokaNudyHehbgiX2HkFgBJqBiEyKsN0SEYCq1H+0JaD9PcOnF6+Al4+j1M5h4TCyakpcjqk1IoDTO1TposhVrTEZjM8zyVTeJZPtmERb3eBibOAiv9xQGRp9Ckg2D3fqEVN4kQj5Jq8JPq5qJ0yAVnO2NTfU5veNMf6YFou1+PSniVIAR/ZixLLrh0l5UwjXwzRp4ZhXibJEkGPgp62CARM5VF5mAIV15MupQEh4CWjTZCIJKHRPxfajnX4NfPSZB9XNVB8OnDCRWx+C+vpN+P0dWWwUvvxlecinK6RJhHF6xZqU4JTdcvEm9/pSdc2DpIcsymQKc7dLM0XJrrt34mbNeWi2A1rXs5MPknyLWUyY3aNvoNAjljdMmcT9dt/pW6sxiplmEo3jwqU9hePQbKIfH4SV0m1GZEPVNkkQcP50qVZpFxrUiTyA/2tt/uqK7MZgZLZg8jVhooBMlmpzqo1rvOvloQkkR9TtZoFMPbe4xkPmdP1fgmKuo1LoFbgcfEwgwJHXlwH/+4FfwvYf2oxYuQuz1CPDQguHCJigwrhFwG1HzpmuozUI/CuIsSbHIT/C6V9yE37jtIizhaCYmUC0zcM7G32VxK0z2ZFODUxrznGmdakPI5mPnR8aOU4yTIF8UZA2R8u2z9zifkH9jfw0NyHMjt3Oo9aLzl6Ii2V5CTCl/07oYJhGIBioNgUntXtXUY3ErscmTfkYwES+9yAp1xOsTOYYyWpQTSDCKp47fjqePfhLs+CgJGh0JmHaeXM/hfbO4hoAU86YkySHisEs3YNOG12DjihejjH5pjpVJZhxZ2mzKeBIjYOqZoMxMh9urSpnPzEL2K1FHGeNV4ihq/yEmnXsmuLAE1pP4mkGak6mALlUHGWyjnEvW5UgOxAa4+8kMSdnD7gcOI/NLAgCixtpCSY0faQZkyZzAkuBRrFj8FILSvSh5h1AiO3ZSE4WCmooSWzoPAl1jltnCel66acodvPo5nGryPHEkSIrvgixNojl3DQc2TdBxi6ld//scRnfef0WiEmIlTJiSAMz//dVn8Ldf/C5OowdxaTEyps9SO5dNxbReAktsySL5F61Ab+/QUvyKSdBbO4Y3vuomvPXWtdLCKUjrtlMlYxChxGWawpYyRTv7UcMXG8KwroVbsYR6FCMoKUsx366AjMUQxjYkH80K+QbbehsPoOJfXYnKEODKPrm2CDAEEcYpmEhgqSac9iMCxGZfWfJCBRiFUrXaVPmhUC3JA0wgRQ2PHv0anjjyCQSVozCSFNAeQLbxyJNOUR4DZaumq46u6ZKfoz66ApvWvRbbVt2CEvqQxAY+kzZsXUeaJSgLSLgZ48+W/ejMHJDSfgwJxjFWH5QEFCai0GqldcMi1vYBZiprZfKsUKnz/UDaJdNjFQYV9FYWIWBSBnqQYRmGcw97DgF//Zmv4c4Hn0RS6kMa9KGWsn2DFvY2aV6s9yQ36MERLE7uxqt/aiUu3XgAQbYPVT+QuJwxETKmoIuLmlaqjTq5OHIxyCpLy9bN2AJlFxu0KTwNV+6Z5P+andmkKdJdJWubbMrJUqXrX6EdLX/YDpPn4hw5w16Zfen8sE3VVM+rNSSJH0jro7uOAK//43/AUHkVauwYWOlR93GRXLLBQlwUCB2ANAVNbQLl0GBJ/Sj+/r+8GjeuA3rY7l0sGBtYLejpmqFjhapNV3aBVNUum46UhtXaGG5h3NY70NlKUFu5mUbqrlbMLmnN9LAjtAFaPVcByoV/afm4kWY52yUz4WICnqnjqePfxEP7/19UF59CwpRyF/yeS2ZHZw/bcrZBKShjfHwcfokFghSMbFdwMTaueh22rLoNHhYzlcO+kyYYyHsqzD8D3qoOBCyF0hIZn9bmw3jkyL/hwNEHkZsx5CzoFCFL1mEuzU4ARoVpE+gKBK+N9F/bOZOxJpRgUIHvVbF+3UZcuvpmpLgKp9CHN3zoTnx/3yBGJmooVfrEtRUnGbxA3yPrpZwoVxeqQU9+DIvT3fj1n12JbcvvxJLyESR1X1pPw4+QpXWUGPcRT4GqTy492YEAE3J836AejyOslhFJxmGGnhJbO6tKpmdqIWzC8g3plKptHqjOMKwgK5KJAyRtFbCqwWMLing5tl5EgPk5ZDndu9pplYq86AgdbP0FXYpn6WImX2i/0Vka6Hl7WVm82lvvK48m+I8f/QpOhysbe5/+f11FdjW5gGUjfa0T9wQv6/KkPSyLT+Ijb7wVt12uziRNBCwKkKkE+Xk7s3MYmHs2K9hks9qe61Kf00z1y8VhFiPDMJ468nU8c+oTGI8fRxBqN8LiUUxNP7vbw6gX0/cRBIx7Tkj9j5dswKZVr8eW1bdJIgNg60IazmuOVjt2Kkjw18gCDGNOVm55g3j86N/j6OB3MVLbBy/QzDw+LxMndGl2mkVVBJhmnFGvq6n7THqh9SKuvqSEJPbR37sCa1fdhItX/G/43jPL8Avv+TxOeSvgEWj55SSHF5atR0XZsBtgRvdW7qGKY1jm7cVrby3jhovuQTl6FIFZDD8sYSIZQaXiAXWSp+ZIWTwubYxpDfO5I43FMDlElk8NUZ4g80PWTKNCyhkyehuCIm3hSGpmYk+pk8oZAT1DQgXNYzO8WHjlfNOjCotXg8/unfUVAjBblr8SSboCeRZonU/h3c1hoV+wX+kCTKevjoWNxmDUAH/zzWfwXz9zD4aDFTClEvJ6XesUxJHcCjCd3tien8Yw5TLyeoJFySn80c9uxxtecrECjGTuPJcBpjCHDcPKZs3RhdfyMa2DFKdx8P9v78ujLavKO39nn3PuvW+quShAQIZCiEYQG2JsI4gjGKf0SrfGoBLNgBrTsRM7q7tX/9Gr1+r0inGmhCRtJ+m1NDGDxkSRQREwKhFQEBWZw4xQ05vvvWfq9fu+ve8979V79d4799560z6soqpenb3P3t8eft/87b8ZDz79WSR4RNSH8wNFHaioeqeq+nKZ60vvw0g9EbMsQRgVKNonYO8J78Dpx78WgQBMeS68qS3A8Mq1xn4tj+x+rn9K8Thuvv3DaAf3IKhNwEQtURsFAYsm14VTVxNOLypCR3i3vy1LLhJHjrzQoGPS2AQ1mGAISTsQKWakfg7Of97v4RsPjeFtH/lHHK6fgDAOkdHzkfFJkcY2qdfHkQDTCJ7GWHAH3v2WrXjBtm/iuNqTQFKXMg9JPoOiaKEuRrlcAYZZJwoWrSNfxkwUpF9DgDmOE7SSWUTDI+r4khSgeTqMaGske9gWZ5zEEHAK1AgwRSYsi4kZO0gnEup0CaCcexthMIYIJ+Ok3S/H2Se8BQV2i5TDdDYuPklos4EfDzC9Lm5JgvnUV36Cj15/Hw6ZHTC1GnICDHUVgwSYPIWp15G3UmzPD+E/vWYvPvCGszeJBGMXrywEysXm6vKUFpfmqqIFE0zjmal/wb/cvQ9jOybQSlqdAFwXiNgNTlx+cG61beQqWmrSy1qtoXVvmsfh7FMuw0m7Xm5VZDYoTT7iGAarynTZiJhhQfT+9ApU5c1U+x58+86PA/WHEdaagGlbl/pQLnvxfhQVWZ8AppzRwQKMSI4qMohzhgnqyFLGikUIi7Px8vP+B7758Ha881PXUh6xjikcHyUZ63i0CMDUcRBj4X3496+q4aXPvR27ogdQzLYEdRsjdSRtxnDRwkiAUYN/kA+JBxkBRqLDilFJNmqycZUgY2aEoAKRIBwhlazeVMKq92RitBKmAkyOgoFkpkCWz0riVQKoxIYFQGS2IZnZjbNOfR1O2fUqhDjOitRli3bXdaraHlrbrTzA9Lo+1NkGNKMCV15zLz52w/04EO7UXl3usQ7AWNuHSxDW67fdhUM1Geu2ZwfxwVefgd/+xbM2McBYtJmfI49R43kboWlhMvkJbr3rT5GZf4Wp0VtOuVm5aFwePvF1odNLL5fvUgusmSAYC4O8ISqkJMnQCE/FeWdfjh1D5wIY6dhgFupN1GH2jmJOPMnVQPd3zODw9A/wvXuvRh49BLDOjsn1W1IigaohcbQfIMBkHRsPgZMXN+0wBFP5lZyJV53/YXz9/jFc9olrcKh+gkbv0+OS3l8EGMlRtrAEU8tbGM4n8MLnPI73vGE/tptbQdDJk0lRh0VRXVRiDAdIQwZeFgjyuthh6MlJR5DprIZ6LUTU3o8GA80zetoVqAURwiBGKlm9aUfSoN+2JFUNEFEyk2QIMTKq1vIZ2Tv1aEzAM0nokbkFYXYKLrzgV9HA80XdSeaFe6orGfffC3epXXcs/90DTI/Upi9/GhqxwVx97f34o2t+jMPxbiBJINFxNiWHqsgGBDC06kZ1bEv24z9fejauuPRMuZYiclRq0bez3Gg2mNLizXdCcHEO1imyk1ASCVI8jScO3IJ7H/oGTH0cVIuU2wAAIABJREFUaT5l83LZ2AibXqWbWuVom6QXG1ohGtQspS1mCHkWY6gxiufsORdnnfAmAHssuFgJZo5Thf6lkzPVMsUEGXoEFpjGoeb3ccc9VyGP/hUZpbeQ6hka97UkgtgeXPr7yudgIRVZFxBEdSdpYNzgHbhFyFtn4qJz/wg3P7wTb//4V3CgtkedT8QleWmAYYaKKEmx3dyHS89/DC99AePBnsXYSI7p2SkBmCKNRbWVEWDE+5EAE0r+OfEui+ow2QzGsv1omASpfJsAxLyxmixTHolXC5BI8lTmvGO+P9peQnESCEJKx8RHqsgIkHXEZidOPfEl2Hv8y1HgRBT5iJxHl1XhWOSCq7ysfWroAaZXQpYkmKuufRB/9NUfixdZ3m4jiDXIr6siGwDAcFeniQR6bms9IwDz3kv2bhIJhpeWzZgwJ6S9exOrWkxLElPtot5mM1JH5P4n/gVJdhBJNi3JMN1DMNLDvxwXnx4AJsiQZU2EYQ0htiKORrFnz/HYOXwaDE5GUYx1HRDKTofCMLjxzrM1SZQ+Xbwncaj1Pdx+z6eB2uPIbNwTVWMEl9x6M+oce5jDfC+yjluUqt6oglO7j0qEmh1EAS5rnYlXnP/H+OcH9+CyT34VB8JdNobJ2SkIoPNtMJpDTbIXE7RCShsHsXX2HrzixcdjyIxjz+4Qpj6NgEXnKCmJm7It65DTBmPAiCKNSUuwxczgZXu3I5g9IPFqtShGKGDBZKtuD+TybwowhD9mZeb4IoRMaRPMIsvouUYArWFsdAe2bz0Je8aeB4NdaLdHUKNx33anma1VnbmRHw8wva6uDRDjlXXlV+7Dh6+9BxONPShoqKSBWDgyZ+QfAMBwfxLEwhq2Nn+KD11ylqjIhjq+RxvZyO/iaNQ9t/s4gOHvvGzVFTpntD/jfkRFwRWjYrMpOa0YEKh50LoHfukca726+KoxmGNnTEgrK9BgYCwaaLeHUYvVwDwnFlKGx++6FECa7qWcTJLODASYg63b8d0fXolo+GnJ2MzLnRKM5j+ju7Km76/+lO033eBJK6pr1A49rDKtzcM/u7IglBIIMK8872O46aGdeNvHvozDjROFwydzJvjJ5IiSBVMliI79yXqRaYBWG0y13WhOYjibRi2YQZEfgqlPil2EcV2UWHSlmO+ORnp+vY24aKFRNPELP3Mi/viKt2GrMB4OA+g0UbaPKDBm4v4uo7fLQoaFY2NGCX6Fa8nvca8N0ZkaWd5AKMAOtNMMtRrHUTEJdvXFWpWWHmB6JXsJYPZdcz/++Lqf4FBkbTCqEzsSYCRrQr84Fxs5VhhsTw/g91/3PLz/9c/bJABT5uQXypuigbDdvBT0InJp1bk2LjFJL3aWXrh/XkyayUBtLQRJK5E5g/mi26Scm8HmW+jYY9jHBA42b8ftP1YJRiPWnfMD94zWrJ8bILjSw+BUYaXKoXMuZUebhYA4QN5WgLn54V2qIot22yJxtj/HmHVsMLYfSbLK6HxmAeAaZjBpgJhZCmRNE+RhS85dmA3bhKxUiWmZcIJVgJYCTN7Ey87chT/5wFuwBapG42poytj549fQWA1ALnvzOUaG9HNSMuNn2JNmnei4zPfr2K90qVbpfQ8wvRLeAgx5YQLMR5YBMNymKnn3Y7dtZoAhDctxGI67L9O1bMRWd9nO0w/y97R/OHYLMFJwbYEtMaf0b3nAzm2XjTgnGs6dwZ8/m8DB2dutiuyJUjofm1GCajTJL7iMhGaLznE+wHB886IHF7AbOQnHAcxNAjBfxsHoOHVHlgvZZm6Qgmp2nW0+RAmzJMDwxVBTwlAVJh50Ui7ZjYtR/Q0YlqUW4jBrAv89ETViRDfmvIUL9+7EZz7wMjCVKh+Fa32sVa5kxlQ5Rf9vSw10VJZdSXrR9IKdf1j1zdfTzl1uYw8wy6XUYu+VAear9+Mj1x5FghEs0ItBUomXtnD1YWxygDnCNuFuNHtBLYrjXRVTf4C+ygo6gOF1Vg4MdaongqPjlF1Btvkg4wJ5mY6l61EmKrLZO0oSTCmgUlLs2FxvEi9U9bKz4xQzjlMnlX6XtZnft/t7gby9F6988UcxF2BsBOJRAcYWDBMpxmaS62Qk6OSC6UpsjJoXPsQmNqW6LaBKK0Etz3DRGTvx/95/AZzeoawY0z8vJIK4tXFA78B1sQqvrg9V11ZPD1Vln61eGw8wvdKeelXrpvzpRQFG8kkonFjjaleCqXq43cA9wHRx2l2iC8TBdO46Z7dxkk8vF2yvm8dy5o5n7nD7zsbiLjECEMc5f6xORagX1lyAmSoBzGOdVCtKK5ektVcJhp2VL98yoNhr+ohyHmWAOQMXv/ijVkXmJBhbYEoAxqYpOEKCUYBh5m0psy0lg9TOo/ZOZ7fROCNNgGD3hFQAZb8E2BQmz3Dx3h347Hv/DXbbyIK52mvNfda1xwmaWuB3e8nJPVYldsS2KEubDr42QZ4Yue8GmwujHydwzffBrSoqMgLMdT/BYRcHIyN35WBV6JYqlHNUZB5gelrgORKM05tbJUdZ9S/nmj9wNpnypdDrGlSdgXNdX6C9qMbcfBzHO98gX54gjf3OtMe2BJjvWQmGAMO8Jw7BnITk1GtVx18GlLK9wvVnufoFa0apBNMrwAR5qKUZQqr8ciC3iWU7GeITdbSReBYGRWpci9JWM3dffMZWfP6952NXCSudANXN0Vd2AHHt3R5aZB0726pM7/l7bWMDjQeYXs6WbUufHfqfLAow8p4HmD6Q+sguOgCzADd5hGbDGdXZTbdE80DGtaxOS2q8+e93UqOUOd7yS25yXdDpAgxBdFoBRtyUCTD8GduUU5M44i1rsAuhYKfGUbcC2hGobt2S512sTKVPgOkY+VcuwUjEfBEio/6LAMP5ZcwV5kpgMFBTGQoWx5OkqK4+ucQCMWaojVfuHcPfvvcCbGfyMXF/1opnOpOuja+sOlOAcgC6MGnm/rQjntofO+ahFxtY1XU7du08wPSB1isDGN1YaoOZu2WrDWWTq8g6RJsvmVh1UudclyUCevaUshGvlgAzx0vJSQNuMM5LTH2ajnycLr87eI3d4ZsqUx9sUoLZZwHGSjBi1Lf58eSTJdvMijegjUeRdlo6oSt1leez0D53APNx3Pzw7pKRf/kqMq6h1FISAU+rypo0RJizzpERg35uSzpIzArHyPfYgMZ/QeQZvGrvCP7ufT+HLVJ+mwCjFUadFFOGBrcScwTnMk53lsMBk1MVziOu0KpXL74VL9gxb+ABpg8kPyrAuBTwNt6ga4PpB8DMVZHsEDfls/C+kpty9xpyxuJu+bA+TH31u5DTL4nUbR0OZ2ydzxnqv+tlEVmVSZ8wvjIVyqqT+QDjOGQ7j3mXWJmzdp/nz9QgzczKMwIwt/34aqD2KEAJxnmNiScd+52XgmWF89AqrbyQ2ZBxI2Ww6l7F3aJec21jRXsvXsU4GOemHO7p+ASowxglEKfSKtnXxN3anp+OvUUzAJjMWIBRswt/aS4xNqG1n4yI6QCMCWbwyjNG8LfvdwAT6TftJ+ZjR8fb29JqjhZsDri4llYFNl9YdHalvjCZK1y4Y/i6B5g+ENsBzEJGfrpNyhZ3dd9dPZiOBNPLAMixFhIwx7O9qziM33vd2Xjvpc9DgzUryKh1nFitLprZg22d9F6+vBbals8oOVWNYShfPmUTtLora2oUJje0nPw85prLxfRjoiVZTgxiL9KPbA2b6cG5T4eatJIafwVDy0rPY4jFZu2yFUtxNTVE63DoITWDw6278d0fEWAeRxA0NXZDvqOXnny+E8C48hVV8zdzhXG8BDWWI2ZNFEqIkbgLUzXHWi5yucvaOG84DvMMvOa8P8ZND+zA2z95LZ6NT0DAVDZpgjg0SLMUBYOVmUOsYHJJfoHR8JxlGXCsfc3yW+UC0TIrQSvHTNjAZzoJsNxf0cLFe8fwV++nioz/RjtNV3pRcLI9lsQWrdKoIZdHPguKNIu818sGWvmaHesWHmD6QPFFAUa0V7qzhdsTNsqpEvq0saRPqR8sucg+9Is/i/e9/kxJFUMlEfl28UEqOEq6ZzLVBaON9enTKPpAxZV3Ua5EwGy5/C/qAIzVhEg+Nr0g0jxBGqQIA2bL5SVo9e1S9dI6H80jyKBrkMn+EEHG6v0NE1XS+BzZcsZW8+TuU8sQM2elApEijxTTKhXHoorsUPNO3HrPn6CoPWoBhgkaabegFKsXo1781WwxCjC0d2RSyE0AhvVWBGAY8V6gMG0UhokirToodwBTAK29ePV5H8W3HjkOb/3IP+LZkHEwsWQlrhkgIcDE3MU5TK71blhaW/P62Yqm1YYuczdFhrho4+IztuCzv30BdliActpT3ZEq/XQqqtpDoxKkA5j1fIpWfu5W0sIDzEqotci7qwcwzKvBk0IuMsCW1tP4/Uufj/e//jTUcqBuVQQSZVEwY7ACTCYAo9XYXY3yPpDh2HfBm4AXM9OxhZlw8byWjXgMLYCggfqQ8R4RU7cYeeemh9ErRTPeUkUThXNzfR05yeqXC5eO4xETgr3MVInnHEK0nhzt0iJo6K2IwuR0sLUSm0puvNCZoFEC9EU4G8fh6dvxnfuuQtZ4BLlh2pQcUcagQ9Yj0bTzrt59lcWjHVGAjhKMLeCl4NJ116X3Gv9dcYAz1cj2gHnY2mfipS/6KL718PG4/KP/gEPRcQi4l/MCzIKf5fQOIy3KAEMJxgJMRWB0c/UAU2XVV9bGA8zK6LXg26sHMNbeYIsWbW0/iw++/oW44nUndSQYZ0asa8o/pvg7QlNe/YrsA/F66EIsCdQOBkCLYOru1pJpRcrl0r5tzQU0f0uaK/suC4YzseFiTw8M8pIzK7sdLOas6hRaYomxYR5lXzjJhCUFtBRX4k4Gkyb2T9+K2+7/JPL6w5JNmEAVp7EATC6lsoOOU9WSg13kBWYYFkmKlTIF6DQ2peuYwKBilbBcFgVR1Zk22slZeOm5n8HNj43gNz9yDQ6ZbQiZJy1nIkmuK9VV7IsAQwmJazdfRVZ15F6CqU655bf0ALN8Wi365uoBTIEgLERnTRXZdjOL973uXLznkpMlF5k148rBZApFXlYuA5Vy6utbReb4ZM7DKgBtHqluug8xEVP9RY4YkMovvNgdPZwJRiw0dDJSFbyVJwZLH2fid4Dnvsu/EwhFYHEqztJalR2yXapF58zB9JAET0pGs9kd+P7d/xOm9qCoqOi+G6c684QSX8BSwEdxlV7ibIjs10lxo6o6qt/0UdRWWwVBx0lMGkUPM4WZ7GfxonP+Gtc8YPBfr/oaDrMYmCTEtA4OIplT4slhClXBZdaGqPFl1oOy4hn2EkxFwq2gmQeYFRBrsVdXD2Cog0/VyA+D0aKJC8/Yhp8/6yTENIoGAWaFoy1QK1iDnLmYYqns171Gqe8fJJ/eBwIv0gXdTCnBUFXTDumWqrXTySFL1cI8QpQ3EBkWjmqjXbRZMVeM96aVIkyn0QgnEYVtLb5lDS6u0JjWkFnC0r9gEOEy5yxG8BxRxLIOBkmLWXaHgWgLmtEwmizTa8bV0pGOwoj9gm0y5EadA+qmgXaSIavxEi8QswwR1VVmAqNDP8QJ27+KRnSPqsNIj6wm9GpFCXJDyWDpnNGLzYZGdyNGfboFz/PyKjcSowatY+oRxno1TG8/np+LHz77Ntzx2F5ce/vDyOqUYHIkrKVEjoDZpKnuFIChkwIBhqBD1aj1DOti2TKJ3n3NA8yKSbbiBh5gVkyyIxusGsDQLZPqgzBGSutD0sRYOo4htJDlrBdukMbDoqIICTBUZgSaDVYSA4pKX0216/ER6cOqjdrkfANCp86TxmaqgpAaRKFBO51CblLUhmsIkhS1mRw76gewpXYHto0extDQUKeC5crqdFjLcAUCcl3oKRWYBmZbdYwfjjE9vQXN4ARMxidhysTIY5ayo/vtEExe0/QoYpxXt2ACrNgqalqGoF7kiNFCPZrG6bvvxW+9+SlsDb4vqjC2DbNY7CbtmBJMgTAjSFRTkqr0x/lnKIyWJtZr3yn8rC+c7DGulUoy8jtCHMzPx3//TIyn85diClsQNsYQFG2kZJgovZg6ICWLCYRNtduIykyNi+Lf4gGmws47dk08wPSB1qsGMNYXSKr6UgVRi1FPZ1C0Z2FqdSRBiIx1KKR0YTltfclxqJcT2gfa9dpF55IRSzgnw4A76w7LiywvEIYGWd6CiTKEURvZ5BM4ebiJ8/fmuPglGYbjp2wxLDVgOKll6SxKDlwqAnRQIIpCNNsBCrMNab4Tjz2W4zt3t3DX03swzuxYkXVvy2sAJRgrxUgdFCl6RTd1FoCvq9MCEgTZFOrhLM458UG875L7sCu4XRwfVNpQm1VC1SoBhnd51eEr1NnkrQpYXY0b1WddRZnaZ/h9JvWsiZPBgeLn8d/+chRPpi9BWN+OZsICYS0EkUHBujiyHKyjUogEI1UlaWzqAIxzta62i7wEU41uK2nlAWYl1Frk3dUEGE1cSC6P2nee9bZ4hokaTCKSXbldGwcjnCwPrF5cmTX29oEMq9KFXo6UzPTeEXKoXCfjERUiL1EzhDhKkLX+FdvjH+HX3lTDmbuexFjwLGoFM8lVeVygYpW2kggQEdegKJAEEVIWpyp24EeP7sLnbtqKp2afhzTajtxajCTGJKeqKUMRzogUI9VLsgBBNCLVUwMzCxTTciG/+KRH8YHX3IsTojsRZBHSlIXpMgRRgEQqS9LrjqDkgmxWNg+N0VErkXpal1Pla/8su8X/ZCVYhI9vhyGyIsezwS/gQ39+HJ4tXq4MkjgrJLafWO0vzC1mbTBlgAnsgvfCH3mAWdl6V3nbA0wVqs1rs7oA4zIc8oBaScVloZXkftbUL1llaeh1AKPm18zo5bA+H+cFZS82Xl6sC0JPOVEF0kAzqzQohhAW0xgJH8cLT3kIl73mcRwX3Y1ayrogzvWqChWqq8jEIpGmCKMQQSPCVCuDCbdgvLgAf/3Pz8N3frIL0+kOAR6xcYgEQEaiCzCsGZ8njPWpI2flyLglmYIJHOed+Ag++Nr7sGX2n1EzdZgwQBryAteod5YGzpkepeIOIMCQ3lqEizYwbkEa8dXPTTA/D5C2U8RxDWEUodmeke/HjQhPpC/F7//5yThYXCS2FomjIUMgQGX9/EStRhWbViZVHwKnIvMSTJUdeyzbeIDpA7VXD2DsYXORFCKZqG5eUpgLS29rmne4VBfprhN3mQb6QIZV6UIDWG0ACMEzZ4wPg/yoGqToMq06IEbu5xPYFj2DV54zjn//c/diS3qH1GbXDNdVHueDVqWtqo/oNdVKE4T1GpIsE2P/dPgS/P1t5+C62xtIzAlIgoYEK4q0ko+oYpQqMgY4iujA4FEgyVtSVob/HBUFfmb7ffjQG+7Hc+t3IpttIk3bKOryj6JOo0TBEsou6HKls1C7DkGPEqOmze8CjDqPEIAajSHMzExLWeqoTrVtjiI0eDL7BXzoMyfjkAAMv04gYdS/TdMv+jZKSeWf21Hqx3py8/MSzEpXfOXve4BZOc2OaLF6AFMyqFpVEQ+N8nUWZMR+65Th7n1rhJU2qsdfj0+naJtLHChmGEpk5H4JMAxyYelccr9U1ExitHgcl5w7hTe/8G7sjn5USjlShQIut1Y1IzkvUtqyZ5qzCOsNhCZCkbRxKD8HX7zz3+DGH2zFTLYbSTAkXmMKMNYBnfVPeCtnTKNCT7QcCbMBS2oVok0bJ9fvwv+6fAr1w1/B7jGq1hJMp23E9RhZ2kIYRsjEiF7OsLx8OkiAqAADHSz4y+41AQqOi9iXY3i4jtnZCYT1GHlYw8R0BhNtxwFzMf7g/27BoeIl+lHZh86WVhqH3dtz005Uo3l5dh5glr/WVd/0AFOVcqV2qwowNolm53Daw+hApmt0dREV5d85CZe1tw+EOOZdWBuIzFldYLvZ16ztifPjxRtFiMw4hvOH8PrzZvDG59+F42v3IWXEfuVxlz2mKnQSpEgxizBm4GMdecLUJRkmgxfhb75/Lm64awyz6fFIMKYGdE36o/MkcPL3lEAaAhGdGzgGAhDdxCaxM7gdV1z6BF5y+uMIZh9FzTQR1ocwOTmFelxDHEXIUjaqdllrKw20JADqGDUvQSAeb1SipciLGRThNMLaEGbawzDhqWg2T8MNdzTwhbtPx8HgbDuE0jiozi2FBIsfmjirVB7uEQvkAabCnl1hEw8wKyTYQq+vHsDwsNlDKWoed+E5TnJ+dlv77+KWauM7ekh22AfS9aELBw8WYKTuifWqE129LY0cMkXKQYzgYbzxJS28+fl3YTvu7kS0Vx9I9UBFqvAKtBHX6milQNpOMBIBh/Gz+OwdL8C13x9DZk5Dgq3d3ARywTIS3s6T3mXizGETWTLQR2JeZrGl+AledNIP8SuX7kG9eARBehAjI6OYnWlhqDaM5kwTMeNneoBYARipda+qLXWBj2HyuqjPIsM5ziANJpAFIdrFDmTFaXj44S340tcP4In8ZzFpTtB6YLInrc2lyGAktRElNzoQaIkBlwS0W9el+sp5gKlOu+W29ACzXEod5b3VBBiqt7r5pOgVZgPRZLw25rucY7xTslyByXlf9YEMx76LOUDJz/NCsoBCY3gRICqYtYumY4LNYYzGj+N1L57EL537A2zJvi9qoqoc/ILqnBVQgeq8kE4JhUEzzxBHAYajDM9kZ+GvfnAurr1rG2bTU5AX22z6FS25XY5bktWXpeTcu2laYsPSJ4dRD55GPXgSL73gONTCw5ie3I+dW7cjmaEbsUEutpyqNihVg2kqGB2H5B5mpmJJekkPNzou5EiDaQT1Gpr5MB59KsNjT9TRTHYhM9vFxpRKQKvNzcAA2iIRe6IkypR9qjnONKhTc7JpNP8KCD7vVQ8w1Wm33JYeYJZLqbUIMBJoyUOuIMO/zQUYpzJyp1AvBKcfV925Xgrr81F1jDyuAqRIZC4OJkBE110m6Q8MwmACI+ETuOgFB/DWC36MneHdyJnIq+ojZKt6Odu68kkohvY8DCSQENkM9hfPx9/f82J8+fYRtHA6imKHzfHFlbLeWTYliyaS1P8CE6JgcjXmYjYhsjRDGIbIs3HE0X6ZfxRoTjIkNRi+bzSdfpXH7SXdUZrbTOzulDQKSoyajJXYkZsE7SJDFjaQBWNoJdsRhqMImDHZejPaLJ3qriyMAT3KyhKMB5gq67SabTzA9IH6qynBqO1FeXD9ky0L0JlX+QK1f55/pzo1Wx9ocUy7KNte5qSdt8Bj7cViJTA5IoxjOHgMl5w3jbecexd2mh8K+XqAGDvdaj2IwkfCmELGg2rGBRQ4kD8fX/jBC3DdnaOYLk5FVmyXeBBhIiihWZflI2m9MKNAz6xA0ukzfZAmktRoen7TSgKVF65sFCnbUObWsFf1meQkoC+ZevlRIrHUn1PhtWNHtJmipVvrseeyDsi4e3u8BNMb/ZbT2gPMcqi0xDurCjB9GP+67kJZ5q43mHD21iBsU+KoKouuvIcxisfxuvOm8Uvn/AA7wx/Kxb6qD43ZxiC3Oc2YpuZg9nz8w13Px/V3jmIKz0VabJcAS8lDZhzAOBfp9Sp9rirVlRXz9WAGvggeYPpAYg8wfSBi1S48wFSl3KZv5wFm8FvAA0wfaOwBpg9ErNqFB5iqlNv07TzADH4LeIDpA409wPSBiFW78ABTlXKbvp0HmMFvAQ8wfaCxB5g+ELFqFx5gqlJu07fzADP4LeABpg809gDTByJW7cIDTFXKbfp2HmAGvwU8wPSBxh5g+kDEql14gKlKuU3fzgPM4LeAB5g+0NgDTB+IWLULDzBVKbfp23mAGfwW8ADTBxp7gOkDEat24QGmKuU2fTsPMIPfAh5g+kBjDzB9IGLVLjzAVKXcpm/nAWbwW8ADTB9o7AGmD0Ss2oUHmKqU2/TtPMAMfgt4gOkDjT3A9IGIVbvwAFOVcpu+nQeYwW8BDzB9oLEHmD4QsWoXHmCqUm7Tt/MAM/gt4AGmDzT2ANMHIlbtwgNMVcpt+nYeYAa/BTzA9ErjAkgCYBbAvmvux4evuxeHot22vGsudS2Y7Jf1SPiwxgUfKaAk2X5XOZ3vEan6y/nrbabeTsJeKf1kx21rv9sk7JXJKLVsuk/nbzKu+ZmCObZubZtONU9pXk47Xypl7Oq8mxwmGMdo8TguZbp+ZlM2P0QvBZMrz7k83yKHMVK7UeqohDA4kL1A0vUzm/I0TkFabJMiXlJfi7VbOin2uX8WolM/RrZO+ughmXQXYLbis799PnbIFmIxGhY40Edzc5dKErjtZ8tDsPyA26cyFLffAqm6JH3oz13dIJfpuz/nvvuNzsDmnARbt7ZzQtyq9kC2FW0MDzArItcCL9v7eDYAPvGle/GRGx/GAbMLiOtA1obJZxEhlXKxUg2jaCvMBEMoWLtctnJ/NtvKp2IPAS9zudA5GdYL4Ti1gBQroyNiSd5c5oOsCRNECMIRZO0MiNiuYtEtqVzI0rg6fy2bxnohBgXpJaAcaMUqXqpJW0ogR3GIPM+Q57mOTRrb8bN0sPydFRC1AiRrxiM0CMwUxvLHcck5U/h3596NXeGPkPHfWatkAaBn6vyln+prp/dZARMZJFmKWhjDtAocDl6Ez//ghbjurjHM5M9BhjG9qGQ+rmgwgYZTZAWZ5Yxz6ZmsxzeE+kebPhmY0Na+abeBKIJhEbYkkd0dFwkuOn0r/up3zsdOwZFEdmOCWLqNhShaepy0lj0l31RmS2vb2GLlsqBkILXKWo5QysOxjyBPFHxY4S8ic5mhsKUaqtKdZ4VHMA6NlpeWgYRyo3AUHGfNdu7Yry4MdSrsVP38stp5gFkWmRZ/KU9SkUbSCLj1CeCt//tLeCY6DqgNy2Vo0im5RFMBGEILa6lzOwzbaox2Q/Y4jmqth19UAAAgAElEQVTNLfc7D2C0oiAv+xAFL3m5uxMgylELEqQJa7CPIgjrKHIqCKsDjEJcmftSkFFwMTC1GvLpKQGSgECQJjChjslEIdKU9GQ5ZMurEWAE82I50BHrpxggZUVLM41a80G86YI23vTC70s9mIVAhMDlAIfSxeJPr8W6OHROJEArbQnA1NMQT83+DP7p4X+Lf/pujGZxAjKM2iEQUYwKMLbMsYLL5gWYpaYexjEyAkvI/ROgIFOSKRNSrxlErUl88JdfgQ+8vIHjZDlnuLGQ2Ks5lq3JqnCUdXmGWa3T/SyzAEPQt1Wcc1uvxxBcQjkZbBW2m8ooFQoAvA7krz0wl1pFVPdnmLZ0G4R16d/qGRAJ48Tx61jcSTtCMqt2gSzZygPMkiQ62gtcLt1klEu+ce8kfuMTf48DjRPRLHjBBYhFcAmQmNhKCeQ0+EPyFtwRBJhqJWt7Grq7siwLKEBiuTUtd64AgzDSqodZEyjaiJFIcaysaACcE6slVgQYBS89tHOkOKdm4HFIWqiPDKE1PSWcZ70xjNnZWUBqtBdAZAQMjQBMgEwOLf8XwZBDzKbk5Gd5gTBuYaR4FK87fxJvueBujKV3IGSlSHKVjh4BSxcHorbi75m9jBamde8AQ4kkyRIE9RC1uIagCexPz8Hf/eBcXHfXEFo4Dkkwai83t0acn/DFdv9UBPh+bKC13gf3SJIAsTt/xBqWk04RJlPYiUm85zUvxh+88TRspRormQJqdaSo633dARMtSd4BGEEZd27tHpbtwMu8QB4QYPR0c6XiNLOSeIBMJE/InqwZBaeqjwxPtA5krKiJ4FjsPskIdmTAKHbV5My4naJKWbZ256/qCI7ezgNMT3TlcmVoZRlM2MA4gN/6xHX49oP70W5sw0w7J9MvGzMxNeGiLfuDIKd6jPvV8Rs9DaRSYwJJyEuYgBFQ1cKt2eVxOO6MQJNnaEQqfXFjFmGMZtAQFQA5J+XJVv5Q/ZZSleDAzaofCFgEB36LevI8SxBHEdKMqq4YKdV3YQ2GByptyyUQZnpQ0jLAIEMjpiotRVIYNOoJipkH8dqfS/Dqc+/C8cP3I8pSGCuxUGopa8UWUpsdOcvqKjL2FZkQSZ6hqBnkuUE2FSBpvAwf/9IQ7j9wBmazrUgwLFJyTg5c9kuAoqiryowllCvSf+UrtrZayPyt6nCxkQWBUVVUQPqydLRe52QctkYptrZ+iq9d9es4HsAQpY+8CUQxCtRF0InkriZoWMZFLnTLK3ZkBb6k6jNhegLaXLvKbyrEQmFUuNcDEbbdruHeFYauwqPsDaXtDCGleotvlGpF8KZKW/YLiUSAjYUd5KNn1gNMBbIfyyZED3IJXM0I4xlwKAT+z1fuw+e/eiNaeQRDMTkIkVCNRmMumQzKPDkvULU7rJaKw1CFlIuVRS55t89FaSVGyhBhVMPs1BTG4kDMHc0kQRLWMBsOybwbRYKIB7PCIxaeIJXv6vfV7iNqMwEYgl+GKIrQTkjnEFFjGIcmZuT3iGqPrCVqgChTp4nUkHskYWkuz9GeOYzR0VFkCNFuTmD31hzBzK34b+8/FfXse4jxLCIza6UWlV54IfECoqqM39ZnsVugN/6TKr6wUcd0miJL69gaPwfT6bn4w784hGdmz0JebEeGIZlTLuo/qkK471TlqurFijdUhTVba014OR9tBRygKPOgkikl4KGhIZy792T82hv+LV5+GrCdwnB7GqgZgGq0cBhFx96lR7Rs69JvKoOp/+j2iVLISSlk2/KkKVKTSBZBJC2SvEAcBlZCqk5Vmh675xZSAjyk1lW2bGptQhwiNRFU/enD0eqJ72X/Lj1uL8EsTaOjvNEVk9NWTqUuZgD5NQHgvicASqnyFpltA1HhkPOq0w4o3mWrdz3w+5EYjtVGLjpa65jk/iyMUQIMB0CrBbS4M0eBw3ZOYerUCCsnJL9rTfRCB16iHfmJnB1VC+QGU6AWAe2WkFiYRI6r2QRqsX4/ss5Vadjth0dnrA5McjGMtjF5gpHwSdSTf0E2exeS9BGgmFCHAbmxC7mEHKh0pZj5l7g7nNUZBM6/Ua9jfGoKwcgQonALmvsjbNn5MiRjr0YzeK7ajAWAu2sjmhA7nM0LLd2r0dFioR3IZRVbhyUU+QVqzBoN4OzjgS0ARvhLcLqNrDWDcGhI9hyZq+4dXLYUui/x4FhzuniFWqy3Z4l/FZsr1WZywAwySuIWlgg0TlG+8tOjQ3N+ne7TsoXtrzBXvOwyIWoBdgCjqu3q+3c5Y/YAsxwqLfIOtbJJnsiFFCJCq50hiEIRgWmT4WJS/6qSim4Gbi7+fcj+vgZM/HMsIM4Q6DYu58CxNjifApgOgP0Avvck0AyBu384jUL4oWoPPdZoi6GEoVJTIJJHWKTyKyoSmHQWv3rpCTIGPtvswbTYJz9zFgke2jlGTkv3sqm+zveLZxEFUzjcfATtbAqtVgtJkgjQkNNVTYrzLlsIXNx8u26qK6UA7UbZTI6RsVFM5jPYum0X9gw9V2Y4gZ1IYYSy8yxUalC2H9vM1pcy574c2ltZQ2hHunHPiJdVkqFGb8iMjixuPQ3ShB6LurPct+by++5UW8eUkjzA/mWNkmnxGiuKGIkxaAIYtwyTW7temITOd+YRgH3y3HL/cI5ydkTbwp8QGC3UyN+P5siyHMou/o4HmB7o19GBqr+T5Sp1G9NawUuK3HWHwwo0ZkY0tnKTW/aqhzH0tamNr6C/jM5ND5tYN5p6KvYb4M+vfwhXfeGfxM7UyoeRgVf2yh/ndiuuyVSRCcBQshPrjwBMLaAraRNxMoW3v/FV+I03nIHhAthGLj5vIjVsEyGmyoheoIauo5nomglVZP1jQ16NkE/4CpEmCWohuVN6FykrwFZs0TW5UrtNF2rHHpTnV74SqgOM7ISCxlcyHtMIUUOQ1oGwgem8hTisI6YruwhLLv7IXXHWeNuB1pXTf923sBLvUhd0m+stQEEVUqG2O/lLBiPiO8+h2vCyzDIY/JtIsvruwsokp57s+kK61XEXf8A9FkQYzw3aBrjjkRyf++I1aIm7cq3HIAXalYA4ipElLYHBiJ6V7TaGhxo445STcNkbzhQJbTu95joSCyUqZ5vxALOGz4EN/GMQnNuFIqNQv6Mbuqsi5yZWd1luS5oRVW4fHPewFOGc/rY8Cj0y/E+PiEgUVEnlQDsEngTw6is+g4O1EcxGI0hpgLbRAkt9b/6/qw1IrS4a+zLXYVkgLmAcQQrTmsC2YhK/8aaX4zcufS62ZRT/E+Ry8YYwuZWixIBKaFDRXwCeHw4IJKnG9aAGY20YenvPtyG5i8ONeCFeuaPM60GPTbUJ430KZBJ/ESES70NVp1IWi5zxWFGmq0MU477upE1rgimpola69/i+2inoZk/S1mRvlBWf5T6PlFzcT7RFF2q62gp5I02RRhGeAfAXNzyOv/jS1zCR1YH6KNriXNMNyFzpHMRmGSgDEhWpOMTYyDVhDhkeUS9a+PB//g947SnAVjtnQikdZ+iV6VVkK6X6MX3fcj/OkiB3jlXSONFTdh7/l6h3ieFGVtF1sOa1pQnBUc2NWHZtKMMowLRSoM5AwKk2stEa/ujLj+FPr78NB+MRtEzDustWBEkr3QkT6ajBWJfO0C0HGRQIWlPYEUxiT/pTfPWq3xSvn1retrcEJRUNrFShi30odW24CGDI8atDQSHwHnW0z0uvw2IA4/TXS/ew6GqIYEKA4dgihBb1qWbtKF467DMdEOx9KJ9cTEGy9NpvlDeWkl6ONk+BBQl8pqCr8SMLrehcK4X9ogT2zsX8Mjvi1F+8wg/lwNU3PIR9X7wF043dmA3H0CYHEcbWhazqLNS5SEV39fBUlbO4EWkgaTqL3cmT+O5V78COkmpZ5kxHo6PGefW+S7yKrAcaKp/P/2zwlJVM6KDIn4mSxgGMiMqMk6NYHKjVonNxrI4mXaPm9VB1IcJZMNStUjS4lj2bNMDHvzGBP/z81zE7vAOIGqJmqM5Buy87K4PzynG3KNVekfiEGpNjSzaOoQM/wbf/4newR9xKW1a1QYCxvp/Od9UBlju78nO1MLmMAZz50ibOhcClvGkqgqt0YRkUGxXO9ZC4b5sdQjU5zipmo9EdadwQOu/0sJE3a1NBa3qH8GrWGJGF9oPlWSygzAWYshdXmc3onKsCGA+AP/zyv+LPrv8emsN7MNMKgXhYYszQnup6eq10HWwwskj6RVtc+4XFFY8xqq3J0c7ixOKn+H+/81pcfMaYgFB7Zga1YSrOlt79Kx3S/Pc9wPRAQV5VTERCTb3jflQy6fJCAjPcyAIw5C7IPdOF1gEMN+zqAYyTo7qaZnvJy2YlGx0jzwoUWYbJWox3fPxbuOGBCbSHd2h6JdHlVouDcW6bOgbrVsDcbS5DGA9QNAyIi3KBaHY/To0O4bpPvBM7UmBbRDURQcgebQFsR8sFDk/pNZXQOIKlpI+luMul2h9tg7m1dyDiANdKY8IhOzeQWtfQXB6SqM5WZ//0cHT623SpJVrqawEzBKqay3k1llVeXYAp+UTbPedidHW3dZkBGZJ9nU4xV1z1bdz44AQOZQ2gtgUwdWBqUty8mK+wytMFN8orzHmozJMAjLFuREGOHTMP4+9+//W48LRhUZvJw5QyWd6Jn6ny/eW08QCzHCod9R1KMAowfHSDqipGOWSaia2KzHLPeq2p/rOXVBE9D90ZtY+QpGgE5C8N/mOuLJ6Wgwjwto99E996rI12bQtS6s8Cwmu1C07jbVRC0Yf9JBIDQ8pIpBAjkK0aaSibxNbpR/DNP/stnCDupc5OZM9MRxPubhy1IbnLQlfEvVs231Ybf6/0VwbFAV1ZZSrJRey4NRVPIL5AGpzbhTSdWa/3a6/zWK32vUB7eRdYOUboqpH76hbuFJDKDOo/6KUu7iOqmbJmMV0tG7woNlkbeJnnmIgM3vaRr+OfH29iMo2B2qjGdIWROJx0LY8ro6TGixEau7YXYW8Za0MJxnqMjU48gC/+lzfhFacNy7hTZk+KACYXqNMEuLLPruhtDzArItcCL8vGs5eYeIjpRlNDuXo48RH96JxsQN2UDqt1QYiCqKxCsn5WMhuJC7GGd4mBmcFEfRjvvuq7uPH+CTSnc9R37Ea7NVM9VYwAjLOzODUZA4c0yFLpp47egQmwNZjFlqlH8LVPXy4AM5RlCA3dm900XHpOh5guYWeXx+fX5qo8HLD1uhFW3p4zdABDY74edHVakFQ91HCgZaG2JkxJV/J1XK/OcTM+vc+6m+RIE8FoVgthrJzG1QUkMoKRtg2xb6jlwwGMgj7Bxa6JOJB0pdBxA7z1Y7fglkenkdVof6EXh6qWg4iSabWZqHuAk73sgKz3Z07GTBi0ACfiWfzley/ChaePSBAmH02SOehEMVQ8LC8fxmbcv8ubs6i/7Ko5fbikZ9Dsq4zv4OM4zw6375IzDl4Nuvg8Osimsrzj9mVIVonMAEjGv4RBikOI8M5P34pvPTSDHA3MtFIEsfjDVXw0dl/4cFe+oBM6ZtWMIbNSM0FhilrrEE6JxvGVT/2qGPkZJOc+rqoKBSZ5ZE2U9o4bZXRSSAmJBy+jCsGhTcXh99hMlVscc4BAIk3niVgcZqDMCiNixJ7nhC06LcgiuUirHgezjptX3X+OnKqYJAPIVDG6bwqjySE7LIrQXVMbOVXa3BQvpbQsdCIpbJblHNgfAu+6+i7ccN8BpIYSOZOwSmAD2ha4qpHf3TslV3lRgXGE1jaYptjRfgJf+IM34BdOpd3Fqu643ZgKx+kEqw1gyVYeYJYk0RIvlAFG9qBmXtVFJsB0EzI4DfuCOptex1G1vezRrsZZo0G6sTtMUMAQAfJtB2Dwzn3fwU33jiNnMsB4SMBnbl2WFQykYEClAgnFekE5Z1MQA4+9dMMIYVBgOJ3A1qlHcPP/+XUcx4QCHelL4VyVavaHJYDRLAX8TlsiqzU+ZkRBqJcwlhVMdaFXnYJL7EDl6FC9y2RsdMNWeYy6+lKaXPGK8wBTFVzcru8Y40USyCzAGAswGvSr3ma6KKzrZGXMrjQpoohbQL5HhVk3tf/+ALjsqrtw/b0HUNTI2LCA1DQk03Mn2WuVzcTz4mRyG6/VARjdXUxRs3PmUXzudy/BxXu17IOE/bgKHVU+u4I2HmBWQKxFXy1ddF2dk1OdzRV/O3+b06Yfg6jWhztgwr3JkEspLyz3rz3n2A+Dyz/9Xdx432GkpiGeN5XBRXY668EoITQXGamjB1qtU85Gw5s2wVg2gV3tp/D1q35NvMgYgeMuijLdlcYqGjr1gxr12beDUKeiXF0bhs7SBnhKdc7ujDinbkE095bbQS4OZvOqyKrt+G4r3Xlut1CCcapVJ83bvHilD5VjZYSZsYwQJXCVGyyz1nE8KXDQGFx25W246cFJsDoUvcdMTkCjhNpLNuOy+mPed9V9Vc7Y7vbT+NwH34wLT4u1fJPWVCu7sfZKykXbe4AZGGnXfsdzGGLxZOFPmHW1u/c6HGKRY39g8K59t+Hr9x9CYhpWrdXDPCXfmHKHLqOyQoIz8s8FmNFsErvbT+EGCzBMYr+Zjdw9UN437QMFFJBUkcbaLx3VWQd4dG8fNBHe8anbcNNDk5ihswbjXyQRpUvLXM0Go9yVPawB7UdUAGjGZikQKAFmBXa1nsHnfveXcOHpRgCGP5YMBiWA7QM5FuzCA8ygKLsO+l11gBFVnJUgbEE2565Mn36VYLQ0c5BnGMmmsCN5Gjd8+nJVkQ28msU6WEQ/xFWmgMqgjj1T/z8+3fiwA0GIy668A994cAotendJmiKrUlNf/+pz8ABTnXa+5WApsPoAQzdLxgZxnk7dZg+c89e3njBUKYxkk9iZ/BTXf/rd2M1Mye4w93A+B0th3/uGp4D1YHQA083s5fZxgAOBwTuuvF0Apsm8fZKl2bk0e4DZ8Htks05wLQAM8ydpiQB3NNUO041gVxVAnCUYzcaxq/00brj6CpFghoRLHLAbzGbdHH7ey6eA9dFwKjI1b3RVVAeDCO/61K24+UFVkbFgH4uEqYarRy8TL8Esf538m8eWAmsOYDqVLd3ISA8HMG2MZYfVBnP1+8TIX5M8Ut1SuMeWev5rm54CIjmrF6QrOa7g0o345x8PBgEuF4CZQJMuzAQYVlEV70ZVAVd+PMBUJp1vOGAKrAWA6eifOzYY6/3S0UvrATRZG1vScexuP4mvXf1bmuzSpkKvGqg2YPL67jc4BSTkMnd1VWxgo/VEcwX8CD8HAfzalXfglgfH0WR8jBj5ne2xRyJ5gOmRgL75wCiw+gBjpyYcnPWGmePHr7nQxNefRv50Ase1nxA3Zamhbp14PcAMbIv4jo9CAUkQxcJd4l5eLi1IT65uQWUFmO/hmw8etgBTg8S3z3FJr0hqDzAVCeebDZwCqw8wPJglGwrrWbCCpY1vkeBLet3QzsJat1PP4vj8GXzjql+RVDEsPOZSXwycWP4DngLzKKAu9QQZjf7Xx8Zm2YDMNAcOG+A9+76Lm+87hIx1lNq5ZlKWWs495sHzAOP35VqlwJoAmDn5a7WKJZNd8iHABMPbkE8zLb9hchoclzyFaz75yzjZepH1eDzX6tL4ca0nClhhRDNg2DRRQajxKAAOALj849/EzQ8cRsIifaaukf4s+JU7/7OKE/YAU5FwvtnAKbDqANOxhbp8sloq2UXx55RuUgaNMfo5wGh6GLubj+Kmq9+NE+nYnDSlJo0Lmh44wfwHPAVKFOD56eZTUBlGa7LQg4whxBrXTxXZr+/7Dr750ASmizrSeASZ5GCiCricYqYCeT3AVCCab3JMKLDaAMMYGB5ITZnhUp7YoBZh/gyCWgNFkiLI29iBKWydfAg3/9l7sacAYpa7layxPXjhHBNK+49sRArQzkITv3NP1uRDVJmRc2KyzABpnmPcGLznk9/EzfcfxnTQQF4fQ5Gx1lEMZFqOofLjAaYy6XzDAVNg9QEmR1xo7ZyUhdg6eZlKbsrMpGwKRMxFlk9iR/MpfO1Pr8BOUZGVMlkPmFa+e0+BIyhQin/RlJNOptGSxZLAvwAmAuA3r/w2br7vANrhENqmjiy37sm9Gvo9wPiNuVYpsBYAJhKAYRr0mk20aQMt6Z1jc5I1ajHydgumOY7d4Sz+5pNvk0BLJh/vJVXgWl0XP671QYGyQ70Ll7Q5jUWycYlkqSL7j3/yI9zy4ydsMbBQXZXJUDFnfi+PB5heqOfbDpICqw0wkrNWUsVQF80KfC7lOF0/W2rwZ0ZhJsMsAtRqdaA9g59/4dkIZvajzhSD1GP3kstpkAT2fW94Cric3W4va32jACkdVPindBbteAw3PTCBJKtJCUkmmsxZ0E/ApUf1rgeYDb/H1u0EVx9gHOlcvIuTXuhJRoBRj5zAREhoTa03gCST4mMNhh1klH58IrJ1uwHX+8BtNvBuyWNlmKR6UhCKNyTthO0gxmy8E4iHgdaUjZ2hq3KPaWJIPw8w630Xbdzxrx2AcYGWrk4AR8aYGAWPohOI2eX2eHir1jLfuCvqZ3asKaA7ssTk2D9yz4oEw6zggUFGZxRK6J3syX1ijDzAHOsl999bLgXWDsAsd8T+PU8BT4E5FPAA4zfEWqWAB5i1ujJ+XJ4Cy6SAB5hlEsq/dswp4AHmmJPcf9BToL8U8ADTX3r63vpHAQ8w/aOl78lTYFUo4AFmVcjuP7oMCniAWQaR/CueAmuZAh5g1vLqbO6xeYDZ3OvvZ78BKOABZgMs4gadggeYDbqwflqbhwIeYDbPWq+3mXqAWW8r5sfrKTCPAh5g/JZYqxTwALNWV8aPy1NgmRTwALNMQvnXjjkFPMAcc5L7D3oK9JcCHmD6S0/fW/8o4AGmf7T0PXkKrAoFPMCsCtn9R5dBAQ8wyyCSf8VTYC1TwAPMWl6dzT02DzCbe/397DcABTzAbIBF3KBT8ACzQRfWT2vzUMADzOZZ6/U2U02Kz1KvrErMgissZRFJ8nGXGN9V7WMR2P0weNe+2/D1+w8jNQ2peeEfTwFPgVWiQMHSZnxYtM+dWltjJsgA/qwIsLP1DD73wbfgwtMNavI+S11oS/f7oGYQFIUtujGoL/h+1ywFWNLVAYwW9+J+DDulXnXrWtxBhgMI8c5P344b7x1HZmoCML7g15pdXj+wDU4BMn0GyhhmrOwqDB8Bhk9qD2+E7e1n8Nn/9EZcdGqIhtTbTJBLsXEDM2CI8QCzwTfh0abnJBjyMosBjHI5ZIZS7A8ivGPf90SCEYCRzdynwkmbeB381D0FqlCAABMIi6gVNAVgXFEzp5FAjG3JT/HZ3/tFvOK5EYZYyE8AJkbhAaYK2X2blVCgow7jhgwo07CqeFeAFo5IjDUJDoUx3r7vTtxAgIlYs5j/5gFmJfT273oK9I8CZP2sSoy2GLHH8OzmiIpEjm0ahiWACTFMQJKzTmVZt0Js/8Y0tycvwQyKsuul344OjJwQfxFk+HDjhkDhACbFeBTjV/bdiesFYCLLLXkhZr0stR/nRqOAVYsRWHLChR5mUxSIikxOchIabE+fxl998BfxitMi1HnGc9pn1BozaIzxALPR9txK59MBGOF3uCVtD5ECjIBMIRLMeFjD2/fdIQCTEmDUPcByTiv9sH/fU8BToCcKBCqxUMUQ5FSXFcj1r4jlD0BiAuxMnsbf/O4b8IrTajA0/vM8B5G863roaRxHaewBZlCUXS/9Wh0ZuR3V6bZk5AVoYwllA4rZMG/jsKnhsn234Wv3H0JqYmRiVOSvwYva64WcfpyeAseUAgSZohAbaoEcOY9jYRBmei4zU2Bn8hT+9j++ERcRYEwu76VQb1HHJg5qzB5gBkXZddQvwUUBhnBhvVIQicJMRG5uxCLBwSDGO/fdihvvOyRG/iyILMg4z5V1NGk/VE+BdU8BgotBUBSIixR5kCONKJaEQEobaQCEGba2n1SAOT2CEXBRgOF5r1uQGRQpPMAMirLrol+NcnHOjtxw9C3hxqSibK41JsUhRHjXvu/gG/cdRmKGBGAo80BEdf94CngKHHMKlACGsTBJJOwgkBE6yDG2BWA+/7tvxkWnGTCwIAftMwowhKFBRrN5gDnmO2ItfVAdlemumFj/ecv3dADGidEhMhxEiLd//BZ869E2poshwPBt6nQdFK2lufmxeApscAo4/XWRI87IJgZoRyGKzABpAyaOkIezGJ16GP/4X96KnzsBGKZvDs9sQumGTgKD1XB7gNnge/Do08sBBlgGBBjyNsrR8LFx/dbCogZEBlq++8pv48aHZjCVjwBDY0B7Svvwj6eAp8CxpYAGqKnRvp3CUJNQr6MIaihaIZCngJnCibVx/OlvXopXn1lDmFN2oSeZ9UCzXs6DGrgHmEFRdj30S8lDACaw6i4K1wSTvCNCB9ykKmtjwgS4/BO34PoHJjA9dDyQFPSJ9ACzHtbaj3HjUYCAkuYwjQbiAkjTRJRf6vlZRxCkqMczqB28F3/9X9+FC0+LrUqshZA5AJptRI3hgYowHmA23rZb/ozI+Yj0EaAwmiKGqScIMJ2UE3kO8WcsDA6bEF97DPjgJ76An5ptSKJRIKWKbPmf9G96CngK9IsCtH8aNZamiZ7lRgSEEYI0QFy0UM8PYnf2DG751K9jq805WAsy0VcE6r5TSi/Tr3F1+/EA03+arp8eXSZLjljiKbnpKLGU0l26hGVhjKYBngXwgY9ch+88/CwmzRYk4RakLmhr/czcj9RTYGNQQNRkAWACwZogSJC3ZoEkwwjaGEsP4oo3X4TfvuR0bLEG/TxvIjIB8jyHMXQGGJwXqAeYjbHNqs+im83SAgslGgcwGiHMDZjnAZoB0A6BSQB/fv0D+MsvXo8WQSawHivVR+Fbegp4CqyYAgWyPIUJQ9VA5CmyZMeKOhAAAAIGSURBVEbU3Lu278Bpu7fhvW99JS54DrCN4JLkiKIAJiAr6TIqD9YI4wFmxYu6cRq4ZJecEQVlVXWVEIeaMfqJMQ0FHVNygElbiTnjpT97DdnG2RN+JuuLAjZwvxNSwHPszjUddho21iXMEpiQeQZDtNoFajU93GbAEQYeYNbXfurraJ32SwMs1SGl/DDFUUYzjZPCrY2myDIgrKOVZqhFGu3vH08BT4FjSwHNPabahjQPxJksttousaxScybJaKn2tqHUQY3aM4Q2A1Q44MPrAebY7ok19zUXwb/YPpsvnbiEei613oD355qjlx+Qp8DaooACTMlqKsObo/nuyDca9DL33wY7Gw8wg6Wv791TwFPAU2DTUsADzKZdej9xTwFPAU+BwVLAA8xg6et79xTwFPAU2LQU8ACzaZfeT9xTwFPAU2CwFPAAM1j6+t49BTwFPAU2LQU8wGzapfcT9xTwFPAUGCwFPMAMlr6+d08BTwFPgU1LAQ8wm3bp/cQ9BTwFPAUGSwEPMIOlr+/dU8BTwFNg01LAA8ymXXo/cU8BTwFPgcFSwAPMYOnre/cU8BTwFNi0FPAAs2mX3k/cU8BTwFNgsBTwADNY+vrePQU8BTwFNi0FPMBs2qX3E/cU8BTwFBgsBTzADJa+vndPAU8BT4FNSwEPMJt26f3EPQU8BTwFBkuB/w8Hm2XTLWY+HgAAAABJRU5ErkJggg==;" parent="1" vertex="1">
          <mxGeometry x="665.11" y="190.41" width="65.89" height="59.59" as="geometry" />
        </mxCell>
        <UserObject label="Event hub topics" placeholders="1" name="Variable" id="hd3xNhnKDJkrJA63kzbW-11">
          <mxCell style="text;html=1;strokeColor=none;fillColor=none;align=center;verticalAlign=middle;whiteSpace=wrap;overflow=hidden;" parent="1" vertex="1">
            <mxGeometry x="651" y="150" width="80" height="30" as="geometry" />
          </mxCell>
        </UserObject>
        <mxCell id="JRka7I_5vfYp1JgMhLxn-2" value="" style="shape=image;verticalLabelPosition=bottom;labelBackgroundColor=default;verticalAlign=top;aspect=fixed;imageAspect=0;image=data:image/png,iVBORw0KGgoAAAANSUhEUgAAAO4AAADUCAMAAACs0e/bAAAAeFBMVEUAeNf///8Ac9YAcdWGs+cAdtcAb9Woyu5VmeCew+y00fAAddfy+f260PAzi9wAbdS+1vIhg9rs9PwbfdhyqeQAatT3+/7R4/bk7/rb6fh/r+Yvh9tfneFloeLV5veJtujH3PSRu+pPld+bwOvC2fN4q+Wlxu1FkN4Co8F8AAAMpElEQVR4nOWdbVviOhCGS0uLSzlGYAFFUVAX/v8/PECb9CVvM8mkqZfPt3WRcpuSZibPTJLJr1Li8buL/TSC9otIuHuWRhDbx8F9ZkkUsecouA9lHNzyIQbuLtLgXod3FwH3NY+Fm78OjzuPNrjX4Z0PjhsP9qahcU9ZTNrsNCzuoohJe+V1XGs44v5N4+Kmf4fEfYk4T1ViLwPifkZ7CHHln8Phfkcf3Ovwfg+Gu4w+uNfhXQ6Fe448LVcqzsPgbkcwtndtB8GdRn4IcaXTIXBXm9icXJvVALhvkcJcWeVbeNx4Ya4sfOCLxn0cy0R1Vf4YGnc+iocQFzrwxeLGBuwrLG7cMFdW9hUSdzGSR26jEhf44nD/jQ43+xcON36YKwsX+KJw44e5snCBLwb3OMLBvQ7vMRDuGMJcWagkOwJ3NqoVRqNiFgR3lGN7Ux4C92NkK4xG2Qc97mqkt/JNBTjwBeMeRrfCaJQeqHHfR/kQ4mLvxLhjCnNl5Rda3KdRD+51eJ9IcdejHtzr8K4pcb9G+xDiAga+INwFIPmYpxmxcDdUDgp8Qbh72+Dm2eb13/k/Wr2hbqkM5C6D4D7bEulseXbYwLDqAcW7gbjLILgWv1i6djbCWPSJWdqA3GUAXEuYy/C5fLAumPGFBL4AXLNfjJ28oQy6IMYXEvjacc1+sQKZ+cTqEcELSLLbcY1XyBwdMHBheAEwthcYE+lujgGcXuE7jnZ3mQ13ZZwsPLynYG2XCF5b4GvDNfrF2hus2/PhkUyv7fQTgtfqLrPgmhPprTDznGZlTqbiT/tDLOApUFuS3YJ7MV2o9c2d0gaIWQd3sgAHZLbA14xrDnOblNiR2K/Rw50sEiivJfA145rvokIsY6id633cyQo6vpZnhRHX4hdjfB4krzmRcCfP0PE1u8tMuFvLijXjL5xTR/8y7uQ5B/KmpuDMhGsLc0X2fjYA7uSlhPFmJneZAffZlkgfFnfyAsxvFIbA14Br9YsNjHvlBf2yyV2mx7X7xYhwy1TKTKlxJ++w6xiWtnpc+8MFgVtmVb2i9B8pSw5fs/n59JkWzd2kwZ28gzaqDIGvFhdQFgXHZYfV4qbtsvcO2VSMxPbpUPC/sA53sgPx6gNfLe7a/q5Q3DQVS53uuiVfd2eVFU9eaHGBhgltkl2HC/GLAXHZW/Mk7ODmiZQbrrei9LgwXm3gq8FdQCYFEG6Ztu+sDq5i366OwAy4k2/I/ZxqkuwaXFBZFAQ3++xcuI1bnBQXriZIE+7kD2AodIGvGvcFFOEAcMveZVu4whB1Xue52AOo3sqIC1qyapLsalyYXwyAm/VcMS1c/nQ8b24/E/lbItxcnWRX4gL9YhDcOj7Zz/q4PFLjS9Wyns/utsvMFNbAAhJ1kl2JC0yWgHFnyUbC5ZMnnyX4YN8Xc9lpsZKEw1UHvipcqF8MeDMfX1mSzfu4HE+8sk6NbO8Xz5ikDZ/zgOGm0l2mwgUnhuy4yfp4Ydf3k3HLmo5PiqKuQHdrlUhcpbtMgQsuiwI9d6uFoYTLc2grMU3wqqA3KlyVu0zGNSfS20KECBJueejj8p/sNX9tNK4qyS7jwv1iPrjpvo/L5xbdKgKPq3CXSbjv8ByqDy6fmGVc3ZvhcZONtEqVcBF+MS/crwFw5SR7HxfT/cPrZtbi6mgccOUkex8X4xcbP6601ujhovxio//uyovvLq4tkd5VmJn5TImbZN0kexcXVxZF+9zluLo8iiNu113WwUXu9fjgyqsqXlt+0KS33XB7SfYOLrK/mA9usuzj8v1E3ZayI243yd7GxZZFeeFmfVweIpGFCL33lXCxZVFeuKyaQxZiEVenW7a6t3DF7TyMWrjosig/3Po71f9U2hyoK24n8G3h4t4k8cTlX9W/9e/ybegn3R/dGbfdT6TBxZdFeeGmdTS6qLYrxC2nm5g9cFuBr8CFh7lCXrjC0fd0z0Ru6tXtVjtdeoxuE/gKXIeyKAhubdnnqbl1cf/n7X8Kvnz/XhZFwr9fJ+3H8MBtAl+O61IWBcBNP+qUYv31qf7xdGNqNb1osoyGHT4P3GZ7huMa/WIaOaTV6zv2PoSKXWftUyjxwxWBb43rVBaFSKt3Va0tFD1NLoZlnQ+uCHxrXKeyKOfRrZdS6aW3T2esLfHC5WVVFa4u6LK8hx03VZbW8pVjWU4by+Z2vjR+Ci9cHvjecXFhrhBoZlb9sLllU7ben793x/9OD8ziI/LDrd1ld1xrWZRaNM6bNCtYAagJ88StAt8brtUvplE4X5VKnrhV4HvDdW2j/bNw72VViUd/sZ+Fe3/OJx5m5B+Ge3OXJZOZsxn5h+EmbPb7cH/ZzfxrpqrN7jc+iH7bMiP8IjJPC3ZdKXr1kSFbRNbhNlpA3Dxjn1/fu91xvk+YfKUceG/RhQiODaZhuOVy3iQ+X6Z5b6LIXuuE89HyGegCwHDh/fVTPna3HLedfgl5U8uuTTDzN6IL74Mlb67XkaqYWs/5bNmE90Fxe8mbUKm5JJWNtuI5n7N2hVNI3H5qLlTitfGdNslXnlvP151UZEhcKfEaJq0utiveb/l0zl4bQPKuqS0grpxWD7Npwng2vcrN1Lt+i+pO4uUg2+C4ik2TEFti3IDBl6ncblNte9W4s3VoXNWWWIgNz6yeD3kFP0+kP91ff8c8LovguMoNzwDb2UX9CYVbq765K8vL9RH18sDyJDSuZjub3KwgdkWEf4nXc99fXx727HZXB8bVmRXIrSiimEdUJfFt3uopn1c/DoyrtaJQG41E/7e/4n2L6tqd0uCwuHqjEbWNTOyHtXCryavjzguLa7CREZsE9bgfg+GaTILEFlD+TZVxO77HsLgmCyitwXcEuGaDL619Oz6uzb5Nas6Pj2s151OWXuinqoFw7aUXlIU1KtzqOLuPYXABhTWI06SsuHyeaGq9a1vvfpAHEaRsirAoTpxtJkaXr6IPg6yqQEVxdCWPOV+/idHlNdOdzFgoXFjJI2FBK38MiHs3rc+X6fxBQ+ECC1rpypX5kkb8f52t6u45BsIFlyuTFaPzBCA/U4E3o+nWzoTBVTe+CdpqQMxV9eKlUFZXhMFFtBogaySR8lfckjRJUc/L3Xs5D4KLaSRB1iakEA1gzssy+aq/yg/1HzNNbi0wS47Lrv9ISu1TH4eLahNC1QRGeS7hiQ+j8soPuhsLhYtrAkPW4kfRxWfH7xx1lyVd6T0SF9fih6qBkzw/rsToqXG1CRUMrvaUhNDtudJL90v0vLbgkowuuj0XWfO1nB2eRAJlN20ZefPdQtZW1zYDg+vQfI2utV5ZlJ/Tr9mfj7eeNaNut9eV9qpwXJfWeqSNE/M0zbLU75xiOK5T48SYbTFVAuO6tcWM2fRUSQHFdWx6Opla3ndY3ByIazww3diw2LK0EiviQXDFLq2tK6Vrw2JrO2r+xjYHGIWa6dZc9OTejtoW+Io29foqVDo1bZe1C5GbfJqN21rJi6f5W/hDAjciz2a0gLFvD1zzWwuniYttB6mNuEe3pm+O30EBlmMgRHP1yTHzW0NYlG9O4lLGidnzGAhz4NvczZPnC6M+Ok2oYI+tdZJpV8f3kA/zbdqZF1bzP4H01E6PG/No3ke4mANf86wfRKaHhf8BPbbjlyDHs1HK7O2z/rrn4VpDnL/UlvHJSHK4ljnwTVHnsPvK2Fqd5ug0S5I9ewSdJkkic4YFcvQVANfiLisTZb4+gMyHHpnCXCEIru1QS/ZmebiTaLY2L93IDrW0llWVm8s86BS93X2Uls9Ad2Qp4EDaPGPry0MgfT5mzLooJzyQFuYuozs5TZL94sZu7Fjc8R8mDXz+A3F/2VHhTmVVw4n6IHinsqrhpNho9MN1KasaTAq/mC/uaoBso6sKW5iLx3UoqxpKKr+YNy7YXTa4VH4xf1x0WdVAUvrF/HHRZVXDCBLmOuFiy6qGEeT8dydcoLtsWOWodAoK15xkjyOGijxRuMiyqiGU/UMB4HAXo8MtcZkyHC7IXTaktH4xGlx8CXdgYT8+8vXzUa01AIl0P1xMWVVwKQ21tLjOvcsCCJJI98RFlFWFVgkOcz1wV/CqucDagMNcD1x4WVVgGf1idLjbsUxWJr8YHa5j7zJqOTkHXHBHEfi6baQ74X6P4GFk8YtR4o4g8MWFuZ648QNfm1+MFBdWVhVQVr8YLe4i8uScORpCHHEjB752vxgxbuTA1/lTu/5izMAXHeb647o37fYWKpFOhRsv8MWHuQS4zk27fVWqC69D4yJ7l5EJl0gnw53smapmMbQYyC8WAHexn0bQ3sdy6oP7A/U/DlblX4mjmR4AAAAASUVORK5CYII=;" parent="1" vertex="1">
          <mxGeometry x="505" y="270" width="55.89" height="49.78" as="geometry" />
        </mxCell>
        <mxCell id="JRka7I_5vfYp1JgMhLxn-3" value="Azure Blob Storage" style="text;html=1;strokeColor=none;fillColor=none;align=center;verticalAlign=middle;whiteSpace=wrap;rounded=0;" parent="1" vertex="1">
          <mxGeometry x="505" y="330" width="75" height="30" as="geometry" />
        </mxCell>
        <mxCell id="ew-Tfl2Zkgsu_rKpg-lf-2" value="" style="endArrow=classic;html=1;rounded=0;exitX=1.059;exitY=0.6;exitDx=0;exitDy=0;exitPerimeter=0;" edge="1" parent="1" source="tOrK9hFt-kMtYHbN_-x5-2">
          <mxGeometry width="50" height="50" relative="1" as="geometry">
            <mxPoint x="390" y="300" as="sourcePoint" />
            <mxPoint x="500" y="300" as="targetPoint" />
          </mxGeometry>
        </mxCell>
      </root>
    </mxGraphModel>
  </diagram>
</mxfile>
